<svg xmlns="http://www.w3.org/2000/svg" viewBox="0 0 600 600"><defs><style>.a,.c{fill:none;stroke-miterlimit:10;stroke-width:12px;}.a{stroke:#52cefd;}.b{fill:#52cefd;}.c{stroke:#039ae4;}.d{fill:#039ae4;}</style></defs><title>adoptAPet</title><polyline class="a" points="264.27 376.91 264.27 405.26 137.7 405.26 137.7 376.91"/><path class="b" d="M219.65,333a12.85,12.85,0,0,1,25.7,0Z"/><path class="b" d="M213.47,357.43a12.86,12.86,0,0,1-25.71,0Z"/><path class="b" d="M155.43,333a12.85,12.85,0,0,1,25.7,0Z"/><path class="c" d="M236,269.5h-70.1l-42.08-24.05a4.67,4.67,0,0,0-7,4.06v102.7A23.37,23.37,0,0,0,134,374.73L185.35,389a58.45,58.45,0,0,0,31.27,0L268,374.73a23.37,23.37,0,0,0,17.11-22.52V249.51a4.67,4.67,0,0,0-7-4.06Z"/><polygon class="d" points="215.59 332.59 200.98 347.2 186.37 332.59 215.59 332.59"/><line class="a" x1="133.84" y1="337.26" x2="155.44" y2="337.26"/><line class="a" x1="133.84" y1="353.62" x2="155.44" y2="353.62"/><line class="a" x1="245.36" y1="337.26" x2="266.96" y2="337.26"/><line class="a" x1="245.36" y1="353.62" x2="266.96" y2="353.62"/><circle class="c" cx="201.45" cy="419.43" r="14.17"/><polyline class="a" points="455.29 327.03 455.29 364.24 328.72 364.24 328.72 327.03"/><path class="a" d="M427.06,331.29h0c0,6.45-8.72,11.68-19.47,11.68H376.43c-10.75,0-19.47-5.23-19.47-11.68h0"/><path class="d" d="M370.93,254.17H345.32a12.86,12.86,0,0,1,25.61,0Z"/><path class="d" d="M438.69,254.17h-25.6a12.85,12.85,0,0,1,25.6,0Z"/><line class="a" x1="392.01" y1="284.27" x2="392.01" y2="309.08"/><polygon class="b" points="413.04 268.2 392.01 289.23 370.98 268.2 413.04 268.2"/><line class="a" x1="328.72" y1="254.18" x2="328.72" y2="330.11"/><line class="a" x1="455.29" y1="254.18" x2="455.29" y2="330.11"/><path class="c" d="M464.6,220.21,409,205.94a68.19,68.19,0,0,0-33.88,0l-55.66,14.27c-11,2.81-18.53,12-18.53,22.51V352.44c0,3.58,4.2,5.84,7.57,4.06l20.27-26.39h27.45A31.28,31.28,0,0,0,369.75,327a29.14,29.14,0,0,0,8.21-5.87L392,306.74l14.05,14.42a29.23,29.23,0,0,0,8.2,5.87,31.36,31.36,0,0,0,13.59,3.08h27.44l20.27,26.39c3.38,1.78,7.58-.48,7.58-4.06V242.72C483.14,232.23,475.56,223,464.6,220.21Z"/><circle class="c" cx="392.79" cy="378.41" r="14.17"/><polyline class="a" points="526.74 194.67 526.74 471.81 73.26 471.81 73.26 193.71"/><polyline class="c" points="550 196.19 296 128.19 50 196.19"/></svg>