<svg xmlns="http://www.w3.org/2000/svg" viewBox="0 0 600 600"><defs><style>.a,.c{fill:none;stroke-miterlimit:10;stroke-width:12px;}.a{stroke:#52cefd;}.b{fill:#52cefd;}.c{stroke:#039ae4;}.d{fill:#039ae4;}</style></defs><title>adoptAPet</title><polyline class="a" points="263.12 382.38 263.12 411.63 132.5 411.63 132.5 382.38"/><path class="b" d="M217.08,337a13.27,13.27,0,0,1,26.53,0Z"/><path class="b" d="M210.7,362.26a13.27,13.27,0,0,1-26.53,0Z"/><path class="b" d="M150.8,337a13.27,13.27,0,0,1,26.53,0Z"/><path class="c" d="M234,271.52H161.64l-43.42-24.81a4.82,4.82,0,0,0-7.22,4.18v106a24.11,24.11,0,0,0,17.66,23.24l53,14.73a60.33,60.33,0,0,0,32.27,0l53-14.73a24.12,24.12,0,0,0,17.66-23.24v-106a4.82,4.82,0,0,0-7.22-4.18Z"/><polygon class="d" points="212.89 336.63 197.81 351.71 182.74 336.63 212.89 336.63"/><line class="a" x1="128.52" y1="341.45" x2="150.81" y2="341.45"/><line class="a" x1="128.52" y1="358.33" x2="150.81" y2="358.33"/><line class="a" x1="243.61" y1="341.45" x2="265.9" y2="341.45"/><line class="a" x1="243.61" y1="358.33" x2="265.9" y2="358.33"/><circle class="c" cx="198.3" cy="426.25" r="14.63"/><polyline class="a" points="460.26 330.9 460.26 369.29 329.64 369.29 329.64 330.9"/><path class="a" d="M431.12,335.29h0c0,6.66-9,12.06-20.09,12.06H378.88c-11.1,0-20.1-5.4-20.1-12.06h0"/><path class="d" d="M373.2,255.71H346.77a13.27,13.27,0,0,1,26.43,0Z"/><path class="d" d="M443.13,255.71H416.71a13.26,13.26,0,0,1,26.42,0Z"/><line class="a" x1="394.95" y1="286.77" x2="394.95" y2="312.37"/><polygon class="b" points="416.65 270.18 394.95 291.88 373.25 270.18 416.65 270.18"/><line class="a" x1="329.64" y1="255.71" x2="329.64" y2="334.08"/><line class="a" x1="460.26" y1="255.71" x2="460.26" y2="334.08"/><path class="c" d="M469.87,220.65l-57.44-14.72a70.39,70.39,0,0,0-35,0L320,220.65c-11.3,2.9-19.12,12.41-19.12,23.24V357.12c0,3.69,4.33,6,7.81,4.19l20.92-27.24H358a32.39,32.39,0,0,0,14-3.17,30.26,30.26,0,0,0,8.46-6.06L395,310l14.5,14.88a30.45,30.45,0,0,0,8.47,6.06,32.39,32.39,0,0,0,14,3.17h28.32l20.92,27.24c3.49,1.83,7.82-.5,7.82-4.19V243.89C489,233.06,481.18,223.55,469.87,220.65Z"/><circle class="c" cx="395.76" cy="383.92" r="14.63"/><polyline class="a" points="534 194.3 534 480.3 66 480.3 66 193.3"/><polyline class="c" points="558 195.87 295.87 125.7 42 195.87"/></svg>