<svg xmlns="http://www.w3.org/2000/svg" viewBox="0 0 600 600"><defs><style>.a,.b{fill:none;stroke-miterlimit:10;stroke-width:12px;}.a{stroke:#52cefd;}.b{stroke:#039ae4;}</style></defs><title>airQuality</title><line class="a" x1="61.73" y1="300" x2="413.73" y2="300"/><path class="a" d="M323.68,161v-2.73A79.27,79.27,0,0,1,403,79h0a79.28,79.28,0,0,1,79.28,79.27v6.46A79.28,79.28,0,0,1,403,244H61.23"/><path class="a" d="M201.73,438v3.73A79.27,79.27,0,0,0,281,521H283a79.28,79.28,0,0,0,79.28-79.27v-6.46A79.28,79.28,0,0,0,283,356H61.23"/><polyline class="b" points="391.35 372.27 430.95 411.87 538.77 304.05"/></svg>