<svg xmlns="http://www.w3.org/2000/svg" viewBox="0 0 600 600"><defs><style>.a,.b{fill:none;stroke-miterlimit:10;stroke-width:12px;}.a{stroke:#52cefd;}.b{stroke:#039ae4;}</style></defs><title>airQuality</title><line class="a" x1="50.52" y1="300" x2="419.07" y2="300"/><path class="a" d="M324.79,154.47v-2.86a83,83,0,0,1,83-83h0a83,83,0,0,1,83,83v6.76a83,83,0,0,1-83,83H50"/><path class="a" d="M197.11,444.49v3.9a83,83,0,0,0,83,83h2a83,83,0,0,0,83-83v-6.76a83,83,0,0,0-83-83H50"/><polyline class="b" points="395.65 375.67 437.11 417.13 550 304.24"/></svg>