<svg xmlns="http://www.w3.org/2000/svg" viewBox="0 0 600 600"><defs><style>.a,.b{fill:none;stroke-miterlimit:10;stroke-width:12px;}.a{stroke:#52cefd;}.b{stroke:#039ae4;}</style></defs><title>alert</title><path class="a" d="M277.74,138.74,105.05,437.86a25.7,25.7,0,0,0,22.26,38.55H472.69A25.7,25.7,0,0,0,495,437.86L322.26,138.74A25.71,25.71,0,0,0,277.74,138.74Z"/><path class="b" d="M236.93,110.57,60.24,416.6c-28,48.55,7,109.24,63.07,109.24H476.69c56.06,0,91.1-60.69,63.07-109.24l-176.69-306C335,62,265,62,236.93,110.57Z"/><path class="b" d="M274.11,233.45h51.78l-9.74,129.47h-32.3Zm43.15,159.72a23.09,23.09,0,0,1,7.24,17.12,23.82,23.82,0,0,1-7.1,17.27,23.13,23.13,0,0,1-17.12,7.24,24.13,24.13,0,0,1-17.54-7.1,23.44,23.44,0,0,1-7.24-17.41,23.09,23.09,0,0,1,7.24-17.12,24.13,24.13,0,0,1,17.54-7.1A23.5,23.5,0,0,1,317.26,393.17Z"/></svg>