<svg xmlns="http://www.w3.org/2000/svg" viewBox="0 0 600 600"><defs><style>.a,.b{fill:none;stroke-miterlimit:10;stroke-width:12px;}.a{stroke:#039ae4;}.b{stroke:#52cefd;}</style></defs><title>alertUpdates</title><path class="a" d="M262.45,140.08V107A33.05,33.05,0,0,1,295.5,74h0A33.05,33.05,0,0,1,328.55,107v33.06"/><path class="b" d="M328.55,458a33,33,0,0,1-66.1,0"/><line class="b" x1="449.94" y1="212.19" x2="449.94" y2="332.38"/><line class="b" x1="486" y1="174.93" x2="486" y2="369.64"/><line class="b" x1="141.06" y1="332.38" x2="141.06" y2="212.19"/><line class="b" x1="105" y1="369.64" x2="105" y2="174.93"/><line class="b" x1="173.72" y1="350.81" x2="417.03" y2="350.81"/><path class="a" d="M412.38,315.46v-60A116.58,116.58,0,0,0,295.8,138.87h0A116.58,116.58,0,0,0,179.22,255.46v60a116.57,116.57,0,0,1-25.62,72.91l-26.24,32.75a10.47,10.47,0,0,0,8.17,17H456.07a10.47,10.47,0,0,0,8.17-17L438,388.37A116.57,116.57,0,0,1,412.38,315.46Z"/></svg>