<svg xmlns="http://www.w3.org/2000/svg" viewBox="0 0 600 600"><defs><style>.a,.b{fill:none;stroke-miterlimit:10;stroke-width:12px;}.a{stroke:#52cefd;}.b{stroke:#039ae4;}</style></defs><title>alert</title><path class="a" d="M277.74,143.24,128.26,402.14a25.71,25.71,0,0,0,22.26,38.56h299a25.71,25.71,0,0,0,22.26-38.56L322.26,143.24A25.7,25.7,0,0,0,277.74,143.24Z"/><path class="b" d="M236.93,125.63,92.61,375.6c-28,48.55,7,109.24,63.07,109.24H444.32c56.06,0,91.1-60.69,63.07-109.24l-144.32-250C335,77.08,265,77.08,236.93,125.63Z"/><path class="b" d="M276.87,223.7h46.26l-8.71,115.63H285.58Zm38.55,142.65a20.65,20.65,0,0,1,6.46,15.29,21.25,21.25,0,0,1-6.34,15.42,20.64,20.64,0,0,1-15.29,6.47,21.58,21.58,0,0,1-15.67-6.34,20.94,20.94,0,0,1-6.46-15.55,20.65,20.65,0,0,1,6.46-15.29A21.54,21.54,0,0,1,300.25,360,21,21,0,0,1,315.42,366.35Z"/></svg>