<svg xmlns="http://www.w3.org/2000/svg" viewBox="0 0 600 600"><defs><style>.a,.b{fill:none;stroke-miterlimit:10;stroke-width:12px;}.a{stroke:#039ae4;}.b{stroke:#52cefd;}</style></defs><title>alertUpdates</title><path class="a" d="M260.37,129.25V89.63A39.63,39.63,0,0,1,300,50h0a39.63,39.63,0,0,1,39.63,39.63v39.62"/><path class="b" d="M339.63,510.37a39.63,39.63,0,0,1-79.26,0"/><line class="b" x1="485.16" y1="215.71" x2="485.16" y2="359.8"/><line class="b" x1="528.39" y1="171.04" x2="528.39" y2="404.47"/><line class="b" x1="114.84" y1="359.8" x2="114.84" y2="215.71"/><line class="b" x1="71.61" y1="404.47" x2="71.61" y2="171.04"/><line class="b" x1="154.01" y1="381.89" x2="445.7" y2="381.89"/><path class="a" d="M440.13,339.52V267.58A139.77,139.77,0,0,0,300.36,127.81h0A139.77,139.77,0,0,0,160.59,267.58v71.94a139.75,139.75,0,0,1-30.71,87.41L98.42,466.19a12.56,12.56,0,0,0,9.8,20.41H492.5a12.56,12.56,0,0,0,9.8-20.41l-31.46-39.26A139.75,139.75,0,0,1,440.13,339.52Z"/></svg>