<svg xmlns="http://www.w3.org/2000/svg" viewBox="0 0 600 600"><defs><style>.a,.b{fill:none;stroke-miterlimit:10;stroke-width:12px;}.a{stroke:#039ae4;}.b{stroke:#52cefd;}</style></defs><title>altFuels</title><polygon class="a" points="163.38 527.88 95.91 527.88 95.91 72.12 141.26 72.12 163.38 140.71 163.38 527.88"/><line class="b" x1="163.38" y1="142.92" x2="399" y2="142.92"/><polygon class="a" points="399.56 527.88 163.94 527.88 163.94 142.92 141.81 72.12 377.43 72.12 399.56 142.92 399.56 527.88"/><path class="b" d="M338.16,347.69a73,73,0,1,1-111.88-93.83c25.91-30.89,131.29-42.93,131.29-42.93S364.07,316.79,338.16,347.69Z"/><line class="b" x1="296.44" y1="283.82" x2="202.61" y2="395.71"/><path class="a" d="M399.56,200.44h1.1A34.3,34.3,0,0,1,435,234.73V459.29a34.29,34.29,0,0,0,34.29,34.29h0a34.29,34.29,0,0,0,34.29-34.29V200.44"/><rect class="b" x="470.35" y="142.92" width="33.19" height="67.48"/><polyline class="b" points="470.35 72.12 503.54 118.58 503.54 142.92"/><line class="b" x1="50" y1="527.88" x2="550" y2="527.88"/><line class="b" x1="187.72" y1="107.52" x2="358.08" y2="107.52"/></svg>