<svg xmlns="http://www.w3.org/2000/svg" viewBox="0 0 600 600"><defs><style>.a,.b{fill:none;stroke-miterlimit:10;stroke-width:12px;}.a{stroke:#039ae4;}.b{stroke:#52cefd;}</style></defs><title>altFuels</title><polygon class="a" points="176.5 530 115.5 530 115.5 118 156.5 118 176.5 180 176.5 530"/><line class="b" x1="176.5" y1="182" x2="389.5" y2="182"/><polygon class="a" points="390 530 177 530 177 182 157 118 370 118 390 182 390 530"/><path class="b" d="M334.5,367.11a66,66,0,1,1-101.14-84.82C256.78,254.36,352,243.48,352,243.48S357.92,339.18,334.5,367.11Z"/><line class="b" x1="296.78" y1="309.38" x2="211.96" y2="410.52"/><path class="a" d="M390,234h1a31,31,0,0,1,31,31V468a31,31,0,0,0,31,31h0a31,31,0,0,0,31-31V234"/><rect class="b" x="454" y="182" width="30" height="61"/><polyline class="b" points="454 118 484 160 484 182"/><line class="b" x1="74" y1="530" x2="526" y2="530"/><line class="b" x1="198.5" y1="150" x2="352.5" y2="150"/></svg>