<svg xmlns="http://www.w3.org/2000/svg" viewBox="0 0 600 600"><defs><style>.a,.c{fill:none;stroke-miterlimit:10;stroke-width:12px;}.a{stroke:#52cefd;}.b{fill:#52cefd;}.c{stroke:#039ae4;}.d{fill:#039ae4;}</style></defs><title>animals</title><polyline class="a" points="251.22 379.46 251.22 418.15 78.44 418.15 78.44 379.46"/><path class="b" d="M190.31,319.46a17.55,17.55,0,0,1,35.1,0Z"/><path class="b" d="M181.87,352.86a17.55,17.55,0,0,1-35.09,0Z"/><path class="b" d="M102.65,319.46a17.55,17.55,0,0,1,35.09,0Z"/><path class="c" d="M212.68,232.83H117L59.54,200A6.38,6.38,0,0,0,50,205.54v140.2a31.9,31.9,0,0,0,23.36,30.74L143.49,396a79.74,79.74,0,0,0,42.69,0l70.12-19.48a31.91,31.91,0,0,0,23.37-30.74V205.54a6.38,6.38,0,0,0-9.55-5.54Z"/><polygon class="d" points="184.78 318.95 164.83 338.89 144.89 318.95 184.78 318.95"/><line class="a" x1="73.18" y1="325.33" x2="102.66" y2="325.33"/><line class="a" x1="73.18" y1="347.66" x2="102.66" y2="347.66"/><line class="a" x1="225.41" y1="325.33" x2="254.89" y2="325.33"/><line class="a" x1="225.41" y1="347.66" x2="254.89" y2="347.66"/><circle class="c" cx="165.48" cy="437.5" r="19.35"/><polyline class="a" points="511.99 311.37 511.99 362.15 339.21 362.15 339.21 311.37"/><path class="a" d="M473.44,317.18h0c0,8.81-11.9,15.95-26.58,15.95H404.33c-14.68,0-26.58-7.14-26.58-15.95h0"/><path class="d" d="M396.82,211.91H361.87a17.55,17.55,0,0,1,34.95,0Z"/><path class="d" d="M489.32,211.91H454.38a17.54,17.54,0,0,1,34.94,0Z"/><line class="a" x1="425.6" y1="253" x2="425.6" y2="286.86"/><polygon class="b" points="454.31 231.05 425.6 259.76 396.89 231.05 454.31 231.05"/><line class="a" x1="339.21" y1="211.91" x2="339.21" y2="315.57"/><line class="a" x1="511.99" y1="211.91" x2="511.99" y2="315.57"/><path class="c" d="M524.69,165.54l-76-19.48a93.3,93.3,0,0,0-46.24,0l-76,19.48c-14.95,3.84-25.3,16.41-25.3,30.74V346.05c0,4.89,5.73,8,10.34,5.54l27.67-36h37.47a42.76,42.76,0,0,0,18.54-4.2,39.93,39.93,0,0,0,11.2-8l19.18-19.68,19.18,19.68a39.93,39.93,0,0,0,11.2,8,42.76,42.76,0,0,0,18.54,4.2H512l27.67,36c4.61,2.43,10.34-.65,10.34-5.54V196.28C550,182,539.65,169.38,524.69,165.54Z"/><circle class="c" cx="426.66" cy="381.5" r="19.35"/></svg>