<svg xmlns="http://www.w3.org/2000/svg" viewBox="0 0 600 600"><defs><style>.a{fill:#52cefd;}.b,.c{fill:none;stroke-miterlimit:10;stroke-width:12px;}.b{stroke:#039ae4;}.c{stroke:#52cefd;stroke-linecap:square;}</style></defs><title>applications</title><path class="a" d="M460.84,412.81c-4.26-2-6.52-2.89-11.31-2.3-4.53.56-11.22,6.25-15.13,5.92-8.34-.7-8.1-14.11-15.69-17.7-8.86-4.2-16.28,1.58-24.74,2.79-10.67,1.53-16.44-8.34-26.08-5.24-5.9,1.9-11.62,8-16.54,11.61-3.36,2.49-5.93,6.37-9.37,4-3.12-2.16-1.77-7.56-1.79-11,0-6.05,1.59-15.24-5-18.68-7.26-3.8-19.88,2.85-26.43,5.36a164.66,164.66,0,0,0-37.57,20.65c-5.55,4,0,13.2,5.6,9.15a153.64,153.64,0,0,1,37.65-20.53q5.22-1.89,10.57-3.4,7.31-4.83,4.42,4.7c1.64,5.07-.83,11.42.48,16.75,5,20.39,21.87,5.92,32.09-1.65,11.6-8.58,9.47-2.42,20.42.11,11.19,2.59,18.68-7,28.83-1.16,6.86,3.95,6,11.33,13.42,14.55,10.5,4.57,21.53-9,30.95-4.58C461.87,425.09,467.1,415.73,460.84,412.81Z"/><polyline class="b" points="193.69 90 193.69 90 475 90"/><polyline class="b" points="193.69 123 193.69 123 475 123"/><polyline class="b" points="193.69 156 193.69 156 475 156"/><polyline class="b" points="193.69 189 193.69 189 475 189"/><polyline class="b" points="193.69 222 193.69 222 475 222"/><polyline class="b" points="193.69 255 193.69 255 475 255"/><polyline class="b" points="193.69 288 193.69 288 475 288"/><polyline class="b" points="193.69 321 193.69 321 475 321"/><polyline class="b" points="193.69 354 193.69 354 369 354"/><rect class="b" x="174" y="57" width="320" height="397"/><polyline class="c" points="141 90 141 123 141 487 428 487 461 487"/><polyline class="b" points="428 520 108 520 108 123"/></svg>