<svg xmlns="http://www.w3.org/2000/svg" viewBox="0 0 600 600"><defs><style>.a,.b{fill:none;stroke-width:12px;}.a{stroke:#039ae4;stroke-miterlimit:10;}.b{stroke:#52cefd;stroke-linejoin:round;}</style></defs><title>art_1</title><path class="a" d="M380.45,245.69c14,59.73,68.19,105.26,132,105.35h1.19a12,12,0,0,1,11.77,14.81A241.17,241.17,0,0,1,120.61,479.24c-94.15-94.16-94.15-246.82,0-341a240.64,240.64,0,0,1,195-69.37c50.58,5.13,83.69,56.13,68,104.48a133.85,133.85,0,0,0-3.74,14.06"/><line class="a" x1="321.67" y1="245.57" x2="351.13" y2="275.02"/><path class="b" d="M227.5,405.9a47.35,47.35,0,1,1-37.4-34.4"/><path class="b" d="M268.49,298.76,511.18,56.07a20.81,20.81,0,0,1,29.45,0h0a20.83,20.83,0,0,1,0,29.45L297.94,328.21"/><path class="a" d="M283.21,381.32c-18.73,18.73-105.32,37.49-105.32,37.49s18.76-86.6,37.49-105.33a48,48,0,1,1,67.83,67.84Z"/><circle class="b" cx="291.1" cy="463.38" r="47.34"/><circle class="a" cx="291.1" cy="154.13" r="47.34"/><circle class="b" cx="400.44" cy="418.09" r="47.34"/><circle class="b" cx="136.47" cy="308.75" r="47.34"/></svg>