<svg xmlns="http://www.w3.org/2000/svg" viewBox="0 0 600 600"><defs><style>.a,.b{fill:none;stroke-width:12px;}.a{stroke:#039ae4;stroke-miterlimit:10;}.b{stroke:#52cefd;stroke-linejoin:round;}</style></defs><title>art_1</title><path class="a" d="M364.79,287.54c11.1,47.32,54,83.39,104.55,83.46h.94a9.49,9.49,0,0,1,9.32,11.73,191,191,0,0,1-320.66,89.83C84.35,398,84.35,277,158.94,202.44a190.64,190.64,0,0,1,154.45-55c40.07,4.07,66.3,44.47,53.85,82.77a106,106,0,0,0-3,11.14"/><line class="a" x1="318.22" y1="287.44" x2="341.56" y2="310.78"/><path class="b" d="M243.62,414.46A37.51,37.51,0,1,1,214,387.21"/><path class="b" d="M276.09,329.58,468.35,137.32a16.48,16.48,0,0,1,23.33,0h0a16.48,16.48,0,0,1,0,23.33L299.42,352.91"/><path class="a" d="M287.75,395c-14.84,14.84-83.43,29.69-83.43,29.69s14.85-68.59,29.69-83.43A38,38,0,0,1,287.75,395Z"/><circle class="b" cx="294" cy="460" r="37.5"/><circle class="a" cx="294" cy="215" r="37.5"/><circle class="b" cx="380.62" cy="424.12" r="37.5"/><circle class="b" cx="171.5" cy="337.5" r="37.5"/></svg>