<svg xmlns="http://www.w3.org/2000/svg" viewBox="0 0 600 600"><defs><style>.a,.c,.d{fill:none;stroke-width:12px;}.a,.d{stroke:#039ae4;stroke-miterlimit:10;}.b{fill:#63ccff;}.c{stroke:#52cefd;stroke-linejoin:round;}.d{stroke-linecap:square;}</style></defs><title>atm</title><path class="a" d="M366.82,426.23h20.74a25.35,25.35,0,0,0,0-50.69H211.29a25.35,25.35,0,1,0,0,50.69h21.89"/><path class="b" d="M315.46,296.41a12.55,12.55,0,0,0-3.51-9.13q-3.51-3.61-11.69-6.5a91.47,91.47,0,0,1-12.73-5.36q-15.15-8.12-15.14-24,0-10.8,6.56-17.74t17.8-8.25V211.23h10.4v14.3q11.3,1.62,17.47,9.58t6.17,20.69H315.08q0-8.18-3.68-12.89a12,12,0,0,0-10-4.71q-6.24,0-9.75,3.37c-2.34,2.26-3.51,5.48-3.51,9.69a12.17,12.17,0,0,0,3.48,9.06q3.48,3.4,11.79,6.46a100.2,100.2,0,0,1,13.06,5.65,33.28,33.28,0,0,1,8,5.95,23.49,23.49,0,0,1,5,7.7,27.16,27.16,0,0,1,1.75,10.2q0,11-6.72,17.8t-18.75,8.05V334.8H295.45V322.2q-12.85-1.44-19.78-9.23t-6.92-20.66h15.79q0,8.19,4.12,12.67t11.66,4.49q7.41,0,11.28-3.58a12.31,12.31,0,0,0,3.86-9.48Z"/><rect class="c" x="233.18" y="402.03" width="133.64" height="95.62"/><rect class="a" x="186.52" y="194.66" width="226.96" height="154.38"/><rect class="a" x="465.9" y="194.66" width="34.56" height="34.56"/><rect class="a" x="465.9" y="254.57" width="34.56" height="34.56"/><rect class="a" x="465.9" y="314.48" width="34.56" height="34.56"/><rect class="a" x="99.54" y="194.66" width="34.56" height="34.56"/><rect class="a" x="99.54" y="254.57" width="34.56" height="34.56"/><rect class="a" x="99.54" y="314.48" width="34.56" height="34.56"/><polyline class="c" points="366.82 466.55 550 466.55 550 158.95 413.48 101.34 186.52 101.34 50 158.95 50 466.55 233.18 466.55"/><path class="c" d="M334.56,401.46a34,34,0,0,1-68,0"/><line class="d" x1="233.18" y1="402.03" x2="366.82" y2="402.03"/></svg>