<svg xmlns="http://www.w3.org/2000/svg" viewBox="0 0 600 600"><defs><style>.a,.c,.d{fill:none;stroke-width:12px;}.a,.d{stroke:#039ae4;stroke-miterlimit:10;}.b{fill:#63ccff;}.c{stroke:#52cefd;stroke-linejoin:round;}.d{stroke-linecap:square;}</style></defs><title>atm</title><path class="a" d="M358,409.5h18a22,22,0,0,0,0-44H223a22,22,0,0,0,0,44h19"/><path class="b" d="M313.42,296.81a10.9,10.9,0,0,0-3-7.92c-2-2.09-5.42-4-10.15-5.64a79.24,79.24,0,0,1-11.06-4.65Q276,271.55,276,257.74q0-9.36,5.7-15.4t15.45-7.16v-12.3h9v12.41q9.81,1.41,15.17,8.32t5.36,18H313.09q0-7.11-3.19-11.19a10.39,10.39,0,0,0-8.66-4.09q-5.42,0-8.46,2.93c-2,1.95-3,4.76-3,8.4a10.5,10.5,0,0,0,3,7.87c2,2,5.41,3.84,10.23,5.61A85.78,85.78,0,0,1,314.32,276a28.71,28.71,0,0,1,6.94,5.16,20.32,20.32,0,0,1,4.34,6.68,23.5,23.5,0,0,1,1.52,8.85q0,9.54-5.83,15.45t-16.27,7v11h-9V319.2q-11.16-1.24-17.17-8t-6-17.93h13.7q0,7.11,3.58,11t10.12,3.89q6.44,0,9.78-3.1a10.67,10.67,0,0,0,3.36-8.24Z"/><rect class="c" x="242" y="388.5" width="116" height="83"/><rect class="a" x="201.5" y="208.5" width="197" height="134"/><rect class="a" x="444" y="208.5" width="30" height="30"/><rect class="a" x="444" y="260.5" width="30" height="30"/><rect class="a" x="444" y="312.5" width="30" height="30"/><rect class="a" x="126" y="208.5" width="30" height="30"/><rect class="a" x="126" y="260.5" width="30" height="30"/><rect class="a" x="126" y="312.5" width="30" height="30"/><polyline class="c" points="358 444.5 517 444.5 517 177.5 398.5 127.5 201.5 127.5 83 177.5 83 444.5 242 444.5"/><path class="c" d="M330,388a29.5,29.5,0,0,1-59,0"/><line class="d" x1="242" y1="388.5" x2="358" y2="388.5"/></svg>