<svg xmlns="http://www.w3.org/2000/svg" viewBox="0 0 600 600"><defs><style>.a,.b{fill:none;stroke-width:12px;}.a{stroke:#52cefd;stroke-linejoin:round;}.b{stroke:#039ae4;stroke-miterlimit:10;}</style></defs><title>atRisk</title><path class="a" d="M111.51,335.63c70.28,77,183.77,173.71,188.41,177.65,0,.09,0,.14,0,.14l.07-.06.07.06s0,0,0-.14c4.64-3.94,118.13-100.66,188.41-177.65"/><path class="a" d="M69.3,283.37a108.76,108.76,0,0,1-9.78-17.94A130,130,0,0,1,300,166.37a130,130,0,0,1,240.48,99.06,108.76,108.76,0,0,1-9.78,17.94"/><polyline class="b" points="50.59 308.31 167.58 308.31 254.72 202.61 323.75 398.58 406.89 308.31 549.41 308.31"/></svg>