<svg xmlns="http://www.w3.org/2000/svg" viewBox="0 0 600 600"><defs><style>.a,.b{fill:none;stroke-width:12px;}.a{stroke:#52cefd;stroke-linejoin:round;}.b{stroke:#039ae4;stroke-miterlimit:10;}</style></defs><title>atRisk</title><path class="a" d="M141.3,330C200.47,394.82,296,476.26,299.93,479.58a.87.87,0,0,1,0,.11l.06-.05.06.05a.87.87,0,0,1,0-.11C304,476.26,399.53,394.82,458.7,330"/><path class="a" d="M105.76,286a91.79,91.79,0,0,1-8.24-15.11A109.49,109.49,0,0,1,300,187.49a109.49,109.49,0,0,1,202.48,83.4A91.79,91.79,0,0,1,494.24,286"/><polyline class="b" points="90 307 188.5 307 261.88 218 320 383 390 307 510 307"/></svg>