<svg xmlns="http://www.w3.org/2000/svg" viewBox="0 0 600 600"><defs><style>.a,.b,.c{fill:none;stroke-width:12px;}.a,.c{stroke:#52cefd;}.a,.b{stroke-linejoin:round;}.b{stroke:#039ae4;}.c{stroke-miterlimit:10;}</style></defs><title>benefits_1</title><path class="a" d="M307,280.23A146.77,146.77,0,0,1,160.24,427"/><line class="b" x1="81.52" y1="279.84" x2="150.24" y2="279.84"/><line class="a" x1="253.23" y1="224.94" x2="250.68" y2="227.51"/><polyline class="a" points="151.16 375.55 151.19 225.78 202.44 174.14"/><path class="a" d="M287.61,88.33l38-38.33a71.63,71.63,0,0,1,11.16,87.52"/><polyline class="b" points="462.87 537.46 196.55 537.46 160.24 509.84 81.52 509.84"/><rect class="b" x="217.73" y="96.45" width="105.93" height="120.91" transform="translate(190.23 -145.45) rotate(45)"/><line class="b" x1="217.48" y1="135.22" x2="293.71" y2="211.45"/><line class="b" x1="254.05" y1="98.65" x2="293.21" y2="211.95"/><line class="b" x1="266.16" y1="234.83" x2="417.47" y2="234.83"/><line class="c" x1="75.1" y1="244.3" x2="75.1" y2="550"/><rect class="a" x="353.92" y="234.83" width="170.99" height="75.66" rx="37.83" ry="37.83"/><rect class="a" x="353.92" y="310.49" width="170.99" height="75.66" rx="37.83" ry="37.83"/><rect class="a" x="353.92" y="386.15" width="170.99" height="75.66" rx="37.83" ry="37.83"/><rect class="a" x="353.92" y="461.8" width="170.99" height="75.66" rx="37.83" ry="37.83"/></svg>