<svg xmlns="http://www.w3.org/2000/svg" viewBox="0 0 600 600"><defs><style>.a,.b{fill:none;stroke-width:12px;}.a{stroke:#52cefd;stroke-linejoin:round;}.b{stroke:#039be5;stroke-miterlimit:10;}.c{fill:#63ccff;}</style></defs><title>benefits</title><path class="a" d="M70,376.82h34.59l68.71-68.07a57.33,57.33,0,0,1,40.32-16.59h136a56.46,56.46,0,0,1-56.29,56.3H221"/><path class="a" d="M370.8,372.52l93.41-93.42a57,57,0,0,1,80.54,0h0L522,301.86"/><path class="a" d="M378.66,404.93l88.18-88.19a57,57,0,0,1,80.53,0h0l-24.51,24.51"/><path class="a" d="M383.45,440.4l86-86a56.94,56.94,0,0,1,80.53,0h0L450.08,454.3a150.67,150.67,0,0,1-106.54,44.14H70"/><path class="a" d="M215.38,348.46H354.59l80.74-80.74a57,57,0,0,1,70.47-8"/><path class="b" d="M132.75,440.26a136.25,136.25,0,0,1,192.67,0"/><line class="b" x1="70" y1="354.53" x2="70" y2="521.66"/><path class="b" d="M396.4,164.74A96.4,96.4,0,1,1,300,68.34,96.41,96.41,0,0,1,396.4,164.74Z"/><path class="c" d="M313.73,185.73a11.12,11.12,0,0,0-3.12-8.1c-2.08-2.14-5.53-4.06-10.38-5.77a81.18,81.18,0,0,1-11.3-4.76q-13.44-7.22-13.44-21.34,0-9.57,5.82-15.75t15.81-7.32V110.12h9.23V122.8q10,1.45,15.51,8.51t5.47,18.37H313.38q0-7.26-3.26-11.45a10.64,10.64,0,0,0-8.85-4.18c-3.69,0-6.58,1-8.65,3s-3.12,4.87-3.12,8.6a10.75,10.75,0,0,0,3.09,8c2.06,2,5.54,3.93,10.47,5.74a88.79,88.79,0,0,1,11.59,5,29.29,29.29,0,0,1,7.09,5.27,20.7,20.7,0,0,1,4.44,6.84,24.08,24.08,0,0,1,1.56,9.05q0,9.75-6,15.81t-16.64,7.15v11.24H296V208.63q-11.41-1.27-17.56-8.2t-6.14-18.34h14q0,7.28,3.67,11.25t10.35,4q6.57,0,10-3.17a10.92,10.92,0,0,0,3.44-8.42"/></svg>