<svg xmlns="http://www.w3.org/2000/svg" viewBox="0 0 600 600"><defs><style>.a,.b{fill:none;stroke-width:12px;}.a{stroke:#52cefd;stroke-linejoin:round;}.b{stroke:#039be5;stroke-miterlimit:10;}.c{fill:#63ccff;}</style></defs><title>benefits</title><path class="a" d="M50,385.23H86l71.57-70.9a59.72,59.72,0,0,1,42-17.29H341.26a58.82,58.82,0,0,1-58.64,58.65H207.31"/><path class="a" d="M363.33,380.75l97.31-97.31a59.33,59.33,0,0,1,83.89,0h0l-23.71,23.71"/><path class="a" d="M371.52,414.51l91.86-91.86a59.32,59.32,0,0,1,83.88,0h0l-25.53,25.53"/><path class="a" d="M376.51,451.46l89.6-89.6a59.31,59.31,0,0,1,83.89,0h0L445.92,465.94a157,157,0,0,1-111,46H50"/><path class="a" d="M201.43,355.69h145l84.1-84.1A59.35,59.35,0,0,1,504,263.23"/><path class="b" d="M115.36,451.32a141.9,141.9,0,0,1,200.7,0"/><line class="b" x1="50" y1="362.02" x2="50" y2="536.1"/><path class="b" d="M390,164.32A100.42,100.42,0,1,1,289.58,63.9,100.42,100.42,0,0,1,390,164.32Z"/><path class="c" d="M303.88,186.17a11.59,11.59,0,0,0-3.24-8.43q-3.25-3.35-10.82-6a86.26,86.26,0,0,1-11.77-5q-14-7.52-14-22.23,0-10,6.07-16.4t16.46-7.63v-13.1h9.61v13.22q10.46,1.5,16.16,8.86t5.71,19.14H303.52q0-7.57-3.39-11.93a11.09,11.09,0,0,0-9.22-4.35q-5.78,0-9,3.12t-3.24,8.95a11.19,11.19,0,0,0,3.22,8.38q3.21,3.16,10.9,6A90.19,90.19,0,0,1,304.84,164a30.71,30.71,0,0,1,7.39,5.49,21.72,21.72,0,0,1,4.63,7.12,25.2,25.2,0,0,1,1.62,9.43q0,10.15-6.22,16.47T294.93,210v11.72h-9.55V210q-11.89-1.34-18.29-8.54t-6.4-19.1h14.59q0,7.58,3.82,11.72t10.78,4.14q6.86,0,10.43-3.3a11.4,11.4,0,0,0,3.57-8.78"/></svg>