<svg xmlns="http://www.w3.org/2000/svg" viewBox="0 0 600 600"><defs><style>.a,.b,.c{fill:none;stroke-width:12px;}.a,.c{stroke:#52cefd;}.a,.b{stroke-linejoin:round;}.b{stroke:#039ae4;}.c{stroke-miterlimit:10;}</style></defs><title>benefits_1</title><path class="a" d="M288,281a97,97,0,0,1-97,97"/><line class="b" x1="138.98" y1="280.75" x2="191" y2="280.75"/><line class="a" x1="252.46" y1="244.46" x2="250.77" y2="246.16"/><polyline class="a" points="185 344 185.02 245.02 218.89 210.89"/><path class="a" d="M275.18,154.18l25.13-25.33a47.35,47.35,0,0,1,7.38,57.84"/><polyline class="b" points="391 451 215 451 191 432.75 138.98 432.75"/><rect class="b" x="229" y="159.55" width="70" height="79.9" transform="translate(218.39 -128.24) rotate(45)"/><line class="b" x1="228.83" y1="185.17" x2="279.21" y2="235.55"/><line class="b" x1="253" y1="161" x2="278.88" y2="235.88"/><line class="b" x1="261" y1="251" x2="361" y2="251"/><line class="c" x1="134.73" y1="257.26" x2="134.73" y2="459.29"/><rect class="a" x="319" y="251" width="113" height="50" rx="25" ry="25"/><rect class="a" x="319" y="301" width="113" height="50" rx="25" ry="25"/><rect class="a" x="319" y="351" width="113" height="50" rx="25" ry="25"/><rect class="a" x="319" y="401" width="113" height="50" rx="25" ry="25"/></svg>