<svg xmlns="http://www.w3.org/2000/svg" viewBox="0 0 600 600"><defs><style>.a,.b{fill:none;stroke-miterlimit:10;stroke-width:12px;}.a{stroke:#039ae4;}.b{stroke:#52cefd;}</style></defs><title>boards</title><rect class="a" x="77.18" y="356.52" width="445.63" height="147.06"/><line class="a" x1="198.47" y1="304.93" x2="198.47" y2="262.42"/><line class="a" x1="104.45" y1="323.55" x2="104.45" y2="262.42"/><line class="a" x1="347.01" y1="304.75" x2="347.01" y2="262.42"/><line class="a" x1="252.99" y1="304.75" x2="252.99" y2="262.42"/><line class="a" x1="493.96" y1="323.55" x2="493.96" y2="262.42"/><line class="a" x1="399.95" y1="304.48" x2="399.95" y2="262.42"/><path class="b" d="M225.73,262.83A74.28,74.28,0,0,1,300,188.55h0a74.28,74.28,0,0,1,74.27,74.28"/><path class="b" d="M77.18,305V262.82a74.28,74.28,0,0,1,148.55,0"/><path class="b" d="M374.27,262.82a74.28,74.28,0,0,1,148.55,0v42.84"/><circle class="a" cx="151.46" cy="142.49" r="46.07"/><circle class="a" cx="300" cy="142.49" r="46.07"/><circle class="a" cx="448.54" cy="142.49" r="46.07"/><path class="b" d="M50,323.55v33H550v-33Z"/><path class="b" d="M83.42,303.94h1.78a19.61,19.61,0,0,1,19.61,19.61v0a0,0,0,0,1,0,0h-41a0,0,0,0,1,0,0v0A19.61,19.61,0,0,1,83.42,303.94Z"/><path class="b" d="M204.63,303.94h1.78A19.61,19.61,0,0,1,226,323.55v0a0,0,0,0,1,0,0H185a0,0,0,0,1,0,0v0A19.61,19.61,0,0,1,204.63,303.94Z"/><path class="b" d="M245.63,303.94h1.78A19.61,19.61,0,0,1,267,323.55v0a0,0,0,0,1,0,0H226a0,0,0,0,1,0,0v0A19.61,19.61,0,0,1,245.63,303.94Z"/><path class="b" d="M352.58,303.94h1.78A19.61,19.61,0,0,1,374,323.55v0a0,0,0,0,1,0,0H333a0,0,0,0,1,0,0v0A19.61,19.61,0,0,1,352.58,303.94Z"/><path class="b" d="M393.58,303.94h1.78A19.61,19.61,0,0,1,415,323.55v0a0,0,0,0,1,0,0H374a0,0,0,0,1,0,0v0A19.61,19.61,0,0,1,393.58,303.94Z"/><path class="b" d="M513,303.94h1.78a19.61,19.61,0,0,1,19.61,19.61v0a0,0,0,0,1,0,0h-41a0,0,0,0,1,0,0v0A19.61,19.61,0,0,1,513,303.94Z"/></svg>