<svg xmlns="http://www.w3.org/2000/svg" viewBox="0 0 600 600"><defs><style>.a,.b{fill:none;stroke-miterlimit:10;stroke-width:12px;}.a{stroke:#039ae4;}.b{stroke:#52cefd;}</style></defs><title>boards</title><rect class="a" x="50" y="363.42" width="500" height="165"/><line class="a" x1="186.08" y1="305.53" x2="186.08" y2="257.84"/><line class="a" x1="80.59" y1="326.42" x2="80.59" y2="257.84"/><line class="a" x1="352.74" y1="305.33" x2="352.74" y2="257.84"/><line class="a" x1="247.26" y1="305.33" x2="247.26" y2="257.84"/><line class="a" x1="517.62" y1="326.42" x2="517.62" y2="257.84"/><line class="a" x1="412.14" y1="305.03" x2="412.14" y2="257.84"/><path class="b" d="M216.67,258.29A83.33,83.33,0,0,1,300,175h0a83.33,83.33,0,0,1,83.33,83.33"/><path class="b" d="M50,305.56V258.29a83.34,83.34,0,0,1,166.67,0"/><path class="b" d="M383.33,258.29a83.34,83.34,0,0,1,166.67,0v48.06"/><circle class="a" cx="133.33" cy="123.27" r="51.69"/><circle class="a" cx="300" cy="123.27" r="51.69"/><circle class="a" cx="466.67" cy="123.27" r="51.69"/><path class="b" d="M19.5,326.42v37h561v-37Z"/><path class="b" d="M57,304.42h2a22,22,0,0,1,22,22v0a0,0,0,0,1,0,0H35a0,0,0,0,1,0,0v0A22,22,0,0,1,57,304.42Z"/><path class="b" d="M193,304.42h2a22,22,0,0,1,22,22v0a0,0,0,0,1,0,0H171a0,0,0,0,1,0,0v0A22,22,0,0,1,193,304.42Z"/><path class="b" d="M239,304.42h2a22,22,0,0,1,22,22v0a0,0,0,0,1,0,0H217a0,0,0,0,1,0,0v0A22,22,0,0,1,239,304.42Z"/><path class="b" d="M359,304.42h2a22,22,0,0,1,22,22v0a0,0,0,0,1,0,0H337a0,0,0,0,1,0,0v0A22,22,0,0,1,359,304.42Z"/><path class="b" d="M405,304.42h2a22,22,0,0,1,22,22v0a0,0,0,0,1,0,0H383a0,0,0,0,1,0,0v0A22,22,0,0,1,405,304.42Z"/><path class="b" d="M539,304.42h2a22,22,0,0,1,22,22v0a0,0,0,0,1,0,0H517a0,0,0,0,1,0,0v0A22,22,0,0,1,539,304.42Z"/></svg>