<svg xmlns="http://www.w3.org/2000/svg" viewBox="0 0 600 600"><defs><style>.a,.b,.c{fill:none;stroke-width:12px;}.a{stroke:#039ae4;}.a,.c{stroke-miterlimit:10;}.b{stroke:#039be5;stroke-linejoin:round;}.c{stroke:#52cefd;}</style></defs><title>boilWater</title><path class="a" d="M198,128h0a43.31,43.31,0,0,0-.08,61.18h0l.16.15h0a43.31,43.31,0,0,1-.08,61.18h0"/><path class="a" d="M310,128h0a43.31,43.31,0,0,0-.08,61.18h0l.16.15h0a43.31,43.31,0,0,1-.08,61.18h0"/><path class="a" d="M422,128h0a43.31,43.31,0,0,0-.08,61.18h0l.16.15h0a43.31,43.31,0,0,1-.08,61.18h0"/><path class="b" d="M514.4,286.67h0a73.71,73.71,0,0,1-104.23,0h-3a73.69,73.69,0,0,1-104.22,0h-3.56a73.71,73.71,0,0,1-104.23,0h-3a73.69,73.69,0,0,1-104.22,0h0"/><circle class="c" cx="258.13" cy="407.34" r="10.66"/><circle class="c" cx="376.44" cy="344" r="10.66"/><circle class="c" cx="214.21" cy="366.84" r="24.73"/><circle class="c" cx="402.25" cy="406.49" r="10.66"/><circle class="c" cx="328.06" cy="379.2" r="20.89"/><path class="c" d="M514,249.15l.4,168.7a30,30,0,0,1-30,30H117.14a30,30,0,0,1-30-30L88,249.15h0"/><line class="a" x1="142" y1="472" x2="458" y2="472"/><circle class="c" cx="436.44" cy="344" r="10.66"/><line class="c" x1="88" y1="189" x2="88" y2="249"/><line class="c" x1="514" y1="189" x2="514" y2="249"/></svg>