<svg xmlns="http://www.w3.org/2000/svg" viewBox="0 0 600 600"><defs><style>.a,.b,.c{fill:none;stroke-width:12px;}.a{stroke:#039ae4;}.a,.c{stroke-miterlimit:10;}.b{stroke:#039be5;stroke-linejoin:round;}.c{stroke:#52cefd;}</style></defs><title>boilWater</title><path class="a" d="M179.73,98.71h0a50.68,50.68,0,0,0-.09,71.6h0l.18.18h0a50.67,50.67,0,0,1-.09,71.6h0"/><path class="a" d="M310.8,98.71h0a50.68,50.68,0,0,0-.09,71.6h0l.18.18h0a50.67,50.67,0,0,1-.09,71.6h0"/><path class="a" d="M441.87,98.71h0a50.68,50.68,0,0,0-.09,71.6h0l.18.18h0a50.67,50.67,0,0,1-.09,71.6h0"/><path class="b" d="M550,284.4h0a86.25,86.25,0,0,1-122,0h-3.48a86.25,86.25,0,0,1-122,0h-4.16a86.25,86.25,0,0,1-122,0H173a86.25,86.25,0,0,1-122,0h0"/><circle class="c" cx="250.1" cy="425.62" r="12.48"/><circle class="c" cx="388.55" cy="351.49" r="12.48"/><circle class="c" cx="198.7" cy="378.21" r="28.94"/><circle class="c" cx="418.76" cy="424.62" r="12.48"/><circle class="c" cx="331.94" cy="392.69" r="24.45"/><path class="c" d="M549.54,240.49,550,437.92A35.11,35.11,0,0,1,514.89,473H85.11A35.11,35.11,0,0,1,50,437.92l1-197.43h0"/><line class="a" x1="114.2" y1="501.29" x2="484" y2="501.29"/><circle class="c" cx="458.76" cy="351.49" r="12.48"/><line class="c" x1="51" y1="170.1" x2="51" y2="240.32"/><line class="c" x1="549.54" y1="170.1" x2="549.54" y2="240.32"/></svg>