<svg xmlns="http://www.w3.org/2000/svg" viewBox="0 0 600 600"><defs><style>.a,.b{fill:none;stroke-miterlimit:10;stroke-width:12px;}.a{stroke:#039ae4;}.b{stroke:#52cefd;}</style></defs><title>boostCareer</title><line class="a" x1="94" y1="181.75" x2="94" y2="499.25"/><rect class="b" x="60.5" y="181.75" width="67" height="317.5"/><path class="b" d="M257.92,100.75H375.08A23.92,23.92,0,0,1,399,124.67v57.08a0,0,0,0,1,0,0H234a0,0,0,0,1,0,0V124.67A23.92,23.92,0,0,1,257.92,100.75Z"/><rect class="b" x="268.63" y="134.75" width="95.74" height="47"/><line class="b" x1="127.5" y1="297.59" x2="539.5" y2="297.59"/><rect class="b" x="308.75" y="297.75" width="46.76" height="42"/><rect class="a" x="127.5" y="181.75" width="412" height="317.5"/><polyline class="a" points="129.33 499.25 252.82 352.75 372.01 384.75 507.87 214.75"/><polyline class="a" points="455.61 214.75 507.87 214.75 507.87 271.75"/></svg>