<svg xmlns="http://www.w3.org/2000/svg" viewBox="0 0 600 600"><defs><style>.a,.b{fill:none;stroke-miterlimit:10;stroke-width:12px;}.a{stroke:#52cefd;}.b{stroke:#039ae4;}</style></defs><title>boostCareer</title><path class="a" d="M223.8,58.19H376.2a23.92,23.92,0,0,1,23.92,23.92v74.38a0,0,0,0,1,0,0H199.88a0,0,0,0,1,0,0V82.11A23.92,23.92,0,0,1,223.8,58.19Z"/><rect class="a" x="241.9" y="99.45" width="116.19" height="57.04"/><line class="a" x1="50" y1="297.07" x2="550" y2="297.07"/><rect class="a" x="269.96" y="297.27" width="56.75" height="50.97"/><rect class="b" x="50" y="156.49" width="500" height="385.32"/><polyline class="b" points="52.23 541.81 202.09 364.02 346.73 402.85 511.61 196.54"/><polyline class="b" points="448.19 196.54 511.61 196.54 511.61 265.72"/></svg>