<svg xmlns="http://www.w3.org/2000/svg" viewBox="0 0 600 600"><defs><style>.a,.b{fill:none;stroke-miterlimit:10;stroke-width:12px;}.a{stroke:#039be5;}.b{stroke:#63ccff;}</style></defs><title>busPass</title><rect class="a" x="63" y="387" width="475" height="54"/><path class="b" d="M253,342v16.09a4.9,4.9,0,0,1-4.9,4.91H235.91a4.9,4.9,0,0,1-4.91-4.9V342"/><path class="b" d="M369,342v16.09a4.9,4.9,0,0,1-4.9,4.91H351.91a4.9,4.9,0,0,1-4.91-4.9V342"/><path class="a" d="M383,310l-166,.05,0-79.34A53.69,53.69,0,0,1,270.66,177l58.63,0A53.7,53.7,0,0,1,383,230.66Z"/><path class="a" d="M383,303v23.65A15.34,15.34,0,0,1,367.66,342l-135.31,0A15.34,15.34,0,0,1,217,326.7V303"/><path class="a" d="M247.59,256a4.58,4.58,0,0,1-4.59-4.56V219.59a4.6,4.6,0,0,1,4.58-4.59H351.41a4.57,4.57,0,0,1,4.59,4.55v31.9a4.57,4.57,0,0,1-4.58,4.55Z"/><path class="b" d="M263.62,283.3a10.17,10.17,0,1,1-10.17-10.16A10.16,10.16,0,0,1,263.62,283.3Z"/><path class="b" d="M356.74,283.27a10.17,10.17,0,1,1-10.17-10.17A10.17,10.17,0,0,1,356.74,283.27Z"/><line class="a" x1="270" y1="196" x2="329" y2="195.98"/><line class="a" x1="280" y1="281" x2="319" y2="280.98"/><line class="b" x1="198" y1="261" x2="197.99" y2="227"/><line class="b" x1="402" y1="227" x2="402.01" y2="261"/><path class="b" d="M462.11,143.45l-379.55.11a20.13,20.13,0,0,0-20.11,20.12l.1,289.78a20.1,20.1,0,0,0,20.12,20.1l434.77-.12a20.13,20.13,0,0,0,20.11-20.12l-.08-234.53a20.1,20.1,0,0,0-5.89-14.21l-55.24-55.24A20.13,20.13,0,0,0,462.11,143.45Z"/></svg>