<svg xmlns="http://www.w3.org/2000/svg" viewBox="0 0 600 600"><defs><style>.a,.b{fill:none;stroke-miterlimit:10;stroke-width:12px;}.a{stroke:#039be5;}.b{stroke:#63ccff;}</style></defs><title>busPass</title><rect class="a" x="50.58" y="382.53" width="499.42" height="56.78"/><path class="b" d="M250.35,335.21v16.92a5.16,5.16,0,0,1-5.16,5.16H232.38a5.17,5.17,0,0,1-5.17-5.16V335.21"/><path class="b" d="M372.31,335.21v16.92a5.16,5.16,0,0,1-5.17,5.16H354.34a5.16,5.16,0,0,1-5.16-5.16V335.21"/><path class="a" d="M387.05,301.57l-174.56.05,0-83.42a56.45,56.45,0,0,1,56.44-56.47l61.65,0A56.45,56.45,0,0,1,387,218.15Z"/><path class="a" d="M387,294.21v24.87a16.13,16.13,0,0,1-16.12,16.13l-142.28.05a16.14,16.14,0,0,1-16.14-16.13V294.21"/><path class="a" d="M244.65,244.83a4.8,4.8,0,0,1-4.82-4.79V206.51a4.84,4.84,0,0,1,4.82-4.83H353.82a4.81,4.81,0,0,1,4.82,4.79V240a4.8,4.8,0,0,1-4.82,4.79Z"/><path class="b" d="M261.52,273.5a10.7,10.7,0,1,1-10.7-10.69A10.7,10.7,0,0,1,261.52,273.5Z"/><path class="b" d="M359.42,273.46a10.69,10.69,0,1,1-10.7-10.68A10.7,10.7,0,0,1,359.42,273.46Z"/><line class="a" x1="268.22" y1="181.71" x2="330.25" y2="181.69"/><line class="a" x1="278.73" y1="271.08" x2="319.74" y2="271.06"/><line class="b" x1="192.52" y1="250.05" x2="192.51" y2="214.3"/><line class="b" x1="407.01" y1="214.3" x2="407.02" y2="250.05"/><path class="b" d="M470.21,126.46l-399.07.11A21.16,21.16,0,0,0,50,147.73l.1,304.67a21.14,21.14,0,0,0,21.16,21.14l457.12-.13a21.15,21.15,0,0,0,21.14-21.16l-.08-246.58a21.18,21.18,0,0,0-6.19-14.95l-58.08-58.07A21.13,21.13,0,0,0,470.21,126.46Z"/></svg>