<svg xmlns="http://www.w3.org/2000/svg" viewBox="0 0 600 600"><defs><style>.a,.b,.c{fill:none;stroke-miterlimit:10;stroke-width:12px;}.a,.c{stroke:#52cefd;}.b{stroke:#039ae4;}.c{stroke-linecap:square;}</style></defs><title>camping</title><path class="a" d="M291.6,344.92l62.72-160.11a8.38,8.38,0,0,1,15.57-.07l64.5,160.08a8.38,8.38,0,0,1-4.86,11l-67.24,24.93-65.85-24.93A8.38,8.38,0,0,1,291.6,344.92Z"/><line class="b" x1="362.29" y1="520.51" x2="362.29" y2="250.89"/><line class="b" x1="390.51" y1="311.45" x2="362.66" y2="339.29"/><line class="b" x1="336.46" y1="285.24" x2="364.3" y2="313.08"/><path class="a" d="M416,360.82l53.72,19.92,65.86-24.93a8.37,8.37,0,0,0,4.83-10.89L477.7,184.81a8.38,8.38,0,0,0-15.57-.07L416,299.2"/><line class="b" x1="469.73" y1="520.51" x2="469.73" y2="250.89"/><line class="b" x1="441.52" y1="311.45" x2="469.36" y2="339.29"/><line class="b" x1="495.56" y1="285.24" x2="467.72" y2="313.08"/><polyline class="c" points="190.93 254 355.88 519 270.15 519 223.38 396.54 176.61 519 90.88 519 255.83 254"/><line class="b" x1="63.5" y1="519" x2="519" y2="519"/></svg>