<svg xmlns="http://www.w3.org/2000/svg" viewBox="0 0 600 600"><defs><style>.a,.b{fill:none;stroke-width:12px;}.a{stroke:#52cefd;stroke-linejoin:round;}.b{stroke:#039be5;stroke-miterlimit:10;}</style></defs><title>childServices</title><line class="a" x1="257.23" y1="347.46" x2="222.02" y2="347.46"/><path class="a" d="M71,375.82h34.59l68.71-68.07a57.33,57.33,0,0,1,40.32-16.59h25.79"/><path class="a" d="M402,341.37l63.26-63.27a57,57,0,0,1,80.54,0L523,300.86"/><path class="a" d="M523.86,340.25l1.61-1.61,22.9-22.9a57,57,0,0,0-80.53,0L409,374.63"/><path class="a" d="M384.45,439.4l86-86a56.94,56.94,0,0,1,80.53,0h0L451.08,453.3a150.67,150.67,0,0,1-106.54,44.14H71"/><path class="a" d="M427,276.09l9.37-9.37a57,57,0,0,1,70.47-8"/><polyline class="a" points="216.38 347.46 222.02 347.46 257.23 347.46"/><path class="a" d="M121.6,440a136.26,136.26,0,0,1,177,0"/><line class="b" x1="71" y1="353.53" x2="71" y2="520.66"/><path class="b" d="M300.57,422.4h0a19.13,19.13,0,0,1-27,0h0a70.94,70.94,0,0,1,0-100.32l3.4-3.4,37.13,37.12-26.55,26.55,13,13A19.1,19.1,0,0,1,300.57,422.4Z"/><path class="b" d="M374.25,382.35,347.7,355.8l37.12-37.12,3.4,3.4a70.92,70.92,0,0,1,0,100.32h0a19.11,19.11,0,0,1-27,0h0a19.1,19.1,0,0,1,0-27Z"/><path class="b" d="M421.4,263.23l-21-21.12a98.67,98.67,0,0,0-69.91-29.05h0A98.68,98.68,0,0,0,260.69,242l-21.27,21.27a19.1,19.1,0,0,0,0,27h0a19.11,19.11,0,0,0,27,0l23.15-23.15v23.83h81.86V267.37l22.88,22.87a19.1,19.1,0,0,0,27,0l0,0A19.1,19.1,0,0,0,421.4,263.23Z"/><circle class="b" cx="331.02" cy="162.53" r="50.53"/></svg>