<svg xmlns="http://www.w3.org/2000/svg" viewBox="0 0 600 600"><defs><style>.a,.b{fill:none;stroke-width:12px;}.a{stroke:#52cefd;stroke-linejoin:round;}.b{stroke:#039be5;stroke-miterlimit:10;}</style></defs><title>childServices</title><line class="a" x1="243.99" y1="332.43" x2="207.31" y2="332.43"/><path class="a" d="M50,362H86l71.57-70.91a59.75,59.75,0,0,1,42-17.28h26.87"/><path class="a" d="M394.74,326.08l65.9-65.9a59.33,59.33,0,0,1,83.89,0l-23.71,23.71"/><path class="a" d="M521.73,324.92l1.68-1.68,23.85-23.85a59.32,59.32,0,0,0-83.88,0L402,360.73"/><path class="a" d="M376.51,428.2l89.6-89.6a59.33,59.33,0,0,1,83.89,0h0L445.92,442.68a157,157,0,0,1-111,46H50"/><path class="a" d="M420.79,258.08l9.76-9.76A59.36,59.36,0,0,1,504,240"/><polyline class="a" points="201.44 332.43 207.31 332.43 243.99 332.43"/><path class="a" d="M102.71,428.82a141.94,141.94,0,0,1,184.34,0"/><line class="b" x1="50" y1="338.76" x2="50" y2="512.84"/><path class="b" d="M289.13,410.5h0a19.9,19.9,0,0,1-28.14,0h0A73.9,73.9,0,0,1,261,306l3.55-3.54,38.66,38.66-27.65,27.66,13.58,13.59A19.9,19.9,0,0,1,289.13,410.5Z"/><path class="b" d="M365.88,368.77l-27.65-27.66,38.67-38.66,3.54,3.54a73.9,73.9,0,0,1,0,104.51h0a19.9,19.9,0,0,1-28.14,0h0a19.9,19.9,0,0,1,0-28.14Z"/><path class="b" d="M415,244.69l-21.9-22a102.79,102.79,0,0,0-72.83-30.26h0a102.78,102.78,0,0,0-72.68,30.11l-22.15,22.15a19.9,19.9,0,0,0,0,28.14h0a19.9,19.9,0,0,0,28.14,0l24.12-24.12v24.82H363V249l23.83,23.83a19.9,19.9,0,0,0,28.14,0l0,0A19.9,19.9,0,0,0,415,244.69Z"/><circle class="b" cx="320.86" cy="139.8" r="52.64"/></svg>