<svg xmlns="http://www.w3.org/2000/svg" viewBox="0 0 600 600"><defs><style>.a,.b{fill:none;}.a,.d{stroke:#039ae4;stroke-miterlimit:10;}.a,.b,.d{stroke-width:12px;}.b{stroke:#52cefd;stroke-linejoin:round;}.c{fill:#52cefd;}.d{fill:#fff;}</style></defs><title>cityUpdates</title><path class="a" d="M396.66,186.3h0a30.73,30.73,0,0,1,43.44,0h1.24a30.71,30.71,0,0,1,43.43,0h0"/><path class="a" d="M432.66,150.3h0a30.73,30.73,0,0,1,43.44,0h1.24a30.71,30.71,0,0,1,43.43,0h0"/><polyline class="a" points="86.64 517 86.64 220.3 206.64 170.3 206.64 517"/><polyline class="b" points="230.64 517 230.64 120.3 359.64 120.3 359.64 517"/><polyline class="a" points="383.64 517 383.64 290.3 452.64 230.3 521.64 290.3 521.64 517"/><line class="b" x1="251.64" y1="152.3" x2="338.64" y2="152.3"/><line class="b" x1="251.64" y1="182.3" x2="338.64" y2="182.3"/><line class="b" x1="261.64" y1="272.3" x2="251.64" y2="272.3"/><line class="b" x1="338.64" y1="272.3" x2="328.64" y2="272.3"/><line class="b" x1="262" y1="242" x2="252" y2="242"/><line class="b" x1="339" y1="242" x2="329" y2="242"/><line class="b" x1="262.36" y1="211.7" x2="252.36" y2="211.7"/><line class="b" x1="339.36" y1="211.7" x2="329.36" y2="211.7"/><line class="b" x1="338.64" y1="302.3" x2="327.64" y2="302.3"/><line class="b" x1="262.64" y1="302.3" x2="251.64" y2="302.3"/><line class="b" x1="338.64" y1="332.3" x2="322.64" y2="332.3"/><line class="b" x1="267.64" y1="332.3" x2="251.64" y2="332.3"/><line class="b" x1="338.64" y1="362.3" x2="317.64" y2="362.3"/><line class="b" x1="272.64" y1="362.3" x2="251.64" y2="362.3"/><polyline class="b" points="338.64 392.3 312.64 392.3 277.64 392.3 251.64 392.3"/><line class="b" x1="265" y1="422" x2="252" y2="422"/><line class="b" x1="339" y1="422" x2="325" y2="422"/><line class="b" x1="251.64" y1="452.3" x2="338.64" y2="452.3"/><line class="b" x1="251.64" y1="482.3" x2="338.64" y2="482.3"/><line class="b" x1="252" y1="511" x2="339" y2="511"/><line class="b" x1="116.64" y1="237.3" x2="116.64" y2="517"/><line class="b" x1="146.64" y1="227.3" x2="146.64" y2="517"/><line class="b" x1="176.64" y1="217.3" x2="176.64" y2="517"/><rect class="c" x="416.64" y="296.3" width="12" height="12"/><rect class="c" x="446.64" y="296.3" width="12" height="12"/><rect class="c" x="476.64" y="296.3" width="12" height="12"/><rect class="c" x="416.64" y="326.3" width="12" height="12"/><rect class="c" x="446.64" y="326.3" width="12" height="12"/><rect class="c" x="476.64" y="326.3" width="12" height="12"/><rect class="c" x="416.64" y="356.3" width="12" height="12"/><rect class="c" x="446.64" y="356.3" width="12" height="12"/><rect class="c" x="476.64" y="356.3" width="12" height="12"/><rect class="c" x="416.64" y="386.3" width="12" height="12"/><rect class="c" x="446.64" y="386.3" width="12" height="12"/><rect class="c" x="476.64" y="386.3" width="12" height="12"/><rect class="c" x="416.64" y="416.3" width="12" height="12"/><rect class="c" x="446.64" y="416.3" width="12" height="12"/><rect class="c" x="476.64" y="416.3" width="12" height="12"/><rect class="c" x="416.64" y="446.3" width="12" height="12"/><rect class="c" x="446.64" y="446.3" width="12" height="12"/><rect class="c" x="476.64" y="446.3" width="12" height="12"/><rect class="c" x="416.64" y="476.3" width="12" height="12"/><rect class="c" x="446.64" y="476.3" width="12" height="12"/><rect class="c" x="476.64" y="476.3" width="12" height="12"/><rect class="c" x="417" y="505" width="12" height="12"/><rect class="c" x="447" y="505" width="12" height="12"/><rect class="c" x="477" y="505" width="12" height="12"/><circle class="d" cx="295" cy="422" r="14"/><polygon class="a" points="301.14 362 289.14 362 279.14 287 279.14 212 311.14 212 311.14 287 301.14 362"/></svg>