<svg xmlns="http://www.w3.org/2000/svg" viewBox="0 0 600 600"><defs><style>.a,.b{fill:none;}.a,.d{stroke:#039ae4;stroke-miterlimit:10;}.a,.b,.d{stroke-width:12px;}.b{stroke:#52cefd;stroke-linejoin:round;}.c{fill:#52cefd;}.d{fill:#fff;}</style></defs><title>cityUpdates</title><path class="a" d="M406.35,147.87h0a35.31,35.31,0,0,1,49.92,0h1.43a35.32,35.32,0,0,1,49.93,0h0"/><path class="a" d="M447.73,106.49h0a35.31,35.31,0,0,1,49.92,0h1.43a35.32,35.32,0,0,1,49.93,0h0"/><polyline class="a" points="50 527.99 50 186.95 187.93 129.48 187.93 527.99"/><polyline class="b" points="215.52 527.99 215.52 72.01 363.79 72.01 363.79 527.99"/><polyline class="a" points="391.38 527.99 391.38 267.41 470.69 198.45 550 267.41 550 527.99"/><line class="b" x1="239.66" y1="108.79" x2="339.66" y2="108.79"/><line class="b" x1="239.66" y1="143.28" x2="339.66" y2="143.28"/><line class="b" x1="251.15" y1="246.72" x2="239.66" y2="246.72"/><line class="b" x1="339.66" y1="246.72" x2="328.16" y2="246.72"/><line class="b" x1="251.56" y1="211.9" x2="240.07" y2="211.9"/><line class="b" x1="340.07" y1="211.9" x2="328.57" y2="211.9"/><line class="b" x1="251.98" y1="177.07" x2="240.48" y2="177.07"/><line class="b" x1="340.48" y1="177.07" x2="328.99" y2="177.07"/><line class="b" x1="339.66" y1="281.21" x2="327.01" y2="281.21"/><line class="b" x1="252.3" y1="281.21" x2="239.66" y2="281.21"/><line class="b" x1="339.66" y1="315.69" x2="321.26" y2="315.69"/><line class="b" x1="258.05" y1="315.69" x2="239.66" y2="315.69"/><line class="b" x1="339.66" y1="350.17" x2="315.52" y2="350.17"/><line class="b" x1="263.79" y1="350.17" x2="239.66" y2="350.17"/><polyline class="b" points="339.65 384.65 309.77 384.65 269.54 384.65 239.66 384.65"/><line class="b" x1="255.01" y1="418.79" x2="240.07" y2="418.79"/><line class="b" x1="340.07" y1="418.79" x2="323.98" y2="418.79"/><line class="b" x1="239.66" y1="453.62" x2="339.66" y2="453.62"/><line class="b" x1="239.66" y1="488.1" x2="339.66" y2="488.1"/><line class="b" x1="240.07" y1="521.09" x2="340.07" y2="521.09"/><line class="b" x1="84.48" y1="206.49" x2="84.48" y2="527.99"/><line class="b" x1="118.97" y1="195" x2="118.97" y2="527.99"/><line class="b" x1="153.45" y1="183.51" x2="153.45" y2="527.99"/><rect class="c" x="429.31" y="274.31" width="13.79" height="13.79"/><rect class="c" x="463.79" y="274.31" width="13.79" height="13.79"/><rect class="c" x="498.28" y="274.31" width="13.79" height="13.79"/><rect class="c" x="429.31" y="308.79" width="13.79" height="13.79"/><rect class="c" x="463.79" y="308.79" width="13.79" height="13.79"/><rect class="c" x="498.28" y="308.79" width="13.79" height="13.79"/><rect class="c" x="429.31" y="343.28" width="13.79" height="13.79"/><rect class="c" x="463.79" y="343.28" width="13.79" height="13.79"/><rect class="c" x="498.28" y="343.28" width="13.79" height="13.79"/><rect class="c" x="429.31" y="377.76" width="13.79" height="13.79"/><rect class="c" x="463.79" y="377.76" width="13.79" height="13.79"/><rect class="c" x="498.28" y="377.76" width="13.79" height="13.79"/><rect class="c" x="429.31" y="412.24" width="13.79" height="13.79"/><rect class="c" x="463.79" y="412.24" width="13.79" height="13.79"/><rect class="c" x="498.28" y="412.24" width="13.79" height="13.79"/><rect class="c" x="429.31" y="446.72" width="13.79" height="13.79"/><rect class="c" x="463.79" y="446.72" width="13.79" height="13.79"/><rect class="c" x="498.28" y="446.72" width="13.79" height="13.79"/><rect class="c" x="429.31" y="481.21" width="13.79" height="13.79"/><rect class="c" x="463.79" y="481.21" width="13.79" height="13.79"/><rect class="c" x="498.28" y="481.21" width="13.79" height="13.79"/><rect class="c" x="429.72" y="514.2" width="13.79" height="13.79"/><rect class="c" x="464.21" y="514.2" width="13.79" height="13.79"/><rect class="c" x="498.69" y="514.2" width="13.79" height="13.79"/><circle class="d" cx="289.49" cy="418.79" r="16.09"/><polygon class="a" points="296.55 349.83 282.76 349.83 271.26 263.62 271.26 177.41 308.05 177.41 308.05 263.62 296.55 349.83"/></svg>