<svg xmlns="http://www.w3.org/2000/svg" viewBox="0 0 600 600"><defs><style>.a{fill:#63ccff;}.b,.c{fill:none;stroke-width:12px;}.b{stroke:#039be5;stroke-miterlimit:10;}.c{stroke:#52cefd;stroke-linejoin:round;}</style></defs><title>creditCard</title><path class="a" d="M499.16,400.77a11.71,11.71,0,0,0-3.27-8.51q-3.27-3.36-10.9-6.06a84.91,84.91,0,0,1-11.87-5Q459,373.64,459,358.79q0-10.05,6.12-16.54t16.6-7.69v-13.2h9.69v13.32q10.54,1.51,16.29,8.94t5.76,19.29H498.8q0-7.64-3.42-12a11.15,11.15,0,0,0-9.3-4.39q-5.82,0-9.09,3.15t-3.27,9a11.28,11.28,0,0,0,3.25,8.45q3.22,3.18,11,6a91.91,91.91,0,0,1,12.17,5.27,31,31,0,0,1,7.45,5.54,22,22,0,0,1,4.67,7.18,25.31,25.31,0,0,1,1.63,9.51q0,10.23-6.27,16.59t-17.47,7.51v11.82h-9.63V424.82q-12-1.35-18.44-8.61T455.61,397h14.72q0,7.64,3.85,11.81t10.87,4.18q6.9,0,10.51-3.33a11.46,11.46,0,0,0,3.6-8.84Z"/><rect class="b" x="88.4" y="352.63" width="79.48" height="79.48" rx="16.03" ry="16.03"/><rect class="b" x="50.27" y="177.55" width="498.93" height="53.71"/><rect class="c" x="88.4" y="265.63" width="338.35" height="53.71"/><rect class="c" x="50.27" y="129.22" width="499.46" height="341.57" rx="33.72" ry="33.72"/></svg>