<svg xmlns="http://www.w3.org/2000/svg" viewBox="0 0 600 600"><defs><style>.a{fill:#63ccff;}.b,.c{fill:none;stroke-width:12px;}.b{stroke:#039be5;stroke-miterlimit:10;}.c{stroke:#52cefd;stroke-linejoin:round;}</style></defs><title>creditCard</title><path class="a" d="M459,380.31a9.33,9.33,0,0,0-2.61-6.78q-2.61-2.68-8.69-4.83a68,68,0,0,1-9.46-4q-11.25-6-11.25-17.86a18.43,18.43,0,0,1,4.88-13.18q4.88-5.18,13.22-6.13V317h7.73v10.62q8.4,1.22,13,7.13t4.59,15.37H458.66q0-6.08-2.73-9.58a8.88,8.88,0,0,0-7.41-3.5,10,10,0,0,0-7.24,2.51q-2.61,2.51-2.61,7.19a9,9,0,0,0,2.59,6.74c1.72,1.69,4.63,3.29,8.76,4.8a73.28,73.28,0,0,1,9.7,4.2,24.58,24.58,0,0,1,5.94,4.42,17.26,17.26,0,0,1,3.71,5.72,20.14,20.14,0,0,1,1.31,7.58q0,8.14-5,13.22t-13.93,6v9.41h-7.67v-9.36q-9.56-1.07-14.7-6.86t-5.14-15.35H436c0,4.06,1,7.19,3.07,9.42S444,390,447.7,390s6.46-.89,8.37-2.66a9.13,9.13,0,0,0,2.88-7.05Z"/><rect class="b" x="131.57" y="341.95" width="63.35" height="63.35" rx="16.03" ry="16.03"/><rect class="b" x="100.75" y="202.41" width="398.07" height="42.8"/><rect class="c" x="131.57" y="272.61" width="269.66" height="42.8"/><rect class="c" x="101.18" y="163.89" width="398.07" height="272.23" rx="33.72" ry="33.72"/></svg>