<svg xmlns="http://www.w3.org/2000/svg" viewBox="0 0 600 600"><defs><style>.a,.b,.c,.d{fill:none;}.a{stroke:#039ae4;}.a,.d{stroke-miterlimit:10;}.a,.b,.c,.d,.e{stroke-width:12px;}.b,.e{stroke:#52cefd;}.b,.c,.e{stroke-linejoin:round;}.c,.d{stroke:#039be5;}.e{fill:#fff;}</style></defs><title>cruise</title><path class="a" d="M412.39,180.1h0a34.05,34.05,0,0,1,48.16,0h1.38a34.05,34.05,0,0,1,48.16,0h0"/><path class="a" d="M452.31,140.18h0a34.05,34.05,0,0,1,48.16,0h1.37a34.05,34.05,0,0,1,48.16,0h0"/><line class="b" x1="328.19" y1="158.71" x2="324.99" y2="108.82"/><line class="b" x1="247.33" y1="108.82" x2="244.13" y2="158.71"/><line class="b" x1="286.16" y1="515.71" x2="286.16" y2="254.06"/><path class="c" d="M522.75,515.71a81.7,81.7,0,0,1-115.55,0h-3.3a81.7,81.7,0,0,1-115.55,0h-4a81.7,81.7,0,0,1-115.55,0h-3.3a81.7,81.7,0,0,1-115.55,0h0"/><polyline class="d" points="154.12 525.24 114.31 287.32 286.16 254.06 458.01 287.32 418.22 524.96"/><path class="d" d="M382.52,274,369,167.65a10.11,10.11,0,0,0-10.05-8.94H213.39a10.1,10.1,0,0,0-10,8.94L189.8,274"/><line class="d" x1="199.95" y1="194.36" x2="372.37" y2="194.36"/><line class="d" x1="199.95" y1="224.3" x2="372.37" y2="224.3"/><polyline class="c" points="125.06 351.56 286.16 328.57 447.25 351.56"/><polyline class="d" points="216.87 108.81 286.16 108.81 355.45 108.81"/><path class="e" d="M386.72,384.1H400v.55a30.49,30.49,0,0,1-61,0v-.55h13.31"/><line class="e" x1="369.53" y1="350.84" x2="369.53" y2="415.14"/><circle class="e" cx="369.53" cy="340.31" r="13.86"/><line class="d" x1="286.38" y1="60.36" x2="286.38" y2="109.14"/></svg>