<svg xmlns="http://www.w3.org/2000/svg" viewBox="0 0 600 600"><defs><style>.a,.b,.c,.d{fill:none;}.a{stroke:#039ae4;}.a,.d{stroke-miterlimit:10;}.a,.b,.c,.d,.e{stroke-width:12px;}.b,.e{stroke:#52cefd;}.b,.c,.e{stroke-linejoin:round;}.c,.d{stroke:#039be5;}.e{fill:#fff;}</style></defs><title>cruise</title><path class="a" d="M413.66,170h0a30.73,30.73,0,0,1,43.44,0h1.24a30.71,30.71,0,0,1,43.43,0h0"/><path class="a" d="M449.66,134h0a30.73,30.73,0,0,1,43.44,0h1.24a30.71,30.71,0,0,1,43.43,0h0"/><line class="b" x1="337.71" y1="150.71" x2="334.82" y2="105.71"/><line class="b" x1="264.78" y1="105.71" x2="261.89" y2="150.71"/><line class="b" x1="299.8" y1="472.71" x2="299.8" y2="236.71"/><path class="c" d="M513.2,472.71a73.69,73.69,0,0,1-104.22,0h-3a73.69,73.69,0,0,1-104.22,0h-3.56a73.69,73.69,0,0,1-104.22,0h-3a73.69,73.69,0,0,1-104.22,0h0"/><polyline class="d" points="180.71 481.3 144.8 266.71 299.8 236.71 454.8 266.71 418.91 481.05"/><path class="d" d="M386.71,254.69l-12.22-95.91a9.12,9.12,0,0,0-9.06-8.07H234.17a9.12,9.12,0,0,0-9.06,8.07l-12.22,95.91"/><line class="d" x1="222.04" y1="182.87" x2="377.56" y2="182.87"/><line class="d" x1="222.04" y1="209.87" x2="377.56" y2="209.87"/><polyline class="c" points="154.5 324.65 299.8 303.92 445.1 324.65"/><polyline class="d" points="237.3 105.71 299.8 105.71 362.3 105.71"/><path class="e" d="M390.5,354h12v.5a27.5,27.5,0,0,1-55,0V354h12"/><line class="e" x1="375" y1="324" x2="375" y2="382"/><circle class="e" cx="375" cy="314.5" r="12.5"/><line class="d" x1="300" y1="62" x2="300" y2="106"/></svg>