<svg xmlns="http://www.w3.org/2000/svg" viewBox="0 0 600 600"><defs><style>.a,.b{fill:none;stroke-width:12px;}.a{stroke:#52cefd;stroke-linejoin:round;}.b{stroke:#039ae4;stroke-miterlimit:10;}.c{fill:#039ae4;}</style></defs><title>curfew</title><path class="a" d="M216.24,303.54A190.32,190.32,0,0,1,356.29,120a190.48,190.48,0,0,0-50.18-6.7c-105.07,0-190.25,85.17-190.25,190.24S201,493.78,306.11,493.78a190.48,190.48,0,0,0,50.18-6.7A190.31,190.31,0,0,1,216.24,303.54Z"/><line class="b" x1="300" y1="303.54" x2="300" y2="72.66"/><line class="b" x1="166.86" y1="224.22" x2="336.83" y2="324.79"/><line class="b" x1="300" y1="50" x2="300" y2="74.08"/><line class="b" x1="300" y1="518.84" x2="300" y2="550"/><line class="b" x1="546.46" y1="303.54" x2="515.3" y2="303.54"/><line class="b" x1="84.7" y1="303.54" x2="53.54" y2="303.54"/><circle class="a" cx="378.43" cy="210.04" r="34.88"/><circle class="a" cx="462" cy="303.52" r="34.88"/><circle class="a" cx="330.27" cy="402.67" r="34.88"/><line class="b" x1="300" y1="357.37" x2="300" y2="289.88"/><circle class="c" cx="300.71" cy="304.25" r="24.79"/></svg>