<svg xmlns="http://www.w3.org/2000/svg" viewBox="0 0 600 600"><defs><style>.a,.b{fill:none;stroke-width:12px;}.a{stroke:#52cefd;stroke-linejoin:round;}.b{stroke:#039ae4;stroke-miterlimit:10;}.c{fill:#039ae4;}</style></defs><title>curfew</title><path class="a" d="M236.86,296a134.38,134.38,0,0,1,98.88-129.58,134.31,134.31,0,1,0,0,259.16A134.38,134.38,0,0,1,236.86,296Z"/><line class="b" x1="296" y1="296" x2="296" y2="133"/><line class="b" x1="202" y1="240" x2="322" y2="311"/><line class="b" x1="296" y1="117" x2="296" y2="134"/><line class="b" x1="296" y1="448" x2="296" y2="470"/><line class="b" x1="470" y1="296" x2="448" y2="296"/><line class="b" x1="144" y1="296" x2="122" y2="296"/><circle class="a" cx="351.37" cy="229.99" r="24.63"/><circle class="a" cx="410.37" cy="295.99" r="24.63"/><circle class="a" cx="317.37" cy="365.99" r="24.63"/><line class="b" x1="296" y1="334" x2="296" y2="286.36"/><circle class="c" cx="296.5" cy="296.5" r="17.5"/></svg>