<svg xmlns="http://www.w3.org/2000/svg" viewBox="0 0 600 600"><defs><style>.a,.b,.c,.d,.e{fill:none;stroke-width:12px;}.a,.b,.e{stroke:#52cefd;}.a,.c{stroke-linecap:square;}.a,.b,.c,.d{stroke-miterlimit:10;}.c,.d{stroke:#039ae4;}.e{stroke-linejoin:round;}</style></defs><title>curfewAlt</title><polyline class="a" points="82.74 347.63 82.74 471.62 286.19 471.62 286.19 346.42"/><polyline class="a" points="218 470.73 218 363.02 150 363.02 150 470.73"/><polyline class="b" points="463.91 415.86 463.91 471.57 286.19 471.57"/><rect class="c" x="321.26" y="392.06" width="39.75" height="39.75"/><rect class="c" x="389.08" y="392.06" width="39.75" height="39.75"/><polyline class="c" points="175.4 263.11 288.08 346.55 422.25 346.55"/><polyline class="c" points="70.38 347.63 50 347.63 170.04 257.75 373.93 257.75 443.78 310.05"/><circle class="b" cx="487.15" cy="357.45" r="62.85"/><line class="c" x1="488.76" y1="470.73" x2="488.76" y2="340.47"/><line class="d" x1="466.21" y1="388.88" x2="488.46" y2="411.14"/><line class="d" x1="509.41" y1="367.93" x2="487.15" y2="390.19"/><line class="c" x1="50" y1="471.57" x2="524.71" y2="471.57"/><path class="e" d="M112.18,202a41.36,41.36,0,0,1-30.44,39.89,41.35,41.35,0,1,0,0-79.78A41.35,41.35,0,0,1,112.18,202Z"/><circle class="e" cx="227.37" cy="206.01" r="24.63"/><circle class="e" cx="358.37" cy="153.01" r="24.63"/><circle class="e" cx="449.37" cy="225.01" r="24.63"/><circle class="c" cx="184" cy="396.02" r="13"/><path class="c" d="M184,409h0a13,13,0,0,1,13,13v49a0,0,0,0,1,0,0H171a0,0,0,0,1,0,0V422a13,13,0,0,1,13-13Z"/></svg>