<svg xmlns="http://www.w3.org/2000/svg" viewBox="0 0 600 600"><defs><style>.a,.b,.c{fill:none;}.a{stroke:#039ae4;}.a,.c,.d{stroke-linejoin:round;}.a,.b,.c,.d{stroke-width:12px;}.b,.c,.d{stroke:#52cefd;}.b{stroke-miterlimit:10;}.d{fill:#fff;}.e{fill:#039ae4;}</style></defs><title>currentBids</title><polyline class="a" points="391 466 232 466 208 447.75 155.98 447.75"/><line class="a" x1="391" y1="266" x2="391" y2="217"/><line class="a" x1="341" y1="249" x2="341" y2="217"/><path class="a" d="M391,466v13a25,25,0,0,1-50,0V466"/><line class="a" x1="361" y1="266" x2="359.02" y2="266"/><line class="b" x1="151.73" y1="272.26" x2="151.73" y2="474.29"/><path class="c" d="M301.68,300a24.86,24.86,0,0,0,5.64,8.68,25.31,25.31,0,0,0,4.68,3.68"/><path class="c" d="M359.07,316H407a25,25,0,1,0,0-50H359"/><path class="c" d="M312,319.64A25,25,0,0,0,325,366H331"/><path class="c" d="M359.07,316H407a25,25,0,0,1,0,50H359.13"/><path class="c" d="M331,366H325a25,25,0,1,0,0,50h82a25,25,0,1,0,0-50H359.13"/><rect class="c" x="300" y="416" width="132" height="50" rx="25" ry="25"/><path class="d" d="M156,299.75h52l30.05-44.83a13.36,13.36,0,0,1,11.1-5.92h90.32A19.55,19.55,0,0,1,359,268.53l.12,106.61A47.36,47.36,0,0,1,313,339.46h0a24.88,24.88,0,0,1-1-7.07V300H288a97,97,0,0,1-97,97"/><rect class="d" x="242.5" y="60" width="247" height="157"/><path class="e" d="M348.57,142.59a12.11,12.11,0,0,1,1.61,6.29,13.51,13.51,0,0,1-2.15,7.53,14.55,14.55,0,0,1-5.92,5.11,19.09,19.09,0,0,1-8.45,1.83h-22.8v-49.7h22a19.31,19.31,0,0,1,8.48,1.83,14.38,14.38,0,0,1,6,5.11,13.3,13.3,0,0,1,2.16,7.46,12.22,12.22,0,0,1-1.39,5.88,11.91,11.91,0,0,1-4,4.35A11.69,11.69,0,0,1,348.57,142.59Zm-27-18.63v9.86h11.62a5.54,5.54,0,0,0,4-1.42,4.9,4.9,0,0,0,0-7,5.53,5.53,0,0,0-4-1.42ZM338,151.66a4.78,4.78,0,0,0,1.53-3.59,4.55,4.55,0,0,0-1.5-3.5,5.71,5.71,0,0,0-4.05-1.39H321.61v9.94H334A5.63,5.63,0,0,0,338,151.66Z"/><path class="e" d="M370.21,113.65v49.7h-11v-49.7Z"/><path class="e" d="M414.13,116.9a24.63,24.63,0,0,1,9.54,8.92,24.9,24.9,0,0,1,0,25.36,24.63,24.63,0,0,1-9.54,8.92,28.26,28.26,0,0,1-13.52,3.25H382.26v-49.7h18.35A28.26,28.26,0,0,1,414.13,116.9Zm-5.41,34.24a13.42,13.42,0,0,0,5.56-5.11,15.38,15.38,0,0,0,0-15.06,13.48,13.48,0,0,0-5.56-5.11,17.75,17.75,0,0,0-8.18-1.83h-7.46V153h7.46A17.75,17.75,0,0,0,408.72,151.14Z"/></svg>