<svg xmlns="http://www.w3.org/2000/svg" viewBox="0 0 600 600"><defs><style>.a,.b,.c{fill:none;}.a{stroke:#039ae4;}.a,.c,.d{stroke-linejoin:round;}.a,.b,.c,.d{stroke-width:12px;}.b,.c,.d{stroke:#52cefd;}.b{stroke-miterlimit:10;}.d{fill:#fff;}.e{fill:#039ae4;}</style></defs><title>currentBids</title><polyline class="a" points="379.26 507.21 200.21 507.21 173.18 486.65 114.6 486.65"/><line class="a" x1="379.26" y1="281.98" x2="379.26" y2="226.8"/><line class="a" x1="322.95" y1="262.84" x2="322.95" y2="226.8"/><path class="a" d="M379.26,507.21v14.64a28.16,28.16,0,0,1-56.31,0V507.21"/><line class="a" x1="345.48" y1="281.98" x2="343.25" y2="281.98"/><line class="b" x1="109.82" y1="289.03" x2="109.82" y2="516.54"/><path class="c" d="M278.67,320.27a28,28,0,0,0,6.36,9.78,28.31,28.31,0,0,0,5.27,4.14"/><path class="c" d="M343.3,338.29h54a28.16,28.16,0,0,0,0-56.31h-54"/><path class="c" d="M290.3,342.39a28.15,28.15,0,0,0,14.64,52.2h6.7"/><path class="c" d="M343.3,338.29h54a28.15,28.15,0,1,1,0,56.3H343.37"/><path class="c" d="M311.64,394.59h-6.7a28.16,28.16,0,1,0,0,56.31h92.34a28.16,28.16,0,0,0,0-56.31H343.37"/><rect class="c" x="276.78" y="450.9" width="148.65" height="56.31" rx="25" ry="25"/><path class="d" d="M114.6,320h58.58L207,269.51a15,15,0,0,1,12.5-6.67H321.23a22,22,0,0,1,22,22l.13,120.05a53.32,53.32,0,0,1-51.93-40.18h0a27.93,27.93,0,0,1-1.15-8V320.27h-27A109.23,109.23,0,0,1,154,429.5"/><rect class="d" x="212.03" y="50" width="278.15" height="176.8"/><path class="e" d="M331.48,143a13.56,13.56,0,0,1,1.81,7.08,15.14,15.14,0,0,1-2.42,8.47,16.33,16.33,0,0,1-6.67,5.77,21.54,21.54,0,0,1-9.51,2H289v-56h24.77a21.74,21.74,0,0,1,9.54,2.06,16.17,16.17,0,0,1,6.71,5.76,14.94,14.94,0,0,1,2.43,8.39,13.87,13.87,0,0,1-1.56,6.63,13.46,13.46,0,0,1-4.53,4.89A13.19,13.19,0,0,1,331.48,143Zm-30.37-21v11.11H314.2a6.22,6.22,0,0,0,4.48-1.6,5.52,5.52,0,0,0,.05-7.9A6.22,6.22,0,0,0,314.2,122Zm18.44,31.2a5.38,5.38,0,0,0,1.73-4,5.17,5.17,0,0,0-1.69-4,6.48,6.48,0,0,0-4.57-1.56H301.11v11.19H315A6.32,6.32,0,0,0,319.55,153.22Z"/><path class="e" d="M355.84,110.42v56H343.5v-56Z"/><path class="e" d="M405.31,114.08a27.71,27.71,0,0,1,10.74,10,28,28,0,0,1,0,28.56,27.71,27.71,0,0,1-10.74,10,31.75,31.75,0,0,1-15.23,3.66H369.42v-56h20.66A31.75,31.75,0,0,1,405.31,114.08Zm-6.09,38.56a15.15,15.15,0,0,0,6.25-5.76,17.31,17.31,0,0,0,0-17,15.28,15.28,0,0,0-6.25-5.76,20,20,0,0,0-9.22-2h-8.4V154.7H390A20,20,0,0,0,399.22,152.64Z"/></svg>