<svg xmlns="http://www.w3.org/2000/svg" viewBox="0 0 600 600"><defs><style>.a,.b{fill:none;stroke-miterlimit:10;stroke-width:12px;}.a{stroke:#039ae4;}.b{stroke:#52cefd;}</style></defs><title>customerService</title><line class="a" x1="400.5" y1="550" x2="400.5" y2="459.5"/><line class="a" x1="199.5" y1="550" x2="199.5" y2="459.5"/><line class="b" x1="458.79" y1="550" x2="458.79" y2="460.37"/><path class="b" d="M458.79,459.51v.86a158.79,158.79,0,1,0-317.58,0"/><polyline class="b" points="141.21 459.51 141.21 460.37 141.21 550"/><circle class="a" cx="300" cy="203.08" r="98.5"/><path class="a" d="M300,356.15A153.12,153.12,0,0,0,444.88,252.6"/><path class="a" d="M155.12,153.55a153.13,153.13,0,0,1,289.76,0"/><path class="b" d="M433.53,179.36h55.18a22,22,0,0,1,22,22v25.43a0,0,0,0,1,0,0H411.53a0,0,0,0,1,0,0V201.36A22,22,0,0,1,433.53,179.36Z" transform="translate(664.2 -258.05) rotate(90)"/><path class="b" d="M111.29,179.36h55.18a22,22,0,0,1,22,22v25.43a0,0,0,0,1,0,0H89.29a0,0,0,0,1,0,0V201.36A22,22,0,0,1,111.29,179.36Z" transform="translate(-64.2 341.95) rotate(-90)"/></svg>