<svg xmlns="http://www.w3.org/2000/svg" viewBox="0 0 600 600"><defs><style>.a,.b{fill:none;stroke-miterlimit:10;stroke-width:12px;}.a{stroke:#039ae4;}.b{stroke:#52cefd;}</style></defs><title>customerService</title><line class="a" x1="374.32" y1="484.87" x2="374.32" y2="417.95"/><line class="a" x1="225.68" y1="484.87" x2="225.68" y2="417.95"/><line class="b" x1="417.42" y1="484.87" x2="417.42" y2="418.58"/><path class="b" d="M417.42,418v.63a117.42,117.42,0,0,0-234.84,0"/><polyline class="b" points="182.58 417.95 182.58 418.58 182.58 484.87"/><circle class="a" cx="300" cy="228.33" r="72.83"/><path class="a" d="M300,341.52A113.22,113.22,0,0,0,407.13,265"/><path class="a" d="M192.87,191.7a113.23,113.23,0,0,1,214.26,0"/><path class="b" d="M404.48,210.79h29.34a22,22,0,0,1,22,22v13.08a0,0,0,0,1,0,0H382.48a0,0,0,0,1,0,0V232.79A22,22,0,0,1,404.48,210.79Z" transform="translate(647.47 -190.82) rotate(90)"/><path class="b" d="M166.18,210.79h29.34a22,22,0,0,1,22,22v13.08a0,0,0,0,1,0,0H144.18a0,0,0,0,1,0,0V232.79A22,22,0,0,1,166.18,210.79Z" transform="translate(-47.47 409.18) rotate(-90)"/></svg>