<svg xmlns="http://www.w3.org/2000/svg" viewBox="0 0 600 600"><defs><style>.a{fill:#fff;stroke-linejoin:round;}.a,.c{stroke:#52cefd;}.a,.b,.c{stroke-width:12px;}.b,.c{fill:none;stroke-miterlimit:10;}.b{stroke:#039ae4;}</style></defs><title>dineShop</title><line class="a" x1="160" y1="322" x2="453.88" y2="322"/><path class="b" d="M154,287.94V297l-19.5,0a45.5,45.5,0,1,0,27.84,81.49,7.59,7.59,0,0,1,11,2A153.51,153.51,0,0,0,456,298h0V287.94a9.94,9.94,0,0,0-9.94-9.94H163.94A9.94,9.94,0,0,0,154,287.94Z"/><path class="b" d="M154.72,339.17s0,0,0,0c-.36-1.28-.7-2.56-1-3.86,0,0,0,0,0,0"/><circle class="b" cx="134.5" cy="342.5" r="20.5"/><path class="c" d="M240,124h0a43.31,43.31,0,0,0-.08,61.18h0l.16.15h0a43.31,43.31,0,0,1-.08,61.18h0"/><path class="c" d="M300,124h0a43.31,43.31,0,0,0-.08,61.18h0l.16.15h0a43.31,43.31,0,0,1-.08,61.18h0"/><path class="c" d="M360,124h0a43.31,43.31,0,0,0-.08,61.18h0l.16.15h0a43.31,43.31,0,0,1-.08,61.18h0"/><line class="c" x1="135" y1="482" x2="456" y2="482"/></svg>