<svg xmlns="http://www.w3.org/2000/svg" viewBox="0 0 600 600"><defs><style>.a{fill:#fff;stroke-linejoin:round;}.a,.c{stroke:#52cefd;}.a,.b,.c{stroke-width:12px;}.b,.c{fill:none;stroke-miterlimit:10;}.b{stroke:#039ae4;}</style></defs><title>dineShop</title><line class="a" x1="146.73" y1="325.89" x2="547.11" y2="325.89"/><path class="b" d="M138.56,279.49v12.38l-26.57,0a62,62,0,1,0,37.92,111,10.35,10.35,0,0,1,15,2.73,208.94,208.94,0,0,0,176,96.06c115.28,0,208.75-93.25,209.12-208.44h0v-13.7a13.54,13.54,0,0,0-13.55-13.55H152.1A13.54,13.54,0,0,0,138.56,279.49Z"/><path class="b" d="M139.54,349.28s0,0,0,0c-.49-1.74-1-3.48-1.41-5.25,0,0,0,0,0,0"/><circle class="b" cx="111.99" cy="353.81" r="27.93"/><path class="c" d="M255.72,56.13h0a59,59,0,0,0-.1,83.36h0l.2.2h0a59,59,0,0,1-.1,83.35h0"/><path class="c" d="M337.47,56.13h0a59,59,0,0,0-.11,83.36h0l.21.2h0a59,59,0,0,1-.1,83.35h0"/><path class="c" d="M419.21,56.13h0a59,59,0,0,0-.1,83.36h0l.2.2h0a59,59,0,0,1-.1,83.35h0"/><line class="c" x1="112.67" y1="543.87" x2="550" y2="543.87"/></svg>