<svg xmlns="http://www.w3.org/2000/svg" viewBox="0 0 600 600"><defs><style>.a,.b{fill:none;stroke-miterlimit:10;stroke-width:12px;}.a{stroke:#039ae4;}.b{stroke:#52cefd;}</style></defs><title>disaster</title><path class="a" d="M116.72,345.55,236.64,225.62a10.2,10.2,0,0,1,9.47-2.72l80.34,18.43a10.18,10.18,0,0,0,9.43-2.69l77-76.4a10.17,10.17,0,0,1,11.62-1.91l45.57,40.43"/><path class="a" d="M493.79,224.49l0,0-46.75,46.76a70.2,70.2,0,0,0-106.93,90.19"/><circle class="b" cx="397.15" cy="318.82" r="13.73"/><line class="b" x1="212.96" y1="285.32" x2="251.7" y2="324.06"/><path class="b" d="M214.11,361.64l93.51-93.51a3.82,3.82,0,0,0-1.84-6.43l-51-11.77a9.64,9.64,0,0,0-9,2.58L159,339.32"/><path class="a" d="M427.7,351.11l.1-.1a42.94,42.94,0,1,0-63.63-3.2"/><path class="a" d="M550,349.42l-.08-.07a43.94,43.94,0,0,0-62.16,0h0l-.15.15h0a44.05,44.05,0,0,1-62.24-.08h-.49l-.08-.07a43.94,43.94,0,0,0-62.16,0h0l-.15.15h0a44,44,0,0,1-62.17,0l-.07-.08h-.5l-.07-.07a44,44,0,0,0-62.17,0h0l-.15.15h0a44,44,0,0,1-62.16,0l-.08-.08h-.49l-.08-.07a43.94,43.94,0,0,0-62.16,0h0l-.15.15h0a44,44,0,0,1-62.16,0l-.08-.08"/><path class="b" d="M550,388.08l-.08-.08a44,44,0,0,0-62.16,0h0l-.15.15h0a44.05,44.05,0,0,1-62.24-.07h-.49l-.08-.08a44,44,0,0,0-62.16,0h0l-.15.15h0a44,44,0,0,1-62.17,0l-.07-.07h-.5l-.07-.08a44,44,0,0,0-62.17,0h0l-.15.15h0a43.94,43.94,0,0,1-62.16,0l-.08-.07h-.49l-.08-.08a44,44,0,0,0-62.16,0h0l-.15.15h0a43.94,43.94,0,0,1-62.16,0l-.08-.07"/><path class="a" d="M550,427.75l-.08-.07a43.94,43.94,0,0,0-62.16,0h0l-.15.15h0a44.05,44.05,0,0,1-62.24-.08h-.49l-.08-.07a43.94,43.94,0,0,0-62.16,0h0l-.15.15h0a44,44,0,0,1-62.17,0l-.07-.08h-.5l-.07-.07a44,44,0,0,0-62.17,0h0l-.15.15h0a44,44,0,0,1-62.16,0l-.08-.08h-.49l-.08-.07a43.94,43.94,0,0,0-62.16,0h0l-.15.15h0a44,44,0,0,1-62.16,0l-.08-.08"/><rect class="a" x="459.79" y="197.43" width="33.57" height="41.1" rx="5" ry="5" transform="translate(293.72 -273.15) rotate(45)"/></svg>