<svg xmlns="http://www.w3.org/2000/svg" viewBox="0 0 600 600"><defs><style>.a,.b{fill:none;stroke-miterlimit:10;stroke-width:12px;}.a{stroke:#039ae4;}.b{stroke:#52cefd;}</style></defs><title>disaster</title><path class="a" d="M119.83,299.77,237.72,181.89a10,10,0,0,1,9.3-2.68l79,18.11a10,10,0,0,0,9.27-2.64L411,119.58a10,10,0,0,1,11.42-1.88l44.79,39.74"/><path class="a" d="M490.5,180.77l0,0-46,46a69,69,0,0,0-105.11,88.66"/><circle class="b" cx="395.5" cy="273.5" r="13.5"/><line class="b" x1="214.44" y1="240.57" x2="252.52" y2="278.65"/><path class="b" d="M215.57,315.59l91.92-91.92a3.76,3.76,0,0,0-1.81-6.32l-50.14-11.57a9.49,9.49,0,0,0-8.85,2.53l-85.34,85.34"/><path class="a" d="M425.53,305.24l.1-.1A42.21,42.21,0,1,0,363.08,302"/><path class="a" d="M545.76,303.58l-.08-.07a43.19,43.19,0,0,0-61.1,0h0l-.16.15h0a43.3,43.3,0,0,1-61.18-.08h-.48l-.08-.07a43.19,43.19,0,0,0-61.1,0h0l-.16.15h0a43.21,43.21,0,0,1-61.1,0l-.08-.08h-.48l-.08-.07a43.19,43.19,0,0,0-61.1,0h0l-.16.15h0a43.21,43.21,0,0,1-61.1,0l-.08-.08h-.48l-.08-.07a43.19,43.19,0,0,0-61.1,0h0l-.16.15h0a43.21,43.21,0,0,1-61.1,0l-.08-.08"/><path class="b" d="M545.76,341.58l-.08-.07a43.19,43.19,0,0,0-61.1,0h0l-.16.15h0a43.3,43.3,0,0,1-61.18-.08h-.48l-.08-.07a43.19,43.19,0,0,0-61.1,0h0l-.16.15h0a43.21,43.21,0,0,1-61.1,0l-.08-.08h-.48l-.08-.07a43.19,43.19,0,0,0-61.1,0h0l-.16.15h0a43.21,43.21,0,0,1-61.1,0l-.08-.08h-.48l-.08-.07a43.19,43.19,0,0,0-61.1,0h0l-.16.15h0a43.21,43.21,0,0,1-61.1,0l-.08-.08"/><path class="a" d="M545.76,380.58l-.08-.07a43.19,43.19,0,0,0-61.1,0h0l-.16.15h0a43.3,43.3,0,0,1-61.18-.08h-.48l-.08-.07a43.19,43.19,0,0,0-61.1,0h0l-.16.15h0a43.21,43.21,0,0,1-61.1,0l-.08-.08h-.48l-.08-.07a43.19,43.19,0,0,0-61.1,0h0l-.16.15h0a43.21,43.21,0,0,1-61.1,0l-.08-.08h-.48l-.08-.07a43.19,43.19,0,0,0-61.1,0h0l-.16.15h0a43.21,43.21,0,0,1-61.1,0l-.08-.08"/><path class="b" d="M545.76,419.58l-.08-.07a43.19,43.19,0,0,0-61.1,0h0l-.16.15h0a43.3,43.3,0,0,1-61.18-.08h-.48l-.08-.07a43.19,43.19,0,0,0-61.1,0h0l-.16.15h0a43.21,43.21,0,0,1-61.1,0l-.08-.08h-.48l-.08-.07a43.19,43.19,0,0,0-61.1,0h0l-.16.15h0a43.21,43.21,0,0,1-61.1,0l-.08-.08h-.48l-.08-.07a43.19,43.19,0,0,0-61.1,0h0l-.16.15h0a43.21,43.21,0,0,1-61.1,0l-.08-.08"/><path class="a" d="M545.76,458.58l-.08-.07a43.19,43.19,0,0,0-61.1,0h0l-.16.15h0a43.3,43.3,0,0,1-61.18-.08h-.48l-.08-.07a43.19,43.19,0,0,0-61.1,0h0l-.16.15h0a43.21,43.21,0,0,1-61.1,0l-.08-.08h-.48l-.08-.07a43.19,43.19,0,0,0-61.1,0h0l-.16.15h0a43.21,43.21,0,0,1-61.1,0l-.08-.08h-.48l-.08-.07a43.19,43.19,0,0,0-61.1,0h0l-.16.15h0a43.21,43.21,0,0,1-61.1,0l-.08-.08"/><rect class="a" x="457.08" y="154.17" width="33" height="40.4" rx="5" ry="5" transform="translate(262 -283.8) rotate(45)"/></svg>