<svg xmlns="http://www.w3.org/2000/svg" viewBox="0 0 600 600"><defs><style>.a{fill:#fff;}.a,.c{stroke:#52cefd;stroke-linejoin:round;}.a,.b,.c{stroke-width:12px;}.b,.c{fill:none;}.b{stroke:#039ae4;stroke-miterlimit:10;}</style></defs><title>document</title><line class="a" x1="478.1" y1="178.87" x2="478.1" y2="479.99"/><line class="b" x1="433.56" y1="321.72" x2="127.35" y2="321.72"/><polyline class="b" points="127.71 277.2 127.71 277.2 433.17 277.2"/><polyline class="b" points="127.71 232.68 127.71 232.68 433.17 232.68"/><polyline class="b" points="127.71 187.86 127.71 187.86 297.42 187.86"/><polyline class="b" points="127.71 143.34 127.71 143.34 297.42 143.34"/><polyline class="b" points="127.71 97.95 127.71 97.95 297.42 97.95"/><line class="b" x1="433.17" y1="367.11" x2="127.71" y2="367.11"/><line class="b" x1="433.17" y1="412.07" x2="127.71" y2="412.07"/><line class="b" x1="433.17" y1="457.02" x2="127.71" y2="457.02"/><line class="b" x1="159.98" y1="501.98" x2="127.71" y2="501.98"/><polygon class="c" points="349.37 178.87 478.23 178.87 349.37 50 349.37 178.87"/><path class="c" d="M349.37,50H82.78V495.19l.39,16.31a38.51,38.51,0,1,0,77,0V480l357,.42V511.5a38.46,38.46,0,0,1-38.5,38.5H122"/></svg>