<svg xmlns="http://www.w3.org/2000/svg" viewBox="0 0 600 600"><defs><style>.a{fill:#fff;}.a,.c{stroke:#52cefd;stroke-linejoin:round;}.a,.b,.c{stroke-width:12px;}.b,.c{fill:none;}.b{stroke:#039ae4;stroke-miterlimit:10;}</style></defs><title>document</title><line class="a" x1="464.02" y1="188.44" x2="464.02" y2="465.76"/><line class="b" x1="423" y1="320" x2="141" y2="320"/><polyline class="b" points="141.33 279 141.33 279 422.64 279"/><polyline class="b" points="141.33 238 141.33 238 422.64 238"/><polyline class="b" points="141.33 196.72 141.33 196.72 297.62 196.72"/><polyline class="b" points="141.33 155.73 141.33 155.73 297.62 155.73"/><polyline class="b" points="141.33 113.92 141.33 113.92 297.62 113.92"/><line class="b" x1="422.64" y1="361.81" x2="141.33" y2="361.81"/><line class="b" x1="422.64" y1="403.21" x2="141.33" y2="403.21"/><line class="b" x1="422.64" y1="444.61" x2="141.33" y2="444.61"/><line class="b" x1="171.05" y1="486.01" x2="141.33" y2="486.01"/><polygon class="c" points="345.46 188.44 464.14 188.44 345.46 69.76 345.46 188.44"/><path class="c" d="M345.46,69.76H100v410l.36,15a35.46,35.46,0,1,0,70.92,0v-29l328.82.39v28.63a35.43,35.43,0,0,1-35.46,35.46H136.05"/></svg>