<svg xmlns="http://www.w3.org/2000/svg" viewBox="0 0 600 600"><defs><style>.a,.b,.c,.e{fill:none;}.a,.d{stroke:#52cefd;}.a,.c,.d{stroke-linejoin:round;}.a,.b,.c,.d,.e{stroke-width:12px;}.b,.c{stroke:#039be5;}.b,.e{stroke-miterlimit:10;}.d{fill:#fff;}.e{stroke:#039ae4;}</style></defs><title>drawbridge</title><line class="a" x1="88" y1="224.86" x2="137" y2="224.86"/><line class="a" x1="88" y1="257.86" x2="137" y2="257.86"/><line class="a" x1="88" y1="290.86" x2="137" y2="290.86"/><line class="a" x1="88" y1="323.86" x2="137" y2="323.86"/><line class="a" x1="88" y1="356.86" x2="137" y2="356.86"/><line class="a" x1="88" y1="389.86" x2="137" y2="389.86"/><line class="a" x1="88" y1="422.86" x2="137" y2="422.86"/><line class="a" x1="88" y1="455.86" x2="137" y2="455.86"/><line class="a" x1="463" y1="224.86" x2="512" y2="224.86"/><line class="a" x1="463" y1="257.86" x2="512" y2="257.86"/><line class="a" x1="463" y1="290.86" x2="512" y2="290.86"/><line class="a" x1="463" y1="323.86" x2="512" y2="323.86"/><line class="a" x1="463" y1="356.86" x2="512" y2="356.86"/><line class="a" x1="463" y1="389.86" x2="512" y2="389.86"/><line class="a" x1="463" y1="422.86" x2="512" y2="422.86"/><line class="a" x1="463" y1="455.86" x2="512" y2="455.86"/><polyline class="a" points="141 224.86 141 185.27 174.32 205.06"/><polyline class="a" points="175 204.86 175 165.27 208.32 185.06"/><polyline class="a" points="209 184.86 209 145.27 242.32 165.06"/><polyline class="a" points="243 164.86 243 125.27 276.32 145.06"/><polyline class="a" points="459.32 224.86 459.32 185.27 426 205.06"/><polyline class="a" points="425.32 204.86 425.32 165.27 392 185.06"/><polyline class="a" points="391.32 184.86 391.32 145.27 358 165.06"/><polyline class="a" points="357.32 164.86 357.32 125.27 324 145.06"/><line class="a" x1="328.24" y1="235" x2="326.09" y2="201.45"/><line class="a" x1="273.87" y1="201.45" x2="271.72" y2="235"/><line class="a" x1="299.98" y1="475.06" x2="299.98" y2="299.12"/><polyline class="b" points="211.19 481.47 184.42 321.48 299.98 299.12 415.54 321.48 388.78 481.28"/><polyline class="b" points="348.91 235 328.24 235 271.72 235 251.05 235"/><line class="b" x1="242.01" y1="257.05" x2="357.95" y2="257.05"/><polyline class="c" points="191.65 364.68 299.98 349.23 408.31 364.68"/><polyline class="b" points="253.38 201.45 299.98 201.45 346.58 201.45"/><path class="d" d="M367.6,386.56h8.94v.38a20.5,20.5,0,0,1-41,0v-.38h8.95"/><line class="d" x1="356.04" y1="364.2" x2="356.04" y2="407.44"/><circle class="d" cx="356.04" cy="357.11" r="9.32"/><line class="b" x1="300.13" y1="168.86" x2="300.13" y2="201.67"/><path class="e" d="M281.07,141.39,141,224.39l.18,250.67h0a54.94,54.94,0,0,0,77.7,0h2.22a54.94,54.94,0,0,0,77.7,0h2.65a55,55,0,0,0,77.71,0h2.21a55,55,0,0,0,77.71,0L459,224.39l-139.57-83.5"/><polyline class="e" points="88.5 192.34 121.5 192.34 121.93 192.34 262.57 109.34"/><polyline class="e" points="337.93 108.84 479 192.34 512 192.34"/><line class="a" x1="88" y1="488.86" x2="135" y2="488.86"/><line class="a" x1="465" y1="488.86" x2="512" y2="488.86"/><polyline class="b" points="358 295 357.95 279.1 242.01 279.1 242 295"/></svg>