<svg xmlns="http://www.w3.org/2000/svg" viewBox="0 0 600 600"><defs><style>.a,.b,.c,.e{fill:none;}.a,.d{stroke:#52cefd;}.a,.c,.d{stroke-linejoin:round;}.a,.b,.c,.d,.e{stroke-width:12px;}.b,.c{stroke:#039be5;}.b,.e{stroke-miterlimit:10;}.d{fill:#fff;}.e{stroke:#039ae4;}</style></defs><title>drawbridge</title><line class="a" x1="50" y1="211.4" x2="107.78" y2="211.4"/><line class="a" x1="50" y1="250.31" x2="107.78" y2="250.31"/><line class="a" x1="50" y1="289.23" x2="107.78" y2="289.23"/><line class="a" x1="50" y1="328.14" x2="107.78" y2="328.14"/><line class="a" x1="50" y1="367.06" x2="107.78" y2="367.06"/><line class="a" x1="50" y1="405.97" x2="107.78" y2="405.97"/><line class="a" x1="50" y1="444.89" x2="107.78" y2="444.89"/><line class="a" x1="50" y1="483.8" x2="107.78" y2="483.8"/><line class="a" x1="492.22" y1="211.4" x2="550" y2="211.4"/><line class="a" x1="492.22" y1="250.31" x2="550" y2="250.31"/><line class="a" x1="492.22" y1="289.23" x2="550" y2="289.23"/><line class="a" x1="492.22" y1="328.14" x2="550" y2="328.14"/><line class="a" x1="492.22" y1="367.06" x2="550" y2="367.06"/><line class="a" x1="492.22" y1="405.97" x2="550" y2="405.97"/><line class="a" x1="492.22" y1="444.89" x2="550" y2="444.89"/><line class="a" x1="492.22" y1="483.8" x2="550" y2="483.8"/><polyline class="a" points="112.5 211.4 112.5 164.7 151.79 188.05"/><polyline class="a" points="152.59 187.81 152.59 141.12 191.89 164.46"/><polyline class="a" points="192.69 164.23 192.69 117.53 231.98 140.88"/><polyline class="a" points="232.78 140.64 232.78 93.95 272.07 117.29"/><polyline class="a" points="487.88 211.4 487.88 164.7 448.58 188.05"/><polyline class="a" points="447.78 187.81 447.78 141.12 408.49 164.46"/><polyline class="a" points="407.69 164.23 407.69 117.53 368.4 140.88"/><polyline class="a" points="367.59 140.64 367.59 93.95 328.3 117.29"/><line class="a" x1="333.31" y1="223.35" x2="330.77" y2="183.79"/><line class="a" x1="269.19" y1="183.79" x2="266.65" y2="223.35"/><line class="a" x1="299.98" y1="506.44" x2="299.98" y2="298.96"/><polyline class="b" points="195.28 514 163.7 325.33 299.98 298.96 436.25 325.33 404.7 513.78"/><polyline class="b" points="357.68 223.35 333.31 223.35 266.65 223.35 242.28 223.35"/><line class="b" x1="231.61" y1="249.35" x2="368.34" y2="249.35"/><polyline class="c" points="172.23 376.27 299.98 358.05 427.72 376.27"/><polyline class="b" points="245.03 183.78 299.97 183.78 354.93 183.78"/><path class="d" d="M379.71,402.08h10.56v.44a24.18,24.18,0,0,1-48.36,0v-.44h10.55"/><line class="d" x1="366.09" y1="375.7" x2="366.09" y2="426.7"/><circle class="d" cx="366.09" cy="367.35" r="10.99"/><line class="b" x1="300.15" y1="145.36" x2="300.15" y2="184.04"/><path class="e" d="M277.67,113,112.5,210.83l.21,295.61h0a64.78,64.78,0,0,0,91.63,0H207a64.78,64.78,0,0,0,91.63,0h3.13a64.79,64.79,0,0,0,91.64,0H396a64.78,64.78,0,0,0,91.63,0l-.09-295.61L322.92,112.37"/><polyline class="e" points="50.59 173.05 89.5 173.05 90.01 173.05 255.86 75.17"/><polyline class="e" points="344.73 74.58 511.08 173.05 550 173.05"/><line class="a" x1="50" y1="522.72" x2="105.42" y2="522.72"/><line class="a" x1="494.58" y1="522.72" x2="550" y2="522.72"/><polyline class="b" points="368.4 294.1 368.34 275.36 231.61 275.36 231.6 294.1"/></svg>