<svg xmlns="http://www.w3.org/2000/svg" viewBox="0 0 600 600"><defs><style>.a,.b{fill:none;stroke-width:12px;}.a{stroke:#039ae4;stroke-miterlimit:10;}.b{stroke:#52cefd;stroke-linejoin:round;}</style></defs><title>eap</title><polyline class="a" points="301.68 250.36 301.68 435.53 247.21 435.53 247.21 250.36"/><polyline class="a" points="443.28 195.9 443.28 381.07 388.82 381.07 388.82 195.9"/><path class="b" d="M270.72,206.79h7.46a45.29,45.29,0,0,1,45.29,45.29v74.53a0,0,0,0,1,0,0h-98a0,0,0,0,1,0,0V252.08A45.29,45.29,0,0,1,270.72,206.79Z"/><circle class="a" cx="274.45" cy="174.11" r="32.68"/><path class="b" d="M412.32,152.32h7.46a45.29,45.29,0,0,1,45.29,45.29v74.53a0,0,0,0,1,0,0H367a0,0,0,0,1,0,0V197.61A45.29,45.29,0,0,1,412.32,152.32Z"/><circle class="a" cx="416.05" cy="119.65" r="32.68"/><path class="b" d="M550,466.74s-123.09,18.51-222.22,18.51c-129.63,0-212.09-38.91-212.09-101.46,0-25.44,30.67-54.11,63.94-65.2,0,0-129.63,27.77-129.63,92.59S170.37,513,281.48,513C448.15,513,550,466.74,550,466.74Z"/></svg>