<svg xmlns="http://www.w3.org/2000/svg" viewBox="0 0 600 600"><defs><style>.a,.b{fill:none;stroke-width:12px;}.a{stroke:#039ae4;stroke-miterlimit:10;}.b{stroke:#52cefd;stroke-linejoin:round;}</style></defs><title>eap</title><polyline class="a" points="281.78 222.96 281.78 394.05 231.46 394.05 231.46 222.96"/><polyline class="a" points="412.61 172.64 412.61 343.73 362.29 343.73 362.29 172.64"/><path class="b" d="M256.62,182.71h0A45.29,45.29,0,0,1,301.91,228v65.42a0,0,0,0,1,0,0H211.33a0,0,0,0,1,0,0V228A45.29,45.29,0,0,1,256.62,182.71Z"/><circle class="a" cx="256.62" cy="152.51" r="30.19"/><path class="b" d="M387.45,132.38h0a45.29,45.29,0,0,1,45.29,45.29v65.42a0,0,0,0,1,0,0H342.16a0,0,0,0,1,0,0V177.67a45.29,45.29,0,0,1,45.29-45.29Z"/><circle class="a" cx="387.45" cy="102.19" r="30.19"/><path class="b" d="M511.21,422.88S397.49,440,305.9,440c-119.77,0-196-35.95-196-93.74,0-23.52,28.33-50,59.08-60.25,0,0-119.77,25.66-119.77,85.55s111.21,94.1,213.87,94.1C417.11,465.65,511.21,422.88,511.21,422.88Z"/></svg>