<svg xmlns="http://www.w3.org/2000/svg" viewBox="0 0 600 600"><defs><style>.a{fill:#039ae4;}</style></defs><title>easyPay</title><path class="a" d="M451.35,60.89c67.46,0,98.65,21.7,98.65,72.59C550,200,401.39,334.2,149.77,334.2c-12.4,23-75.48,151,33.55,151,134.2,0,243.23-92.26,243.23-92.26S325.9,539.11,134.48,539.11c-202.77,0-18.25-478.22,316.87-478.22M158.16,309s123.7-6.78,208-54.08S506.93,148.18,492.31,122.14c-4.62-8.24-15.8-12.14-31.58-12.14-34.15,0-89.87,18.28-147.51,50.63C228.93,207.94,158.16,309,158.16,309M451.35,48.89c-58.31,0-115.17,14-169,41.49-47.73,24.41-91.54,58.56-130.21,101.5-34.7,38.52-63.75,82.84-84,128.14C48.43,364.16,38,406.89,38,443.58c0,32,7.79,57.74,23.15,76.44A80.57,80.57,0,0,0,92,543.11c12.37,5.31,26.67,8,42.48,8A368.9,368.9,0,0,0,265.1,527.49a386.32,386.32,0,0,0,94.36-51.86c50.11-37.3,75.9-74.36,77-75.92a12,12,0,0,0-17.63-16c-.26.22-27.15,22.75-69.66,44.95a422,422,0,0,1-75,30.66c-30.94,9.16-61.5,13.81-90.84,13.81-12.49,0-22.8-1.85-30.64-5.49A31.82,31.82,0,0,1,138.18,455c-7.81-13.07-7.73-34.53.24-62a287.64,287.64,0,0,1,18.67-46.79c57.51-.59,112.84-8.11,164.56-22.4,47.46-13.11,90.81-31.52,128.84-54.73C518.23,227.7,562,174.49,562,133.48c0-14.54-2.26-26.83-6.92-37.58A65.9,65.9,0,0,0,533,68.39c-18.07-13.12-44.78-19.5-81.67-19.5ZM184.22,294.53c7.51-9.45,17.36-21.32,29-34.16,25.1-27.7,63.85-65.68,105.88-89.27,27.2-15.27,55.05-27.91,80.55-36.55C423.85,126.34,445,122,460.73,122c13.08,0,19.48,3.1,21.11,6,3.2,5.69-3,22-24.22,44.3-23,24.24-57.59,49.87-97.34,72.18-57.74,32.4-135.69,45.29-176.06,50Z"/></svg>