<svg xmlns="http://www.w3.org/2000/svg" viewBox="0 0 600 600"><defs><style>.a{fill:#039ae4;}</style></defs><title>easyPay</title><path class="a" d="M404.1,135.54c46.4,0,67.85,14.92,67.85,49.93,0,45.75-102.22,138-275.28,138-8.53,15.85-51.91,103.84,23.08,103.84,92.3,0,167.29-63.46,167.29-63.46S317.82,464.46,186.15,464.46c-139.46,0-12.55-328.92,218-328.92M202.44,306.22s85.09-4.67,143.06-37.2,96.82-73.44,86.77-91.35c-3.18-5.67-10.86-8.36-21.72-8.36-23.49,0-61.81,12.58-101.46,34.83-58,32.54-106.65,102.08-106.65,102.08M404.1,123.54c-40.71,0-80.39,9.74-117.94,29-33.23,17-63.73,40.76-90.64,70.64a346.61,346.61,0,0,0-58.41,89.11c-13.78,30.84-21.06,60.75-21.06,86.52,0,22.91,5.64,41.4,16.77,54.95,12.22,14.88,30.67,22.75,53.33,22.75A257.41,257.41,0,0,0,277.32,460a269.89,269.89,0,0,0,65.82-36.17c34.95-26,53-52,53.78-53.1a12,12,0,0,0-17.63-16c-.17.15-18.48,15.47-47.4,30.55-26.32,13.72-67.13,30.07-112.14,30.07-14.24,0-23.6-3.59-27.83-10.68-4.83-8.08-4.64-21.81.54-39.7a190.32,190.32,0,0,1,11.59-29.51A445.16,445.16,0,0,0,315.89,320c33-9.11,63.12-21.91,89.57-38.05,23.47-14.33,43.22-30.92,57.12-48S484,200,484,185.47c0-21.37-7.22-37.46-21.47-47.8-13.1-9.51-32.19-14.13-58.38-14.13ZM229.19,291.34c18.65-22.5,50.69-57,85.78-76.73,36-20.23,73.55-33.3,95.58-33.3,7.79,0,10.81,1.73,11.25,2.23.49,1.46-1.07,10.63-17.39,27.39-15.59,16-38.59,32.92-64.78,47.62-35.15,19.73-81.45,28.8-110.44,32.79Z"/></svg>