<svg xmlns="http://www.w3.org/2000/svg" viewBox="0 0 600 600"><defs><style>.a,.b{fill:none;}.a,.c{stroke:#52cefd;}.a,.b,.c{stroke-linecap:square;stroke-miterlimit:10;stroke-width:12px;}.b{stroke:#039ae4;}.c{fill:#fff;}.d{fill:#039ae4;}</style></defs><title>economics</title><line class="a" x1="153.85" y1="219.34" x2="445.87" y2="219.34"/><line class="a" x1="153.85" y1="381.21" x2="445.87" y2="381.21"/><circle class="b" cx="299.86" cy="300.27" r="168.98"/><ellipse class="b" cx="299.86" cy="300.27" rx="114.29" ry="168.98"/><ellipse class="b" cx="299.86" cy="300.27" rx="55.23" ry="168.98"/><circle class="c" cx="395.96" cy="395.54" r="73.16"/><path class="d" d="M407.88,413.58a9.69,9.69,0,0,0-2.7-7q-2.71-2.78-9-5a71.37,71.37,0,0,1-9.82-4.13q-11.67-6.27-11.67-18.54a19.16,19.16,0,0,1,5.06-13.68q5.06-5.35,13.73-6.36V347.9h8v11q8.71,1.26,13.48,7.39t4.75,16H407.59q0-6.31-2.84-9.95a9.23,9.23,0,0,0-7.69-3.63,10.37,10.37,0,0,0-7.51,2.61q-2.71,2.59-2.71,7.46a9.33,9.33,0,0,0,2.69,7q2.67,2.64,9.09,5a79.55,79.55,0,0,1,10.07,4.36,25.76,25.76,0,0,1,6.15,4.59,18,18,0,0,1,3.86,5.94,20.72,20.72,0,0,1,1.36,7.86q0,8.46-5.19,13.73t-14.45,6.21v9.77h-8v-9.72q-9.93-1.11-15.26-7.12t-5.33-15.93H384q0,6.31,3.18,9.77t9,3.46c3.81,0,6.7-.92,8.69-2.76a9.45,9.45,0,0,0,3-7.31Z"/><line class="a" x1="300.4" y1="130.75" x2="300.4" y2="468.7"/><line class="a" x1="130.88" y1="300.27" x2="468.83" y2="300.27"/></svg>