<svg xmlns="http://www.w3.org/2000/svg" viewBox="0 0 600 600"><defs><style>.a{fill:#52cefd;}.b,.c,.d,.e{fill:none;stroke-miterlimit:10;stroke-width:12px;}.b,.c{stroke:#52cefd;}.b,.e{stroke-linecap:square;}.d,.e{stroke:#039ae4;}</style></defs><title>economics</title><path class="a" d="M477.48,467.75a32.5,32.5,0,0,1-1.32,9.54,25.59,25.59,0,0,1-6.35,10.76,30.63,30.63,0,0,1-14.76,8,46.63,46.63,0,0,1-6.61,1.14v14.44H436.68V497.3q-14.69-1.64-22.56-10.52c-.32-.37-.65-.76-1-1.14q-6.92-8.65-6.92-22.41h18a29.58,29.58,0,0,0,.46,5.39,17.65,17.65,0,0,0,4.24,9.05q4.71,5.11,13.29,5.11t12.85-4.08a14,14,0,0,0,4.4-10.8,14.33,14.33,0,0,0-4-10.41q-4-4.1-13.33-7.4c-2.16-.77-4.16-1.51-6-2.24a78.29,78.29,0,0,1-8.55-3.87q-17.25-9.27-17.25-27.41,0-12.29,7.48-20.22t20.3-9.4V370.81H450V387.1Q462.89,389,469.92,398t7,23.59H459q0-9.33-4.19-14.7a13.66,13.66,0,0,0-11.37-5.37c-4.73,0-8.44,1.29-11.1,3.86s-4,6.24-4,11a13.79,13.79,0,0,0,4,10.33q3.94,3.9,13.43,7.36a117.36,117.36,0,0,1,14.89,6.45,38.08,38.08,0,0,1,9.09,6.78,26.68,26.68,0,0,1,5.71,8.78A30.75,30.75,0,0,1,477.48,467.75Z"/><line class="b" x1="83.95" y1="180.76" x2="515.62" y2="180.76"/><polyline class="c" points="83.96 420.05 151.44 420.05 228.1 420.05 300.59 420.05 335.79 420.05"/><path class="d" d="M373.63,525.14a108,108,0,0,1-39.93-83.91,107,107,0,0,1,2.09-21.18,108.14,108.14,0,0,1,198.85-34.39,249,249,0,0,0,14.93-85.26C549.57,163.17,438.93,51.8,302,50.64l-1.39,0h-.8c-.72,0-1.46,0-2.18,0C160.65,51.8,50,163.17,50,300.4S160.65,549,297.61,550.18H302a248.94,248.94,0,0,0,85.13-15.67"/><path class="d" d="M373.63,525.14c-21.68,15.61-46,24.55-71.65,25h-4.37C234.53,549,179.79,496.71,151.44,420.05c-13.14-35.52-20.61-76.29-20.61-119.65s7.47-84.11,20.61-119.63c28.35-76.67,83.09-129,146.17-130.13.72,0,1.46,0,2.18,0h.8l1.39,0C365,51.82,419.8,104.1,448.13,180.77c13.15,35.52,20.61,76.29,20.61,119.63,0,12.09-.58,24-1.71,35.62"/><path class="d" d="M349.76,498c-13.81,32.76-31.15,52.24-50,52.24-30.92,0-57.84-52.59-71.69-130.14-6.36-35.52-10-76.29-10-119.65s3.6-84.11,10-119.63C242,103.22,268.87,50.62,299.79,50.62c.27,0,.54,0,.8,0,30.59.9,57.15,53.24,70.88,130.13,6.36,35.52,10,76.29,10,119.63,0,18-.62,35.49-1.81,52.37"/><path class="e" d="M373.63,525.14a107.88,107.88,0,0,0,68.22,24.24,108.16,108.16,0,0,0,92.79-163.72"/><line class="c" x1="300.6" y1="49.81" x2="300.6" y2="549.38"/><line class="c" x1="50" y1="300.4" x2="549.58" y2="300.4"/></svg>