<svg xmlns="http://www.w3.org/2000/svg" viewBox="0 0 600 600"><defs><style>.a,.b{fill:none;}.a,.c{stroke:#52cefd;}.a,.b,.c{stroke-miterlimit:10;stroke-width:12px;}.b{stroke:#039ae4;}.b,.c{stroke-linecap:square;}.c{fill:#fff;}</style></defs><title>emergency</title><line class="a" x1="549.77" y1="287.87" x2="448.65" y2="304.84"/><line class="a" x1="464.28" y1="136.94" x2="397.37" y2="215.32"/><line class="a" x1="300.9" y1="179.51" x2="301.79" y2="76.11"/><line class="a" x1="203.92" y1="213.8" x2="138.17" y2="134.08"/><line class="a" x1="151.36" y1="302.38" x2="50.23" y2="283.64"/><path class="b" d="M417.75,463.63h-240L197,276.06A33.49,33.49,0,0,1,230.34,246H365.2a33.49,33.49,0,0,1,33.31,30.07Z"/><path class="c" d="M264.74,275h-27a10,10,0,0,0-10,9.09L214.06,433.49"/><rect class="c" x="154.35" y="463.63" width="286.83" height="60.27"/><line class="c" x1="50" y1="523.89" x2="550" y2="523.89"/></svg>