<svg xmlns="http://www.w3.org/2000/svg" viewBox="0 0 600 600"><defs><style>.a,.b{fill:none;}.a,.c{stroke:#52cefd;}.a,.b,.c{stroke-miterlimit:10;stroke-width:12px;}.b{stroke:#039ae4;}.b,.c{stroke-linecap:square;}.c{fill:#fff;}</style></defs><title>emergency</title><line class="a" x1="523.79" y1="289.13" x2="433.19" y2="304.34"/><line class="a" x1="447.2" y1="153.9" x2="387.24" y2="224.13"/><line class="a" x1="300.81" y1="192.04" x2="301.6" y2="99.39"/><line class="a" x1="213.91" y1="222.76" x2="155" y2="151.34"/><line class="a" x1="166.82" y1="302.13" x2="76.21" y2="285.34"/><path class="b" d="M405.5,446.61h-215l17.24-168.06a30,30,0,0,1,29.85-26.94H358.41a30,30,0,0,1,29.85,26.94Z"/><path class="c" d="M268.4,277.61H244.18a9,9,0,0,0-8.93,8.14L223,419.61"/><rect class="c" x="169.5" y="446.61" width="257" height="54"/><line class="c" x1="76" y1="500.61" x2="524" y2="499.66"/></svg>