<svg xmlns="http://www.w3.org/2000/svg" viewBox="0 0 600 600"><defs><style>.a,.b{fill:none;stroke-miterlimit:10;stroke-width:12px;}.a{stroke:#52cefd;}.b{stroke:#039ae4;stroke-linecap:square;}</style></defs><title>emotionalWellness</title><path class="a" d="M418.5,114v29.54A13.46,13.46,0,0,1,405,157H181.5a40,40,0,0,0-40,40h0v43a20,20,0,0,0,20,20h0a20,20,0,0,0,20-20V210.46A13.46,13.46,0,0,1,195,197H221a13.46,13.46,0,0,1,13.46,13.46V395a80.53,80.53,0,0,0,31.87,64.17l41.8,31.7a13.47,13.47,0,0,1,5.33,10.73V527a20,20,0,0,0,20,20h0a20,20,0,0,0,20-20l-.12-59.43a13.45,13.45,0,0,0-3.93-9.48l-46-46.09a13.44,13.44,0,0,1-3.93-9.51v-57A13.46,13.46,0,0,1,313,332h0a13.47,13.47,0,0,1,9.52,3.94L358.56,372a13.47,13.47,0,0,1,3.94,9.52v64.87a13.46,13.46,0,0,0,4,9.54l42.32,42.17a20,20,0,0,0,28.23,0l.06,0a20,20,0,0,0,0-28.26l-14.93-14.92a13.47,13.47,0,0,1-3.88-10.8l5.47-57.34a80.52,80.52,0,0,0-23.17-64.54L369.43,291a13.5,13.5,0,0,1-3.93-9.51v-71A13.46,13.46,0,0,1,379,197H418.5a40,40,0,0,0,40-40h0V114a20,20,0,0,0-20-20h0A20,20,0,0,0,418.5,114Z"/><circle class="b" cx="302" cy="105.5" r="52.5"/><path class="b" d="M234.5,281.49V395a80.53,80.53,0,0,0,31.87,64.17l41.8,31.7a13.47,13.47,0,0,1,5.33,10.73V527a20,20,0,0,0,20,20h0a20,20,0,0,0,20-20l-.12-59.43a13.45,13.45,0,0,0-3.93-9.48l-46-46.09a13.44,13.44,0,0,1-3.93-9.51v-57A13.46,13.46,0,0,1,313,332h0a13.47,13.47,0,0,1,9.52,3.94L358.56,372a13.47,13.47,0,0,1,3.94,9.52v64.87a13.46,13.46,0,0,0,4,9.54l42.32,42.17a20,20,0,0,0,28.23,0l.06,0a20,20,0,0,0,0-28.26l-14.93-14.92a13.47,13.47,0,0,1-3.88-10.8l5.47-57.34a80.52,80.52,0,0,0-23.17-64.54L369.43,291a13.5,13.5,0,0,1-3.93-9.51"/><circle class="b" cx="302" cy="105.5" r="52.5"/><line class="a" x1="444" y1="438" x2="475" y2="407"/><line class="a" x1="459.58" y1="458.5" x2="503.42" y2="458.5"/><line class="a" x1="290.42" y1="522.5" x2="259.42" y2="553.5"/><line class="a" x1="274.84" y1="502" x2="231" y2="502"/></svg>