<svg xmlns="http://www.w3.org/2000/svg" viewBox="0 0 600 600"><defs><style>.a,.b{fill:none;stroke-miterlimit:10;stroke-width:12px;}.a{stroke:#52cefd;}.b{stroke:#039ae4;stroke-linecap:square;}</style></defs><title>emotionalWellness</title><path class="a" d="M395.94,110.94v29.51A13.45,13.45,0,0,1,382.5,153.9H159.18a40,40,0,0,0-40,40h0v42.95a20,20,0,0,0,20,20h0a20,20,0,0,0,20-20V207.3a13.45,13.45,0,0,1,13.45-13.44h26.05a13.45,13.45,0,0,1,13.45,13.44V391.66A80.46,80.46,0,0,0,244,455.76l41.77,31.67a13.47,13.47,0,0,1,5.32,10.72v25.4a20,20,0,0,0,20,20h0a20,20,0,0,0,20-20l-.12-59.37a13.43,13.43,0,0,0-3.93-9.47L281,408.62a13.48,13.48,0,0,1-3.93-9.5V342.17a13.45,13.45,0,0,1,13.45-13.45h0a13.45,13.45,0,0,1,9.51,3.94l36,36a13.45,13.45,0,0,1,3.94,9.51V443a13.41,13.41,0,0,0,4,9.52l42.28,42.13a20,20,0,0,0,28.2,0l.05-.06a19.94,19.94,0,0,0,0-28.22l-14.91-14.91a13.49,13.49,0,0,1-3.88-10.79l5.47-57.28A80.44,80.44,0,0,0,378,318.91l-31.09-31.15a13.43,13.43,0,0,1-3.93-9.5v-71a13.45,13.45,0,0,1,13.45-13.44h39.49a40,40,0,0,0,40-40h0v-43a20,20,0,0,0-20-20h0A20,20,0,0,0,395.94,110.94Z"/><circle class="b" cx="279.56" cy="102.45" r="52.45"/><path class="b" d="M212.13,278.26v113.4A80.46,80.46,0,0,0,244,455.76l41.77,31.67a13.47,13.47,0,0,1,5.32,10.72v25.4a20,20,0,0,0,20,20h0a20,20,0,0,0,20-20l-.12-59.37a13.43,13.43,0,0,0-3.93-9.47L281,408.62a13.48,13.48,0,0,1-3.93-9.5V342.17a13.45,13.45,0,0,1,13.45-13.45h0a13.45,13.45,0,0,1,9.51,3.94l36,36a13.45,13.45,0,0,1,3.94,9.51V443a13.41,13.41,0,0,0,4,9.52l42.28,42.13a20,20,0,0,0,28.2,0l.05-.06a19.94,19.94,0,0,0,0-28.22l-14.91-14.91a13.49,13.49,0,0,1-3.88-10.79l5.47-57.28A80.44,80.44,0,0,0,378,318.91l-31.09-31.15a13.43,13.43,0,0,1-3.93-9.5"/><circle class="b" cx="279.56" cy="102.45" r="52.45"/><line class="a" x1="421.42" y1="434.62" x2="452.39" y2="403.65"/><line class="a" x1="436.98" y1="455.09" x2="480.78" y2="455.09"/><line class="a" x1="267.99" y1="519.03" x2="237.02" y2="550"/><line class="a" x1="252.43" y1="498.55" x2="208.63" y2="498.55"/></svg>