<svg xmlns="http://www.w3.org/2000/svg" viewBox="0 0 600 600"><defs><style>.a,.b,.c,.d{fill:none;stroke-width:12px;}.a,.c{stroke:#039ae4;}.a,.d{stroke-linecap:round;}.a,.b,.c{stroke-miterlimit:10;}.b,.d{stroke:#52cefd;}.c{stroke-linecap:square;}.d{stroke-linejoin:round;}</style></defs><title>energySense</title><line class="a" x1="438.78" y1="141.52" x2="392.01" y2="188.29"/><line class="a" x1="480.7" y1="183.44" x2="433.93" y2="230.21"/><path class="b" d="M260.65,192a71.43,71.43,0,0,1-99.1,102.9c-28.42-27.37-33.08-131-33.08-131S232.23,164.64,260.65,192Z"/><line class="c" x1="195.51" y1="228.44" x2="298.4" y2="327.54"/><line class="c" x1="329.86" y1="294.32" x2="301.81" y2="323.45"/><path class="b" d="M372.31,440.3A71.43,71.43,0,1,1,229.48,443c-.75-39.44,69.26-116,69.26-116S371.57,400.86,372.31,440.3Z"/><path class="b" d="M311.77,191.89H430.34a0,0,0,0,1,0,0v67.58a51,51,0,0,1-51,51h-16.6a51,51,0,0,1-51-51V191.89a0,0,0,0,1,0,0Z" transform="translate(286.28 -188.81) rotate(45)"/><path class="a" d="M297.84,370.35s-40,46.53-40,72.51"/><circle class="d" cx="300" cy="300" r="250"/></svg>