<svg xmlns="http://www.w3.org/2000/svg" viewBox="0 0 600 600"><defs><style>.a,.b,.c,.d{fill:none;stroke-width:12px;}.a,.c{stroke:#039ae4;}.a,.d{stroke-linecap:round;}.a,.b,.c{stroke-miterlimit:10;}.b,.d{stroke:#52cefd;}.c{stroke-linecap:square;}.d{stroke-linejoin:round;}</style></defs><title>energySense</title><line class="a" x1="419.35" y1="163.71" x2="379.13" y2="203.93"/><line class="a" x1="455.4" y1="199.76" x2="415.18" y2="239.98"/><path class="b" d="M266.16,207.13a61.43,61.43,0,1,1-85.23,88.49c-24.44-23.54-28.45-112.69-28.45-112.69S241.72,183.59,266.16,207.13Z"/><line class="c" x1="210.14" y1="238.46" x2="298.63" y2="323.69"/><line class="c" x1="325.68" y1="295.12" x2="301.56" y2="320.17"/><path class="b" d="M362.18,420.66A61.43,61.43,0,1,1,239.35,423c-.64-33.92,59.56-99.8,59.56-99.8S361.55,386.74,362.18,420.66Z"/><path class="b" d="M310.12,207h102a0,0,0,0,1,0,0v51a51,51,0,0,1-51,51h0a51,51,0,0,1-51-51V207a0,0,0,0,1,0,0Z" transform="translate(288.2 -179.77) rotate(45)"/><path class="a" d="M298.14,360.5s-34.44,40-34.44,62.36"/><circle class="d" cx="300" cy="300" r="215"/></svg>