<svg xmlns="http://www.w3.org/2000/svg" viewBox="0 0 600 600"><defs><style>.a,.b{fill:none;stroke-width:12px;}.a{stroke:#52cefd;stroke-linecap:round;stroke-linejoin:round;}.b{stroke:#039ae4;stroke-linecap:square;stroke-miterlimit:10;}</style></defs><title>environment</title><path class="a" d="M299,233.45s3.85-84.63,56.29-121.88"/><path class="a" d="M299.48,233.45s-3.85-84.63-56.29-121.88"/><path class="b" d="M523.85,116c-31.61-31.61-105.32-9.14-164.64,50.18-29.69,29.68-50.14,63-59.21,92.79-9.07-29.82-29.52-63.11-59.21-92.79-59.32-59.32-133-81.79-164.64-50.18S32.76,236.84,92.08,296.16C118,322.07,153.18,338,187.23,345a141.87,141.87,0,0,0-19.62,16.39c-39.29,39.29-48.76,93.52-21.15,121.13s81.83,18.13,121.12-21.15c15.78-15.78,26.73-34,32.42-51.85,5.69,17.89,16.64,36.07,32.42,51.85,39.29,39.28,93.52,48.75,121.12,21.15s18.14-81.84-21.15-121.13A141.87,141.87,0,0,0,412.77,345c34.05-7.07,69.24-23,95.15-48.88C567.24,236.84,555.46,147.56,523.85,116Z"/><ellipse class="a" cx="437.5" cy="225.9" rx="51.96" ry="29.78" transform="translate(-31.59 375.53) rotate(-45)"/><ellipse class="a" cx="163.76" cy="225.9" rx="29.78" ry="51.96" transform="translate(-111.77 181.96) rotate(-45)"/><ellipse class="a" cx="217.89" cy="404.59" rx="31.41" ry="18.01" transform="translate(-222.27 272.57) rotate(-45)"/><ellipse class="a" cx="383.38" cy="404.59" rx="18.01" ry="31.41" transform="translate(-173.8 389.59) rotate(-45)"/></svg>