<svg xmlns="http://www.w3.org/2000/svg" viewBox="0 0 600 600"><defs><style>.a,.b{fill:none;stroke-width:12px;}.a{stroke:#52cefd;stroke-linecap:round;stroke-linejoin:round;}.b{stroke:#039ae4;stroke-linecap:square;stroke-miterlimit:10;}</style></defs><title>environment</title><path class="a" d="M299,233s3.79-83.28,55.39-119.93"/><path class="a" d="M299.49,233s-3.79-83.28-55.39-119.93"/><path class="b" d="M520.27,117.37c-31.1-31.11-103.64-9-162,49.37C329.05,196,308.92,228.71,300,258c-8.92-29.33-29.05-62.09-58.26-91.3-58.37-58.37-130.91-80.48-162-49.37S37,236.32,95.41,294.69c25.5,25.5,60.12,41.15,93.63,48.1a139.46,139.46,0,0,0-19.32,16.13c-38.65,38.66-48,92-20.81,119.19S229.44,496,268.1,457.3c15.52-15.53,26.3-33.41,31.9-51,5.6,17.62,16.38,35.5,31.9,51,38.66,38.65,92,48,119.19,20.81s17.84-80.53-20.82-119.19A138.8,138.8,0,0,0,411,342.79c33.51-7,68.13-22.6,93.63-48.1C563,236.32,551.37,148.47,520.27,117.37Z"/><ellipse class="a" cx="435.3" cy="225.56" rx="51.13" ry="29.31" transform="translate(-32 373.87) rotate(-45)"/><ellipse class="a" cx="165.94" cy="225.56" rx="29.31" ry="51.13" transform="translate(-110.89 183.4) rotate(-45)"/><ellipse class="a" cx="219.2" cy="401.39" rx="30.91" ry="17.72" transform="translate(-219.62 272.56) rotate(-45)"/><ellipse class="a" cx="382.05" cy="401.39" rx="17.72" ry="30.91" transform="translate(-171.92 387.71) rotate(-45)"/></svg>