<svg xmlns="http://www.w3.org/2000/svg" viewBox="0 0 600 600"><defs><style>.a,.b,.c,.d{fill:none;stroke-miterlimit:10;stroke-width:12px;}.a,.b{stroke:#52cefd;}.b,.d{stroke-linecap:square;}.c,.d{stroke:#039ae4;}</style></defs><title>events</title><polyline class="a" points="546.73 202.06 546.73 485.57 366.37 485.57 110.79 485.57 110.79 202.29"/><path class="a" d="M242,202.06V392.74"/><line class="a" x1="445.62" y1="202.06" x2="445.62" y2="485.57"/><line class="a" x1="547.42" y1="300" x2="156.49" y2="300"/><polyline class="a" points="205.99 389.47 258.06 389.47 547.42 389.47"/><path class="a" d="M343.81,202.06V485.57"/><line class="a" x1="212.6" y1="485.57" x2="212.6" y2="391"/><line class="a" x1="110.79" y1="389.47" x2="213.16" y2="389.47"/><line class="a" x1="113.42" y1="300" x2="157.89" y2="300"/><polyline class="a" points="138.92 485.57 455.28 485.57 485.57 485.57"/><line class="b" x1="78.35" y1="203.38" x2="78.35" y2="485.57"/><polyline class="b" points="485.57 114.43 455.28 114.43 138.92 114.43 108.63 114.43 78.35 114.43"/><rect class="c" x="140.21" y="114.43" width="407.22" height="85.05"/><line class="b" x1="133.03" y1="114.43" x2="109.28" y2="114.43"/><path class="c" d="M140.21,199.48s0,203.61,129.3,203.61c0,33,10.74,52.78,23.63,64.65,19.33,17.83,43.51,17.83,43.51,17.83"/><path class="c" d="M276.05,403.09c-32.67,0-63.62-13-81.87-32.42l3.22,4.07,92.44,89.72,3.3,3.28c-12.89-11.87-23.63-31.67-23.63-64.65-129.3,0-129.3-203.61-129.3-203.61"/><circle class="a" cx="242.81" cy="157.62" r="13.07"/><circle class="a" cx="445.42" cy="157.62" r="13.07"/><polyline class="d" points="547.42 114.43 50 114.43 50 485.57"/><line class="c" x1="50" y1="199.48" x2="141.5" y2="199.48"/><polyline class="c" points="334.01 485.57 546.73 485.57 546.73 114.43 110.79 114.43"/></svg>