<svg xmlns="http://www.w3.org/2000/svg" viewBox="0 0 600 600"><defs><style>.a,.b,.c,.d{fill:none;stroke-miterlimit:10;stroke-width:12px;}.a,.b{stroke:#52cefd;}.b,.d{stroke-linecap:square;}.c,.d{stroke:#039ae4;}</style></defs><title>events</title><polyline class="a" points="548.66 201.55 548.66 486.53 367.37 486.53 110.47 486.53 110.47 201.78"/><path class="a" d="M242.36,201.55V393.22"/><line class="a" x1="447.02" y1="201.55" x2="447.02" y2="486.53"/><line class="a" x1="549.36" y1="300" x2="156.4" y2="300"/><polyline class="a" points="206.15 389.94 258.5 389.94 549.36 389.94"/><path class="a" d="M344.69,201.55v285"/><line class="a" x1="212.8" y1="486.53" x2="212.8" y2="391.47"/><line class="a" x1="110.47" y1="389.94" x2="213.36" y2="389.94"/><line class="a" x1="113.1" y1="300" x2="157.81" y2="300"/><polyline class="a" points="138.73 486.53 456.74 486.53 487.18 486.53"/><line class="b" x1="78.99" y1="203.38" x2="78.99" y2="485.57"/><polyline class="b" points="487.18 113.47 456.74 113.47 138.73 113.47 108.29 113.47 77.85 113.47"/><rect class="c" x="140.03" y="113.47" width="409.33" height="85.49"/><line class="b" x1="132.81" y1="113.47" x2="108.94" y2="113.47"/><path class="c" d="M140,199s0,204.67,130,204.67c0,33.15,10.79,53,23.74,65,19.44,17.92,43.74,17.92,43.74,17.92"/><path class="c" d="M276.58,403.63c-32.84,0-63.95-13.07-82.29-32.59l3.23,4.09,92.92,90.18,3.31,3.3c-12.95-11.94-23.74-31.83-23.74-65C140,403.63,140,199,140,199"/><circle class="a" cx="243.17" cy="156.89" r="13.14"/><circle class="a" cx="446.83" cy="156.89" r="13.14"/><polyline class="d" points="549.36 113.47 49.36 113.47 49.36 486.53"/><line class="c" x1="49.36" y1="198.96" x2="141.33" y2="198.96"/><polyline class="c" points="334.84 486.53 548.66 486.53 548.66 113.47 110.47 113.47"/></svg>