<svg xmlns="http://www.w3.org/2000/svg" viewBox="0 0 600 600"><defs><style>.a,.b{fill:none;stroke-miterlimit:10;stroke-width:12px;}.a{stroke:#039ae4;}.b{stroke:#52cefd;}</style></defs><title>familyPlanning</title><polyline class="a" points="80.59 239.42 80.59 546.84 186.08 546.84 186.08 239.42"/><line class="a" x1="133.33" y1="380.17" x2="133.33" y2="546.84"/><polyline class="a" points="247.26 379.42 247.26 546.84 352.74 546.84 352.74 379.42"/><line class="a" x1="300" y1="464" x2="300" y2="546.84"/><polyline class="a" points="412.14 239.42 412.14 546.84 517.62 546.84 517.62 239.42"/><line class="a" x1="464.88" y1="460" x2="464.88" y2="546.84"/><path class="b" d="M192,380.17H50V239.87a83.33,83.33,0,0,1,83.33-83.33h0a83.33,83.33,0,0,1,83.34,83.33V265l42.46,42.87"/><path class="b" d="M216.67,379.87A83.33,83.33,0,0,1,300,296.54h0a83.33,83.33,0,0,1,83.33,83.33v80.3H216.67v-80"/><path class="b" d="M341,307l42.26-42V239.87a83.39,83.39,0,0,1,83.41-83.33h0A83.33,83.33,0,0,1,550,239.87V379H517.62v81.17H406.5"/><circle class="a" cx="133.33" cy="104.85" r="51.69"/><circle class="a" cx="300" cy="244.85" r="51.69"/><circle class="a" cx="466.67" cy="104.85" r="51.69"/></svg>