<svg xmlns="http://www.w3.org/2000/svg" viewBox="0 0 600 600"><defs><style>.a,.b{fill:none;stroke-miterlimit:10;stroke-width:12px;}.a{stroke:#039ae4;}.b{stroke:#52cefd;}</style></defs><title>familyPlanning</title><polyline class="a" points="79.59 225.42 79.59 532.84 185.08 532.84 185.08 225.42"/><line class="a" x1="132.33" y1="366.17" x2="132.33" y2="532.84"/><polyline class="a" points="246.26 365.42 246.26 532.84 351.74 532.84 351.74 365.42"/><line class="a" x1="299" y1="450" x2="299" y2="532.84"/><polyline class="a" points="411.14 225.42 411.14 532.84 516.62 532.84 516.62 225.42"/><line class="a" x1="463.88" y1="446" x2="463.88" y2="532.84"/><path class="b" d="M191,366.17H49V225.87a83.33,83.33,0,0,1,83.33-83.33h0a83.33,83.33,0,0,1,83.34,83.33V251l42.46,42.87"/><path class="b" d="M215.67,365.87A83.33,83.33,0,0,1,299,282.54h0a83.33,83.33,0,0,1,83.33,83.33v80.3H215.67v-80"/><path class="b" d="M340,293l42.26-42V225.87a83.39,83.39,0,0,1,83.41-83.33h0A83.33,83.33,0,0,1,549,225.87V365H516.62v81.17H405.5"/><circle class="a" cx="132.33" cy="90.85" r="51.69"/><circle class="a" cx="299" cy="230.85" r="51.69"/><circle class="a" cx="465.67" cy="90.85" r="51.69"/></svg>