<svg xmlns="http://www.w3.org/2000/svg" viewBox="0 0 600 600"><defs><style>.a,.b{fill:none;stroke-miterlimit:10;stroke-width:12px;}.a{stroke:#039ae4;}.b{stroke:#52cefd;}</style></defs><title>faqs</title><path class="a" d="M263.59,343.73v-11.5q0-19.16,9.93-31.36t28.4-21.95a76.81,76.81,0,0,1,7.31-3.49q13.25-7,19.17-11.84T334.32,250q0-10.45-9.06-17.25T301.57,226q-15.69,0-25.44,8.72t-12.89,23.69l-49.83-13.59q8-31.7,32.23-50.18t57-18.46q23.34,0,42.51,8.88a72.51,72.51,0,0,1,30.32,25.44q11.15,16.56,11.15,37.81,0,21.6-11.67,37.63t-34,27.87q-13.59,7-17.59,11.33t-4,14.11v4.53ZM270,414.82a29.26,29.26,0,0,1-9.23-21.61,28.94,28.94,0,0,1,9.06-21.43,30.19,30.19,0,0,1,21.95-8.88,30.34,30.34,0,0,1,30.32,30.31,29.82,29.82,0,0,1-8.89,21.61,29,29,0,0,1-21.43,9.05A30.12,30.12,0,0,1,270,414.82Z"/><circle class="b" cx="300" cy="300" r="203.66"/><circle class="a" cx="300" cy="300" r="250"/></svg>