<svg xmlns="http://www.w3.org/2000/svg" viewBox="0 0 600 600"><defs><style>.a,.b{fill:none;stroke-miterlimit:10;stroke-width:12px;}.a{stroke:#039ae4;}.b{stroke:#52cefd;}</style></defs><title>faqs</title><path class="a" d="M267.66,338.83V328.62q0-17,8.82-27.85t25.22-19.49a66.86,66.86,0,0,1,6.5-3.09q11.76-6.19,17-10.52t5.26-12.07q0-9.28-8.05-15.32t-21-6q-13.92,0-22.59,7.73t-11.44,21L223.11,251q7.11-28.15,28.62-44.56T302.32,190a88.69,88.69,0,0,1,37.75,7.89A64.3,64.3,0,0,1,367,220.48a58.69,58.69,0,0,1,9.9,33.57q0,19.18-10.36,33.42t-30.17,24.75q-12.08,6.19-15.63,10.06t-3.56,12.53v4ZM273.39,402a26,26,0,0,1-8.2-19.19,25.69,25.69,0,0,1,8-19,26.83,26.83,0,0,1,19.5-7.89,26.94,26.94,0,0,1,26.92,26.92A26.47,26.47,0,0,1,311.76,402a25.7,25.7,0,0,1-19,8A26.7,26.7,0,0,1,273.39,402Z"/><circle class="b" cx="300" cy="300" r="180.85"/><circle class="a" cx="300" cy="300" r="222"/></svg>