<svg xmlns="http://www.w3.org/2000/svg" viewBox="0 0 600 600"><defs><style>.a,.b{fill:none;stroke-width:12px;}.a{stroke:#52cefd;stroke-miterlimit:10;}.b{stroke:#039ae4;stroke-linejoin:round;}</style></defs><title>feedback</title><polyline class="a" points="244.99 87 190.01 87 141.5 87 141.5 522 458.5 522 458.5 87 409.99 87"/><path class="a" d="M299.43,15h1.13A21.93,21.93,0,0,1,322.5,36.93V60a0,0,0,0,1,0,0h-45a0,0,0,0,1,0,0V36.93A21.93,21.93,0,0,1,299.43,15Z"/><polyline class="b" points="345 488 171 488 171 115 432 115 432 401"/><polyline class="a" points="400 188.07 400 168 201 168 201 202 346.13 202 384.6 202 386.07 202"/><polyline class="a" points="386.29 232 400 232 400 266 360.26 266"/><polyline class="a" points="303.08 266 263.56 266 201 266 201 232 302.6 232 342.04 232"/><polyline class="a" points="333.67 296 400 296 400 330 300.35 330"/><polyline class="a" points="240.67 330 201 330 201 296 272.35 296"/><polyline class="a" points="267.93 360 400 360 400 394 225.22 394"/><polyline class="a" points="201 380.73 201 360 215.78 360"/><rect class="a" x="201" y="424" width="144" height="34"/><polygon class="b" points="345 488 345 401 432 401 345 488"/><path class="b" d="M405.86,172.53h0a8,8,0,0,1,8,8v34a0,0,0,0,1,0,0h-16a0,0,0,0,1,0,0v-34a8,8,0,0,1,8-8Z" transform="translate(255.72 -230.3) rotate(45)"/><line class="b" x1="279.29" y1="288.99" x2="310.4" y2="320.1"/><line class="b" x1="179.58" y1="419.8" x2="191.6" y2="407.78"/><path class="b" d="M259.8,269.51q10.14-9.52,20-18.22c13.63-12,26.62-22.65,38.31-31.28,12-8.82,22.16-15.26,30.37-19.16,15.76-7.48,28.17-6.85,36.89,1.87"/><path class="b" d="M396.7,214c-9.22,20.8-42.53,62.32-86.3,106.1-57,57-110.2,96.27-118.8,87.68S222.27,346,279.29,289c43.77-43.78,85.29-77.09,106.1-86.31Z"/><path class="a" d="M190,87.5a27.5,27.5,0,0,1,55,0c0,15.19-11.81,27.5-27,27.5v28H382V115"/><path class="a" d="M218,60H382.5A27.49,27.49,0,0,1,410,87c0,.17,0,.33,0,.5A27.5,27.5,0,0,1,382.5,115H219"/><rect class="a" x="121" y="87" width="21" height="435"/></svg>