<svg xmlns="http://www.w3.org/2000/svg" viewBox="0 0 600 600"><defs><style>.a,.b{fill:none;stroke-width:12px;}.a{stroke:#52cefd;stroke-miterlimit:10;}.b{stroke:#039ae4;stroke-linejoin:round;}</style></defs><title>feedback</title><polyline class="a" points="251.56 79.22 192.06 79.22 139.56 79.22 139.56 550 482.63 550 482.63 79.22 430.13 79.22"/><polyline class="b" points="359.79 513.2 171.48 513.2 171.48 109.52 453.95 109.52 453.95 419.05"/><polyline class="a" points="419.32 188.6 419.32 166.88 203.95 166.88 203.95 203.68 361.02 203.68 402.65 203.68 404.24 203.68"/><polyline class="a" points="404.48 236.15 419.32 236.15 419.32 272.94 376.31 272.94"/><polyline class="a" points="314.43 272.94 271.66 272.94 203.95 272.94 203.95 236.15 313.91 236.15 356.59 236.15"/><polyline class="a" points="347.53 305.41 419.32 305.41 419.32 342.21 311.47 342.21"/><polyline class="a" points="246.88 342.21 203.95 342.21 203.95 305.41 281.17 305.41"/><polyline class="a" points="276.38 374.68 419.32 374.68 419.32 411.47 230.16 411.47"/><polyline class="a" points="203.95 397.11 203.95 374.68 219.95 374.68"/><rect class="a" x="203.95" y="443.94" width="155.84" height="36.8"/><polygon class="b" points="359.79 513.2 359.79 419.05 453.95 419.05 359.79 513.2"/><path class="b" d="M425,171.78h1.32a8,8,0,0,1,8,8v37.45a0,0,0,0,1,0,0H417a0,0,0,0,1,0,0V179.78A8,8,0,0,1,425,171.78Z" transform="translate(262.21 -244.01) rotate(45)"/><line class="b" x1="288.67" y1="297.82" x2="322.35" y2="331.49"/><line class="b" x1="180.77" y1="439.39" x2="193.78" y2="426.39"/><path class="b" d="M267.59,276.75c7.31-6.88,14.54-13.48,21.62-19.72C304,244,318,232.51,330.68,223.17c12.92-9.54,24-16.52,32.86-20.73,17.06-8.1,30.49-7.42,39.92,2"/><path class="b" d="M415.75,216.66c-10,22.52-46,67.45-93.4,114.83-61.71,61.71-119.27,104.19-128.57,94.9S227,359.52,288.67,297.82c47.38-47.38,92.32-83.42,114.83-93.4Z"/><path class="a" d="M192.05,79.76a29.76,29.76,0,1,1,59.52,0c0,16.44-12.78,29.76-29.22,29.76v30.31H399.84V109.51"/><path class="a" d="M222.35,50h178a29.75,29.75,0,0,1,29.75,29.22c0,.18,0,.36,0,.54a29.75,29.75,0,0,1-29.76,29.76H223.43"/><rect class="a" x="117.37" y="79.22" width="22.73" height="470.78"/></svg>