<svg xmlns="http://www.w3.org/2000/svg" viewBox="0 0 600 600"><defs><style>.a{fill:#039ae4;}.b,.c,.d{fill:none;stroke-width:12px;}.b,.d{stroke:#52cefd;}.b,.c{stroke-linejoin:round;}.c{stroke:#039ae4;}.d{stroke-miterlimit:10;}</style></defs><title>fees</title><path class="a" d="M415.06,280.41a9.57,9.57,0,0,0-2.67-7c-1.79-1.83-4.75-3.48-8.91-4.95a70.14,70.14,0,0,1-9.7-4.08q-11.53-6.19-11.54-18.32a18.9,18.9,0,0,1,5-13.51q5-5.29,13.56-6.29V215.52h7.92v10.89q8.61,1.25,13.32,7.3t4.7,15.77h-12q0-6.24-2.79-9.83a9.14,9.14,0,0,0-7.6-3.59,10.25,10.25,0,0,0-7.43,2.58q-2.67,2.56-2.67,7.37a9.23,9.23,0,0,0,2.65,6.91q2.64,2.6,9,4.92a75.46,75.46,0,0,1,10,4.31,25.42,25.42,0,0,1,6.09,4.53,17.9,17.9,0,0,1,3.81,5.87,20.7,20.7,0,0,1,1.34,7.76q0,8.37-5.13,13.57T407.68,300v9.66h-7.86v-9.61Q390,299,384.74,293t-5.27-15.73h12q0,6.22,3.14,9.65t8.88,3.41c3.77,0,6.63-.9,8.59-2.72a9.36,9.36,0,0,0,2.95-7.23Z"/><path class="b" d="M146.1,257.26a95.76,95.76,0,0,0,89.21,25.65"/><line class="c" x1="177.7" y1="152.98" x2="214.04" y2="189.32"/><path class="b" d="M378.87,196.4a46.14,46.14,0,0,0,4-3.54,46.61,46.61,0,0,0,13.68-33.3l-35.25.14-78.95.3-47.5.18-25,24.95-44.2,44.19"/><polyline class="c" points="234.83 447.99 111.87 325.03 107.85 295.51 71.51 259.17"/><line class="d" x1="191.15" y1="133.6" x2="50" y2="274.74"/><polyline class="c" points="235.31 347.06 235.31 282.91 235.31 217.64 256.56 217.64"/><polyline class="c" points="528.76 328.79 528.76 350.03 500.33 350.03 407.41 350.03"/><line class="c" x1="346.74" y1="350.03" x2="346.47" y2="350.03"/><polyline class="c" points="264.64 328.79 256.56 328.79 256.56 275.32 256.56 217.64 256.56 196.4 378.87 196.4 550 196.4 550 328.79 528.76 328.79 489.79 328.79 395.37 328.79"/><line class="c" x1="325.5" y1="328.79" x2="325.22" y2="328.79"/><rect class="b" x="304.91" y="304.38" width="111.65" height="49.4" rx="24.7" ry="24.7" transform="translate(338.35 -158.69) rotate(45)"/><rect class="b" x="255.5" y="325.13" width="111.65" height="49.4" rx="24.7" ry="24.7" transform="translate(338.55 -117.68) rotate(45)"/><rect class="b" x="220.57" y="360.06" width="111.65" height="49.4" rx="24.7" ry="24.7" transform="translate(353.02 -82.75) rotate(45)"/><rect class="b" x="185.64" y="395" width="111.65" height="49.4" rx="24.7" ry="24.7" transform="translate(367.49 -47.81) rotate(45)"/><path class="b" d="M487.26,310.51a37.05,37.05,0,0,1,37-37.05V251.23a37.05,37.05,0,0,1-37-37"/><path class="b" d="M316.21,296.89a37,37,0,0,0-34.46-23.43V251.23a37.05,37.05,0,0,0,37.05-37"/></svg>