<svg xmlns="http://www.w3.org/2000/svg" viewBox="0 0 600 600"><defs><style>.a{fill:#039ae4;}.b,.c,.d{fill:none;stroke-width:12px;}.b,.d{stroke:#52cefd;}.b,.c{stroke-linejoin:round;}.c{stroke:#039ae4;}.d{stroke-miterlimit:10;}</style></defs><title>fees</title><path class="a" d="M402.92,279.54a9.69,9.69,0,0,0-2.7-7q-2.72-2.79-9-5a71.21,71.21,0,0,1-9.82-4.14q-11.67-6.25-11.67-18.53a19.15,19.15,0,0,1,5.06-13.68q5.06-5.35,13.72-6.36V213.86h8v11q8.72,1.26,13.47,7.39t4.76,15.95H402.63q0-6.3-2.84-9.94a9.23,9.23,0,0,0-7.69-3.63,10.4,10.4,0,0,0-7.51,2.6q-2.71,2.61-2.71,7.47a9.4,9.4,0,0,0,2.68,7q2.69,2.63,9.09,5a75.56,75.56,0,0,1,10.07,4.36,25.34,25.34,0,0,1,6.16,4.58,18,18,0,0,1,3.86,5.94,20.8,20.8,0,0,1,1.36,7.86q0,8.47-5.19,13.73t-14.45,6.21v9.77h-8v-9.72q-9.93-1.1-15.26-7.11t-5.34-15.93h12.18q0,6.31,3.18,9.77t9,3.46c3.81,0,6.7-.92,8.69-2.76a9.47,9.47,0,0,0,3-7.31Z"/><path class="b" d="M130.7,256.1a96.94,96.94,0,0,0,90.3,26"/><line class="c" x1="162.69" y1="150.55" x2="199.47" y2="187.34"/><path class="b" d="M366.3,194.5a45.47,45.47,0,0,0,4-3.58,47.16,47.16,0,0,0,13.85-33.7l-35.68.14-79.9.3-48.08.18L195.24,183.1,150.5,227.82"/><polyline class="c" points="220.51 449.14 96.06 324.69 91.99 294.82 55.21 258.03"/><line class="d" x1="176.3" y1="130.94" x2="33.44" y2="273.8"/><polyline class="c" points="221 346.99 221 282.06 221 216 242.5 216"/><polyline class="c" points="518 328.5 518 350 489.23 350 395.18 350"/><line class="c" x1="333.78" y1="350" x2="333.5" y2="350"/><polyline class="c" points="250.68 328.5 242.5 328.5 242.5 274.38 242.5 216 242.5 194.5 366.3 194.5 539.5 194.5 539.5 328.5 518 328.5 478.56 328.5 383 328.5"/><line class="c" x1="312.28" y1="328.5" x2="312" y2="328.5"/><rect class="b" x="291.44" y="303.8" width="113" height="50" rx="25" ry="25" transform="translate(334.4 -149.73) rotate(45)"/><rect class="b" x="241.44" y="324.8" width="113" height="50" rx="25" ry="25" transform="translate(334.61 -108.22) rotate(45)"/><rect class="b" x="206.08" y="360.15" width="113" height="50" rx="25" ry="25" transform="translate(349.25 -72.86) rotate(45)"/><rect class="b" x="170.73" y="395.51" width="113" height="50" rx="25" ry="25" transform="translate(363.9 -37.51) rotate(45)"/><path class="b" d="M476,310a37.5,37.5,0,0,1,37.5-37.5V250A37.5,37.5,0,0,1,476,212.5"/><path class="b" d="M302.88,296.21A37.5,37.5,0,0,0,268,272.5V250a37.5,37.5,0,0,0,37.5-37.5"/></svg>