<svg xmlns="http://www.w3.org/2000/svg" viewBox="0 0 600 600"><defs><style>.a,.b,.c{fill:none;stroke-width:12px;}.a{stroke:#039ae4;}.a,.b{stroke-miterlimit:10;}.b,.c{stroke:#52cefd;}.c{stroke-linejoin:round;}</style></defs><title>fieldTesting</title><path class="a" d="M391.53,240h0a53.34,53.34,0,0,0-75.37-.09h0l-.19.18h0A53.34,53.34,0,0,1,240.6,240h0"/><circle class="b" cx="287.16" cy="192.51" r="13.13"/><circle class="b" cx="353.78" cy="409.57" r="13.13"/><circle class="b" cx="300.09" cy="494.21" r="13.13"/><circle class="b" cx="299.76" cy="322.47" r="30.47"/><line class="a" x1="393.57" y1="111.85" x2="413.61" y2="91.81"/><line class="a" x1="435.39" y1="70.03" x2="455.42" y2="50"/><line class="a" x1="393.57" y1="50" x2="413.61" y2="70.03"/><line class="a" x1="435.39" y1="91.81" x2="455.42" y2="111.85"/><line class="b" x1="144.58" y1="253.01" x2="164.61" y2="273.05"/><line class="b" x1="186.39" y1="294.83" x2="206.43" y2="314.86"/><line class="b" x1="206.43" y1="253.01" x2="186.39" y2="273.05"/><line class="b" x1="164.61" y1="294.83" x2="144.58" y2="314.86"/><path class="c" d="M238.7,138.45H393.43a0,0,0,0,1,0,0V478a72,72,0,0,1-72,72H310.7a72,72,0,0,1-72-72V138.45a0,0,0,0,1,0,0Z"/><line class="c" x1="207.54" y1="137.91" x2="424.6" y2="137.91"/></svg>