<svg xmlns="http://www.w3.org/2000/svg" viewBox="0 0 600 600"><defs><style>.a,.b{fill:none;stroke-miterlimit:10;stroke-width:12px;}.a{stroke:#039ae4;}.b{stroke:#52cefd;}</style></defs><title>fieldOpps</title><line class="a" x1="394.15" y1="550" x2="394.15" y2="465.23"/><line class="a" x1="205.85" y1="550" x2="205.85" y2="465.23"/><line class="b" x1="448.75" y1="550" x2="448.75" y2="466.03"/><path class="b" d="M448.75,465.23v.8a148.75,148.75,0,0,0-297.5,0"/><polyline class="b" points="151.25 465.23 151.25 466.03 151.25 550"/><path class="a" d="M208.7,211.67a92.26,92.26,0,1,0,182.6,0"/><path class="a" d="M330.09,68.48A107.12,107.12,0,0,1,407.25,171"/><path class="a" d="M192.75,170.9A107.11,107.11,0,0,1,269.91,68.47"/><path class="a" d="M265.59,181.62l4.65-122a10.05,10.05,0,0,1,10-9.66h39.44a10.05,10.05,0,0,1,10,9.66l4.65,122"/><path class="a" d="M192.75,170.9c22.6,6.45,62.3,10.72,107.5,10.72,44.87,0,84.32-4.21,107-10.58"/><path class="a" d="M407.25,171.07l14.66,22.4a5,5,0,0,1-2.42,7.46l-62.72,23.89H243.23l-62.72-23.89a5,5,0,0,1-2.42-7.46l14.66-22.4"/></svg>