<svg xmlns="http://www.w3.org/2000/svg" viewBox="0 0 600 600"><defs><style>.a,.b,.c{fill:none;stroke-width:12px;}.a{stroke:#039ae4;}.a,.b{stroke-miterlimit:10;}.b,.c{stroke:#52cefd;}.c{stroke-linejoin:round;}</style></defs><title>fieldTesting</title><path class="a" d="M385.18,244.15h0a49.64,49.64,0,0,0-70.14-.08h0l-.17.17h0a49.65,49.65,0,0,1-70.15-.08h0"/><circle class="b" cx="288.05" cy="199.97" r="12.22"/><circle class="b" cx="350.05" cy="401.97" r="12.22"/><circle class="b" cx="300.08" cy="480.73" r="12.22"/><circle class="b" cx="299.78" cy="320.91" r="28.35"/><line class="a" x1="387.08" y1="124.9" x2="405.73" y2="106.26"/><line class="a" x1="425.99" y1="85.99" x2="444.64" y2="67.34"/><line class="a" x1="387.08" y1="67.34" x2="405.73" y2="85.99"/><line class="a" x1="425.99" y1="106.26" x2="444.64" y2="124.9"/><line class="b" x1="155.36" y1="256.27" x2="174.01" y2="274.92"/><line class="b" x1="194.27" y1="295.18" x2="212.92" y2="313.83"/><line class="b" x1="212.92" y1="256.27" x2="194.27" y2="274.92"/><line class="b" x1="174.01" y1="295.18" x2="155.36" y2="313.83"/><path class="c" d="M243,149.66H387a0,0,0,0,1,0,0v311a72,72,0,0,1-72,72h0a72,72,0,0,1-72-72v-311a0,0,0,0,1,0,0Z"/><line class="c" x1="213.95" y1="149.16" x2="415.95" y2="149.16"/></svg>