<svg xmlns="http://www.w3.org/2000/svg" viewBox="0 0 600 600"><defs><style>.a,.b{fill:none;stroke-miterlimit:10;stroke-width:12px;}.a{stroke:#039ae4;}.b{stroke:#52cefd;}</style></defs><title>fieldOpps</title><line class="a" x1="374.32" y1="497.34" x2="374.32" y2="430.42"/><line class="a" x1="225.68" y1="497.34" x2="225.68" y2="430.42"/><line class="b" x1="417.42" y1="497.34" x2="417.42" y2="431.06"/><path class="b" d="M417.42,430.43v.63a117.42,117.42,0,0,0-234.84,0"/><polyline class="b" points="182.58 430.43 182.58 431.06 182.58 497.34"/><path class="a" d="M227.93,230.28a72.83,72.83,0,1,0,144.14,0"/><path class="a" d="M323.75,117.24a84.55,84.55,0,0,1,60.91,81"/><path class="a" d="M215.34,198.1a84.54,84.54,0,0,1,60.91-80.86"/><path class="a" d="M272.84,206.55l3.67-96.27a7.93,7.93,0,0,1,7.92-7.62h31.14a7.93,7.93,0,0,1,7.92,7.62l3.67,96.27"/><path class="a" d="M215.34,198.1c17.84,5.08,49.18,8.45,84.86,8.45,35.41,0,66.56-3.32,84.46-8.34"/><path class="a" d="M384.66,198.23l11.57,17.67a4,4,0,0,1-1.91,5.89l-49.51,18.87H255.19l-49.51-18.87a4,4,0,0,1-1.91-5.89l11.57-17.67"/></svg>