<svg xmlns="http://www.w3.org/2000/svg" viewBox="0 0 600 600"><defs><style>.a{fill:#039ae4;}.b{fill:none;stroke:#52cefd;stroke-linejoin:round;stroke-width:12px;}</style></defs><title>financialWellness</title><path class="a" d="M312.66,190.56v25.32q20,2.88,30.95,17t10.93,36.64H326.7q0-14.49-6.5-22.84t-17.67-8.34q-11,0-17.26,6t-6.22,17.15q0,10,6.17,16.05T306.1,289a178.31,178.31,0,0,1,23.13,10,59.1,59.1,0,0,1,14.15,10.54,41.57,41.57,0,0,1,8.87,13.64,48.16,48.16,0,0,1,3.1,18.06q0,19.46-11.91,31.53T310.24,387v22.44H292V387.12q-22.8-2.53-35-16.35t-12.26-36.59h28q0,14.51,7.31,22.44t20.65,7.94q13.13,0,20-6.33t6.85-16.8q0-9.78-6.22-16.17t-20.71-11.51a161.62,161.62,0,0,1-22.55-9.49q-26.82-14.38-26.82-42.58,0-19.1,11.62-31.42t31.53-14.61V190.56h18.42m12-12H282.24v27.13A58.24,58.24,0,0,0,254,222c-9.89,10.48-14.9,23.83-14.9,39.66,0,23.14,11.45,41.51,33.12,53.14a172,172,0,0,0,24.25,10.25c10.32,3.64,14.52,6.93,16.11,8.56,1.32,1.35,2.82,3.45,2.82,7.8,0,4.63-1.6,6.7-3,8-2.81,2.59-8,3.13-11.82,3.13-7.24,0-10.21-2.32-11.82-4.07-2.75-3-4.14-7.8-4.14-14.31v-12h-52v12c0,18.15,5.14,33.15,15.29,44.56,8.06,9.11,18.8,15.29,32,18.46v24.24h42.29V397.16c12.06-2.81,22-8.17,29.75-16,10.19-10.34,15.36-23.78,15.36-39.95a60.35,60.35,0,0,0-4-22.55A53.74,53.74,0,0,0,352,301.12a71.27,71.27,0,0,0-17-12.68,148.76,148.76,0,0,0-14.89-6.94h46.43v-12c0-17.7-4.52-32.5-13.45-44a55.08,55.08,0,0,0-28.43-19.26V178.56Zm-10,100.81q-2.15-.84-4.46-1.68c-10.71-3.93-15-7.16-16.61-8.74-1.21-1.19-2.58-3.1-2.58-7.5,0-6.06,1.91-7.9,2.54-8.5s2.73-2.63,8.94-2.63c3.77,0,6.14,1.08,8.2,3.72,2.64,3.38,4,8.59,4,15.46v9.87Z"/><path class="b" d="M485.46,338.58C485.46,476.65,402.43,550,300,550S114.54,476.65,114.54,338.58,211,50,300,50,485.46,200.5,485.46,338.58Z"/></svg>