<svg xmlns="http://www.w3.org/2000/svg" viewBox="0 0 600 600"><defs><style>.a{fill:#039ae4;}.b{fill:none;stroke:#52cefd;stroke-linejoin:round;stroke-width:12px;}</style></defs><title>financialWellness</title><path class="a" d="M311.8,198v23.6q18.66,2.68,28.84,15.82t10.19,34.16H324.89q0-13.51-6.07-21.29t-16.46-7.78q-10.31,0-16.09,5.58t-5.79,16q0,9.33,5.74,15t19.46,10.67A166.84,166.84,0,0,1,327.24,299a55.09,55.09,0,0,1,13.19,9.82,38.89,38.89,0,0,1,8.26,12.71,44.91,44.91,0,0,1,2.9,16.84q0,18.12-11.1,29.39t-30.95,13.29V402h-17V381.19q-21.24-2.35-32.66-15.23t-11.43-34.1h26.06q0,13.51,6.82,20.91t19.24,7.4q12.24,0,18.61-5.9t6.39-15.66a20.66,20.66,0,0,0-5.8-15.06q-5.79-6-19.3-10.73a150.89,150.89,0,0,1-21-8.85q-25-13.41-25-39.68,0-17.81,10.84-29.29t29.39-13.62V198H311.8m12-12H282.64v25.48a54.94,54.94,0,0,0-26.12,15.28c-9.36,9.93-14.11,22.55-14.11,37.53,0,21.87,10.82,39.24,31.29,50.23a118.46,118.46,0,0,0,11.44,5.34H236.41v12c0,17.12,4.87,31.28,14.46,42.07,7.5,8.47,17.44,14.26,29.63,17.3V414h41V391.2c11.11-2.7,20.33-7.72,27.5-15,9.65-9.8,14.55-22.52,14.55-37.81a56.85,56.85,0,0,0-3.77-21.32,50.7,50.7,0,0,0-10.8-16.6,67.09,67.09,0,0,0-16-12c-2.93-1.6-6.32-3.24-10.23-4.93h40.05v-12c0-16.68-4.27-30.65-12.71-41.52A52.08,52.08,0,0,0,323.8,212V186Zm-10.91,93.58-3.07-1.14c-9.83-3.61-13.73-6.54-15.18-8-1-1-2.16-2.61-2.16-6.41,0-3.51.71-6,2.11-7.33s4.15-2.23,7.77-2.23c4,0,5.72,1.52,7,3.16,2.34,3,3.53,7.68,3.53,13.91v8Zm-12.36,68.59c-6.42,0-9-2-10.42-3.53-2.41-2.62-3.64-6.92-3.64-12.78V320.4c3,1.21,6.33,2.45,10,3.73,9.46,3.34,13.27,6.31,14.7,7.78,1.12,1.15,2.4,2.95,2.4,6.7,0,4-1.28,5.7-2.54,6.86-2.42,2.23-7,2.7-10.46,2.7Z"/><path class="b" d="M472.85,336C472.85,464.63,395.46,533,300,533S127.15,464.63,127.15,336,217,67,300,67,472.85,207.27,472.85,336Z"/></svg>