<svg xmlns="http://www.w3.org/2000/svg" viewBox="0 0 600 600"><defs><style>.a,.b{fill:none;stroke-width:12px;}.a{stroke:#52cefd;stroke-miterlimit:10;}.b{stroke:#039ae4;stroke-linecap:round;stroke-linejoin:round;}</style></defs><title>fireRescue</title><path class="a" d="M385.69,392.12l40.12,110.33h-47a40.86,40.86,0,0,0-18.17,4.25l-42.44,21a40.88,40.88,0,0,1-36.34,0l-42.45-21a40.89,40.89,0,0,0-18.17-4.25h-47l40.12-110.33"/><path class="a" d="M214.31,207.88,174.19,97.55h47a40.86,40.86,0,0,0,18.17-4.25l42.44-21a40.88,40.88,0,0,1,36.34,0l42.45,21a40.89,40.89,0,0,0,18.17,4.25h47L385.69,207.88"/><path class="a" d="M207.88,385.69,97.55,425.81v-47a40.86,40.86,0,0,0-4.25-18.17l-21-42.44a40.88,40.88,0,0,1,0-36.34l21-42.45a40.89,40.89,0,0,0,4.25-18.17v-47l110.33,40.12"/><path class="a" d="M392.12,214.31l110.33-40.12v47a40.86,40.86,0,0,0,4.25,18.17l21,42.44a40.88,40.88,0,0,1,0,36.34l-21,42.45a40.89,40.89,0,0,0-4.25,18.17v47L392.12,385.69"/><path class="b" d="M315.87,364.57A48.49,48.49,0,0,0,348,329.29v0a48.15,48.15,0,0,0,1.16-12.13h0A85,85,0,0,0,276.75,231a48.44,48.44,0,0,1-10.27,53.33,48.44,48.44,0,0,0,19.09,80.24"/><path class="b" d="M285.57,364.57a18.31,18.31,0,0,1-3.41-10.7c0-17.49,18.56-36.65,18.56-36.65s18.55,19.16,18.55,36.65a18.37,18.37,0,0,1-3.4,10.7A48.49,48.49,0,0,0,348,329.29v0a48.15,48.15,0,0,0,1.16-12.13h0A85,85,0,0,0,276.75,231a48.44,48.44,0,0,1-10.27,53.33,48.44,48.44,0,0,0,19.09,80.24Z"/><line class="b" x1="301.35" y1="97.07" x2="301.35" y2="174.19"/><line class="b" x1="301.35" y1="425.81" x2="301.35" y2="502.93"/><line class="b" x1="504.28" y1="300" x2="427.17" y2="300"/><line class="b" x1="175.54" y1="300" x2="98.43" y2="300"/><circle class="a" cx="300" cy="300" r="125.81"/></svg>