<svg xmlns="http://www.w3.org/2000/svg" viewBox="0 0 600 600"><defs><style>.a,.b{fill:none;stroke-width:12px;}.a{stroke:#52cefd;stroke-miterlimit:10;}.b{stroke:#039ae4;stroke-linecap:round;stroke-linejoin:round;}</style></defs><title>fireRescue</title><path class="a" d="M392.34,399.26l43.24,118.9H384.89a44,44,0,0,0-19.58,4.58l-45.73,22.67a44.06,44.06,0,0,1-39.16,0l-45.74-22.67a44,44,0,0,0-19.58-4.58H164.42l43.24-118.9"/><path class="a" d="M207.66,200.74,164.42,81.84h50.69a44,44,0,0,0,19.58-4.58l45.73-22.67a44.06,44.06,0,0,1,39.16,0l45.74,22.67a44,44,0,0,0,19.58,4.58h50.68l-43.24,118.9"/><path class="a" d="M200.74,392.34,81.84,435.58V384.89a44,44,0,0,0-4.58-19.58L54.59,319.58a44.06,44.06,0,0,1,0-39.16l22.67-45.74a44,44,0,0,0,4.58-19.58V164.42l118.9,43.24"/><path class="a" d="M399.26,207.66l118.9-43.24v50.69a44,44,0,0,0,4.58,19.58l22.67,45.73a44.06,44.06,0,0,1,0,39.16l-22.67,45.74a44,44,0,0,0-4.58,19.58v50.68l-118.9-43.24"/><path class="b" d="M317.1,369.58a52.24,52.24,0,0,0,34.57-38,.06.06,0,0,0,0,0,52.39,52.39,0,0,0,1.24-13.08h0a91.61,91.61,0,0,0-78-92.78,52.22,52.22,0,0,1-11.07,57.47,52.19,52.19,0,0,0,20.57,86.46"/><path class="b" d="M284.45,369.58a19.74,19.74,0,0,1-3.67-11.53c0-18.85,20-39.5,20-39.5s20,20.65,20,39.5a19.81,19.81,0,0,1-3.67,11.53,52.24,52.24,0,0,0,34.57-38,.06.06,0,0,0,0,0,52.39,52.39,0,0,0,1.24-13.08h0a91.61,91.61,0,0,0-78-92.78,52.22,52.22,0,0,1-11.07,57.47,52.19,52.19,0,0,0,20.57,86.46Z"/><line class="b" x1="301.46" y1="81.33" x2="301.46" y2="164.42"/><line class="b" x1="301.46" y1="435.58" x2="301.46" y2="518.67"/><line class="b" x1="520.13" y1="300" x2="437.03" y2="300"/><line class="b" x1="165.88" y1="300" x2="82.79" y2="300"/><circle class="a" cx="300" cy="300" r="135.58"/></svg>