<svg xmlns="http://www.w3.org/2000/svg" viewBox="0 0 600 600"><defs><style>.a,.b{fill:none;stroke-width:12px;}.a{stroke:#039ae4;stroke-linecap:round;stroke-linejoin:round;}.b{stroke:#52cefd;stroke-miterlimit:10;}</style></defs><title>fleet</title><circle class="a" cx="133.16" cy="435.65" r="44.7"/><circle class="a" cx="466.84" cy="435.65" r="44.7"/><circle class="b" cx="466.84" cy="435.65" r="20.79"/><circle class="b" cx="133.16" cy="435.65" r="20.79"/><path class="a" d="M536.49,366H383.68V171.62h22.38a130.41,130.41,0,0,1,92.22,38.2h0a130.45,130.45,0,0,1,38.21,92.23Z"/><rect class="b" x="63.51" y="119.65" width="293.14" height="221.41" rx="10" ry="10"/><line class="b" x1="197.61" y1="414.86" x2="404.47" y2="414.86"/><polyline class="b" points="529.21 414.87 550 414.87 550 366.01 51.04 366.01 51.04 414.87 70.79 414.87"/><path class="b" d="M409.67,197.61h0a98.75,98.75,0,0,1,98.75,98.75H409.67Z"/><line class="a" x1="50" y1="480.35" x2="550" y2="480.35"/><line class="b" x1="481.39" y1="269.33" x2="481.39" y2="296.36"/></svg>