<svg xmlns="http://www.w3.org/2000/svg" viewBox="0 0 600 600"><defs><style>.a,.b{fill:none;stroke-width:12px;}.a{stroke:#039ae4;stroke-linecap:round;stroke-linejoin:round;}.b{stroke:#52cefd;stroke-miterlimit:10;}</style></defs><title>fleet</title><circle class="a" cx="134" cy="452" r="43"/><circle class="a" cx="455" cy="452" r="43"/><circle class="b" cx="455" cy="452" r="20"/><circle class="b" cx="134" cy="452" r="20"/><path class="a" d="M522,385H375V198h21.53a125.46,125.46,0,0,1,88.72,36.75h0A125.46,125.46,0,0,1,522,323.47Z"/><rect class="b" x="67" y="148" width="282" height="213" rx="10" ry="10"/><line class="b" x1="196" y1="432" x2="395" y2="432"/><polyline class="b" points="515 432 535 432 535 385 55 385 55 432 74 432"/><path class="b" d="M400,223h0a95,95,0,0,1,95,95H400Z"/><line class="a" x1="54" y1="495" x2="535" y2="495"/><line class="b" x1="469" y1="292" x2="469" y2="318"/></svg>