<svg xmlns="http://www.w3.org/2000/svg" viewBox="0 0 600 600"><defs><style>.a,.b{fill:none;stroke-miterlimit:10;stroke-width:12px;}.a{stroke:#52cefd;}.b{stroke:#039be5;}</style></defs><title>fllApp</title><rect class="a" x="50" y="50" width="500" height="500" rx="81.26" ry="81.26"/><path class="b" d="M80.73,418c221.49-.91,400-52,400-114.92,0-54.51-151.47-90.56-151.47-90.56l3-2.23S491,256.68,517.15,282.35"/><path class="b" d="M376,180.62,355.52,172l-37.63,7.06c-.51,0-26.74-7.8-26.74-7.8l98.71-46.75-32.32-8.38L235.63,149.07a5.28,5.28,0,0,1-2.76-.07l-50.94-16c-.93-.28-1.87-.54-2.81-.8a104.08,104.08,0,0,0-68.63,5.5l-.37.17c-9.49,4.16-8.25,18,1.8,20.52l214.52,53.31Z"/></svg>