<svg xmlns="http://www.w3.org/2000/svg" viewBox="0 0 600 600"><defs><style>.a,.b{fill:none;stroke-miterlimit:10;stroke-width:12px;}.a{stroke:#52cefd;}.b{stroke:#039be5;}</style></defs><title>fllApp</title><rect class="a" x="104.5" y="104.5" width="391" height="391" rx="81.26" ry="81.26"/><path class="b" d="M128.53,392.28c173.2-.71,312.84-40.67,312.84-89.87,0-42.63-118.45-70.82-118.45-70.82l2.38-1.74s124.07,36.27,144.51,56.34"/><path class="b" d="M359.42,206.65l-16-6.75L314,205.42c-.4,0-20.91-6.09-20.91-6.09l77.19-36.57L345,156.22,249.66,182a4.06,4.06,0,0,1-2.16-.05l-39.83-12.48q-1.09-.33-2.19-.63a81.35,81.35,0,0,0-53.67,4.31l-.3.12a8.52,8.52,0,0,0,1.41,16L320.68,231Z"/></svg>