<svg xmlns="http://www.w3.org/2000/svg" viewBox="0 0 600 600"><defs><style>.a,.b,.c{fill:none;stroke-width:12px;}.a{stroke:#63ccff;}.a,.c{stroke-linejoin:round;}.b,.c{stroke:#039be5;}.b{stroke-miterlimit:10;}.d{fill:#63ccff;}</style></defs><title>functionsResponsibilities</title><path class="a" d="M300,222.7v240c-54.39-43.51-126.23-59-205-59v-244"/><path class="a" d="M300,222.7v240c54.43-43.51,126.24-59,205-59v-244"/><path class="b" d="M300,269.84V210.7c-12-21-47.52-46-75.23-57.83A272.2,272.2,0,0,0,118.28,131.3v59.11"/><path class="b" d="M481.72,131.3V373.42c-69.82,0-133.48,38.26-181.72,81.41V210.7c22-28,47.52-46,75.23-57.8h0A271.57,271.57,0,0,1,481.72,131.3Z"/><path class="c" d="M118.28,190.41v183c69.81,0,133.5,38.26,181.71,81.41V468.7c-60.76-41.54-141-38.14-229-38.14V189.7"/><path class="c" d="M529,189.7V430.56c-88,0-168.2-3.4-229,38.14V269.84"/><path class="d" d="M371.89,340.59A198.49,198.49,0,0,1,445.33,316V304.77a209.5,209.5,0,0,0-78.61,25.9,2.91,2.91,0,0,0-.35.18c-11.64,6.55-24.56,14.15-35.68,23.47V369.5c11.41-11.66,27-20.94,40.86-28.73Z"/><path class="d" d="M366.37,218c-11.64,6.56-24.56,14.16-35.68,23.47V256.7c11.41-11.66,27-20.94,40.86-28.73l.34-.18a198.49,198.49,0,0,1,73.44-24.55V192a209.66,209.66,0,0,0-78.61,25.89Z"/><path class="d" d="M231.62,246.21a209.58,209.58,0,0,0-79-26v11.27A198.86,198.86,0,0,1,226.14,256c10.39,5.87,29.66,16.74,42.1,28.72V269.84C255.66,259.76,240.52,251.23,231.62,246.21Z"/><path class="d" d="M330.69,228.5c11.41-11.66,27-20.94,40.86-28.73l.34-.18A198.49,198.49,0,0,1,445.33,175V163.77a209.3,209.3,0,0,0-78.61,25.89l-.35.18c-11.64,6.56-24.56,14.16-35.68,23.47Z"/><path class="d" d="M366.72,246.06l-.35.18c-11.64,6.56-24.57,14.16-35.68,23.47V284.9c11.4-11.66,27-20.94,40.86-28.73l.34-.18a198.49,198.49,0,0,1,73.44-24.55V220.17A209.66,209.66,0,0,0,366.72,246.06Z"/><path class="d" d="M371.89,312.39a198.49,198.49,0,0,1,73.44-24.55V276.57a209.5,209.5,0,0,0-78.61,25.9,2.91,2.91,0,0,0-.35.18c-11.64,6.56-24.57,14.15-35.68,23.47V341.3c11.4-11.66,27-20.94,40.86-28.73Z"/><path class="d" d="M366.72,274.27l-.35.17c-11.64,6.56-24.56,14.16-35.68,23.47V313.1c11.41-11.66,27-20.94,40.86-28.73l.34-.18a198.49,198.49,0,0,1,73.44-24.55V248.37A209.5,209.5,0,0,0,366.72,274.27Z"/><path class="d" d="M152.67,175a198.86,198.86,0,0,1,73.47,24.51c10.39,5.86,29.66,16.74,42.1,28.72V213.43c-12.58-10.07-27.72-18.61-36.62-23.63a209.73,209.73,0,0,0-79-26Z"/><path class="d" d="M268.24,382.64C255.66,372.57,240.52,364,231.62,359a209.75,209.75,0,0,0-79-26v11.27a198.92,198.92,0,0,1,73.47,24.51c10.39,5.87,29.67,16.75,42.1,28.72Z"/><path class="d" d="M152.67,259.64a198.86,198.86,0,0,1,73.47,24.51c10.39,5.86,29.66,16.74,42.1,28.72V298c-12.58-10.08-27.72-18.61-36.62-23.63a209.58,209.58,0,0,0-79-26Z"/><path class="d" d="M445.33,333a209.3,209.3,0,0,0-78.61,25.89,2.91,2.91,0,0,0-.35.18c-11.64,6.55-24.57,14.15-35.68,23.47V397.7c11.41-11.66,27-20.94,40.86-28.73.11-.06.23-.11.34-.18a198.49,198.49,0,0,1,73.44-24.55Z"/><path class="d" d="M268.24,369.27V354.44c-12.58-10.07-27.72-18.61-36.62-23.63a209.75,209.75,0,0,0-79-26V316a198.86,198.86,0,0,1,73.47,24.51C236.53,346.42,255.8,357.3,268.24,369.27Z"/><path class="d" d="M152.67,192v11.27a198.92,198.92,0,0,1,73.47,24.51c10.39,5.87,29.67,16.75,42.1,28.72V241.64C255.66,231.57,240.52,223,231.62,218A209.58,209.58,0,0,0,152.67,192Z"/><path class="d" d="M268.24,341.07V326.24c-12.58-10.07-27.72-18.61-36.62-23.63a209.75,209.75,0,0,0-79-26v11.27a198.86,198.86,0,0,1,73.47,24.51C236.53,318.22,255.8,329.09,268.24,341.07Z"/></svg>