<svg xmlns="http://www.w3.org/2000/svg" viewBox="0 0 600 600"><defs><style>.a,.b,.c{fill:none;stroke-width:12px;}.a{stroke:#63ccff;}.a,.c{stroke-linejoin:round;}.b,.c{stroke:#039be5;}.b{stroke-miterlimit:10;}.d{fill:#63ccff;}</style></defs><title>functionsResponsibilities</title><path class="a" d="M300,215.61v262c-59.38-47.5-137.81-64.41-223.8-64.41V146.83"/><path class="a" d="M300,215.61v262c59.42-47.5,137.82-64.41,223.8-64.41V146.83"/><path class="b" d="M300,267.07V202.51c-13.1-22.92-51.88-50.26-82.13-63.13a297.19,297.19,0,0,0-116.25-23.55v64.53"/><path class="b" d="M498.38,115.83V380.15c-76.22,0-145.72,41.77-198.38,88.88V202.51c24-30.57,51.88-50.26,82.13-63.1h0A296.56,296.56,0,0,1,498.38,115.83Z"/><path class="c" d="M101.62,180.36V380.15c76.21,0,145.74,41.77,198.37,88.88v15.14c-66.33-45.35-153.94-41.64-250-41.64V179.59"/><path class="c" d="M550,179.59V442.53c-96.05,0-183.62-3.71-250,41.64V267.07"/><path class="d" d="M378.48,344.31a217,217,0,0,1,80.18-26.8v-12.3a228.41,228.41,0,0,0-85.82,28.27l-.38.2c-12.71,7.15-26.82,15.45-39,25.62v16.57C346,363.14,363,353,378.11,344.51Z"/><path class="d" d="M372.46,210.53c-12.71,7.16-26.82,15.45-39,25.62v16.58C346,240,363,229.87,378.11,221.36l.37-.19a216.58,216.58,0,0,1,80.18-26.8v-12.3a228.57,228.57,0,0,0-85.82,28.26Z"/><path class="d" d="M225.35,241.27a228.88,228.88,0,0,0-86.19-28.42v12.3a217,217,0,0,1,80.2,26.76c11.35,6.4,32.39,18.28,46,31.35V267.07C251.59,256.07,235.07,246.75,225.35,241.27Z"/><path class="d" d="M333.5,221.94C346,209.21,363,199.08,378.11,190.58l.37-.2a216.58,216.58,0,0,1,80.18-26.8v-12.3a228.41,228.41,0,0,0-85.82,28.27c-.13.06-.26.12-.38.19-12.71,7.16-26.82,15.45-39,25.62Z"/><path class="d" d="M372.84,241.12a2.75,2.75,0,0,0-.38.2c-12.71,7.15-26.82,15.45-39,25.62v16.57C346,270.79,363,260.65,378.11,252.15l.37-.2a217,217,0,0,1,80.18-26.8v-12.3A228.41,228.41,0,0,0,372.84,241.12Z"/><path class="d" d="M378.48,313.53a216.58,216.58,0,0,1,80.18-26.8v-12.3a228.57,228.57,0,0,0-85.82,28.26l-.38.2c-12.72,7.16-26.82,15.45-39,25.62v16.58C346,332.36,363,322.23,378.11,313.72Z"/><path class="d" d="M372.84,271.91c-.13.06-.26.12-.38.19-12.71,7.16-26.82,15.45-39,25.62V314.3C346,301.57,363,291.44,378.11,282.94l.37-.2a216.58,216.58,0,0,1,80.18-26.8v-12.3A228.41,228.41,0,0,0,372.84,271.91Z"/><path class="d" d="M139.16,163.58a216.9,216.9,0,0,1,80.2,26.76c11.35,6.4,32.39,18.28,46,31.35V205.5c-13.74-11-30.26-20.32-40-25.8a228.65,228.65,0,0,0-86.19-28.42Z"/><path class="d" d="M265.33,390.22c-13.74-11-30.26-20.32-40-25.8A228.71,228.71,0,0,0,139.16,336v12.3a217,217,0,0,1,80.2,26.76c11.35,6.4,32.39,18.28,46,31.35Z"/><path class="d" d="M139.16,255.94a216.9,216.9,0,0,1,80.2,26.76c11.35,6.4,32.39,18.27,46,31.35V297.86c-13.74-11-30.26-20.32-40-25.8a228.65,228.65,0,0,0-86.19-28.42Z"/><path class="d" d="M458.66,336a228.41,228.41,0,0,0-85.82,28.27l-.38.19c-12.71,7.16-26.82,15.45-39,25.62v16.58C346,393.93,363,383.8,378.11,375.3l.37-.2a216.76,216.76,0,0,1,80.18-26.8Z"/><path class="d" d="M265.33,375.62V359.43c-13.74-11-30.26-20.32-40-25.8a229,229,0,0,0-86.19-28.42v12.3a216.9,216.9,0,0,1,80.2,26.76C230.71,350.67,251.75,362.55,265.33,375.62Z"/><path class="d" d="M139.16,182.06v12.31a216.94,216.94,0,0,1,80.2,26.75c11.35,6.41,32.39,18.29,46,31.35V236.28c-13.74-11-30.26-20.31-40-25.79A228.9,228.9,0,0,0,139.16,182.06Z"/><path class="d" d="M265.33,344.84v-16.2c-13.74-11-30.26-20.31-40-25.79a228.9,228.9,0,0,0-86.19-28.43v12.31a216.78,216.78,0,0,1,80.2,26.76C230.71,319.89,251.75,331.76,265.33,344.84Z"/></svg>