<svg xmlns="http://www.w3.org/2000/svg" viewBox="0 0 600 600"><defs><style>.a,.b{fill:none;stroke-miterlimit:10;stroke-width:12px;}.a{stroke:#52cefd;}.b{stroke:#039ae4;}.c{fill:#039ae4;}</style></defs><title>generators</title><line class="a" x1="458.1" y1="75.66" x2="497.48" y2="75.73"/><line class="a" x1="458.1" y1="101.95" x2="497.48" y2="102.02"/><path class="a" d="M400.11,89.39H116.74a37.2,37.2,0,0,0-37.2,37.2h0a37.21,37.21,0,0,0,37.2,37.2H512.8A37.19,37.19,0,0,1,550,201V354.16a37.2,37.2,0,0,1-37.2,37.2H493.11"/><line class="a" x1="465.75" y1="509.52" x2="465.75" y2="541.25"/><path class="b" d="M80.63,433V235.45a13.68,13.68,0,0,1,27.36,0V426.38"/><path class="b" d="M164.85,482.17h300.9V235.45a13.68,13.68,0,0,1,27.36,0V483.18a26.33,26.33,0,0,1-26.34,26.34h-308"/><line class="b" x1="110.18" y1="281.95" x2="465.75" y2="281.95"/><path class="a" d="M107.44,426.37a57.44,57.44,0,1,0,57.44,57.44A57.44,57.44,0,0,0,107.44,426.37Zm0,87.52a30.09,30.09,0,1,1,30.09-30.08A30.12,30.12,0,0,1,107.44,513.89Z"/><circle class="a" cx="167.61" cy="339.39" r="30.09"/><circle class="a" cx="258.42" cy="339.39" r="30.09"/><polygon class="c" points="338.03 441.69 351.25 392.53 329.81 392.53 380.38 323.52 367.97 368.72 388.11 368.72 338.03 441.69"/><path class="b" d="M425.44,58.75h34.84a0,0,0,0,1,0,0v60.18a0,0,0,0,1,0,0H425.44a25.33,25.33,0,0,1-25.33-25.33V84.09a25.33,25.33,0,0,1,25.33-25.33Z"/></svg>