<svg xmlns="http://www.w3.org/2000/svg" viewBox="0 0 600 600"><defs><style>.a,.b,.c,.e{fill:none;stroke-miterlimit:10;stroke-width:12px;}.a{stroke:#52cefd;}.b,.c,.e{stroke:#039ae4;}.c{stroke-linecap:round;}.d{fill:#039ae4;}.e{stroke-linecap:square;}</style></defs><title>generatorReadyBusinesses</title><polyline class="a" points="235.63 449.62 333.5 449.62 333.5 316.88 172.63 316.88 172.63 415.87"/><line class="a" x1="139.44" y1="423.15" x2="139.44" y2="289.86"/><polyline class="a" points="518.56 289.86 518.56 481.12 486.5 481.12 228.38 481.12"/><polyline class="a" points="139.44 176.05 139.44 111 518.56 111 518.56 175.13"/><path class="b" d="M519.13,175.13H140l-31.5,51.75v31.5a31.5,31.5,0,0,0,63,0,31.5,31.5,0,0,0,63,0,31.5,31.5,0,0,0,63,0,31.5,31.5,0,0,0,63,0,31.5,31.5,0,0,0,63,0,31.5,31.5,0,0,0,63,0,31.5,31.5,0,0,0,63,0v-31.5Z"/><rect class="a" x="121.44" y="79.5" width="415.12" height="31.5"/><polygon class="a" points="486.5 481.12 392 481.12 392 316.88 486.5 318 486.5 481.12"/><line class="a" x1="458.38" y1="372" x2="458.38" y2="411.37"/><path class="c" d="M228.38,404.49v99.45a10.57,10.57,0,0,1-10.57,10.57H94.17"/><line class="c" x1="62.79" y1="483.8" x2="62.79" y2="404.49"/><line class="b" x1="83.66" y1="423.16" x2="207.27" y2="423.16"/><circle class="b" cx="73.56" cy="504.19" r="23.06"/><circle class="d" cx="73.56" cy="504.19" r="7.94"/><circle class="d" cx="89.31" cy="449.07" r="7.94"/><circle class="d" cx="116.31" cy="449.07" r="7.94"/><line class="e" x1="217.4" y1="514.51" x2="217.4" y2="527.25"/><polygon class="d" points="157.44 499.71 164.43 473.73 153.1 473.73 179.82 437.25 173.27 461.14 183.91 461.14 157.44 499.71"/><path class="c" d="M228.38,423.75h0a38.75,38.75,0,0,1,38.75,38.74v26a38.74,38.74,0,0,0,38.74,38.75H324a38.75,38.75,0,0,0,38.74-38.75v-103"/></svg>