<svg xmlns="http://www.w3.org/2000/svg" viewBox="0 0 600 600"><defs><style>.a,.b{fill:none;stroke-miterlimit:10;stroke-width:12px;}.a{stroke:#52cefd;}.b{stroke:#039ae4;}.c{fill:#039ae4;}</style></defs><title>generators</title><line class="a" x1="427.62" y1="97.6" x2="460.78" y2="97.66"/><line class="a" x1="427.62" y1="119.74" x2="460.78" y2="119.8"/><path class="a" d="M378.79,109.16H140.19a31.33,31.33,0,0,0-31.32,31.33h0a31.33,31.33,0,0,0,31.32,31.32H473.68A31.32,31.32,0,0,1,505,203.13v129a31.32,31.32,0,0,1-31.32,31.32H457.1"/><line class="a" x1="434.07" y1="462.91" x2="434.07" y2="489.63"/><path class="b" d="M109.79,398.49V232.15a11.52,11.52,0,1,1,23,0V392.91"/><path class="b" d="M180.7,439.88H434.07V232.15a11.52,11.52,0,1,1,23,0V440.74a22.17,22.17,0,0,1-22.18,22.17H175.62"/><line class="b" x1="134.67" y1="271.3" x2="434.07" y2="271.3"/><path class="a" d="M132.36,392.9a48.37,48.37,0,1,0,48.37,48.37A48.36,48.36,0,0,0,132.36,392.9Zm0,73.7a25.34,25.34,0,1,1,25.34-25.33A25.37,25.37,0,0,1,132.36,466.6Z"/><circle class="a" cx="183.03" cy="319.66" r="25.33"/><circle class="a" cx="259.49" cy="319.66" r="25.33"/><polygon class="c" points="326.52 405.8 337.65 364.41 319.6 364.41 362.18 306.31 351.73 344.36 368.69 344.36 326.52 405.8"/><path class="b" d="M404.13,83.37h25.33a0,0,0,0,1,0,0V134a0,0,0,0,1,0,0H404.13a25.33,25.33,0,0,1-25.33-25.33v0A25.33,25.33,0,0,1,404.13,83.37Z"/></svg>