<svg xmlns="http://www.w3.org/2000/svg" viewBox="0 0 600 600"><defs><style>.a,.b,.c,.e{fill:none;stroke-miterlimit:10;stroke-width:12px;}.a{stroke:#52cefd;}.b,.c,.e{stroke:#039ae4;}.c{stroke-linecap:round;}.d{fill:#039ae4;}.e{stroke-linecap:square;}</style></defs><title>generatorReadyBusinesses</title><polyline class="a" points="237 450 324 450 324 332 181 332 181 420"/><line class="a" x1="151.5" y1="426.47" x2="151.5" y2="307.99"/><polyline class="a" points="488.5 307.99 488.5 478 460 478 230.56 478"/><polyline class="a" points="151.5 206.82 151.5 149 488.5 149 488.5 206"/><path class="b" d="M489,206H152l-28,46v28a28,28,0,0,0,56,0,28,28,0,0,0,56,0,28,28,0,0,0,56,0,28,28,0,0,0,56,0,28,28,0,0,0,56,0,28,28,0,0,0,56,0,28,28,0,0,0,56,0V252Z"/><rect class="a" x="135.5" y="121" width="369" height="28"/><polygon class="a" points="460 478 376 478 376 332 460 333 460 478"/><line class="a" x1="435" y1="381" x2="435" y2="416"/><path class="c" d="M230.56,409.88v88.4a9.4,9.4,0,0,1-9.4,9.4H111.26"/><line class="c" x1="83.37" y1="480.38" x2="83.37" y2="409.88"/><line class="b" x1="101.91" y1="426.47" x2="211.8" y2="426.47"/><circle class="b" cx="92.94" cy="498.5" r="20.5"/><circle class="d" cx="92.94" cy="498.5" r="7.06"/><circle class="d" cx="106.94" cy="449.5" r="7.06"/><circle class="d" cx="130.94" cy="449.5" r="7.06"/><line class="e" x1="220.8" y1="507.68" x2="220.8" y2="519"/><polygon class="d" points="167.5 494.52 173.72 471.42 163.64 471.42 187.4 439 181.57 460.24 191.03 460.24 167.5 494.52"/><path class="c" d="M230.56,427h0A34.44,34.44,0,0,1,265,461.44v23.12A34.44,34.44,0,0,0,299.44,519h16.12A34.44,34.44,0,0,0,350,484.56V393"/></svg>