<svg xmlns="http://www.w3.org/2000/svg" viewBox="0 0 600 600"><defs><style>.a,.b{fill:none;stroke-miterlimit:10;stroke-width:12px;}.a{stroke:#52cefd;}.b{stroke:#039ae4;}</style></defs><title>goGreenLogo</title><line class="a" x1="236.88" y1="178.83" x2="402.6" y2="178.83"/><line class="a" x1="294.88" y1="236.83" x2="422" y2="236.83"/><line class="a" x1="352.89" y1="294.84" x2="432.31" y2="294.84"/><path class="a" d="M366.24,475.56a338.42,338.42,0,0,1-8.63-42.19c-1.65-11.23-2.85-22-3.72-31.37"/><path class="b" d="M312.1,371.21S316,493.14,349,525.75A84,84,0,0,0,467.06,406.3c-14.52-14.35-46.3-22.87-77.31-27.91-9.8-1.59-34.43-4.25-34.43-4.25C303,367.66,241.39,354.87,216,329.8A121.78,121.78,0,1,1,387.26,156.58c47.84,47.28,53.24,233.89,53.24,233.89"/><circle class="a" cx="150.59" cy="128.45" r="42.58"/><circle class="a" cx="209.91" cy="85.37" r="29.62"/><circle class="a" cx="267.03" cy="74.77" r="24.76"/><circle class="a" cx="315.92" cy="73.21" r="21.71"/><circle class="a" cx="356.46" cy="88.76" r="18.95"/><line class="b" x1="215.17" y1="157.33" x2="436.25" y2="381.83"/></svg>