<svg xmlns="http://www.w3.org/2000/svg" viewBox="0 0 600 600"><defs><style>.a,.b{fill:none;stroke-miterlimit:10;stroke-width:12px;}.a{stroke:#52cefd;}.b{stroke:#039ae4;}</style></defs><title>goGreenLogo</title><line class="a" x1="242.64" y1="184.48" x2="382.53" y2="184.48"/><line class="a" x1="291.61" y1="233.44" x2="398.91" y2="233.44"/><line class="a" x1="340.57" y1="282.41" x2="407.62" y2="282.41"/><path class="a" d="M351.85,435a284,284,0,0,1-7.29-35.62c-1.4-9.47-2.41-18.59-3.14-26.48"/><path class="b" d="M306.14,346.88s3.3,102.92,31.14,130.45A70.89,70.89,0,0,0,437,376.5c-12.26-12.12-39.08-19.31-65.26-23.56-8.27-1.34-29.07-3.59-29.07-3.59-44.15-5.47-96.17-16.27-117.57-37.43A102.8,102.8,0,1,1,369.59,165.7c40.38,39.91,44.94,197.44,44.94,197.44"/><circle class="a" cx="169.8" cy="141.95" r="35.95"/><circle class="a" cx="219.88" cy="105.58" r="25"/><circle class="a" cx="268.1" cy="96.63" r="20.9"/><circle class="a" cx="309.36" cy="95.32" r="18.32"/><circle class="a" cx="343.59" cy="108.45" r="16"/><line class="b" x1="224.32" y1="166.33" x2="410.94" y2="355.84"/></svg>