<svg xmlns="http://www.w3.org/2000/svg" viewBox="0 0 600 600"><defs><style>.a,.b{fill:none;stroke-miterlimit:10;stroke-width:12px;}.a{stroke:#52cefd;}.b{stroke:#039ae4;}</style></defs><title>govMeetings</title><line class="a" x1="300.43" y1="78.25" x2="300.43" y2="176.49"/><rect class="a" x="89.5" y="399.31" width="141" height="34.87" transform="translate(576.75 256.75) rotate(90)"/><rect class="a" x="159.5" y="399.31" width="141" height="34.87" transform="translate(646.75 186.75) rotate(90)"/><rect class="a" x="229.5" y="399.31" width="141" height="34.87" transform="translate(716.75 116.75) rotate(90)"/><rect class="a" x="299.5" y="399.31" width="141" height="34.87" transform="translate(786.75 46.75) rotate(90)"/><rect class="a" x="369.5" y="399.31" width="141" height="34.87" transform="translate(856.75 -23.25) rotate(90)"/><path class="b" d="M165.19,311.3a134.81,134.81,0,1,1,269.62,0"/><rect class="b" x="300.43" y="78.25" width="89.31" height="56.14"/><line class="b" x1="106.92" y1="310.88" x2="493.08" y2="310.88"/><line class="b" x1="493.08" y1="345.75" x2="106.92" y2="345.75"/><line class="b" x1="493.08" y1="521.75" x2="106.92" y2="521.75"/><line class="b" x1="106.92" y1="486.88" x2="493.08" y2="486.88"/></svg>