<svg xmlns="http://www.w3.org/2000/svg" viewBox="0 0 600 600"><defs><style>.a,.b{fill:none;stroke-miterlimit:10;stroke-width:12px;}.a{stroke:#52cefd;}.b{stroke:#039ae4;}</style></defs><title>govMeetings</title><line class="a" x1="300.48" y1="50" x2="300.48" y2="160.75"/><rect class="a" x="62.68" y="411.97" width="158.96" height="39.32" transform="translate(573.79 289.46) rotate(90)"/><rect class="a" x="141.6" y="411.97" width="158.96" height="39.32" transform="translate(652.71 210.54) rotate(90)"/><rect class="a" x="220.52" y="411.97" width="158.96" height="39.32" transform="translate(731.62 131.62) rotate(90)"/><rect class="a" x="299.44" y="411.97" width="158.96" height="39.32" transform="translate(810.54 52.71) rotate(90)"/><rect class="a" x="378.35" y="411.97" width="158.96" height="39.32" transform="translate(889.46 -26.21) rotate(90)"/><path class="b" d="M148,312.74a152,152,0,0,1,304,0"/><rect class="b" x="300.48" y="50" width="100.69" height="63.29"/><line class="b" x1="82.33" y1="312.26" x2="517.67" y2="312.26"/><line class="b" x1="517.67" y1="351.58" x2="82.33" y2="351.58"/><line class="b" x1="517.67" y1="550" x2="82.33" y2="550"/><line class="b" x1="82.33" y1="510.68" x2="517.67" y2="510.68"/></svg>