<svg xmlns="http://www.w3.org/2000/svg" viewBox="0 0 600 600"><defs><style>.a,.b{fill:none;stroke-width:12px;}.a{stroke:#039ae4;stroke-linejoin:round;}.b{stroke:#52cefd;stroke-miterlimit:10;}</style></defs><title>greenways</title><ellipse class="a" cx="363.76" cy="493.1" rx="42.25" ry="106.95" transform="matrix(0.13, -0.99, 0.99, 0.13, -173, 788.64)"/><ellipse class="a" cx="131.98" cy="390.77" rx="42.25" ry="106.95" transform="translate(-252.32 240.99) rotate(-50.04)"/><ellipse class="a" cx="453.99" cy="358.9" rx="95.07" ry="37.56" transform="translate(-54.28 82.17) rotate(-9.76)"/><ellipse class="a" cx="232.84" cy="319.97" rx="37.56" ry="95.07" transform="translate(-160.2 365.89) rotate(-60.62)"/><ellipse class="a" cx="478.09" cy="234.95" rx="78.36" ry="30.96" transform="translate(-54 209.34) rotate(-23.42)"/><ellipse class="a" cx="290.18" cy="234.95" rx="30.96" ry="78.36" transform="translate(-40.73 407.86) rotate(-66.58)"/><path class="b" d="M74.64,513.73A316.08,316.08,0,0,0,264.12,451q2.73-2,5.4-4.13A317.46,317.46,0,0,0,384.33,266.43l.48-2.15q1.56-7.14,2.8-14.4"/><ellipse class="a" cx="381.46" cy="151.43" rx="31.82" ry="80.55" transform="translate(-3.5 9.14) rotate(-1.37)"/></svg>