<svg xmlns="http://www.w3.org/2000/svg" viewBox="0 0 600 600"><defs><style>.a,.b{fill:none;stroke-width:12px;}.a{stroke:#039ae4;stroke-linejoin:round;}.b{stroke:#52cefd;stroke-miterlimit:10;}</style></defs><title>greenways</title><ellipse class="a" cx="370.92" cy="442.2" rx="34.4" ry="87.08" transform="translate(-116.34 751.55) rotate(-82.42)"/><ellipse class="a" cx="182.19" cy="358.88" rx="34.4" ry="87.08" transform="translate(-209.91 268.07) rotate(-50.04)"/><ellipse class="a" cx="444.38" cy="332.93" rx="77.41" ry="30.58" transform="translate(-50.01 80.16) rotate(-9.76)"/><ellipse class="a" cx="264.31" cy="301.23" rx="30.58" ry="77.41" transform="translate(-127.85 383.77) rotate(-60.62)"/><ellipse class="a" cx="464" cy="232.01" rx="63.81" ry="25.21" transform="translate(-53.99 203.5) rotate(-23.42)"/><ellipse class="a" cx="311" cy="232.01" rx="25.21" ry="63.81" transform="translate(-25.49 425.2) rotate(-66.58)"/><path class="b" d="M135.5,459a257.35,257.35,0,0,0,154.28-51.06q2.22-1.65,4.4-3.36a258.5,258.5,0,0,0,93.48-146.94l.39-1.75q1.27-5.82,2.28-11.73"/><ellipse class="a" cx="385.32" cy="164.01" rx="25.91" ry="65.59" transform="translate(-3.8 9.24) rotate(-1.37)"/></svg>