<svg xmlns="http://www.w3.org/2000/svg" viewBox="0 0 600 600"><defs><style>.a,.b,.c{fill:none;stroke-width:12px;}.a,.c{stroke:#52cefd;}.a{stroke-linejoin:round;}.b{stroke:#039ae4;}.b,.c{stroke-miterlimit:10;}</style></defs><title>healthyCountyEmergency</title><path class="a" d="M491.21,331.57a73.34,73.34,0,0,0,6.6-12.11A87.78,87.78,0,0,0,335.49,252.6a87.78,87.78,0,0,0-162.32,66.86,73.48,73.48,0,0,0,6.61,12.11l28.49,35.28c47.43,52,124,117.25,127.16,119.91a.62.62,0,0,1,0,.09l.05,0,.05,0a.62.62,0,0,1,0-.09c3.12-2.66,79.73-67.95,127.16-119.91Z"/><line class="b" x1="84.97" y1="176.57" x2="84.97" y2="507.99"/><rect class="c" x="50" y="176.57" width="69.94" height="331.42"/><path class="c" d="M255,92h124.4a23.92,23.92,0,0,1,23.92,23.92v60.63a0,0,0,0,1,0,0H231.11a0,0,0,0,1,0,0V115.93A23.92,23.92,0,0,1,255,92Z"/><rect class="c" x="267.25" y="127.51" width="99.94" height="49.06"/><line class="c" x1="550" y1="297.48" x2="503.55" y2="297.48"/><line class="c" x1="167.43" y1="297.48" x2="119.94" y2="297.48"/><polygon class="b" points="401.25 328.69 352.73 328.69 352.73 280.17 317.21 280.17 317.21 328.69 268.69 328.69 268.69 364.21 317.21 364.21 317.21 412.74 352.73 412.74 352.73 364.21 401.25 364.21 401.25 328.69"/><rect class="b" x="119.94" y="176.57" width="430.06" height="331.42"/></svg>