<svg xmlns="http://www.w3.org/2000/svg" viewBox="0 0 600 600"><defs><style>.a,.b{fill:none;stroke-width:12px;}.a{stroke:#52cefd;stroke-miterlimit:10;}.b{stroke:#039ae4;stroke-linejoin:round;}</style></defs><title>healthyCountyRegistry</title><polyline class="a" points="255.24 118.5 200.26 118.5 151.75 118.5 151.75 553.5 468.75 553.5 468.75 118.5 420.24 118.5"/><path class="a" d="M309.68,46.5h1.13a21.93,21.93,0,0,1,21.93,21.93V91.5a0,0,0,0,1,0,0h-45a0,0,0,0,1,0,0V68.43A21.93,21.93,0,0,1,309.68,46.5Z"/><polyline class="b" points="355.25 519.5 181.25 519.5 181.25 146.5 442.25 146.5 442.25 432.5"/><polyline class="a" points="337.92 213.5 356.38 213.5 394.85 213.5 396.32 213.5"/><line class="a" x1="284.08" y1="213.5" x2="211.25" y2="213.5"/><line class="a" x1="410.25" y1="277.5" x2="370.51" y2="277.5"/><polyline class="a" points="313.33 277.5 273.81 277.5 211.25 277.5"/><line class="a" x1="410.25" y1="341.5" x2="310.6" y2="341.5"/><line class="a" x1="250.92" y1="341.5" x2="211.25" y2="341.5"/><line class="a" x1="410.25" y1="405.5" x2="235.47" y2="405.5"/><line class="a" x1="355.25" y1="469.5" x2="211.25" y2="469.5"/><polygon class="b" points="355.25 519.5 355.25 432.5 442.25 432.5 355.25 519.5"/><polyline class="a" points="392.25 146.49 392.25 146.5 392.25 174.5 356.71 174.5"/><path class="a" d="M265.29,174.5h-37v-28c15.19,0,27-12.31,27-27.5,0-.17,0-.33,0-.5a27.49,27.49,0,0,0-27-27h-.5a27.49,27.49,0,0,0-27.49,27c0,.17,0,.33,0,.5"/><path class="a" d="M228.25,91.51h164.5a27.49,27.49,0,0,1,27.49,27c0,.17,0,.33,0,.5a27.5,27.5,0,0,1-27.5,27.5H229.25"/><rect class="a" x="131.25" y="118.5" width="21" height="435"/><path class="b" d="M354.37,194.87a20,20,0,0,0,1.84-3.37A24.45,24.45,0,0,0,311,172.88a24.45,24.45,0,0,0-45.21,18.62,20,20,0,0,0,1.84,3.37l7.93,9.83c13.22,14.47,34.55,32.66,35.42,33.4v0h0v0c.87-.74,22.2-18.93,35.42-33.4Z"/></svg>