<svg xmlns="http://www.w3.org/2000/svg" viewBox="0 0 600 600"><defs><style>.a,.b{fill:none;stroke-width:12px;}.a{stroke:#52cefd;stroke-miterlimit:10;}.b{stroke:#039ae4;stroke-linecap:round;stroke-linejoin:round;}</style></defs><title>healthyCountyDrugProgram</title><path class="a" d="M369,483l-30.33-46.3L308.1,483H205.39L283.9,366.44l-49-77v60H150.27V117H254.84a92.41,92.41,0,0,1,43.3,10.26,81.44,81.44,0,0,1,31.69,29A77.16,77.16,0,0,1,341.66,198a78.07,78.07,0,0,1-13.28,44.24,79.68,79.68,0,0,1-13.91,15.85l24.46,38.33,30-45.84H471.71L393.44,366.79,471.71,483Z"/><path class="b" d="M430.45,272.54H380.83l-42.14,64.31-54.47-85.34A59.14,59.14,0,0,0,310.14,230a56.2,56.2,0,0,0,9.57-32,55.27,55.27,0,0,0-8.46-30.07A59.42,59.42,0,0,0,288,146.72,70.41,70.41,0,0,0,254.84,139H172.23v188.5H213V257.6H240.7l69.44,109.19L246.65,461h49.63l42.41-64.31L380.83,461h49.62L367,366.79ZM213,220.46V178h41.86q10.53,0,17.33,6A19.57,19.57,0,0,1,279,199.39a19.2,19.2,0,0,1-6.93,15q-6.94,6.1-17.19,6.1Z"/></svg>