<svg xmlns="http://www.w3.org/2000/svg" viewBox="0 0 600 600"><defs><style>.a,.b,.c,.d,.e{fill:none;stroke-width:12px;}.a,.b{stroke:#52cefd;}.a{stroke-linejoin:round;}.b,.c,.d,.e{stroke-miterlimit:10;}.c,.d,.e{stroke:#039ae4;}.d{stroke-linecap:square;}.e{stroke-linecap:round;}.f{fill:#039ae4;}</style></defs><title>healthAccounts</title><path class="a" d="M315.76,317.21a19,19,0,0,0,1.64-3A21.85,21.85,0,0,0,277,297.55a21.85,21.85,0,0,0-40.4,16.64,19,19,0,0,0,1.64,3l7.09,8.78c11.81,12.93,30.88,29.18,31.66,29.84v0h0v0c.78-.66,19.85-16.91,31.66-29.84Z"/><line class="b" x1="75.85" y1="504.5" x2="487.3" y2="504.5"/><path class="c" d="M76,292.09a12.29,12.29,0,0,1,12.28-12.28h29.9a164.85,164.85,0,0,1,38.7-80.94V149.73a12.8,12.8,0,0,1,21.85-9l22.43,22.42A164.81,164.81,0,0,1,226,151.94"/><path class="c" d="M327.59,148.87A165.89,165.89,0,0,1,424,393.23l23.51,23.51a12.31,12.31,0,0,1,0,17.38l-39.95,39.94a12.26,12.26,0,0,1-17.37,0l-23.51-23.5a166.1,166.1,0,0,1-170.11,0L173,474.06a12.25,12.25,0,0,1-17.36,0l-40-39.94a12.31,12.31,0,0,1,0-17.38l23.51-23.51a164,164,0,0,1-14.86-32.36h-36A12.28,12.28,0,0,1,76,348.6"/><path class="c" d="M153.23,287.1a18.42,18.42,0,1,1,36.84,0"/><path class="d" d="M171.65,341.76A36.23,36.23,0,0,1,135.42,378"/><line class="e" x1="98.55" y1="311.67" x2="98.55" y2="330.09"/><line class="e" x1="75.85" y1="311.67" x2="75.85" y2="330.09"/><path class="b" d="M239.62,181.48A50.76,50.76,0,0,1,226,151.94c-.18-1.8-.28-3.63-.28-5.47a51,51,0,0,1,101.95,0c0,.8,0,1.6-.05,2.4a50.77,50.77,0,0,1-13.88,32.61"/><line class="e" x1="212.18" y1="181.48" x2="342.37" y2="181.48"/><polygon class="f" points="177.79 170.42 177.79 190.07 187.62 181.48 177.79 170.42"/><path class="c" d="M450.46,287.1h12.28A12.28,12.28,0,0,1,475,299.39v43a12.28,12.28,0,0,0,12.28,12.29h0a12.29,12.29,0,0,0,12.29-12.29v-43a12.28,12.28,0,0,1,12.28-12.29h0a12.28,12.28,0,0,1,12.28,12.29"/></svg>