<svg xmlns="http://www.w3.org/2000/svg" viewBox="0 0 600 600"><defs><style>.a,.b{fill:none;stroke-width:12px;}.a{stroke:#52cefd;stroke-miterlimit:10;}.b{stroke:#039ae4;stroke-linecap:round;stroke-linejoin:round;}</style></defs><title>healthyCountyDrugProgram</title><path class="a" d="M379.2,550l-41.44-63.25L296.05,550H155.74L263,390.77,196.1,285.59v81.92H80.44V50H223.29c21.47,0,41.37,4.72,59.16,14a111.23,111.23,0,0,1,43.29,39.58,105.45,105.45,0,0,1,16.16,57.06,106.65,106.65,0,0,1-18.14,60.44,109.43,109.43,0,0,1-19,21.65l33.41,52.36,41-62.62H519.56L412.63,391.24,519.56,550Z"/><path class="b" d="M463.19,262.48H395.4l-57.56,87.86L263.43,233.75a80.74,80.74,0,0,0,35.41-29.35,76.83,76.83,0,0,0,13.07-43.74,75.61,75.61,0,0,0-11.55-41.09,81.35,81.35,0,0,0-31.81-29Q248.28,80,223.29,80H110.44V337.52h55.67V242.08H204l94.85,149.16L212.11,520H279.9l57.94-87.87L395.4,520h67.79L376.47,391.24ZM166.11,191.34v-58h57.18q14.39,0,23.67,8.14t9.28,21q0,12.13-9.47,20.45t-23.48,8.34Z"/></svg>