<svg xmlns="http://www.w3.org/2000/svg" viewBox="0 0 600 600"><defs><style>.a,.b{fill:none;stroke-width:12px;}.a{stroke:#52cefd;stroke-miterlimit:10;}.b{stroke:#039ae4;stroke-linejoin:round;}</style></defs><title>healthyCountyRegistry</title><polyline class="a" points="251.56 79.22 192.06 79.22 139.56 79.22 139.56 550 482.63 550 482.63 79.22 430.13 79.22"/><polyline class="b" points="359.79 513.2 171.48 513.2 171.48 109.52 453.95 109.52 453.95 419.05"/><polyline class="a" points="341.04 182.03 361.02 182.03 402.65 182.03 404.24 182.03"/><line class="a" x1="282.77" y1="182.03" x2="203.95" y2="182.03"/><line class="a" x1="419.32" y1="251.3" x2="376.31" y2="251.3"/><polyline class="a" points="314.43 251.3 271.66 251.3 203.95 251.3"/><line class="a" x1="419.32" y1="320.56" x2="311.47" y2="320.56"/><line class="a" x1="246.88" y1="320.56" x2="203.95" y2="320.56"/><line class="a" x1="419.32" y1="389.83" x2="230.16" y2="389.83"/><line class="a" x1="359.79" y1="459.09" x2="203.95" y2="459.09"/><polygon class="b" points="359.79 513.2 359.79 419.05 453.95 419.05 359.79 513.2"/><polyline class="a" points="399.84 109.51 399.84 109.52 399.84 139.83 361.37 139.83"/><path class="a" d="M262.44,139.83H222.35V109.52c16.44,0,29.22-13.32,29.22-29.76,0-.18,0-.36,0-.54A29.75,29.75,0,0,0,222.35,50h-.54a29.75,29.75,0,0,0-29.75,29.22c0,.18,0,.36,0,.54"/><path class="a" d="M222.35,50h178a29.75,29.75,0,0,1,29.75,29.22c0,.18,0,.36,0,.54a29.75,29.75,0,0,1-29.76,29.76H223.43"/><rect class="a" x="117.37" y="79.22" width="22.73" height="470.78"/><path class="b" d="M358.84,161.88a21.63,21.63,0,0,0,2-3.66,26.46,26.46,0,0,0-48.93-20.15A26.45,26.45,0,0,0,263,158.22a21.63,21.63,0,0,0,2,3.66l8.58,10.63c14.3,15.66,37.4,35.34,38.34,36.14v0h0v0c.94-.8,24-20.48,38.33-36.14Z"/></svg>