<svg xmlns="http://www.w3.org/2000/svg" viewBox="0 0 600 600"><defs><style>.a,.b,.c,.d,.e{fill:none;stroke-width:12px;}.a,.b{stroke:#52cefd;}.a{stroke-linejoin:round;}.b,.c,.d,.e{stroke-miterlimit:10;}.c,.d,.e{stroke:#039ae4;}.d{stroke-linecap:square;}.e{stroke-linecap:round;}.f{fill:#039ae4;}</style></defs><title>healthAccounts</title><path class="a" d="M317.57,319.19a21.1,21.1,0,0,0,1.84-3.36,24.37,24.37,0,0,0-45.06-18.56,24.37,24.37,0,0,0-45.06,18.56,20.2,20.2,0,0,0,1.83,3.36L239,329c13.17,14.43,34.43,32.55,35.3,33.29v0h0v0c.87-.74,22.14-18.86,35.3-33.29Z"/><line class="b" x1="50" y1="528.08" x2="508.9" y2="528.08"/><path class="c" d="M50.21,291.18a13.7,13.7,0,0,1,13.69-13.7H97.25a183.79,183.79,0,0,1,43.16-90.27V132.4a14.27,14.27,0,0,1,24.37-10.08l25,25a183.24,183.24,0,0,1,27.65-12.47"/><path class="c" d="M330.77,131.44a184.06,184.06,0,0,1,79.45,46.93c61.19,61.19,70.52,154.59,28,225.62l26.22,26.22a13.72,13.72,0,0,1,0,19.38L419.9,494.14a13.69,13.69,0,0,1-19.37,0l-26.21-26.22a185.22,185.22,0,0,1-189.73,0l-26.22,26.22a13.69,13.69,0,0,1-19.37,0L94.44,449.59a13.72,13.72,0,0,1,0-19.38L120.66,404a183.93,183.93,0,0,1-16.58-36.1H63.9a13.68,13.68,0,0,1-13.69-13.68"/><path class="c" d="M136.3,285.62a20.55,20.55,0,0,1,41.1,0"/><path class="d" d="M156.85,346.58A40.41,40.41,0,0,1,116.44,387"/><line class="e" x1="75.32" y1="313.01" x2="75.32" y2="333.56"/><line class="e" x1="50" y1="313.01" x2="50" y2="333.56"/><path class="b" d="M232.66,167.81a56.51,56.51,0,0,1-15.22-32.95,58.42,58.42,0,0,1-.32-6.09,56.85,56.85,0,1,1,113.7,0c0,.89,0,1.78-.05,2.67a56.61,56.61,0,0,1-15.48,36.37"/><line class="e" x1="202.05" y1="167.81" x2="347.26" y2="167.81"/><polygon class="f" points="163.7 155.48 163.7 177.4 174.66 167.81 163.7 155.48"/><path class="c" d="M467.81,285.62h13.7a13.7,13.7,0,0,1,13.7,13.7v47.94A13.69,13.69,0,0,0,508.9,361h0a13.7,13.7,0,0,0,13.7-13.7V299.32a13.7,13.7,0,0,1,13.7-13.7h0a13.7,13.7,0,0,1,13.7,13.7"/></svg>