<svg xmlns="http://www.w3.org/2000/svg" viewBox="0 0 600 600"><defs><style>.a,.b,.c{fill:none;stroke-width:12px;}.a,.c{stroke:#52cefd;}.a{stroke-linejoin:round;}.b{stroke:#039ae4;}.b,.c{stroke-miterlimit:10;}</style></defs><title>healthyCountyEmergency</title><path class="a" d="M482.17,312.25a70.18,70.18,0,0,0,6.33-11.61,84.09,84.09,0,0,0-155.5-64,84.09,84.09,0,0,0-155.5,64,70.18,70.18,0,0,0,6.33,11.61L211.12,346C256.56,395.82,330,458.37,333,460.92V461l.05,0,.05,0v-.08c3-2.55,76.39-65.1,121.83-114.88Z"/><line class="b" x1="93" y1="163.75" x2="93" y2="481.25"/><rect class="c" x="59.5" y="163.75" width="67" height="317.5"/><path class="c" d="M256.92,82.75H374.08A23.92,23.92,0,0,1,398,106.67v57.08a0,0,0,0,1,0,0H233a0,0,0,0,1,0,0V106.67A23.92,23.92,0,0,1,256.92,82.75Z"/><rect class="c" x="267.63" y="116.75" width="95.74" height="47"/><line class="c" x1="538.5" y1="279.59" x2="494" y2="279.59"/><line class="c" x1="172" y1="279.59" x2="126.5" y2="279.59"/><polygon class="b" points="396 309.49 349.51 309.49 349.51 263 315.49 263 315.49 309.49 269 309.49 269 343.51 315.49 343.51 315.49 390 349.51 390 349.51 343.51 396 343.51 396 309.49"/><rect class="b" x="126.5" y="163.75" width="412" height="317.5"/></svg>