<svg xmlns="http://www.w3.org/2000/svg" viewBox="0 0 600 600"><defs><style>.a,.b{fill:none;stroke-width:12px;}.a{stroke:#52cefd;stroke-miterlimit:10;}.b{stroke:#039ae4;stroke-linejoin:round;}</style></defs><title>hearings</title><path class="a" d="M291,447.37h0a30,30,0,0,1,30-30H449a30,30,0,0,1,30,30h0"/><rect class="b" x="274" y="465.48" width="222" height="37.79"/><line class="a" x1="71" y1="503.37" x2="529" y2="503.37"/><path class="b" d="M320.63,260.92,125.42,456.12a18,18,0,0,1-25.45,0h0a18,18,0,0,1,0-25.45L295.18,235.46"/><line class="b" x1="347.45" y1="262.59" x2="293.5" y2="208.64"/><line class="b" x1="421" y1="187.51" x2="367.05" y2="133.56"/><path class="b" d="M273.55,188.69h0a25.09,25.09,0,0,1,0-35.5l38.82-38.82a25.1,25.1,0,0,1,35.49,0h0"/><path class="b" d="M441.45,208l.27.27a25.11,25.11,0,0,1,0,35.5l-38.81,38.82a25.11,25.11,0,0,1-35.5,0l-.27-.27"/><rect class="a" x="341.83" y="221.19" width="105.1" height="28.03" transform="translate(-50.8 347.79) rotate(-45)"/><polygon class="a" points="293.37 208.51 367.68 134.19 347.87 114.38 273.55 188.69 293.37 208.51"/><line class="b" x1="274" y1="442" x2="496" y2="442"/></svg>