<svg xmlns="http://www.w3.org/2000/svg" viewBox="0 0 600 600"><defs><style>.a,.b{fill:none;stroke-width:12px;}.a{stroke:#52cefd;stroke-miterlimit:10;}.b{stroke:#039ae4;stroke-linejoin:round;}</style></defs><title>hearings</title><path class="a" d="M290.17,455.21h0a32.76,32.76,0,0,1,32.76-32.75H462.66a32.75,32.75,0,0,1,32.75,32.75h0"/><rect class="b" x="271.62" y="474.98" width="242.36" height="41.25"/><line class="a" x1="50" y1="516.35" x2="550" y2="516.35"/><path class="b" d="M322.53,251.66,109.41,464.77a19.66,19.66,0,0,1-27.79,0h0a19.66,19.66,0,0,1,0-27.79L294.74,223.87"/><line class="b" x1="351.8" y1="253.49" x2="292.91" y2="194.59"/><line class="b" x1="432.1" y1="171.52" x2="373.2" y2="112.63"/><path class="b" d="M271.12,172.8h0a27.4,27.4,0,0,1,0-38.75L313.5,91.68a27.4,27.4,0,0,1,38.75,0h0"/><path class="b" d="M454.42,193.84l.29.3a27.39,27.39,0,0,1,0,38.75l-42.38,42.38a27.4,27.4,0,0,1-38.75,0l-.3-.29"/><rect class="a" x="345.67" y="208.29" width="114.74" height="30.6" transform="translate(-40.05 350.51) rotate(-45)"/><polygon class="a" points="292.76 194.44 373.88 113.31 352.26 91.68 271.12 172.8 292.76 194.44"/><line class="b" x1="271.62" y1="449.35" x2="513.97" y2="449.35"/></svg>