<svg xmlns="http://www.w3.org/2000/svg" viewBox="0 0 600 600"><defs><style>.a,.b{fill:none;stroke-linecap:square;stroke-miterlimit:10;stroke-width:12px;}.a{stroke:#52cefd;}.b{stroke:#039ae4;}</style></defs><title>hotels</title><circle class="a" cx="144.48" cy="265.54" r="47.14"/><line class="a" x1="50" y1="112.21" x2="50" y2="487.79"/><path class="b" d="M75.32,411.51V352c0-7,6-12.67,13.36-12.67H536c7.38,0,13.37,5.67,13.37,12.67v59.55Z"/><path class="a" d="M213.74,218.39H450.2a74.49,74.49,0,0,1,74.49,74.49v19.8a0,0,0,0,1,0,0H213.74a0,0,0,0,1,0,0V218.39A0,0,0,0,1,213.74,218.39Z"/><polyline class="a" points="51.9 438.13 550 438.13 550 487.79"/></svg>