<svg xmlns="http://www.w3.org/2000/svg" viewBox="0 0 600 600"><defs><style>.a,.b{fill:none;stroke-linecap:square;stroke-miterlimit:10;stroke-width:12px;}.a{stroke:#52cefd;}.b{stroke:#039ae4;}</style></defs><title>hotels</title><circle class="a" cx="177.14" cy="272.77" r="37.24"/><line class="a" x1="102.5" y1="151.65" x2="102.5" y2="448.35"/><path class="b" d="M122.5,388.09v-47a10.3,10.3,0,0,1,10.56-10H486.44a10.3,10.3,0,0,1,10.56,10v47Z"/><path class="a" d="M231.85,235.53H403A74.49,74.49,0,0,1,477.5,310v0a0,0,0,0,1,0,0H231.85a0,0,0,0,1,0,0V235.53A0,0,0,0,1,231.85,235.53Z"/><polyline class="a" points="104 409.12 497.5 409.12 497.5 448.35"/></svg>