<svg xmlns="http://www.w3.org/2000/svg" viewBox="0 0 600 600"><defs><style>.a,.b,.c{fill:none;stroke-width:12px;}.a,.c{stroke:#52cefd;}.a{stroke-linecap:round;stroke-linejoin:round;}.b{stroke:#039ae4;}.b,.c{stroke-linecap:square;stroke-miterlimit:10;}</style></defs><title>hurricaneAlerts</title><path class="a" d="M194.39,381.74h45.35s-5.94-13.46-3.13-36"/><line class="a" x1="109.67" y1="336.23" x2="181.26" y2="336.23"/><path class="b" d="M191.14,486.59H141.29a11.91,11.91,0,0,1-11.76-10L107.28,336.23V232.41h74V336.23L202.9,472.78A11.91,11.91,0,0,1,191.14,486.59Z"/><line class="c" x1="78.64" y1="232.41" x2="78.64" y2="336.23"/><line class="b" x1="50" y1="262.25" x2="50" y2="307.59"/><path class="b" d="M183.65,336.23c74,0,157.93,19.09,218.38,52.64V179.78c-60.45,33.54-144.35,52.63-218.38,52.63"/><line class="a" x1="458.11" y1="286.11" x2="550" y2="286.11"/><line class="a" x1="458.11" y1="178.38" x2="523.09" y2="113.41"/><line class="a" x1="458.11" y1="393.84" x2="523.09" y2="458.81"/></svg>