<svg xmlns="http://www.w3.org/2000/svg" viewBox="0 0 600 600"><defs><style>.a,.b,.c{fill:none;stroke-width:12px;}.a,.c{stroke:#52cefd;}.a{stroke-linecap:round;stroke-linejoin:round;}.b{stroke:#039ae4;}.b,.c{stroke-linecap:square;stroke-miterlimit:10;}</style></defs><title>hurricaneAlerts</title><path class="a" d="M197.55,379.29h44s-5.76-13.06-3-34.88"/><line class="a" x1="115.37" y1="335.15" x2="184.82" y2="335.15"/><path class="b" d="M194.4,481H146.05a11.55,11.55,0,0,1-11.41-9.72L113.05,335.15V234.44h71.77V335.15l21,132.45A11.55,11.55,0,0,1,194.4,481Z"/><line class="c" x1="85.27" y1="234.44" x2="85.27" y2="335.15"/><line class="b" x1="57.49" y1="263.38" x2="57.49" y2="307.36"/><path class="b" d="M187.14,335.15c71.81,0,153.19,18.52,211.83,51.06V183.38c-58.64,32.54-140,51.06-211.83,51.06"/><line class="a" x1="453.38" y1="286.53" x2="542.51" y2="286.53"/><line class="a" x1="453.38" y1="182.03" x2="516.4" y2="119"/><line class="a" x1="453.38" y1="391.03" x2="516.4" y2="454.06"/></svg>