<svg xmlns="http://www.w3.org/2000/svg" viewBox="0 0 600 600"><defs><style>.a,.b{fill:none;stroke-miterlimit:10;stroke-width:12px;}.a{stroke:#52cefd;}.b{stroke:#039ae4;}</style></defs><title>hurricaneShelters</title><polyline class="a" points="494.12 157.82 494.12 502.06 103.71 502.06 103.71 157.82"/><polyline class="b" points="173.94 275.36 173.94 450.45 234.03 450.45 234.03 275.36"/><line class="b" x1="203.99" y1="355.53" x2="203.99" y2="450.45"/><polyline class="b" points="268.87 355.1 268.87 450.45 328.95 450.45 328.95 355.1"/><line class="b" x1="298.91" y1="403.27" x2="298.91" y2="450.45"/><polyline class="b" points="362.78 275.36 362.78 450.45 422.86 450.45 422.86 275.36"/><line class="b" x1="392.82" y1="400.99" x2="392.82" y2="450.45"/><path class="a" d="M240.66,355.53H156.52V275.62A47.47,47.47,0,0,1,204,228.15h0a47.46,47.46,0,0,1,47.46,47.47v14.31l24.18,24.42"/><path class="a" d="M251.45,355.36a47.46,47.46,0,0,1,47.46-47.47h0a47.47,47.47,0,0,1,47.47,47.47v45.73H251.45V355.53"/><path class="a" d="M322.27,313.85l24.06-23.92V275.62a47.51,47.51,0,0,1,47.51-47.47h0a47.46,47.46,0,0,1,47.46,47.47v79.24H422.86v46.23H356.31"/><circle class="b" cx="203.99" cy="198.71" r="29.44"/><circle class="b" cx="298.91" cy="278.45" r="29.44"/><circle class="b" cx="393.84" cy="198.71" r="29.44"/><polyline class="b" points="50 173.97 300 97.94 550 173.97"/></svg>