<svg xmlns="http://www.w3.org/2000/svg" viewBox="0 0 600 600"><defs><style>.a,.b{fill:none;stroke-miterlimit:10;stroke-width:12px;}.a{stroke:#52cefd;}.b{stroke:#039ae4;}</style></defs><title>hurricaneShelters</title><polyline class="a" points="478.59 169.19 478.59 485.89 119.41 485.89 119.41 169.19"/><polyline class="b" points="184.03 277.33 184.03 438.42 239.3 438.42 239.3 277.33"/><line class="b" x1="211.67" y1="351.08" x2="211.67" y2="438.42"/><polyline class="b" points="271.36 350.69 271.36 438.42 326.64 438.42 326.64 350.69"/><line class="b" x1="299" y1="395.01" x2="299" y2="438.42"/><polyline class="b" points="357.76 277.33 357.76 438.42 413.03 438.42 413.03 277.33"/><line class="b" x1="385.4" y1="392.91" x2="385.4" y2="438.42"/><path class="a" d="M245.41,351.08H168V277.57a43.67,43.67,0,0,1,43.67-43.67h0a43.67,43.67,0,0,1,43.66,43.67v13.16l22.25,22.47"/><path class="a" d="M255.33,350.93A43.67,43.67,0,0,1,299,307.26h0a43.67,43.67,0,0,1,43.67,43.67V393H255.33V351.08"/><path class="a" d="M320.48,312.74l22.15-22V277.57a43.7,43.7,0,0,1,43.7-43.67h0A43.67,43.67,0,0,1,430,277.57v72.9H413V393H351.81"/><circle class="b" cx="211.67" cy="206.82" r="27.08"/><circle class="b" cx="299" cy="280.18" r="27.08"/><circle class="b" cx="386.33" cy="206.82" r="27.08"/><polyline class="b" points="70 184.06 300 114.11 530 184.06"/></svg>