<svg xmlns="http://www.w3.org/2000/svg" viewBox="0 0 600 600"><defs><style>.a,.b{fill:none;stroke-width:12px;}.a{stroke:#52cefd;stroke-miterlimit:10;}.b{stroke:#039ae4;stroke-linejoin:round;}</style></defs><title>investigations</title><path class="a" d="M285.89,543.33a684.61,684.61,0,0,1-99.49-59.72C113.63,430.56,76.74,376.42,76.74,322.7a204.48,204.48,0,0,1,15.32-77.91C95.27,237,85,215.07,78.9,202l-2.63-5.66a70.47,70.47,0,0,1,15.78-81.4l54.52-50.67a52.61,52.61,0,0,1,72,0l22.72,21.12L264,64.25a52.6,52.6,0,0,1,72,0l22.71,21.11,22.72-21.11a52.6,52.6,0,0,1,72,0L508,114.92a70.47,70.47,0,0,1,15.78,81.4c-.85,1.86-1.74,3.75-2.63,5.66-6.12,13.09-16.37,35-13.16,42.81a204.48,204.48,0,0,1,15.32,77.91c0,53.72-36.89,107.86-109.66,160.91a684.61,684.61,0,0,1-99.49,59.72L300,550Z"/><path class="b" d="M484.91,144.46,430.39,93.78a19.35,19.35,0,0,0-25.93,0l-32.78,30.47a19.32,19.32,0,0,1-25.93,0L313,93.78a19.33,19.33,0,0,0-25.92,0l-32.79,30.47a19.32,19.32,0,0,1-25.93,0L195.54,93.78a19.35,19.35,0,0,0-25.93,0l-54.52,50.68a29.61,29.61,0,0,0-7.09,34.4c11.35,24.58,27.45,55,16.5,81.77a163.24,163.24,0,0,0-12.23,62.07c0,96.36,187.73,185,187.73,185s187.73-88.67,187.73-185a163.24,163.24,0,0,0-12.23-62.07c-10.95-26.72,5.15-57.19,16.5-81.77A29.61,29.61,0,0,0,484.91,144.46Z"/><polygon class="b" points="300 327.94 258.23 349.9 266.2 303.38 232.41 270.44 279.11 263.65 300 221.33 320.89 263.65 367.59 270.44 333.8 303.38 341.77 349.9 300 327.94"/></svg>