<svg xmlns="http://www.w3.org/2000/svg" viewBox="0 0 600 600"><defs><style>.a,.b{fill:none;stroke-width:12px;}.a{stroke:#52cefd;stroke-miterlimit:10;}.b{stroke:#039ae4;stroke-linejoin:round;}</style></defs><title>investigations</title><path class="a" d="M287.93,518.3a586.52,586.52,0,0,1-85.12-51.1C140.56,421.82,109,375.5,109,329.54a174.91,174.91,0,0,1,13.12-66.65c2.74-6.7-6-25.43-11.26-36.63l-2.26-4.84a60.3,60.3,0,0,1,13.5-69.64l46.65-43.35a45,45,0,0,1,61.6,0l19.43,18.06,19.43-18.06a45,45,0,0,1,61.6,0l19.43,18.06,19.43-18.06a45,45,0,0,1,61.6,0l46.65,43.35a60.3,60.3,0,0,1,13.5,69.64l-2.26,4.84c-5.23,11.2-14,29.93-11.26,36.63A174.91,174.91,0,0,1,491,329.54c0,46-31.57,92.28-93.82,137.66a586.52,586.52,0,0,1-85.12,51.1L300,524Z"/><path class="b" d="M458.2,177.05,411.55,133.7a16.52,16.52,0,0,0-22.18,0l-28.05,26.07a16.54,16.54,0,0,1-22.18,0L311.09,133.7a16.52,16.52,0,0,0-22.18,0l-28.05,26.07a16.54,16.54,0,0,1-22.18,0L210.63,133.7a16.52,16.52,0,0,0-22.18,0L141.8,177.05a25.34,25.34,0,0,0-6.06,29.43c9.71,21,23.48,47.1,14.12,70a139.57,139.57,0,0,0-10.47,53.1C139.39,412,300,487.84,300,487.84S460.61,412,460.61,329.54a139.57,139.57,0,0,0-10.47-53.1c-9.36-22.86,4.41-48.93,14.12-70A25.34,25.34,0,0,0,458.2,177.05Z"/><polygon class="b" points="300 334.02 264.26 352.81 271.09 313.01 242.17 284.83 282.13 279.02 300 242.82 317.87 279.02 357.83 284.83 328.91 313.01 335.74 352.81 300 334.02"/></svg>