<svg xmlns="http://www.w3.org/2000/svg" viewBox="0 0 600 600"><defs><style>.a,.b{fill:none;}.a{stroke:#039ae4;}.a,.b,.c{stroke-miterlimit:10;stroke-width:12px;}.b,.c{stroke:#52cefd;}.c{fill:#fff;}</style></defs><title>lab</title><path class="a" d="M385.37,317.85h0a56.48,56.48,0,0,0-79.8-.09h0l-.19.19h0a56.47,56.47,0,0,1-79.8-.1h0"/><circle class="b" cx="287.39" cy="236.14" r="13.9"/><circle class="b" cx="349.99" cy="358.73" r="13.9"/><circle class="b" cx="257.49" cy="427.19" r="32.25"/><circle class="b" cx="364.24" cy="486.36" r="27.25"/><path class="b" d="M431.32,550H179.63c-32.61,0-53.68-34.49-38.8-63.5l97.86-190.82V158.74h133V291.31l98.54,195.46C484.87,515.77,463.8,550,431.32,550Z"/><line class="c" x1="208.96" y1="158.74" x2="401.98" y2="158.74"/><line class="a" x1="266.94" y1="115.48" x2="288.16" y2="94.27"/><line class="a" x1="311.21" y1="71.21" x2="332.42" y2="50"/><line class="a" x1="266.94" y1="50" x2="288.16" y2="71.21"/><line class="a" x1="311.21" y1="94.27" x2="332.42" y2="115.48"/><line class="b" x1="431.08" y1="126.14" x2="452.29" y2="147.35"/><line class="b" x1="475.34" y1="170.4" x2="496.55" y2="191.62"/><line class="b" x1="496.55" y1="126.14" x2="475.34" y2="147.35"/><line class="b" x1="452.29" y1="170.4" x2="431.08" y2="191.62"/><line class="b" x1="103.45" y1="299.06" x2="124.66" y2="320.27"/><line class="b" x1="147.71" y1="343.32" x2="168.92" y2="364.53"/><line class="b" x1="168.92" y1="299.06" x2="147.71" y2="320.27"/><line class="b" x1="124.66" y1="343.32" x2="103.45" y2="364.53"/></svg>