<svg xmlns="http://www.w3.org/2000/svg" viewBox="0 0 600 600"><defs><style>.a,.b{fill:none;}.a{stroke:#039ae4;}.a,.b,.c{stroke-miterlimit:10;stroke-width:12px;}.b,.c{stroke:#52cefd;}.c{fill:#fff;}</style></defs><title>lab</title><path class="a" d="M370.23,303.64h0a49.64,49.64,0,0,0-70.14-.08h0l-.18.17h0a49.64,49.64,0,0,1-70.14-.09h0"/><circle class="b" cx="284.1" cy="231.81" r="12.22"/><circle class="b" cx="339.13" cy="339.58" r="12.22"/><circle class="b" cx="257.82" cy="399.75" r="28.35"/><circle class="b" cx="351.66" cy="451.76" r="23.95"/><path class="b" d="M410.62,507.71H189.38c-28.66,0-47.19-30.32-34.11-55.82l86-167.74V163.78H358.23V280.31l86.62,171.81C457.7,477.62,439.17,507.71,410.62,507.71Z"/><line class="c" x1="215.16" y1="163.78" x2="384.84" y2="163.78"/><line class="a" x1="266.13" y1="125.75" x2="284.78" y2="107.1"/><line class="a" x1="305.04" y1="86.83" x2="323.69" y2="68.19"/><line class="a" x1="266.13" y1="68.19" x2="284.78" y2="86.83"/><line class="a" x1="305.04" y1="107.1" x2="323.69" y2="125.75"/><line class="b" x1="410.41" y1="135.12" x2="429.05" y2="153.76"/><line class="b" x1="449.32" y1="174.03" x2="467.97" y2="192.67"/><line class="b" x1="467.97" y1="135.12" x2="449.32" y2="153.76"/><line class="b" x1="429.05" y1="174.03" x2="410.41" y2="192.67"/><line class="b" x1="122.41" y1="287.12" x2="141.05" y2="305.76"/><line class="b" x1="161.32" y1="326.03" x2="179.97" y2="344.67"/><line class="b" x1="179.97" y1="287.12" x2="161.32" y2="305.76"/><line class="b" x1="141.05" y1="326.03" x2="122.41" y2="344.67"/></svg>