<svg xmlns="http://www.w3.org/2000/svg" viewBox="0 0 600 600"><defs><style>.a,.b,.c,.d{fill:none;stroke-width:12px;}.a,.c{stroke:#52cefd;}.a{stroke-linejoin:round;}.b{stroke:#039be5;}.b,.c,.d{stroke-miterlimit:10;}.d{stroke:#039ae4;stroke-linecap:square;}</style></defs><title>landPreservation</title><path class="a" d="M60,378.66H94.59l68.71-68.07A57.33,57.33,0,0,1,203.62,294h136a56.46,56.46,0,0,1-56.29,56.3H211"/><path class="a" d="M360.8,374.36l93.41-93.42a57,57,0,0,1,80.54,0h0L512,303.7"/><path class="a" d="M368.66,406.77l88.18-88.18a56.94,56.94,0,0,1,80.53,0h0L512.86,343.1"/><path class="a" d="M373.45,442.24l86-86a56.94,56.94,0,0,1,80.53,0h0l-99.92,99.92a150.7,150.7,0,0,1-106.54,44.13H60"/><path class="a" d="M205.38,350.3H344.59l80.74-80.74a57,57,0,0,1,70.47-8"/><path class="b" d="M122.75,442.1a136.25,136.25,0,0,1,192.67,0"/><line class="b" x1="60" y1="356.38" x2="60" y2="523.5"/><path class="c" d="M346.94,215.41A75.28,75.28,0,0,1,239.86,109.56C269.09,80,378.4,76.5,378.4,76.5S376.17,185.84,346.94,215.41Z"/><line class="d" x1="298.13" y1="157.6" x2="205.97" y2="250.66"/></svg>