<svg xmlns="http://www.w3.org/2000/svg" viewBox="0 0 600 600"><defs><style>.a,.b,.c,.d{fill:none;stroke-width:12px;}.a,.c{stroke:#52cefd;}.a{stroke-linejoin:round;}.b{stroke:#039be5;}.b,.c,.d{stroke-miterlimit:10;}.d{stroke:#039ae4;stroke-linecap:square;}</style></defs><title>landPreservation</title><path class="a" d="M50,381.94H86L157.6,311a59.68,59.68,0,0,1,42-17.29H341.26a58.81,58.81,0,0,1-58.64,58.64H207.31"/><path class="a" d="M363.33,377.46l97.31-97.31a59.33,59.33,0,0,1,83.89,0h0l-23.71,23.71"/><path class="a" d="M371.52,411.22l91.86-91.86a59.3,59.3,0,0,1,83.88,0h0l-25.53,25.53"/><path class="a" d="M376.51,448.17l89.6-89.6a59.31,59.31,0,0,1,83.89,0h0L445.92,462.65a157,157,0,0,1-111,46H50"/><path class="a" d="M201.43,352.39h145l84.1-84.09A59.33,59.33,0,0,1,504,259.94"/><path class="b" d="M115.36,448a141.92,141.92,0,0,1,200.7,0"/><line class="b" x1="50" y1="358.72" x2="50" y2="532.81"/><path class="c" d="M348.9,211.88A78.42,78.42,0,1,1,237.36,101.63c30.44-30.8,144.3-34.44,144.3-34.44S379.34,181.08,348.9,211.88Z"/><line class="d" x1="298.05" y1="151.67" x2="202.05" y2="248.61"/></svg>