<svg xmlns="http://www.w3.org/2000/svg" viewBox="0 0 600 600"><defs><style>.a{fill:#52cefd;}.b,.c{fill:none;stroke-miterlimit:10;stroke-width:12px;}.b{stroke:#039ae4;}.c{stroke:#52cefd;stroke-linecap:square;}</style></defs><title>legalDocs</title><path class="a" d="M477.84,424.81c-4.26-2-6.52-2.89-11.31-2.3-4.53.56-11.22,6.25-15.13,5.92-8.34-.7-8.1-14.11-15.69-17.7-8.86-4.2-16.28,1.58-24.74,2.79-10.67,1.53-16.44-8.34-26.08-5.24-5.9,1.9-11.62,8-16.54,11.61-3.36,2.49-5.93,6.37-9.37,4-3.12-2.16-1.77-7.56-1.79-11,0-6.05,1.59-15.24-5-18.68-7.26-3.8-19.88,2.85-26.43,5.36a164.66,164.66,0,0,0-37.57,20.65c-5.55,4,0,13.2,5.6,9.15a153.64,153.64,0,0,1,37.65-20.53q5.22-1.89,10.57-3.4,7.31-4.83,4.42,4.7c1.64,5.07-.83,11.42.48,16.75,5,20.39,21.87,5.92,32.09-1.65,11.6-8.58,9.47-2.42,20.42.11,11.19,2.59,18.68-7,28.83-1.16,6.86,3.95,6,11.33,13.42,14.55,10.5,4.57,21.53-9,30.95-4.58C478.87,437.09,484.1,427.73,477.84,424.81Z"/><polyline class="b" points="210.69 234 210.69 234 492 234"/><polyline class="b" points="210.69 267 210.69 267 492 267"/><polyline class="b" points="210.69 300 210.69 300 492 300"/><polyline class="b" points="210.69 333 210.69 333 492 333"/><polyline class="b" points="210.69 366 210.69 366 386 366"/><rect class="b" x="191" y="69" width="320" height="397"/><polyline class="c" points="158 102 158 135 158 499 445 499 478 499"/><polyline class="b" points="445 532 125 532 125 135"/><line class="b" x1="313.04" y1="200.76" x2="388.96" y2="200.76"/><line class="b" x1="351.39" y1="98.24" x2="351.39" y2="200.76"/><polygon class="b" points="313.04 164.76 295.82 164.76 313.04 130.33 330.26 164.76 313.04 164.76"/><polyline class="b" points="295.04 123.33 313.04 123.33 351.39 114.67 388.96 123.33 406.96 123.33"/><path class="b" d="M338.09,159.67a25,25,0,1,1-50.09,0"/><polygon class="b" points="388.96 164.76 371.74 164.76 388.96 130.33 406.17 164.76 388.96 164.76"/><path class="b" d="M414,159.67a25,25,0,1,1-50.09,0"/></svg>