<svg xmlns="http://www.w3.org/2000/svg" viewBox="0 0 600 600"><defs><style>.a,.b{fill:none;stroke-miterlimit:10;stroke-width:12px;}.a{stroke:#52cefd;}.b{stroke:#039ae4;}</style></defs><title>legalDocuments</title><circle class="a" cx="300" cy="300" r="199.2"/><circle class="b" cx="300" cy="178.1" r="29.73"/><path class="b" d="M334.83,264.78l72.27-29.57a17.42,17.42,0,0,0,9.52-22.72h0A17.41,17.41,0,0,0,393.91,203l-63.77,26.1H269.86L206.09,203a17.41,17.41,0,0,0-22.71,9.52h0a17.42,17.42,0,0,0,9.52,22.72l72.27,29.57v70.37l-35.86,87.64a17.41,17.41,0,0,0,9.52,22.71h0A17.41,17.41,0,0,0,261.54,436l35.08-85.71A3.65,3.65,0,0,1,300,348h0a3.65,3.65,0,0,1,3.38,2.28L338.46,436a17.41,17.41,0,0,0,22.71,9.52h0a17.41,17.41,0,0,0,9.52-22.71l-35.86-87.64Z"/><circle class="b" cx="300" cy="300" r="249"/></svg>