<svg xmlns="http://www.w3.org/2000/svg" viewBox="0 0 600 600"><defs><style>.a,.b{fill:none;stroke-miterlimit:10;stroke-width:12px;}.a{stroke:#52cefd;}.b{stroke:#039ae4;}</style></defs><title>legalDocuments</title><circle class="a" cx="300" cy="300" r="184"/><circle class="b" cx="300" cy="187.4" r="27.46"/><path class="b" d="M332.17,267.47l66.76-27.32a16.08,16.08,0,0,0,8.79-21h0a16.08,16.08,0,0,0-21-8.79l-58.9,24.1H272.16l-58.9-24.1a16.08,16.08,0,0,0-21,8.79h0a16.08,16.08,0,0,0,8.79,21l66.76,27.32v65L234.7,413.42a16.09,16.09,0,0,0,8.8,21h0a16.07,16.07,0,0,0,21-8.8l32.41-79.17a3.37,3.37,0,0,1,3.12-2.1h0a3.37,3.37,0,0,1,3.12,2.1l32.41,79.17a16.07,16.07,0,0,0,21,8.8h0a16.09,16.09,0,0,0,8.8-21l-33.13-80.95Z"/><circle class="b" cx="300" cy="300" r="230"/></svg>