<svg xmlns="http://www.w3.org/2000/svg" viewBox="0 0 600 600"><defs><style>.a{fill:#52cefd;}.b,.c{fill:none;stroke-miterlimit:10;stroke-width:12px;}.b{stroke:#039ae4;}.c{stroke:#52cefd;stroke-linecap:square;}</style></defs><title>legalDocs</title><path class="a" d="M472.61,434.24c-4.6-2.14-7-3.12-12.21-2.48-4.89.6-12.12,6.75-16.34,6.4-9-.77-8.75-15.25-16.94-19.13-9.57-4.53-17.58,1.71-26.72,3-11.52,1.66-17.75-9-28.17-5.66-6.37,2.05-12.55,8.62-17.85,12.54-3.63,2.69-6.41,6.88-10.13,4.31-3.37-2.34-1.91-8.16-1.93-11.84,0-6.53,1.72-16.46-5.37-20.17-7.83-4.1-21.47,3.07-28.54,5.79a177.73,177.73,0,0,0-40.57,22.3c-6,4.35,0,14.26,6.05,9.88,12.62-9.15,26-16.81,40.66-22.17q5.64-2,11.41-3.67,7.89-5.22,4.77,5.07c1.78,5.47-.89,12.33.52,18.09,5.4,22,23.62,6.4,34.66-1.78,12.53-9.26,10.23-2.61,22,.12,12.08,2.79,20.17-7.58,31.14-1.26,7.4,4.27,6.47,12.24,14.48,15.72,11.35,4.93,23.26-9.68,33.42-4.94C473.73,447.51,479.37,437.39,472.61,434.24Z"/><polyline class="b" points="184.11 228.19 184.11 228.19 487.9 228.19"/><polyline class="b" points="184.11 263.82 184.11 263.82 487.9 263.82"/><polyline class="b" points="184.11 299.46 184.11 299.46 487.9 299.46"/><polyline class="b" points="184.11 335.1 184.11 335.1 487.9 335.1"/><polyline class="b" points="184.11 370.73 184.11 370.73 373.43 370.73"/><rect class="b" x="162.85" y="50" width="345.57" height="428.73"/><polyline class="c" points="127.21 85.64 127.21 121.27 127.21 514.36 437.15 514.36 472.79 514.36"/><polyline class="b" points="437.15 550 91.58 550 91.58 121.27"/><line class="b" x1="294.65" y1="192.29" x2="376.63" y2="192.29"/><line class="b" x1="336.06" y1="81.58" x2="336.06" y2="192.29"/><polygon class="b" points="294.65 153.41 276.05 153.41 294.65 116.23 313.24 153.41 294.65 153.41"/><polyline class="b" points="275.21 108.67 294.65 108.67 336.06 99.32 376.63 108.67 396.06 108.67"/><path class="b" d="M321.69,147.92a27,27,0,0,1-54.09,0"/><polygon class="b" points="376.63 153.41 358.03 153.41 376.63 116.23 395.22 153.41 376.63 153.41"/><path class="b" d="M403.67,147.92a27,27,0,0,1-54.09,0"/></svg>