<svg xmlns="http://www.w3.org/2000/svg" viewBox="0 0 600 600"><defs><style>.a,.b,.c{fill:none;stroke-width:12px;}.a,.b{stroke:#039be5;}.a,.c{stroke-linejoin:round;}.b{stroke-miterlimit:10;}.c{stroke:#63ccff;}</style></defs><title>library</title><path class="a" d="M107.31,398.57v76.5A293.21,293.21,0,0,1,303.49,550V310.19a293,293,0,0,0-196.18-74.93v79.21"/><path class="b" d="M391.11,137.6A87.61,87.61,0,1,1,303.5,50,87.6,87.6,0,0,1,391.11,137.6Z"/><path class="c" d="M107.31,398.57v76.5A293.21,293.21,0,0,1,303.49,550V310.19a293,293,0,0,0-196.18-74.93v79.21"/><path class="c" d="M499.67,398.57v76.5A293.31,293.31,0,0,0,303.49,550V310.19a295.19,295.19,0,0,1,81.22-51.61h0a293.15,293.15,0,0,1,114.93-23.32v79.21"/><polyline class="c" points="107.31 454.69 107.31 398.57 107.31 398.55"/><polyline class="c" points="499.68 454.69 499.68 398.57 499.68 398.55"/><rect class="b" x="79.3" y="314.48" width="52.55" height="84.07" rx="20.37" ry="20.37"/><rect class="b" x="468.15" y="314.48" width="52.55" height="84.07" rx="20.37" ry="20.37"/><path class="c" d="M499.67,235.26l-30.39-32.4a292.45,292.45,0,0,0-84.54,21.77h0a294.89,294.89,0,0,0-81.22,51.61,295.4,295.4,0,0,0-81.22-51.65,291.41,291.41,0,0,0-81.21-21.35l-33.75,32"/></svg>