<svg xmlns="http://www.w3.org/2000/svg" viewBox="0 0 600 600"><defs><style>.a,.b,.c{fill:none;stroke-width:12px;}.a{stroke:#52cefd;}.a,.b{stroke-miterlimit:10;}.b,.c{stroke:#039ae4;}.c{stroke-linecap:round;stroke-linejoin:round;}</style></defs><title>libraryCard</title><path class="a" d="M325.7,176.3q-3.79-.3-7.7-.3v48.25c17.29,0,33.06,1.35,45,8.53,11.95-7.17,27.71-8.53,45-8.53V176q-3.9,0-7.7.3"/><polyline class="b" points="304.69 265 304.69 265 436 265"/><polyline class="a" points="304.69 297 304.69 297 466 297"/><polyline class="b" points="304.69 329 304.69 329 396 329"/><polyline class="a" points="304.69 361 304.69 361 466 361"/><line class="b" x1="239.23" y1="367.36" x2="239.23" y2="344.04"/><line class="b" x1="171.05" y1="367.36" x2="171.05" y2="344.04"/><line class="a" x1="259" y1="367.36" x2="259" y2="344.33"/><path class="a" d="M259,344v.29a53.86,53.86,0,0,0-107.72,0"/><polyline class="a" points="151.28 344.04 151.28 344.33 151.28 367.36"/><circle class="b" cx="205.14" cy="257.06" r="33.41"/><path class="c" d="M363,183v49.78c9.9-8.86,23-16.71,37.3-16.71V166.38a55.74,55.74,0,0,0-21.85,4.43h0A38.24,38.24,0,0,0,363,182.67c-2.46-4.31-9.75-9.45-15.44-11.87a56,56,0,0,0-21.86-4.42v49.69c14.32,0,27.4,7.85,37.29,16.71"/><rect class="b" x="95" y="130" width="419" height="299" rx="31.54" ry="31.54"/></svg>