<svg xmlns="http://www.w3.org/2000/svg" viewBox="0 0 600 600"><defs><style>.a,.b,.c,.d{fill:none;}.a,.b{stroke:#039be5;}.a,.c{stroke-linejoin:round;}.a,.b,.c{stroke-width:12px;}.b{stroke-miterlimit:10;}.c{stroke:#63ccff;}</style></defs><title>library</title><path class="a" d="M121.52,390.87v70.85a271.6,271.6,0,0,1,181.72,69.41V309a271.44,271.44,0,0,0-181.72-69.4V313"/><path class="b" d="M396.1,149.14a92.86,92.86,0,1,1-92.86-92.85A92.86,92.86,0,0,1,396.1,149.14Z"/><path class="c" d="M121.52,390.87v70.85a271.6,271.6,0,0,1,181.72,69.41V309a271.44,271.44,0,0,0-181.72-69.4V313"/><path class="c" d="M485,390.87v70.85a271.62,271.62,0,0,0-181.71,69.41V309a273.35,273.35,0,0,1,75.22-47.8h0A271.57,271.57,0,0,1,485,239.6V313"/><polyline class="c" points="121.52 442.85 121.52 390.87 121.52 390.85"/><polyline class="c" points="484.95 442.85 484.95 390.87 484.95 390.85"/><rect class="b" x="95.58" y="312.98" width="48.67" height="77.87" rx="18.87" ry="18.87"/><rect class="b" x="455.75" y="312.98" width="48.67" height="77.87" rx="18.87" ry="18.87"/><path class="c" d="M485,239.59l-28.15-30a270.8,270.8,0,0,0-78.31,20.16h0a273.25,273.25,0,0,0-75.23,47.8A273.35,273.35,0,0,0,228,229.72a270,270,0,0,0-75.22-19.78l-31.26,29.65"/><rect class="d" x="89.29" y="50" width="421.42" height="500"/><rect class="d" x="89.29" y="50" width="421.42" height="500"/></svg>