<svg xmlns="http://www.w3.org/2000/svg" viewBox="0 0 600 600"><defs><style>.a,.b,.c{fill:none;stroke-width:12px;}.a{stroke:#52cefd;}.a,.b{stroke-miterlimit:10;}.b,.c{stroke:#039ae4;}.c{stroke-linecap:round;stroke-linejoin:round;}</style></defs><title>libraryCard</title><path class="a" d="M325.3,176.85c-3-.24-6.09-.36-9.19-.36v57.58c20.63,0,39.45,1.61,53.7,10.18,14.26-8.56,33.07-10.18,53.7-10.18V176.49c-3.1,0-6.17.12-9.19.36"/><polyline class="b" points="300.23 282.7 300.23 282.7 456.92 282.7"/><polyline class="a" points="300.23 320.88 300.23 320.88 492.72 320.88"/><polyline class="b" points="300.23 359.07 300.23 359.07 409.19 359.07"/><polyline class="a" points="300.23 397.25 300.23 397.25 492.72 397.25"/><line class="b" x1="222.11" y1="404.84" x2="222.11" y2="377.02"/><line class="b" x1="140.75" y1="404.84" x2="140.75" y2="377.02"/><line class="a" x1="245.7" y1="404.84" x2="245.7" y2="377.37"/><path class="a" d="M245.7,377v.35a64.28,64.28,0,1,0-128.55,0"/><polyline class="a" points="117.16 377.02 117.16 377.37 117.16 404.85"/><circle class="b" cx="181.43" cy="273.22" r="39.87"/><path class="c" d="M369.81,184.84v59.41c11.81-10.57,27.41-19.94,44.51-19.94V165a66.4,66.4,0,0,0-26.08,5.29h0a45.69,45.69,0,0,0-18.42,14.15c-2.94-5.14-11.64-11.27-18.43-14.16A66.57,66.57,0,0,0,325.3,165v59.3c17.09,0,32.69,9.37,44.5,19.94"/><rect class="b" x="50" y="121.6" width="500" height="356.8" rx="31.54" ry="31.54"/></svg>