<svg xmlns="http://www.w3.org/2000/svg" viewBox="0 0 600 600"><defs><style>.a,.b{fill:none;stroke-miterlimit:10;stroke-width:12px;}.a{stroke:#52cefd;}.b{stroke:#039ae4;}</style></defs><title>lostPets</title><line class="a" x1="233.73" y1="408.01" x2="191.99" y2="366.27"/><line class="a" x1="121.01" y1="520.72" x2="79.28" y2="478.99"/><polyline class="b" points="264.09 377.65 254.6 387.14 246.99 394.75 91.74 550 50 508.26 204.33 353.93 212.86 345.4 222.35 335.91"/><circle class="b" cx="300.08" cy="230.09" r="34.88"/><circle class="b" cx="334.43" cy="169.99" r="34.88"/><circle class="b" cx="404.18" cy="169.99" r="34.88"/><circle class="b" cx="438.53" cy="230.09" r="34.88"/><path class="b" d="M432.16,316.93a29.56,29.56,0,0,0,0-41.8L382.93,226a20.11,20.11,0,0,0-28.43,0l-49.13,49.13a29.56,29.56,0,0,0,0,41.8l.7.7a29.56,29.56,0,0,0,41.8,0h0a29.56,29.56,0,0,1,41.8,0h0a29.55,29.55,0,0,0,41.79,0Z"/><path class="a" d="M217.38,230.7A154.54,154.54,0,0,1,371.92,76.16"/><circle class="b" cx="369.3" cy="230.7" r="180.7"/></svg>