<svg xmlns="http://www.w3.org/2000/svg" viewBox="0 0 600 600"><defs><style>.a,.b{fill:none;stroke-miterlimit:10;stroke-width:12px;}.a{stroke:#52cefd;}.b{stroke:#039ae4;}</style></defs><title>lostPets</title><line class="a" x1="245.91" y1="388.16" x2="211.84" y2="354.09"/><line class="a" x1="153.91" y1="480.16" x2="119.84" y2="446.09"/><polyline class="b" points="270.69 363.38 262.94 371.12 256.73 377.33 130.01 504.05 95.95 469.99 221.91 344.02 228.88 337.06 236.62 329.31"/><circle class="b" cx="300.07" cy="242.94" r="28.47"/><circle class="b" cx="328.1" cy="193.88" r="28.47"/><circle class="b" cx="385.03" cy="193.88" r="28.47"/><circle class="b" cx="413.07" cy="242.94" r="28.47"/><path class="b" d="M407.87,313.82a24.13,24.13,0,0,0,0-34.12l-40.18-40.11a16.43,16.43,0,0,0-23.21,0l-40.09,40.1a24.11,24.11,0,0,0,0,34.12l.57.57a24.12,24.12,0,0,0,34.11,0h0a24.13,24.13,0,0,1,34.12,0h0a24.12,24.12,0,0,0,34.11,0Z"/><path class="a" d="M232.57,243.43A126.13,126.13,0,0,1,358.7,117.3"/><circle class="b" cx="356.57" cy="243.43" r="147.49"/></svg>