<svg xmlns="http://www.w3.org/2000/svg" viewBox="0 0 600 600"><defs><style>.a,.b,.c{fill:none;stroke-width:12px;}.a,.b{stroke:#52cefd;}.a{stroke-linecap:round;stroke-linejoin:round;}.b{stroke-linecap:square;stroke-linejoin:bevel;stroke-dasharray:12 30;}.c{stroke:#039ae4;stroke-miterlimit:10;}</style></defs><title>maps</title><polygon class="a" points="223 461.5 69 501.5 69 138.5 223 98.5 223 461.5"/><polygon class="a" points="377 501.5 223 461.5 223 98.5 377 138.5 377 501.5"/><polygon class="a" points="531 461.5 377 501.5 377 138.5 531 98.5 531 461.5"/><path class="b" d="M127,392.5s4-194,100-194,94.5,291.5,220,166"/><circle class="c" cx="456" cy="270.5" r="18"/><path class="c" d="M498,270.5c0,23.2-42,82-42,82s-42-58.8-42-82a42,42,0,0,1,84,0Z"/></svg>