<svg xmlns="http://www.w3.org/2000/svg" viewBox="0 0 600 600"><defs><style>.a,.b,.c{fill:none;stroke-width:12px;}.a,.b{stroke:#52cefd;}.a{stroke-linecap:round;stroke-linejoin:round;}.b{stroke-linecap:square;stroke-linejoin:bevel;stroke-dasharray:12 30;}.c{stroke:#039ae4;stroke-miterlimit:10;}</style></defs><title>maps</title><polygon class="a" points="216.67 474.78 50 518.07 50 125.22 216.67 81.93 216.67 474.78"/><polygon class="a" points="383.33 518.07 216.67 474.78 216.67 81.93 383.33 125.22 383.33 518.07"/><polygon class="a" points="550 474.78 383.33 518.07 383.33 125.22 550 81.93 550 474.78"/><path class="b" d="M112.77,400.11s4.33-210,108.23-210S323.27,505.63,459.09,369.81"/><circle class="c" cx="468.83" cy="268.07" r="19.48"/><path class="c" d="M514.29,268.07c0,25.11-45.46,88.75-45.46,88.75s-45.45-63.64-45.45-88.75a45.46,45.46,0,0,1,90.91,0Z"/></svg>