<svg xmlns="http://www.w3.org/2000/svg" viewBox="0 0 600 600"><defs><style>.a,.b,.c{fill:none;}.a{stroke:#039ae4;}.a,.c,.d{stroke-linejoin:round;}.a,.b,.c,.d{stroke-width:12px;}.b,.c,.d{stroke:#52cefd;}.b{stroke-miterlimit:10;}.d{fill:#fff;}</style></defs><title>marketingTools</title><polyline class="a" points="426.96 501.33 223.33 501.33 192.59 477.95 125.96 477.95"/><line class="a" x1="426.97" y1="245.18" x2="426.97" y2="182.42"/><line class="a" x1="362.93" y1="223.41" x2="362.93" y2="182.42"/><path class="a" d="M427,501.33V518a32,32,0,0,1-64,0V501.33"/><line class="a" x1="388.54" y1="245.18" x2="386.01" y2="245.18"/><line class="b" x1="120.52" y1="253.19" x2="120.52" y2="511.94"/><path class="c" d="M312.57,288.73a31.81,31.81,0,0,0,7.22,11.11,32.35,32.35,0,0,0,6,4.72"/><path class="c" d="M386.07,309.22h61.39a32,32,0,0,0,0-64H386"/><path class="c" d="M325.79,313.88a32,32,0,0,0,16.65,59.38h7.62"/><path class="c" d="M386.07,309.22h61.39a32,32,0,1,1,0,64H386.15"/><path class="c" d="M350.06,373.26h-7.62a32,32,0,1,0,0,64h105a32,32,0,1,0,0-64H386.15"/><rect class="c" x="310.42" y="437.29" width="169.06" height="64.04" rx="32.02" ry="32.02"/><path class="d" d="M126,288.4h66.63L231.08,231a17.09,17.09,0,0,1,14.21-7.58H361a25,25,0,0,1,25.05,25L386.16,385a60.63,60.63,0,0,1-59.06-45.7h0a31.92,31.92,0,0,1-1.31-9.06V288.73H295.05A124.23,124.23,0,0,1,170.81,413"/><path class="b" d="M427,50v51.74l-32,15.37-32-15.37V50a74.92,74.92,0,1,0,64,0Z"/></svg>