<svg xmlns="http://www.w3.org/2000/svg" viewBox="0 0 600 600"><defs><style>.a,.b,.c{fill:none;}.a{stroke:#039ae4;}.a,.c,.d{stroke-linejoin:round;}.a,.b,.c,.d{stroke-width:12px;}.b,.c,.d{stroke:#52cefd;}.b{stroke-miterlimit:10;}.d{fill:#fff;}</style></defs><title>marketingTools</title><polyline class="a" points="399.13 457.2 240.13 457.2 216.13 438.95 164.11 438.95"/><line class="a" x1="399.13" y1="257.2" x2="399.13" y2="208.2"/><line class="a" x1="349.13" y1="240.2" x2="349.13" y2="208.2"/><path class="a" d="M399.13,457.2v13a25,25,0,0,1-50,0v-13"/><line class="a" x1="369.13" y1="257.2" x2="367.15" y2="257.2"/><line class="b" x1="159.87" y1="263.45" x2="159.87" y2="465.48"/><path class="c" d="M309.81,291.2a24.86,24.86,0,0,0,5.64,8.68,25.31,25.31,0,0,0,4.68,3.68"/><path class="c" d="M367.2,307.2h47.93a25,25,0,1,0,0-50h-48"/><path class="c" d="M320.13,310.84a25,25,0,0,0,13,46.36h5.95"/><path class="c" d="M367.2,307.2h47.93a25,25,0,0,1,0,50H367.26"/><path class="c" d="M339.08,357.2h-5.95a25,25,0,1,0,0,50h82a25,25,0,1,0,0-50H367.26"/><rect class="c" x="308.13" y="407.2" width="132" height="50" rx="25" ry="25"/><path class="d" d="M164.11,291h52l30.05-44.83a13.37,13.37,0,0,1,11.1-5.92H347.6a19.56,19.56,0,0,1,19.56,19.53l.11,106.61a47.33,47.33,0,0,1-46.11-35.68h0a24.94,24.94,0,0,1-1-7.07V291.2h-24a97,97,0,0,1-97,97"/><path class="b" d="M399.13,104.8v40.4l-25,12-25-12V104.8a58.5,58.5,0,1,0,50,0Z"/></svg>