<svg xmlns="http://www.w3.org/2000/svg" viewBox="0 0 600 600"><defs><style>.a,.b{fill:none;stroke-miterlimit:10;stroke-width:12px;}.a{stroke:#52cefd;}.b{stroke:#039ae4;}</style></defs><title>meetings</title><path class="a" d="M407.24,308.72V266.19l-.23-7a63.92,63.92,0,0,1,127.84,0v49.51"/><path class="a" d="M378.6,314.4l.31-40.62A78.91,78.91,0,0,0,300,194.87h0a78.91,78.91,0,0,0-78.91,78.91l.31,40.62"/><path class="a" d="M193,308.72V258.79a63.92,63.92,0,0,0-127.84,0v49.93"/><line class="a" x1="221.4" y1="360.8" x2="221.4" y2="334.29"/><line class="a" x1="378.6" y1="360.8" x2="378.6" y2="334.29"/><line class="b" x1="349.94" y1="314.71" x2="349.94" y2="273.53"/><line class="b" x1="250.06" y1="314.71" x2="250.06" y2="273.53"/><polyline class="b" points="206.25 406.26 206.25 499.06 251.71 499.06 251.71 364.59 192.99 364.59"/><polyline class="b" points="65.15 308.72 65.15 406.26 160.79 406.26 160.79 434.98 160.79 499.06 206.25 499.06 206.25 364.59 160.79 364.59"/><polyline class="b" points="393.75 406.26 393.75 499.06 348.3 499.06 348.3 364.59 407.01 364.59"/><polyline class="b" points="439.2 364.59 393.75 364.59 393.75 499.06 439.2 499.06 439.2 431.83 439.2 406.26 534.85 406.26 534.85 308.72"/><rect class="b" x="251.7" y="364.59" width="48.3" height="134.47"/><rect class="b" x="300" y="364.59" width="48.3" height="134.47"/><circle class="b" cx="128.91" cy="144.2" r="48.95"/><circle class="b" cx="300" cy="144.2" r="48.95"/><circle class="b" cx="469.19" cy="144.2" r="48.95"/><path class="b" d="M65.15,275.58v89h98.49a28.41,28.41,0,0,0-28.41-28.41H104v-60.6"/><path class="b" d="M534.85,275.58v89H437.31a28.41,28.41,0,0,1,28.41-28.41H496v-60.6"/><path class="b" d="M243.18,364.59a28.41,28.41,0,0,1,56.82,0"/><path class="b" d="M301,364.59a28.41,28.41,0,1,1,56.82,0"/><path class="a" d="M193,314.8v21.38H407V314.8Z"/><line class="a" x1="300" y1="336.18" x2="300" y2="504.74"/></svg>