<svg xmlns="http://www.w3.org/2000/svg" viewBox="0 0 600 600"><defs><style>.a,.b{fill:none;stroke-miterlimit:10;stroke-width:12px;}.a{stroke:#52cefd;}.b{stroke:#039ae4;}</style></defs><title>meetings</title><path class="a" d="M429.25,309.21V264.29l-.25-7.36a67.5,67.5,0,1,1,135,0v52.28"/><path class="a" d="M399,315.21l.33-42.89A83.33,83.33,0,0,0,316,189h0a83.33,83.33,0,0,0-83.33,83.34l.33,42.89"/><path class="a" d="M203,309.21V256.48a67.5,67.5,0,1,0-135,0v52.73"/><line class="a" x1="233" y1="364.21" x2="233" y2="336.21"/><line class="a" x1="399" y1="364.21" x2="399" y2="336.21"/><line class="b" x1="368.74" y1="315.54" x2="368.74" y2="272.05"/><line class="b" x1="263.26" y1="315.54" x2="263.26" y2="272.05"/><polyline class="b" points="217 412.21 217 510.21 265 510.21 265 368.21 203 368.21"/><polyline class="b" points="68 309.21 68 412.21 169 412.21 169 442.53 169 510.21 217 510.21 217 368.21 169 368.21"/><polyline class="b" points="415 412.21 415 510.21 367 510.21 367 368.21 429 368.21"/><polyline class="b" points="463 368.21 415 368.21 415 510.21 463 510.21 463 439.21 463 412.21 564 412.21 564 309.21"/><rect class="b" x="265" y="368.21" width="51" height="142"/><rect class="b" x="316" y="368.21" width="51" height="142"/><circle class="b" cx="135.33" cy="135.48" r="51.69"/><circle class="b" cx="316" cy="135.48" r="51.69"/><circle class="b" cx="494.67" cy="135.48" r="51.69"/><path class="b" d="M68,274.21v94H172a30,30,0,0,0-30-30H109v-64"/><path class="b" d="M564,274.21v94H461a30,30,0,0,1,30-30h32v-64"/><path class="b" d="M256,368.21a30,30,0,0,1,60,0"/><path class="b" d="M317,368.21a30,30,0,0,1,60,0"/><path class="a" d="M203,315.63v22.58H429V315.63Z"/><line class="a" x1="316" y1="338.21" x2="316" y2="516.21"/></svg>