<svg xmlns="http://www.w3.org/2000/svg" viewBox="0 0 600 600"><defs><style>.a,.b{fill:none;stroke-miterlimit:10;stroke-width:12px;}.a{stroke:#52cefd;}.b{stroke:#039ae4;}</style></defs><title>mosquitoes</title><path class="a" d="M187.63,79.5,233,122V154.1l51.25,23.1a38.44,38.44,0,0,0,31.6,0l51.25-23.1V122L412.37,79.5"/><polyline class="a" points="87.53 415.68 164.02 364.69 214.07 274.98 300 240.03 385.93 274.98 435.98 364.69 512.47 415.68"/><polyline class="a" points="203.68 520.5 244.28 419.46 235.79 355.24 300 263.64 364.21 355.24 355.71 419.46 396.32 520.5"/><path class="b" d="M300,218.32c-45.33,15.11-119.93,25.49-165.26,25.49s-67-38.71-67-47.21,5.66-18.89,32.1-18.89c76.49,0,200.2,26.44,200.2,26.44s123.71-26.44,200.2-26.44c26.44,0,32.1,10.39,32.1,18.89s-21.72,47.21-67,47.21S345.33,233.43,300,218.32Z"/><path class="b" d="M314.16,387.52c0,48.5-6.34,87.82-14.16,87.82S285.84,436,285.84,387.52,300,279.86,300,279.86,314.16,339,314.16,387.52Z"/><circle class="b" cx="300" cy="163.24" r="17.47"/><line class="b" x1="300" y1="82.5" x2="300" y2="145.77"/></svg>