<svg xmlns="http://www.w3.org/2000/svg" viewBox="0 0 600 600"><defs><style>.a,.b{fill:none;stroke-miterlimit:10;stroke-width:12px;}.a{stroke:#52cefd;}.b{stroke:#039ae4;}</style></defs><title>mosquitoes</title><path class="a" d="M179.07,62.7l48.78,45.73V143L283,167.85a41.39,41.39,0,0,0,34,0L372.15,143V108.43L420.93,62.7"/><polyline class="a" points="71.34 424.49 153.66 369.61 207.52 273.07 300 235.47 392.48 273.07 446.34 369.61 528.66 424.49"/><polyline class="a" points="196.34 537.3 240.04 428.56 230.89 359.45 300 260.87 369.11 359.45 359.96 428.56 403.66 537.3"/><path class="b" d="M300,212.09c-48.78,16.26-129.07,27.44-177.85,27.44S50,197.87,50,188.72s6.1-20.33,34.55-20.33c82.32,0,215.45,28.46,215.45,28.46s133.13-28.46,215.45-28.46c28.45,0,34.55,11.18,34.55,20.33s-23.37,50.81-72.15,50.81S348.78,228.35,300,212.09Z"/><path class="b" d="M315.24,394.18c0,52.2-6.82,94.52-15.24,94.52s-15.24-42.32-15.24-94.52S300,278.33,300,278.33,315.24,342,315.24,394.18Z"/><circle class="b" cx="300" cy="152.82" r="18.8"/><line class="b" x1="300" y1="65.93" x2="300" y2="134.02"/></svg>