<svg xmlns="http://www.w3.org/2000/svg" viewBox="0 0 600 600"><defs><style>.a,.b,.c{fill:none;stroke-width:12px;}.a,.b{stroke:#52cefd;stroke-linejoin:round;}.b{stroke-linecap:square;}.c{stroke:#039ae4;stroke-miterlimit:10;}</style></defs><title>nancyCottermanCenter</title><line class="a" x1="331.53" y1="548.88" x2="331.53" y2="470.38"/><path class="b" d="M240.38,80.31h0A30.31,30.31,0,0,1,270.69,50h0A30.31,30.31,0,0,1,301,80.31h0"/><path class="b" d="M143.31,550V470l-24.15-80.51V128.61h0A30.31,30.31,0,0,1,149.47,98.3h0a30.31,30.31,0,0,1,30.3,30.31h0"/><line class="c" x1="365.04" y1="549.2" x2="108.99" y2="549.2"/><path class="b" d="M179.38,224l.39-119.57h0a30.31,30.31,0,0,1,30.31-30.31h0a30.31,30.31,0,0,1,30.3,30.31h0"/><line class="b" x1="240.96" y1="224.03" x2="240.96" y2="80.32"/><path class="b" d="M301.34,224,301,92.38h0a30.3,30.3,0,0,1,30.31-30.3h0a30.29,30.29,0,0,1,30.3,30.3h0c0-8.69.12,266.9.12,266.9l-.17-.17,49.06-49.06c22.31-22.31,58.09-22.69,80.4-.38h0L341.2,470.38H271.15"/><path class="b" d="M184.21,314.6a58.56,58.56,0,0,1,58.56,58.57"/><path class="b" d="M242.77,373.17a58.57,58.57,0,0,1,58.57-58.57"/></svg>