<svg xmlns="http://www.w3.org/2000/svg" viewBox="0 0 600 600"><defs><style>.a,.b,.c{fill:none;stroke-width:12px;}.a,.b{stroke:#52cefd;stroke-linejoin:round;}.b{stroke-linecap:square;}.c{stroke:#039ae4;stroke-miterlimit:10;}</style></defs><title>nancyCottermanCenter</title><line class="a" x1="326.11" y1="506.09" x2="326.11" y2="441.09"/><path class="b" d="M250.63,118.08h0A25.1,25.1,0,0,1,275.73,93h0a25.09,25.09,0,0,1,25.09,25.1h0"/><path class="b" d="M170.25,507V440.76l-20-66.67v-216h0a25.1,25.1,0,0,1,25.1-25.1h0a25.09,25.09,0,0,1,25.09,25.1h0"/><line class="c" x1="353.86" y1="506.36" x2="141.83" y2="506.36"/><path class="b" d="M200.11,237.09l.33-99h0a25.1,25.1,0,0,1,25.1-25.1h0a25.09,25.09,0,0,1,25.09,25.1h0"/><line class="b" x1="251.11" y1="237.09" x2="251.11" y2="118.09"/><path class="b" d="M301.11,237.09l-.29-109h0a25.1,25.1,0,0,1,25.1-25.1h0A25.09,25.09,0,0,1,351,128.08h0c0-7.2.1,221,.1,221L351,349l40.63-40.63a46.92,46.92,0,0,1,66.57-.32h0L334.11,441.09h-58"/><path class="b" d="M204.11,312.09a48.5,48.5,0,0,1,48.5,48.5"/><path class="b" d="M252.61,360.59a48.51,48.51,0,0,1,48.5-48.5"/></svg>