<svg xmlns="http://www.w3.org/2000/svg" viewBox="0 0 600 600"><defs><style>.a,.b,.c{fill:none;stroke-width:12px;}.a{stroke:#52cefd;stroke-linecap:round;stroke-linejoin:round;}.b,.c{stroke:#039ae4;stroke-miterlimit:10;}.b{stroke-linecap:square;}</style></defs><title>natureScape</title><path class="a" d="M299.33,277.41s2.46-54.16,36-78"/><path class="a" d="M299.67,277.41s-2.47-54.16-36-78"/><path class="b" d="M443.26,202.21C423,182,375.86,196.36,337.89,234.32c-19,19-32.09,40.31-37.89,59.39-5.8-19.08-18.9-40.39-37.89-59.39-38-38-85.15-52.34-105.37-32.11S129,279.58,166.93,317.54c16.59,16.58,39.11,26.76,60.9,31.29a89.13,89.13,0,0,0-12.56,10.49c-25.15,25.14-31.21,59.85-13.54,77.52s52.38,11.6,77.52-13.54A83.37,83.37,0,0,0,300,390.12a83.37,83.37,0,0,0,20.75,33.18c25.14,25.14,59.85,31.2,77.52,13.54s11.61-52.38-13.54-77.52a89.13,89.13,0,0,0-12.56-10.49c21.79-4.53,44.31-14.71,60.9-31.29C471,279.58,463.49,222.44,443.26,202.21Z"/><circle class="c" cx="300" cy="300" r="225"/></svg>