<svg xmlns="http://www.w3.org/2000/svg" viewBox="0 0 600 600"><defs><style>.a,.b,.c{fill:none;stroke-width:12px;}.a{stroke:#52cefd;stroke-linecap:round;stroke-linejoin:round;}.b,.c{stroke:#039ae4;stroke-miterlimit:10;}.b{stroke-linecap:square;}</style></defs><title>natureScape</title><path class="a" d="M299.25,274.9s2.74-60.18,40-86.67"/><path class="a" d="M299.63,274.9s-2.74-60.18-40-86.67"/><path class="b" d="M459.18,191.34c-22.47-22.47-74.89-6.5-117.08,35.69-21.11,21.1-35.65,44.78-42.1,66-6.45-21.2-21-44.88-42.1-66-42.19-42.19-94.61-58.16-117.08-35.69s-30.86,86,11.33,128.15c18.42,18.43,43.45,29.74,67.66,34.76a100.49,100.49,0,0,0-14,11.66c-27.93,27.93-34.67,66.5-15,86.13S249,464.94,277,437c11.21-11.22,19-24.14,23.05-36.87,4.05,12.73,11.84,25.65,23.05,36.87,27.94,27.94,66.5,34.67,86.14,15s12.89-58.2-15-86.13a100.49,100.49,0,0,0-14-11.66c24.21-5,49.24-16.33,67.66-34.76C490,277.31,481.66,213.82,459.18,191.34Z"/><circle class="c" cx="300" cy="300" r="250"/></svg>