<svg xmlns="http://www.w3.org/2000/svg" xmlns:xlink="http://www.w3.org/1999/xlink" viewBox="0 0 600 600"><defs><style>.a,.c,.d{fill:none;}.b{clip-path:url(#a);}.c{stroke:#039be5;}.c,.d{stroke-miterlimit:10;stroke-width:12px;}.d{stroke:#63ccff;}</style><clipPath id="a"><rect class="a" x="50" y="105.26" width="500" height="389.47"/></clipPath></defs><title>news</title><g class="b"><g class="b"><polyline class="c" points="55.26 410.53 55.26 189.47 55.26 110.53 457.89 110.53"/></g><polyline class="d" points="113.16 446.05 113.16 436.84 113.16 410.53 113.16 405.11 113.16 189.47 113.16 163.16 486.84 163.16 515.79 163.16"/><polyline class="d" points="84.21 436.84 84.21 410.53 84.21 405.11 84.21 189.47 84.21 136.84 457.89 136.84 486.84 136.84"/><g class="b"><polyline class="c" points="142.1 489.47 457.89 489.47 486.84 489.47 501.32 489.47"/><polyline class="c" points="142.1 446.05 142.1 436.84 142.1 410.53 142.1 189.47 457.89 189.47 486.84 189.47 515.79 189.47 544.74 189.47 544.74 446.05"/></g><polyline class="c" points="515.79 189.47 486.84 189.47 457.89 189.47 142.1 189.47"/><polyline class="d" points="113.16 189.47 113.16 405.11 113.16 410.53 113.16 436.84 113.16 446.05"/><g class="b"><polyline class="c" points="113.16 489.47 142.1 489.47 457.89 489.47 486.84 489.47 501.32 489.47"/><polyline class="c" points="98.68 489.47 113.16 489.47 142.1 489.47 457.89 489.47 486.84 489.47"/></g><polyline class="d" points="84.21 446.05 84.21 436.84 84.21 410.53 84.21 405.11 84.21 189.47"/><polyline class="c" points="142.1 189.47 457.89 189.47 486.84 189.47"/><g class="b"><polyline class="c" points="55.26 446.05 55.26 410.53 55.26 189.47"/><polyline class="c" points="98.68 489.47 113.16 489.47 142.1 489.47 457.89 489.47"/></g><line class="c" x1="457.89" y1="189.47" x2="142.11" y2="189.47"/><g class="b"><path class="c" d="M55.26,446.05a43.43,43.43,0,1,0,86.85,0"/><path class="c" d="M501.32,489.47a43.38,43.38,0,0,0,43.42-43.42"/><path class="d" d="M84.21,446.05a14.48,14.48,0,1,0,29,0"/><line class="c" x1="178.95" y1="428.29" x2="510.53" y2="428.29"/><line class="d" x1="178.95" y1="397" x2="510.53" y2="397"/><line class="c" x1="178.95" y1="458.88" x2="510.53" y2="458.88"/><line class="c" x1="377.26" y1="265.17" x2="510.53" y2="265.17"/><line class="c" x1="377.26" y1="298.68" x2="510.53" y2="298.68"/><line class="c" x1="377.26" y1="332.19" x2="510.53" y2="332.19"/><line class="c" x1="377.26" y1="365.71" x2="510.53" y2="365.71"/><line class="c" x1="377.26" y1="231.65" x2="510.53" y2="231.65"/><rect class="d" x="184.21" y="231.65" width="158.83" height="134.06"/></g></g></svg>