<svg xmlns="http://www.w3.org/2000/svg" viewBox="0 0 600 600"><defs><style>.a,.b,.d,.e{fill:none;stroke-width:12px;}.a{stroke:#039ae4;}.a,.b{stroke-linejoin:round;}.b,.e{stroke:#52cefd;}.c{fill:#039be5;}.d{stroke:#039be5;}.d,.e{stroke-miterlimit:10;}</style></defs><title>onlinePayment</title><line class="a" x1="216.97" y1="151.19" x2="253.75" y2="187.98"/><path class="b" d="M185,256.74a96.94,96.94,0,0,0,90.3,26"/><path class="b" d="M420.58,195.14a45.47,45.47,0,0,0,4-3.58,47.16,47.16,0,0,0,13.85-33.7l-35.68.14-79.9.3-48.08.18-25.27,25.26-44.74,44.72"/><path class="c" d="M488.17,319.84a5.83,5.83,0,0,0-1.64-4.27,14.16,14.16,0,0,0-5.47-3,42.88,42.88,0,0,1-5.95-2.51Q468,306.23,468,298.78a11.6,11.6,0,0,1,3.07-8.3,13.12,13.12,0,0,1,8.32-3.86V280h4.86v6.68a12.08,12.08,0,0,1,8.18,4.49,15.34,15.34,0,0,1,2.88,9.67H488a9.54,9.54,0,0,0-1.72-6,5.58,5.58,0,0,0-4.66-2.2,6.32,6.32,0,0,0-4.56,1.58,6,6,0,0,0-1.64,4.53A5.67,5.67,0,0,0,477,303a15.8,15.8,0,0,0,5.51,3,46.14,46.14,0,0,1,6.11,2.64,15.83,15.83,0,0,1,3.74,2.78,11.23,11.23,0,0,1,2.34,3.61,12.78,12.78,0,0,1,.82,4.76,11.34,11.34,0,0,1-3.15,8.33,13.84,13.84,0,0,1-8.76,3.77v5.92h-4.83V331.9q-6-.67-9.26-4.32t-3.23-9.66h7.38a8.43,8.43,0,0,0,1.93,5.93,7.06,7.06,0,0,0,5.45,2.09,7.46,7.46,0,0,0,5.27-1.67,5.72,5.72,0,0,0,1.81-4.43Z"/><rect class="d" x="279.28" y="216.96" width="232.75" height="25.05"/><line class="b" x1="300.07" y1="270.05" x2="457.91" y2="270.05"/><line class="b" x1="391.17" y1="353.75" x2="390.89" y2="353.75"/><path class="d" d="M458.52,353.75h38.61a15.14,15.14,0,0,0,15.15-15.14v-129a15.15,15.15,0,0,0-15.15-15.15H294.43a15.15,15.15,0,0,0-15.15,15.15V338.61a14.93,14.93,0,0,0,.72,4.61"/><polyline class="a" points="274.79 449.79 150.34 325.33 146.27 295.46 109.49 258.67"/><line class="e" x1="230.58" y1="131.58" x2="87.72" y2="274.44"/><line class="a" x1="388.06" y1="350.64" x2="387.78" y2="350.64"/><line class="a" x1="366.56" y1="329.14" x2="366.28" y2="329.14"/><rect class="b" x="356.22" y="314.94" width="113" height="50" rx="25" ry="25" transform="translate(361.25 -192.27) rotate(45)"/><rect class="b" x="295.72" y="325.44" width="113" height="50" rx="25" ry="25" transform="translate(350.96 -146.41) rotate(45)"/><rect class="b" x="260.36" y="360.79" width="113" height="50" rx="25" ry="25" transform="translate(365.6 -111.06) rotate(45)"/><rect class="b" x="225.01" y="396.15" width="113" height="50" rx="25" ry="25" transform="translate(380.25 -75.7) rotate(45)"/></svg>