<svg xmlns="http://www.w3.org/2000/svg" viewBox="0 0 600 600"><defs><style>.a,.b,.d,.e{fill:none;stroke-width:12px;}.a{stroke:#039ae4;}.a,.b{stroke-linejoin:round;}.b,.e{stroke:#52cefd;}.c{fill:#039be5;}.d{stroke:#039be5;}.d,.e{stroke-miterlimit:10;}</style></defs><title>onlinePayment</title><line class="a" x1="202.21" y1="123.83" x2="245.53" y2="167.15"/><path class="b" d="M164.54,248.13a114.18,114.18,0,0,0,106.35,30.58"/><path class="b" d="M442,175.59a54,54,0,0,0,4.73-4.22,55.51,55.51,0,0,0,16.31-39.69l-42,.17-94.1.35-56.62.21-29.76,29.75-52.69,52.67"/><path class="c" d="M521.61,322.44a6.92,6.92,0,0,0-1.93-5,17.11,17.11,0,0,0-6.44-3.58,50,50,0,0,1-7-2.95q-8.34-4.47-8.34-13.24a13.68,13.68,0,0,1,3.62-9.77,15.4,15.4,0,0,1,9.8-4.54v-7.8H517v7.87a14.17,14.17,0,0,1,9.62,5.28q3.4,4.38,3.4,11.39H521.4a11.27,11.27,0,0,0-2-7.1,6.59,6.59,0,0,0-5.49-2.59,7.43,7.43,0,0,0-5.37,1.86,7.05,7.05,0,0,0-1.93,5.33,6.67,6.67,0,0,0,1.92,5,18.33,18.33,0,0,0,6.49,3.56,53.92,53.92,0,0,1,7.19,3.12,18.2,18.2,0,0,1,4.4,3.27,13,13,0,0,1,2.76,4.24,15.06,15.06,0,0,1,1,5.62,13.34,13.34,0,0,1-3.7,9.8q-3.71,3.76-10.32,4.44v7h-5.69v-6.94q-7.09-.79-10.9-5.09t-3.81-11.37h8.7c0,3,.75,5.33,2.27,7a8.26,8.26,0,0,0,6.42,2.47q4.08,0,6.21-2a6.8,6.8,0,0,0,2.13-5.23Z"/><rect class="d" x="275.6" y="201.29" width="274.11" height="29.51"/><line class="b" x1="300.08" y1="263.81" x2="485.97" y2="263.81"/><line class="b" x1="407.37" y1="362.38" x2="407.04" y2="362.38"/><path class="d" d="M486.69,362.38h45.47A17.83,17.83,0,0,0,550,344.55v-152a17.83,17.83,0,0,0-17.84-17.84H293.44a17.83,17.83,0,0,0-17.84,17.84v152a17.39,17.39,0,0,0,.85,5.43"/><polyline class="a" points="270.31 475.48 123.74 328.92 118.96 293.73 75.64 250.41"/><line class="e" x1="218.24" y1="100.73" x2="50" y2="268.97"/><line class="a" x1="403.71" y1="358.72" x2="403.38" y2="358.72"/><line class="a" x1="378.39" y1="333.4" x2="378.06" y2="333.4"/><rect class="b" x="366.2" y="316.67" width="133.08" height="58.88" rx="25" ry="25" transform="translate(371.49 -204.62) rotate(45)"/><rect class="b" x="294.95" y="329.04" width="133.08" height="58.88" rx="25" ry="25" transform="translate(359.36 -150.62) rotate(45)"/><rect class="b" x="253.32" y="370.67" width="133.08" height="58.88" rx="25" ry="25" transform="translate(376.61 -108.98) rotate(45)"/><rect class="b" x="211.68" y="412.31" width="133.08" height="58.88" rx="25" ry="25" transform="translate(393.86 -67.34) rotate(45)"/></svg>