<svg xmlns="http://www.w3.org/2000/svg" viewBox="0 0 600 600"><defs><style>.a,.b{fill:none;stroke-linecap:square;stroke-miterlimit:10;stroke-width:12px;}.a{stroke:#52cefd;}.b{stroke:#039ae4;}</style></defs><title>palmTree</title><path class="a" d="M199.37,550a281.22,281.22,0,0,1,98.91-322.47l2.22-1.6-2.2,2.16-9.27,9c-85,85-96.43,215.57-34.42,312.86Z"/><line class="a" x1="327.42" y1="226.02" x2="327.42" y2="207.65"/><line class="a" x1="355.08" y1="226.02" x2="355.08" y2="192.8"/><line class="a" x1="382.74" y1="226.02" x2="382.74" y2="183.64"/><line class="a" x1="410.39" y1="226.02" x2="410.39" y2="179.24"/><line class="a" x1="438.05" y1="226.02" x2="438.05" y2="179.25"/><line class="a" x1="465.71" y1="226.02" x2="465.71" y2="183.66"/><line class="a" x1="493.37" y1="226.02" x2="493.37" y2="192.84"/><line class="a" x1="521.03" y1="226.02" x2="521.03" y2="207.78"/><path class="b" d="M548.08,226c-68.49-68.49-179.83-68.49-248.32,0"/><line class="a" x1="320.38" y1="245.27" x2="333.37" y2="232.28"/><line class="a" x1="339.94" y1="264.83" x2="363.42" y2="241.35"/><line class="a" x1="359.49" y1="284.39" x2="389.46" y2="254.43"/><line class="a" x1="379.05" y1="303.94" x2="412.12" y2="270.87"/><line class="a" x1="398.61" y1="323.5" x2="431.67" y2="290.44"/><line class="a" x1="418.17" y1="343.06" x2="448.12" y2="313.11"/><line class="a" x1="437.72" y1="362.62" x2="461.18" y2="339.16"/><line class="a" x1="457.28" y1="382.18" x2="470.18" y2="369.29"/><path class="b" d="M476.41,401.3c0-96.85-78.73-175.58-175.59-175.58"/><line class="a" x1="144.39" y1="69.56" x2="157.38" y2="56.57"/><line class="a" x1="163.95" y1="89.12" x2="187.43" y2="65.63"/><line class="a" x1="183.51" y1="108.68" x2="213.47" y2="78.71"/><line class="a" x1="203.06" y1="128.23" x2="236.13" y2="95.15"/><line class="a" x1="222.62" y1="147.79" x2="255.68" y2="114.72"/><line class="a" x1="242.18" y1="167.35" x2="272.13" y2="137.39"/><line class="a" x1="261.74" y1="186.91" x2="285.2" y2="163.45"/><line class="a" x1="281.3" y1="206.46" x2="294.19" y2="193.57"/><line class="a" x1="300.85" y1="226.02" x2="300.85" y2="226.02"/><path class="b" d="M300.42,225.59h0C300.42,128.73,221.69,50,124.83,50"/><line class="a" x1="79.58" y1="226.02" x2="79.58" y2="207.65"/><line class="a" x1="107.24" y1="226.02" x2="107.24" y2="192.8"/><line class="a" x1="134.9" y1="226.02" x2="134.9" y2="183.64"/><line class="a" x1="162.55" y1="226.02" x2="162.55" y2="179.24"/><line class="a" x1="190.21" y1="226.02" x2="190.21" y2="179.25"/><line class="a" x1="217.88" y1="226.02" x2="217.88" y2="183.66"/><line class="a" x1="245.54" y1="226.02" x2="245.54" y2="192.84"/><line class="a" x1="273.2" y1="226.02" x2="273.2" y2="207.78"/><path class="b" d="M300.24,226c-68.49-68.49-179.83-68.49-248.32,0"/></svg>