<svg xmlns="http://www.w3.org/2000/svg" viewBox="0 0 600 600"><defs><style>.a,.b,.c{fill:none;stroke-miterlimit:10;stroke-width:12px;}.a,.b{stroke:#52cefd;}.a{stroke-linecap:square;}.c{stroke:#039ae4;}</style></defs><title>parks</title><line class="a" x1="209.63" y1="400.59" x2="209.63" y2="421.8"/><line class="a" x1="393.08" y1="400.59" x2="393.08" y2="421.8"/><path class="b" d="M406.6,289.92l62.72-160.11a8.38,8.38,0,0,1,15.57-.07l64.5,160.08a8.38,8.38,0,0,1-4.86,11l-67.24,24.93-65.85-24.93A8.38,8.38,0,0,1,406.6,289.92Z"/><circle class="b" cx="128.61" cy="221.54" r="78.61"/><line class="c" x1="477.29" y1="475.51" x2="477.29" y2="195.89"/><line class="c" x1="505.51" y1="256.45" x2="477.66" y2="284.29"/><line class="c" x1="451.46" y1="230.24" x2="479.3" y2="258.08"/><line class="c" x1="126.6" y1="475.51" x2="126.6" y2="200.29"/><line class="c" x1="154.82" y1="260.84" x2="126.97" y2="288.68"/><line class="c" x1="100.77" y1="234.64" x2="128.61" y2="262.48"/><line class="b" x1="415.95" y1="471.39" x2="415.95" y2="433.76"/><line class="b" x1="188.11" y1="471.39" x2="188.11" y2="433.76"/><polyline class="c" points="428.04 431.84 428.04 431.84 174.57 431.84"/><line class="c" x1="195.31" y1="400.32" x2="407.3" y2="400.32"/><line class="c" x1="195.31" y1="373.05" x2="407.3" y2="373.05"/><line class="c" x1="407.3" y1="400.7" x2="195.31" y2="400.7"/><path class="c" d="M281,206.72h0a30.71,30.71,0,0,1,43.44,0h1.24a30.71,30.71,0,0,1,43.44,0h0"/><path class="c" d="M267,247.21h0a30.71,30.71,0,0,1,43.44,0h1.24a30.7,30.7,0,0,1,43.43,0h0"/><line class="c" x1="50" y1="475.51" x2="549.82" y2="475.51"/></svg>