<svg xmlns="http://www.w3.org/2000/svg" viewBox="0 0 600 600"><defs><style>.a,.b{fill:none;stroke-width:12px;}.a{stroke:#039be5;stroke-miterlimit:10;}.b{stroke:#52cefd;stroke-linejoin:round;}</style></defs><title>parking</title><path class="a" d="M377.39,173.93a88.55,88.55,0,0,1,35,32.55,88.59,88.59,0,0,1,0,91.21,90.3,90.3,0,0,1-34.83,32.75q-22.17,12-49.54,12H265V444H203.67V162.12H328.05A104.18,104.18,0,0,1,377.39,173.93Zm-23.63,101q10.35-9.12,10.36-22.39,0-14.08-10.16-23t-25.91-8.91H265V284h63Q343.38,284,353.76,274.89Z"/><circle class="b" cx="300" cy="300" r="214"/></svg>