<svg xmlns="http://www.w3.org/2000/svg" viewBox="0 0 600 600"><defs><style>.a,.b{fill:none;stroke-linejoin:round;stroke-width:12px;}.a{stroke:#52cefd;}.b{stroke:#039be5;}</style></defs><title>pathology</title><path class="a" d="M274.9,260.25s0,.05,0,.08v-.09Z"/><path class="a" d="M213.33,220.55v0l.27.31Z"/><path class="a" d="M184.27,191.49a19.68,19.68,0,0,0-7.12-5.8h0l-.39-.18-.71-.32c-.48-.21-1-.4-1.48-.58l-.45-.15c-.44-.14-.88-.27-1.33-.39l-.46-.12c-.59-.15-1.18-.27-1.78-.38l-.22,0c-.55-.08-1.1-.15-1.66-.2l-.48,0c-.64,0-1.27-.08-1.92-.08-11.6,0-21,7.63-21,17,0,.08,12.49,50.67,12.49,74.1a222.62,222.62,0,0,1-8.87,63,50.77,50.77,0,0,0,4.35,39.44l.12.21c18.35-11.88,38.58-29.15,57.73-47.84-2.72-16.6-4.18-39.6-4.18-54.82a225.87,225.87,0,0,1,6-52c.15-.61.29-1.18.46-1.79h0c-7.28-8.39-21.56-22.19-29.05-29.08Z"/><path class="a" d="M177.16,185.68s0,0,0,0"/><path class="b" d="M274.91,260.24h0s0,.05,0,.08Z"/><path class="b" d="M274.9,260.25A121.53,121.53,0,0,1,273.71,243c0-32.75,12.57-61.08,30.89-74.6,7.35-5.48,15.61-8.53,24.35-8.53s27.36,11.37,29.05,12.42l0,0h0A24.67,24.67,0,0,0,374,175.61c9-1.09,16.3-7,17.58-14.35,1.19-6.78-2.56-12.94-8.74-16.45-3.15-1.79-6.26-3.61-9.26-5.56A124.34,124.34,0,0,0,360.72,132V109.14h-.05c-.47-7.43-8-13.33-17.29-13.33s-16.82,5.9-17.3,13.33H326v11.71a105.88,105.88,0,0,0-10.95-1.13V97.29H315c-.48-8.25-8.84-14.82-19.12-14.82S277.26,89,276.78,97.29h0v30.48c-.44.22-.88.42-1.32.66A88,88,0,0,0,264,135.76V109.14h0c-.48-9.06-9.66-16.3-21-16.3s-20.47,7.24-21,16.3h0v84.58a195.63,195.63,0,0,0-9.09,28.64,225.87,225.87,0,0,0-6,52c0,18.18,4,54.66,4,54.66"/><path class="a" d="M381.79,238l38.29-10.22,0,0c15.24-4.49,23.44-18,18.35-30.59s-21.6-19.51-37.16-15.77l0,0-35.36,9.45c-24.39,6.51-45.64,19.09-60.73,36-10.35,11.57-22,24.65-30.23,33.94v0c-6.21,7-12.45,14.06-18.73,21-13.8,15.35-27.7,30.24-41.52,43.92v0c-20.19,20-41.81,38.72-61.29,51.34l4.78,8.12c62.7,106.71,171,171,242,143.55s77.6-136.2,14.9-242.9A378.05,378.05,0,0,0,381.79,238Z"/></svg>