<svg xmlns="http://www.w3.org/2000/svg" viewBox="0 0 600 600"><defs><style>.a,.b{fill:none;stroke-linejoin:round;stroke-width:12px;}.a{stroke:#52cefd;}.b{stroke:#039be5;}</style></defs><title>pathology</title><path class="a" d="M270.45,246.43s0,.06,0,.08v-.09Z"/><path class="a" d="M202.42,202.57h0l.3.35Z"/><path class="a" d="M170.31,170.46a21.5,21.5,0,0,0-7.87-6.42h0l-.44-.2c-.25-.13-.51-.25-.77-.36-.54-.23-1.08-.45-1.64-.64l-.5-.16c-.48-.16-1-.31-1.47-.44l-.51-.13c-.64-.16-1.3-.3-2-.41l-.25,0c-.6-.09-1.21-.17-1.83-.22l-.53-.05c-.7,0-1.41-.09-2.12-.09-12.82,0-23.2,8.43-23.2,18.83,0,.08,13.8,56,13.8,81.87a245.81,245.81,0,0,1-9.8,69.61,56.13,56.13,0,0,0,4.8,43.58l.13.24c20.28-13.13,42.63-32.21,63.79-52.87-3-18.33-4.62-43.75-4.62-60.56a249.22,249.22,0,0,1,6.58-57.44c.16-.67.32-1.31.5-2h0c-8-9.27-23.82-24.51-32.09-32.13Z"/><path class="a" d="M162.46,164s0,0,0,0"/><path class="b" d="M270.47,246.42h0s0,.06,0,.08Z"/><path class="b" d="M270.45,246.43a134.9,134.9,0,0,1-1.32-19.08c0-36.19,13.9-67.49,34.14-82.43,8.13-6.06,17.24-9.43,26.91-9.43,9.5,0,30.22,12.56,32.09,13.73l0,0h0a27.22,27.22,0,0,0,17.58,3.65c10-1.2,18-7.74,19.43-15.85,1.31-7.49-2.82-14.29-9.66-18.18-3.47-2-6.92-4-10.22-6.14a137.67,137.67,0,0,0-14.17-8V79.46h0c-.53-8.2-8.87-14.73-19.12-14.73S327.53,71.26,327,79.46H327V92.4a119,119,0,0,0-12.1-1.25V66.37h-.05C314.26,57.26,305,50,293.66,50s-20.6,7.26-21.13,16.37h0v33.68c-.48.25-1,.47-1.45.72a98.86,98.86,0,0,0-12.67,8.1V79.46h-.05c-.53-10-10.68-18-23.15-18s-22.61,8-23.15,18h0v93.46a216.27,216.27,0,0,0-10,31.64A249.22,249.22,0,0,0,195.34,262c0,20.08,4.38,60.39,4.38,60.39"/><path class="a" d="M388.56,221.88l42.3-11.29,0,0c16.85-5,25.9-19.9,20.27-33.8s-23.86-21.55-41.05-17.43l0,0L371,169.71c-27,7.2-50.43,21.09-67.1,39.73-11.44,12.78-24.33,27.23-33.4,37.5v0c-6.86,7.77-13.76,15.53-20.7,23.19-15.25,17-30.6,33.41-45.88,48.53v0c-22.31,22.13-46.19,42.78-67.72,56.73l5.29,9c69.27,117.9,189,188.92,267.35,158.6s85.74-150.48,16.46-268.38A417.35,417.35,0,0,0,388.56,221.88Z"/></svg>