<svg xmlns="http://www.w3.org/2000/svg" viewBox="0 0 600 600"><defs><style>.a{fill:#039ae4;}.b,.c{fill:none;stroke-miterlimit:10;stroke-width:12px;}.b{stroke:#52cefd;}.c{stroke:#039ae4;}</style></defs><title>paymentSearch</title><path class="a" d="M366.08,141.21v19q15,2.16,23.25,12.76t8.22,27.53H376.63q0-10.89-4.89-17.16a15.93,15.93,0,0,0-13.27-6.27q-8.31,0-13,4.5t-4.67,12.88c0,5,1.54,9,4.63,12.06s8.31,5.9,15.69,8.6a132.09,132.09,0,0,1,17.38,7.53,44.14,44.14,0,0,1,10.63,7.91,31.22,31.22,0,0,1,6.66,10.25,36.07,36.07,0,0,1,2.33,13.57q0,14.61-8.94,23.69T364.26,288.8v16.86H350.52V288.89q-17.13-1.9-26.33-12.28T315,249.11h21q0,10.9,5.49,16.87t15.52,6q9.86,0,15-4.75c3.43-3.18,5.14-7.38,5.14-12.63a16.64,16.64,0,0,0-4.67-12.14q-4.67-4.81-15.56-8.65A121.48,121.48,0,0,1,340,226.63q-20.14-10.8-20.15-32,0-14.35,8.73-23.6t23.69-11V141.21h13.84m0-12H352.24a12,12,0,0,0-12,12v9.11a46.09,46.09,0,0,0-20.41,12.48c-8,8.45-12,19.16-12,31.84,0,18.5,9.09,33.18,26.3,42.47H315a12,12,0,0,0-12,12c0,14.39,4.12,26.33,12.24,35.47a47.63,47.63,0,0,0,23.3,14.19v6.89a12,12,0,0,0,12,12h13.74a12,12,0,0,0,12-12v-6.91a47,47,0,0,0,21.49-12.25c8.23-8.35,12.4-19.15,12.4-32.11a48.1,48.1,0,0,0-3.2-18.06,43.33,43.33,0,0,0-9.2-14.14A55.9,55.9,0,0,0,385,212.52h12.56a12,12,0,0,0,12-12c0-14-3.62-25.72-10.74-34.89a44,44,0,0,0-20.73-14.81v-9.61a12,12,0,0,0-12-12Zm-1,74.58c-7.64-2.82-10.38-5-11.21-5.81-.32-.32-1-1-1-3.51,0-1,.09-3.38,1-4.24s3.07-1.14,4.65-1.14c2.13,0,3,.56,3.81,1.65,1.94,2.49,2.35,6.7,2.35,9.78a12.12,12.12,0,0,0,.45,3.27ZM357,259.94c-4.76,0-6.17-1.52-6.69-2.09-1.54-1.67-2.32-4.61-2.32-8.74a11.92,11.92,0,0,0-2-6.59c2.13.83,4.43,1.69,6.91,2.56,7.44,2.63,10.14,4.86,10.95,5.7.67.68,1.27,1.61,1.27,3.78,0,2.62-.81,3.37-1.29,3.82-1.07,1-3.57,1.56-6.85,1.56Z"/><line class="b" x1="245.91" y1="368.16" x2="211.84" y2="334.09"/><line class="b" x1="153.91" y1="460.16" x2="119.84" y2="426.09"/><polyline class="c" points="270.69 343.38 262.94 351.12 256.73 357.33 130.01 484.05 95.95 449.99 221.91 324.02 228.88 317.06 236.62 309.31"/><path class="b" d="M232.57,223.43A126.13,126.13,0,0,1,358.7,97.3"/><circle class="c" cx="356.57" cy="223.43" r="147.49"/></svg>