<svg xmlns="http://www.w3.org/2000/svg" viewBox="0 0 600 600"><defs><style>.a{fill:#039ae4;}.b,.c{fill:none;stroke-miterlimit:10;stroke-width:12px;}.b{stroke:#52cefd;}.c{stroke:#039ae4;}</style></defs><title>paymentSearch</title><path class="a" d="M381,130v23.31q18.42,2.66,28.49,15.63t10.06,33.73H393.89q0-13.34-6-21t-16.26-7.68q-10.18,0-15.9,5.51T350,195.21q0,9.21,5.68,14.78t19.22,10.54a163,163,0,0,1,21.29,9.21,54.42,54.42,0,0,1,13,9.7A38.36,38.36,0,0,1,417.4,252a44.47,44.47,0,0,1,2.86,16.63q0,17.91-11,29t-30.56,13.13v20.66H361.89V310.89q-21-2.34-32.25-15.05t-11.29-33.68h25.74q0,13.35,6.73,20.66t19,7.31q12.07,0,18.38-5.83t6.31-15.47A20.45,20.45,0,0,0,388.79,254q-5.71-5.88-19.06-10.59A151,151,0,0,1,349,234.62q-24.69-13.25-24.69-39.2,0-17.58,10.7-28.92t29-13.45V130H381m0-12H364a12,12,0,0,0-12,12v13.2a54.29,54.29,0,0,0-25.75,15.11c-9.28,9.83-14,22.34-14,37.16,0,21.67,10.71,38.87,31,49.75a159.09,159.09,0,0,0,22.47,9.5c9.31,3.29,13.06,6.2,14.46,7.65,1.09,1.11,2.33,2.85,2.33,6.51,0,3.87-1.24,5.54-2.46,6.66-2.35,2.18-6.86,2.64-10.23,2.64-6.29,0-8.82-2-10.18-3.44-2.36-2.56-3.56-6.78-3.56-12.53a12,12,0,0,0-12-12H318.35a12,12,0,0,0-12,12c0,16.95,4.82,31,14.31,41.65,7.42,8.36,17.22,14.09,29.23,17.11v10.52a12,12,0,0,0,12,12h16.84a12,12,0,0,0,12-12V320.89c10.95-2.68,20-7.64,27.11-14.82,9.57-9.71,14.42-22.31,14.42-37.45a56.41,56.41,0,0,0-3.73-21.11,50.47,50.47,0,0,0-10.7-16.45A66.59,66.59,0,0,0,402,219.22c-2.8-1.53-6-3.09-9.71-4.7a12.36,12.36,0,0,0,1.62.1h25.62a12,12,0,0,0,12-12c0-16.51-4.23-30.33-12.58-41.09a51.44,51.44,0,0,0-26-17.84V130a12,12,0,0,0-12-12Zm5.62,94.19c-2.35-.94-4.85-1.9-7.53-2.88-9.68-3.55-13.52-6.43-14.94-7.83-1-1-2.09-2.52-2.09-6.22,0-3.43.69-5.83,2-7.14s4-2.15,7.58-2.15,5.36,1.22,6.79,3.06c2.29,2.94,3.46,7.53,3.46,13.64a12,12,0,0,0,4.69,9.52Z"/><line class="b" x1="233.73" y1="408.01" x2="191.99" y2="366.27"/><line class="b" x1="121.01" y1="520.72" x2="79.28" y2="478.99"/><polyline class="c" points="264.09 377.65 254.6 387.14 246.99 394.75 91.74 550 50 508.26 204.33 353.93 212.86 345.4 222.35 335.91"/><path class="b" d="M217.38,230.7A154.54,154.54,0,0,1,371.92,76.16"/><circle class="c" cx="369.3" cy="230.7" r="180.7"/></svg>