<svg xmlns="http://www.w3.org/2000/svg" viewBox="0 0 600 600"><defs><style>.a,.b{fill:none;stroke-width:12px;}.a{stroke:#039ae4;stroke-miterlimit:10;}.b{stroke:#52cefd;stroke-linecap:round;stroke-linejoin:round;}</style></defs><title>performingArts</title><path class="a" d="M341,190a20.5,20.5,0,0,1-41,0"/><path class="a" d="M432,190a20.5,20.5,0,0,1-41,0"/><path class="a" d="M259,316.5a20.5,20.5,0,0,1,41,0"/><path class="a" d="M168,316.5a20.5,20.5,0,0,1,41,0"/><path class="a" d="M300,375.5a66,66,0,0,1-132,0"/><path class="a" d="M347,253.28a66,66,0,0,1,85,63.22"/><path class="b" d="M121,227.5l.08,151a113,113,0,0,0,225.84,0l.08-151Z"/><path class="b" d="M253,227.5v-115H479l-.08,151A113,113,0,0,1,347,370.9"/></svg>