<svg xmlns="http://www.w3.org/2000/svg" viewBox="0 0 600 600"><defs><style>.a,.b{fill:none;stroke-width:12px;}.a{stroke:#039ae4;stroke-miterlimit:10;}.b{stroke:#52cefd;stroke-linecap:round;stroke-linejoin:round;}</style></defs><title>performingArts</title><path class="a" d="M353.57,156.27a26.79,26.79,0,0,1-53.57,0"/><path class="a" d="M472.48,156.27a26.79,26.79,0,0,1-53.57,0"/><path class="a" d="M246.43,321.56a26.79,26.79,0,1,1,53.57,0"/><path class="a" d="M127.52,321.56a26.79,26.79,0,1,1,53.57,0"/><path class="a" d="M300,398.65a86.24,86.24,0,0,1-172.48,0"/><path class="a" d="M361.41,239a86.3,86.3,0,0,1,111.07,82.61"/><path class="b" d="M66.11,205.27l.1,197.3a147.64,147.64,0,0,0,295.1,0l.1-197.3Z"/><path class="b" d="M238.59,205.27V55h295.3l-.1,197.31A147.71,147.71,0,0,1,361.41,392.64"/></svg>