<svg xmlns="http://www.w3.org/2000/svg" viewBox="0 0 600 600"><defs><style>.a,.b{fill:none;stroke-miterlimit:10;stroke-width:12px;}.a{stroke:#039ae4;}.b{stroke:#52cefd;}.c{fill:#039be5;}.d{fill:#52cefd;}</style></defs><title>permitsAndLicenses</title><rect class="a" x="102.14" y="50" width="395.72" height="500" transform="translate(600) rotate(90)"/><rect class="b" x="89.18" y="141.32" width="421.64" height="317.36"/><path class="c" d="M304.42,185.74a35.73,35.73,0,1,1-35.73,35.73,35.73,35.73,0,0,1,35.73-35.73m-6.61,42.33L288,218.29,281,225.36l16.84,16.84,4.89-4.89,2.18-2.17,23.91-23.91-7.07-7.06-23.91,23.9m6.61-54.33a47.73,47.73,0,1,0,47.73,47.73,47.78,47.78,0,0,0-47.73-47.73Z"/><path class="d" d="M472.84,412.81c-4.26-2-6.52-2.89-11.31-2.3-4.53.56-11.22,6.25-15.13,5.92-8.34-.7-8.1-14.11-15.69-17.7-8.86-4.2-16.28,1.58-24.74,2.79-10.67,1.53-16.44-8.34-26.08-5.24-5.9,1.9-11.62,8-16.54,11.61-3.36,2.49-5.93,6.37-9.37,4-3.12-2.16-1.77-7.56-1.79-11,0-6.05,1.59-15.24-5-18.68-7.26-3.8-19.88,2.85-26.43,5.36a164.66,164.66,0,0,0-37.57,20.65c-5.55,4,0,13.2,5.6,9.15a153.64,153.64,0,0,1,37.65-20.53q5.22-1.89,10.57-3.4,7.31-4.83,4.42,4.7c1.64,5.07-.83,11.42.48,16.75,5,20.39,21.87,5.92,32.09-1.65,11.6-8.58,9.47-2.42,20.42.11,11.19,2.59,18.68-7,28.83-1.16,6.86,3.95,6,11.33,13.42,14.55,10.5,4.57,21.53-9,30.95-4.58C473.87,425.09,479.1,415.73,472.84,412.81Z"/><line class="a" x1="150.96" y1="306.6" x2="456.73" y2="306.6"/><polyline class="a" points="456.73 351.49 456.73 351.49 150.96 351.49 150.96 351.49"/></svg>