<svg xmlns="http://www.w3.org/2000/svg" viewBox="0 0 600 600"><defs><style>.a,.b{fill:none;stroke-width:12px;}.a{stroke:#039ae4;stroke-miterlimit:10;}.b{stroke:#52cefd;stroke-linejoin:round;}</style></defs><title>physicalWellnessAlt</title><polyline class="a" points="229.97 291.54 229.97 550 366.86 550 366.86 228.65"/><circle class="a" cx="299.74" cy="105.5" r="55.5"/><path class="b" d="M366.86,291.53V216.45a14.23,14.23,0,0,1,14.23-14.23h55.54a42.28,42.28,0,0,0,42.28-42.28h0v-56a21.13,21.13,0,0,0-21.14-21.14h0a21.13,21.13,0,0,0-21.14,21.14v41.8a14.23,14.23,0,0,1-14.23,14.23h-194"/><circle class="a" cx="299.74" cy="105.5" r="55.5"/><line class="a" x1="297.62" y1="354.44" x2="297.62" y2="550"/><line class="a" x1="503.75" y1="64.8" x2="503.75" y2="138.79"/><line class="a" x1="527.01" y1="77.48" x2="527.01" y2="126.11"/><line class="a" x1="412.84" y1="138.79" x2="412.84" y2="64.8"/><line class="a" x1="389.59" y1="126.11" x2="389.59" y2="77.48"/><line class="a" x1="389.59" y1="101.27" x2="372.67" y2="101.27"/><line class="a" x1="543.92" y1="101.27" x2="527.01" y2="101.27"/><path class="b" d="M230,291.53V216.45a14.23,14.23,0,0,0-14.23-14.23H163.37a42.28,42.28,0,0,1-42.28-42.28h0v-56a21.13,21.13,0,0,1,21.14-21.14h0a21.13,21.13,0,0,1,21.14,21.14v41.8a14.23,14.23,0,0,0,14.23,14.23H230"/><line class="a" x1="96.25" y1="64.8" x2="96.25" y2="138.79"/><line class="a" x1="72.99" y1="77.48" x2="72.99" y2="126.11"/><line class="a" x1="187.16" y1="138.79" x2="187.16" y2="64.8"/><line class="a" x1="210.41" y1="126.11" x2="210.41" y2="77.48"/><line class="a" x1="56.08" y1="101.27" x2="72.99" y2="101.27"/><line class="a" x1="210.41" y1="101.27" x2="227.33" y2="101.27"/></svg>