<svg xmlns="http://www.w3.org/2000/svg" viewBox="0 0 600 600"><defs><style>.a,.b{fill:none;stroke-width:12px;}.a{stroke:#039ae4;stroke-miterlimit:10;}.b{stroke:#52cefd;stroke-linejoin:round;}</style></defs><title>physicalWellness</title><polyline class="a" points="365 232.5 365 536.5 234 536.5 234 232.5"/><circle class="a" cx="301.5" cy="116" r="52.5"/><path class="b" d="M365,292V221a13.46,13.46,0,0,1,13.46-13.46H428a40,40,0,0,0,40-40h0v-53a20,20,0,0,0-20-20h0a20,20,0,0,0-20,20V154a13.46,13.46,0,0,1-13.46,13.46H156a40,40,0,0,0-40,40h0v53a20,20,0,0,0,20,20h0a20,20,0,0,0,20-20V221a13.46,13.46,0,0,1,13.46-13.46h51.08A13.46,13.46,0,0,1,234,221v71"/><circle class="a" cx="301.5" cy="116" r="52.5"/><line class="a" x1="299.5" y1="351.5" x2="299.5" y2="536.5"/><line class="a" x1="491.5" y1="77.5" x2="491.5" y2="147.5"/><line class="a" x1="513.5" y1="89.5" x2="513.5" y2="135.5"/><line class="a" x1="405.5" y1="147.5" x2="405.5" y2="77.5"/><line class="a" x1="383.5" y1="135.5" x2="383.5" y2="89.5"/><line class="a" x1="179.5" y1="232.5" x2="179.5" y2="302.5"/><line class="a" x1="201.5" y1="244.5" x2="201.5" y2="290.5"/><line class="a" x1="92.5" y1="302.5" x2="92.5" y2="232.5"/><line class="a" x1="70.5" y1="290.5" x2="70.5" y2="244.5"/><line class="a" x1="529.5" y1="112" x2="513.5" y2="112"/><line class="a" x1="383.5" y1="112" x2="367.5" y2="112"/><line class="a" x1="217.5" y1="268" x2="201.5" y2="268"/></svg>