<svg xmlns="http://www.w3.org/2000/svg" viewBox="0 0 600 600"><defs><style>.a,.b{fill:none;stroke-width:12px;}.a{stroke:#039ae4;stroke-miterlimit:10;}.b{stroke:#52cefd;stroke-linejoin:round;}</style></defs><title>physicalWellness</title><polyline class="a" points="377.47 228.65 377.47 550 238.99 550 238.99 228.65"/><circle class="a" cx="310.35" cy="105.5" r="55.5"/><path class="b" d="M377.47,291.53V216.45a14.23,14.23,0,0,1,14.23-14.23h52.37a42.28,42.28,0,0,0,42.28-42.28h0v-56a21.13,21.13,0,0,0-21.14-21.14h0a21.13,21.13,0,0,0-21.14,21.14v41.8a14.23,14.23,0,0,1-14.23,14.23H156.54a42.28,42.28,0,0,0-42.28,42.28h0v56a21.14,21.14,0,0,0,21.14,21.14h0a21.14,21.14,0,0,0,21.14-21.14v-41.8a14.23,14.23,0,0,1,14.23-14.23h54A14.23,14.23,0,0,1,239,216.45v75.08"/><circle class="a" cx="310.35" cy="105.5" r="55.5"/><line class="a" x1="308.23" y1="354.44" x2="308.23" y2="550"/><line class="a" x1="511.19" y1="64.8" x2="511.19" y2="138.79"/><line class="a" x1="534.45" y1="77.48" x2="534.45" y2="126.11"/><line class="a" x1="420.28" y1="138.79" x2="420.28" y2="64.8"/><line class="a" x1="397.03" y1="126.11" x2="397.03" y2="77.48"/><line class="a" x1="181.38" y1="228.65" x2="181.38" y2="302.64"/><line class="a" x1="204.64" y1="241.33" x2="204.64" y2="289.96"/><line class="a" x1="89.42" y1="302.64" x2="89.42" y2="228.65"/><line class="a" x1="66.16" y1="289.96" x2="66.16" y2="241.33"/><line class="a" x1="551.36" y1="101.27" x2="534.45" y2="101.27"/><line class="a" x1="397.03" y1="101.27" x2="380.11" y2="101.27"/><line class="a" x1="221.55" y1="266.17" x2="204.64" y2="266.17"/><line class="a" x1="65.55" y1="266.17" x2="48.64" y2="266.17"/></svg>