<svg xmlns="http://www.w3.org/2000/svg" viewBox="0 0 600 600"><defs><style>.a,.b{fill:none;stroke-width:12px;}.a{stroke:#039ae4;stroke-miterlimit:10;}.b{stroke:#52cefd;stroke-linejoin:round;}</style></defs><title>physicalWellnessAlt</title><polyline class="a" points="233.75 292 233.75 536.5 363.25 536.5 363.25 232.5"/><circle class="a" cx="299.75" cy="116" r="52.5"/><path class="b" d="M363.25,292V221a13.46,13.46,0,0,1,13.46-13.46h52.54a40,40,0,0,0,40-40h0v-53a20,20,0,0,0-20-20h0a20,20,0,0,0-20,20V154a13.46,13.46,0,0,1-13.46,13.46H232.25"/><circle class="a" cx="299.75" cy="116" r="52.5"/><line class="a" x1="297.75" y1="351.5" x2="297.75" y2="536.5"/><line class="a" x1="492.75" y1="77.5" x2="492.75" y2="147.5"/><line class="a" x1="514.75" y1="89.5" x2="514.75" y2="135.5"/><line class="a" x1="406.75" y1="147.5" x2="406.75" y2="77.5"/><line class="a" x1="384.75" y1="135.5" x2="384.75" y2="89.5"/><line class="a" x1="384.75" y1="112" x2="368.75" y2="112"/><line class="a" x1="530.75" y1="112" x2="514.75" y2="112"/><path class="b" d="M233.75,292V221a13.46,13.46,0,0,0-13.46-13.46H170.75a40,40,0,0,1-40-40h0v-53a20,20,0,0,1,20-20h0a20,20,0,0,1,20,20V154a13.46,13.46,0,0,0,13.46,13.46h49.54"/><line class="a" x1="107.25" y1="77.5" x2="107.25" y2="147.5"/><line class="a" x1="85.25" y1="89.5" x2="85.25" y2="135.5"/><line class="a" x1="193.25" y1="147.5" x2="193.25" y2="77.5"/><line class="a" x1="215.25" y1="135.5" x2="215.25" y2="89.5"/><line class="a" x1="69.25" y1="112" x2="85.25" y2="112"/><line class="a" x1="215.25" y1="112" x2="231.25" y2="112"/></svg>