<svg xmlns="http://www.w3.org/2000/svg" viewBox="0 0 600 600"><defs><style>.a,.b{fill:none;stroke-width:12px;}.a{stroke:#52cefd;stroke-linejoin:round;}.b{stroke:#039ae4;stroke-miterlimit:10;}.c{fill:#039ae4;}</style></defs><title>print</title><path class="a" d="M446.62,182.92V125.38l-.28-12a28.25,28.25,0,0,0-28.27-28.27l-340.16.2"/><path class="a" d="M106.82,181.22l-.29-67.81a28.27,28.27,0,1,0-56.53,0v23.13l57-.23"/><polyline class="b" points="505.26 396.2 550 396.2 550 180.78 505.26 180.78 165.74 180.78 107.04 180.78 107.04 396.2 165.74 396.2"/><line class="b" x1="463.03" y1="357.79" x2="200.69" y2="357.79"/><line class="b" x1="463.03" y1="396.4" x2="200.69" y2="396.4"/><line class="b" x1="463.03" y1="435" x2="200.69" y2="435"/><line class="b" x1="228.4" y1="473.61" x2="200.69" y2="473.61"/><polyline class="a" points="501.62 318.8 501.62 357.97 501.62 396.2 501.62 454.73"/><path class="a" d="M162.1,318.8v149l.34,14a33.07,33.07,0,1,0,66.13,0V454.73l306.65.36v26.7a33,33,0,0,1-33.07,33.07H195.77"/><polyline class="b" points="508.9 345.83 524.82 345.83 524.82 318.8 505.26 318.8 467 318.8 204.02 318.8 165.74 318.8 137.81 318.8 137.81 345.83 154.82 345.83"/><circle class="c" cx="512.99" cy="221.87" r="11.53"/><rect class="b" x="50" y="181.22" width="57.04" height="214.81"/></svg>