<svg xmlns="http://www.w3.org/2000/svg" viewBox="0 0 600 600"><defs><style>.a,.b{fill:none;stroke-width:12px;}.a{stroke:#52cefd;stroke-linejoin:round;}.b{stroke:#039ae4;stroke-miterlimit:10;}.c{fill:#039ae4;}</style></defs><title>print</title><path class="a" d="M420.82,203.53V156.11l-.24-9.86A23.25,23.25,0,0,0,397.29,123L117,123.12"/><path class="a" d="M140.82,202.12l-.24-55.87a23.29,23.29,0,1,0-46.58,0v19.06l47-.19"/><polyline class="b" points="469.13 379.27 506 379.27 506 201.76 469.13 201.76 189.37 201.76 141 201.76 141 379.27 189.37 379.27"/><line class="b" x1="434.33" y1="347.62" x2="218.17" y2="347.62"/><line class="b" x1="434.33" y1="379.43" x2="218.17" y2="379.43"/><line class="b" x1="434.33" y1="411.24" x2="218.17" y2="411.24"/><line class="b" x1="241.01" y1="443.06" x2="218.17" y2="443.06"/><polyline class="a" points="466.13 315.49 466.13 347.76 466.13 379.27 466.13 427.5"/><path class="a" d="M186.37,315.49V438.25l.28,11.55a27.25,27.25,0,0,0,54.5,0V427.5l252.67.3v22A27.23,27.23,0,0,1,466.57,477H214.11"/><polyline class="b" points="472.13 337.76 485.25 337.76 485.25 315.49 469.13 315.49 437.61 315.49 220.92 315.49 189.37 315.49 166.36 315.49 166.36 337.76 180.37 337.76"/><circle class="c" cx="475.5" cy="235.62" r="9.5"/><rect class="b" x="94" y="202.12" width="47" height="177"/></svg>