<svg xmlns="http://www.w3.org/2000/svg" viewBox="0 0 600 600"><defs><style>.a,.b{fill:none;stroke-width:12px;}.a{stroke:#039ae4;stroke-miterlimit:10;}.b{stroke:#52cefd;stroke-linejoin:round;}</style></defs><title>printAlt</title><circle class="a" cx="291.75" cy="267" r="52.5"/><path class="b" d="M355.25,443V372a13.46,13.46,0,0,1,13.46-13.46h52.54a40,40,0,0,0,40-40h0v-53a20,20,0,0,0-20-20h0a20,20,0,0,0-20,20V305a13.46,13.46,0,0,1-13.46,13.46H224.25"/><circle class="a" cx="291.75" cy="267" r="52.5"/><path class="b" d="M225.75,443V372a13.46,13.46,0,0,0-13.46-13.46H162.75a40,40,0,0,1-40-40h0v-53a20,20,0,0,1,20-20h0a20,20,0,0,1,20,20V305a13.46,13.46,0,0,0,13.46,13.46h49.54"/><line class="a" x1="77" y1="461" x2="507" y2="461"/><rect class="a" x="201" y="77" width="63" height="78"/><rect class="b" x="313" y="81" width="63" height="78" transform="translate(185.75 -208.45) rotate(45)"/><rect class="a" x="435" y="147" width="63" height="78" transform="translate(5.11 384.34) rotate(-45)"/><rect class="b" x="88" y="139" width="63" height="78" transform="translate(-90.86 136.63) rotate(-45)"/></svg>