<svg xmlns="http://www.w3.org/2000/svg" viewBox="0 0 600 600"><defs><style>.a,.b{fill:none;stroke-width:12px;}.a{stroke:#039ae4;stroke-miterlimit:10;}.b{stroke:#52cefd;stroke-linejoin:round;}</style></defs><title>printAlt</title><circle class="a" cx="298.6" cy="301.6" r="58.76"/><path class="b" d="M369.68,498.58v-79.5A15.07,15.07,0,0,1,384.75,404h58.8a44.76,44.76,0,0,0,44.77-44.77h0V299.92a22.38,22.38,0,0,0-22.38-22.39h0a22.38,22.38,0,0,0-22.39,22.39v44.25a15.07,15.07,0,0,1-15.07,15.07H223.05"/><circle class="a" cx="298.6" cy="301.6" r="58.76"/><path class="b" d="M224.73,498.58v-79.5A15.07,15.07,0,0,0,209.66,404H154.21a44.76,44.76,0,0,1-44.77-44.77h0V299.92a22.38,22.38,0,0,1,22.38-22.39h0a22.38,22.38,0,0,1,22.39,22.39v44.25a15.07,15.07,0,0,0,15.07,15.07h55.45"/><line class="a" x1="58.23" y1="518.74" x2="539.53" y2="518.74"/><rect class="a" x="197.02" y="88.93" width="70.52" height="87.31"/><rect class="b" x="322.39" y="93.4" width="70.52" height="87.31" transform="translate(201.67 -212.75) rotate(45)"/><rect class="a" x="458.94" y="167.28" width="70.52" height="87.31" transform="translate(-4.4 411.23) rotate(-45)"/><rect class="b" x="70.54" y="158.32" width="70.52" height="87.31" transform="translate(-111.83 133.97) rotate(-45)"/></svg>