<svg xmlns="http://www.w3.org/2000/svg" viewBox="0 0 600 600"><defs><style>.a,.b{fill:none;stroke-width:12px;}.a{stroke:#52cefd;stroke-linejoin:round;}.b{stroke:#039be5;stroke-miterlimit:10;}</style></defs><title>proclamations</title><polyline class="a" points="403.05 382.12 428.79 486.38 376.79 475.19 335.97 509.29 313.69 419"/><polyline class="a" points="196.95 382.12 171.21 486.38 223.21 475.19 264.03 509.29 286.31 419"/><circle class="a" cx="300" cy="260.22" r="125.5"/><path class="a" d="M305.47,385.73A125.34,125.34,0,0,0,393.64,344"/><path class="b" d="M469.5,260.22,446.65,231l10-35.69-32.31-18.19-4.48-36.79-36.79-4.48-18.18-32.31-35.7,10L300,90.72l-29.18,22.85-35.7-10-18.18,32.31-36.79,4.48-4.48,36.79-32.31,18.19,10,35.69L130.5,260.22l22.85,29.18-10,35.69,32.31,18.19,4.48,36.79,16.8,2,20,2.44,18.18,32.31,35.7-10L286.31,419,300,429.72,313.69,419l15.49-12.13,35.7,10,18.18-32.31,20-2.44,16.8-2,4.48-36.79,32.31-18.19-10-35.69Z"/></svg>