<svg xmlns="http://www.w3.org/2000/svg" viewBox="0 0 600 600"><defs><style>.a,.b{fill:none;stroke-width:12px;}.a{stroke:#52cefd;stroke-linejoin:round;}.b{stroke:#039be5;stroke-miterlimit:10;}</style></defs><title>proclamations</title><polyline class="a" points="423.1 398.09 453.85 522.63 391.73 509.28 342.97 550 316.35 442.14"/><polyline class="a" points="176.9 398.09 146.16 522.63 208.27 509.28 257.03 550 283.65 442.14"/><circle class="a" cx="300" cy="252.48" r="149.92"/><path class="a" d="M306.53,402.4a149.71,149.71,0,0,0,105.33-49.88"/><path class="b" d="M502.48,252.48l-27.3-34.86L487.11,175l-38.59-21.71-5.35-43.95L399.22,104,377.5,65.36,334.86,77.3,300,50,265.14,77.3,222.5,65.36,200.78,104l-43.95,5.35-5.35,43.95L112.89,175l11.93,42.65-27.3,34.86,27.3,34.85L112.89,330l38.59,21.71,5.35,43.95,20.07,2.45,23.88,2.9,21.72,38.6,42.64-11.94,18.51,14.49L300,455l16.35-12.81,18.51-14.49,42.64,11.94L399.22,401l23.88-2.9,20.07-2.45,5.35-43.95L487.11,330l-11.93-42.65Z"/></svg>