<svg xmlns="http://www.w3.org/2000/svg" viewBox="0 0 600 600"><defs><style>.a,.b{fill:none;stroke-width:12px;}.a{stroke:#039ae4;stroke-miterlimit:10;}.b{stroke:#52cefd;stroke-linejoin:round;}</style></defs><title>projectTimeline</title><line class="a" x1="458.13" y1="129" x2="142.13" y2="129"/><line class="a" x1="141.88" y1="471" x2="457.88" y2="471"/><path class="a" d="M329.12,299.75h0a41.22,41.22,0,0,1,23.47-37.14,121.49,121.49,0,0,0,69-109.61h-243a121.5,121.5,0,0,0,69,109.61,41.21,41.21,0,0,1,23.46,37.14h0a41.21,41.21,0,0,1-23.46,37.14,121.5,121.5,0,0,0-69,109.61h243a121.49,121.49,0,0,0-69-109.61A41.22,41.22,0,0,1,329.12,299.75Z"/><path class="b" d="M304.12,299.75a66.58,66.58,0,0,1,37.66-59.68A96.59,96.59,0,0,0,362.05,227H238.2a96.59,96.59,0,0,0,20.27,13.07,66.57,66.57,0,0,1,37.65,59.68C296.12,421,209.45,412,206.9,421.5H393.35C390.8,412,304.12,421,304.12,299.75Z"/></svg>