<svg xmlns="http://www.w3.org/2000/svg" viewBox="0 0 600 600"><defs><style>.a,.b{fill:none;stroke-width:12px;}.a{stroke:#039ae4;stroke-miterlimit:10;}.b{stroke:#52cefd;stroke-linejoin:round;}</style></defs><title>projectTimeline</title><line class="a" x1="531.18" y1="50" x2="69.19" y2="50"/><line class="a" x1="68.82" y1="550" x2="530.81" y2="550"/><path class="a" d="M342.58,299.63h0a60.28,60.28,0,0,1,34.31-54.3A177.61,177.61,0,0,0,477.81,85.09H122.55A177.62,177.62,0,0,0,223.48,245.33a60.28,60.28,0,0,1,34.31,54.3h0a60.26,60.26,0,0,1-34.31,54.3A177.64,177.64,0,0,0,122.55,514.18H477.81A177.63,177.63,0,0,0,376.89,353.93,60.26,60.26,0,0,1,342.58,299.63Z"/><path class="b" d="M306,299.63a97.32,97.32,0,0,1,55.06-87.25,141,141,0,0,0,29.63-19.11H209.64a141.36,141.36,0,0,0,29.64,19.11,97.33,97.33,0,0,1,55,87.25c0,177.27-126.71,164.05-130.44,178H436.48C432.75,463.68,306,476.9,306,299.63Z"/></svg>