<svg xmlns="http://www.w3.org/2000/svg" viewBox="0 0 600 600"><defs><style>.a,.b,.d{fill:none;}.a{stroke:#63ccff;}.a,.b{stroke-miterlimit:10;stroke-width:12px;}.b{stroke:#039be5;}.c{fill:#63ccff;}</style></defs><title>recordsTaxesTreasury</title><rect class="a" x="121.58" y="210.68" width="54.64" height="162.46"/><rect class="a" x="211.74" y="210.68" width="54.64" height="162.46"/><polyline class="a" points="353.93 373.14 301.9 373.14 301.9 210.68 356.54 210.68 356.54 365.26"/><polyline class="a" points="392.06 320.57 392.06 210.68 446.7 210.68 446.7 304.57"/><line class="b" x1="351.17" y1="410.96" x2="70.51" y2="410.96"/><polyline class="b" points="353.93 373.14 301.9 373.14 83.7 373.14"/><line class="b" x1="364.72" y1="448.77" x2="57.32" y2="448.77"/><line class="b" x1="516.38" y1="210.68" x2="56.63" y2="210.68"/><polyline class="b" points="56.63 170.15 283.46 107.17 516.38 170.15"/><path class="b" d="M538.9,398.8a94.26,94.26,0,1,1-94.26-94.26A94.26,94.26,0,0,1,538.9,398.8Z"/><path class="c" d="M458.83,419.31a10.91,10.91,0,0,0-3.05-7.92c-2-2.09-5.41-4-10.15-5.64a79,79,0,0,1-11.05-4.65q-13.14-7.05-13.14-20.86,0-9.36,5.69-15.4t15.45-7.16v-12.3h9v12.41q9.81,1.41,15.16,8.32t5.36,18H458.49q0-7.11-3.19-11.19a10.37,10.37,0,0,0-8.65-4.09q-5.41,0-8.47,2.93c-2,1.95-3,4.76-3,8.4a10.53,10.53,0,0,0,3,7.87c2,2,5.42,3.84,10.23,5.61a86,86,0,0,1,11.34,4.91,28.84,28.84,0,0,1,6.93,5.16,20.35,20.35,0,0,1,4.35,6.68,23.7,23.7,0,0,1,1.52,8.85q0,9.54-5.84,15.45t-16.27,7v11h-9V441.7q-11.18-1.24-17.17-8t-6-17.93H432q0,7.11,3.59,11t10.12,3.89q6.42,0,9.78-3.1a10.67,10.67,0,0,0,3.36-8.24Z"/><circle class="b" cx="283.46" cy="160.45" r="19.82"/><rect class="d" x="55" y="100.85" width="490" height="398.31"/><rect class="d" x="55" y="100.85" width="490" height="398.31"/></svg>