<svg xmlns="http://www.w3.org/2000/svg" viewBox="0 0 600 600"><defs><style>.a,.b,.d{fill:none;}.a{stroke:#63ccff;}.a,.b{stroke-miterlimit:10;stroke-width:12px;}.b{stroke:#039be5;}.c{fill:#63ccff;}</style></defs><title>recordsTaxesTreasury</title><rect class="a" x="117.94" y="208.86" width="55.76" height="165.78"/><rect class="a" x="209.94" y="208.86" width="55.76" height="165.78"/><polyline class="a" points="355.03 374.63 301.94 374.63 301.94 208.86 357.69 208.86 357.69 366.59"/><polyline class="a" points="393.94 320.99 393.94 208.86 449.69 208.86 449.69 304.66"/><line class="b" x1="352.21" y1="413.22" x2="65.83" y2="413.22"/><polyline class="b" points="355.03 374.63 301.94 374.63 79.29 374.63"/><line class="b" x1="366.04" y1="451.81" x2="52.37" y2="451.81"/><line class="b" x1="520.8" y1="208.86" x2="51.67" y2="208.86"/><polyline class="b" points="51.67 167.5 283.12 103.23 520.8 167.5"/><path class="b" d="M543.78,400.81a96.19,96.19,0,1,1-96.18-96.18A96.19,96.19,0,0,1,543.78,400.81Z"/><path class="c" d="M462.07,421.75a11.1,11.1,0,0,0-3.11-8.08q-3.1-3.19-10.36-5.76a82,82,0,0,1-11.28-4.75q-13.4-7.19-13.4-21.29,0-9.54,5.81-15.71t15.76-7.31V346.31h9.21V359q10,1.44,15.48,8.49t5.46,18.32H461.73q0-7.25-3.26-11.42a10.6,10.6,0,0,0-8.83-4.17c-3.69,0-6.56,1-8.64,3s-3.1,4.86-3.1,8.58a10.78,10.78,0,0,0,3.08,8q3.07,3,10.44,5.72a87.15,87.15,0,0,1,11.57,5,29.4,29.4,0,0,1,7.07,5.26,20.87,20.87,0,0,1,4.44,6.82,24.18,24.18,0,0,1,1.55,9q0,9.74-6,15.77t-16.6,7.14v11.22h-9.14V444.59q-11.4-1.26-17.53-8.17t-6.12-18.29h14q0,7.25,3.65,11.22t10.33,4q6.55,0,10-3.17a10.87,10.87,0,0,0,3.43-8.4Z"/><circle class="b" cx="283.12" cy="157.6" r="20.22"/><rect class="d" x="50" y="96.78" width="500" height="406.44"/><rect class="d" x="50" y="96.78" width="500" height="406.44"/></svg>