<svg xmlns="http://www.w3.org/2000/svg" viewBox="0 0 600 600"><defs><style>.a,.b{fill:none;stroke-width:12px;}.a{stroke:#039ae4;stroke-miterlimit:10;}.b{stroke:#52cefd;stroke-linejoin:round;}</style></defs><title>recycle</title><path class="a" d="M298.78,132.53l-37.33,66.14-39.86-23-.61-.36L180.2,151.76l.15-.27a65.9,65.9,0,0,1,57.26-33.29H307.9"/><path class="a" d="M462.94,363.14l-37.37-64.9,39.85-23,.61-.35,40.78-23.55h0a65.87,65.87,0,0,1,.36,66.5l-22.28,38.6-.05.09L472,378.7"/><path class="a" d="M191.94,391.81l75.46-.35v93.81h-.31a65.89,65.89,0,0,1-57.46-32.94l-22.28-38.6v-.09l-12.87-22.18"/><path class="b" d="M505.59,321.45,428.92,453.84a65.88,65.88,0,0,1-57.34,32.87h-.06v34.11l-33.87-34.11L290.9,439.63l-.35-.35.35-.36,45.69-46,34.93-35.18v35.18h.53a153.41,153.41,0,0,0,111.74-48.3Z"/><path class="b" d="M327.44,118.2h70.17a65.89,65.89,0,0,1,57.07,33l.16.27,29.54-17-12.6,46.38-17.41,64-.13.47-.48-.12-62.7-16.57-47.93-12.65,30.46-17.59v0a153.45,153.45,0,0,0-98.43-72.92l-31.09-7.18h83.38"/><path class="b" d="M165.2,374.87l41.43,71.66L197.51,417a153.37,153.37,0,0,1,14-122.5h0l30.46,17.59-13-47.84-17-62.58-.12-.48-.49.13-64.15,16.94-46.47,12.28,29.54,17.06h0a65.89,65.89,0,0,0-.15,66.16l35.14,60.86"/></svg>