<svg xmlns="http://www.w3.org/2000/svg" viewBox="0 0 600 600"><defs><style>.a,.b{fill:none;stroke-width:12px;}.a{stroke:#039ae4;stroke-miterlimit:10;}.b{stroke:#52cefd;stroke-linejoin:round;}</style></defs><title>recycle</title><path class="a" d="M288.49,74.9l-44.94,79.62-48-27.7-.74-.43L145.74,98.05l.18-.32a79.33,79.33,0,0,1,68.93-40.09h84.62"/><path class="a" d="M486.13,352.53l-45-78.14,48-27.7.73-.43,49.1-28.34h0a79.28,79.28,0,0,1,.43,80.05l-26.82,46.47-.07.11-15.42,26.71"/><path class="a" d="M159.87,387l90.84-.43v113h-.38a79.29,79.29,0,0,1-69.17-39.65l-26.83-46.47v-.11l-15.48-26.71"/><path class="b" d="M537.46,302.33,445.17,461.72a79.33,79.33,0,0,1-69,39.57h-.07v41.07l-40.78-41.07L279,444.6l-.42-.42.42-.42,55-55.4L376.07,346v42.35h.63a184.73,184.73,0,0,0,134.53-58.14Z"/><path class="b" d="M323,57.64h84.47a79.34,79.34,0,0,1,68.71,39.68l.19.32,35.56-20.53L496.76,133,475.8,210l-.15.57-.58-.14-75.48-20-57.71-15.23,36.68-21.17,0,0A184.69,184.69,0,0,0,260,66.29l-37.43-8.65H323"/><path class="b" d="M127.68,366.64l49.88,86.27-11-35.51a184.74,184.74,0,0,1,16.8-147.47h0L220,291.1l-15.65-57.59-20.47-75.34-.16-.58-.58.16L106,178.14,50,192.93l35.56,20.53h0a79.37,79.37,0,0,0-.19,79.66l42.31,73.27"/></svg>