<svg xmlns="http://www.w3.org/2000/svg" viewBox="0 0 600 600"><defs><style>.a,.b,.c{fill:none;stroke-linejoin:round;stroke-width:12px;}.a{stroke:#039ae4;}.b,.c{stroke:#52cefd;}.b{stroke-linecap:round;}.d{fill:#52cefd;}</style></defs><title>registrationTag</title><path class="a" d="M365.56,384.9a31.29,31.29,0,0,0,2.78-5.11A37,37,0,0,0,299.9,351.6a37,37,0,0,0-68.45,28.19,31.42,31.42,0,0,0,2.79,5.11l12,14.87c20,21.91,52.31,49.44,53.62,50.56,0,0,0,0,0,0s0,0,0,0c1.32-1.12,33.62-28.65,53.62-50.56Z"/><path class="b" d="M201.38,228.33h0c28.39-4.39,62.28-6.93,98.7-6.93a702.07,702.07,0,0,1,77.58,4.12q11,1.23,21.17,2.81h0"/><path class="a" d="M290.32,235.21c2.41-12.61,5.81-20.45,9.58-20.45s7.16,7.84,9.57,20.45c2.29,11.91,3.69,28.07,3.69,45.88a296.89,296.89,0,0,1-1.56,31.27c-2.24,20.87-6.64,35.06-11.7,35.06s-9.47-14.19-11.7-35.07"/><path class="c" d="M299.9,235.27a38.59,38.59,0,1,1,0,77.18"/><path class="c" d="M195,314.86V227.29h0c29.62,5,65.92,8,105.12,8C400,235.27,481,216.1,481,192.45s-81-42.81-180.9-42.81S119.21,168.8,119.21,192.45c0,11.67,19.7,22.24,51.65,30"/><polyline class="c" points="223.92 224.41 223.92 206.32 194.98 201.5 170.86 206.32 170.86 316.07 194.98 322.1 223.92 307.63"/><circle class="d" cx="227.54" cy="270.24" r="7.24"/><circle class="d" cx="260.1" cy="273.86" r="7.24"/><circle class="d" cx="293.87" cy="273.86" r="7.24"/><path class="c" d="M170.86,299.59c-32-7.72-51.65-18.29-51.65-29.95L119,194.26"/><path class="c" d="M195,304.48c8.64,1.47,17.86,2.76,27.54,3.84a699.79,699.79,0,0,0,77.58,4.13c99.91,0,180.9-19.16,180.9-42.81l-.21-75.38"/><path class="a" d="M299.9,214.76c3.76,0,7.16,7.84,9.57,20.45,2.29,11.91,3.69,28.07,3.69,45.88a296.89,296.89,0,0,1-1.56,31.27c-2.24,20.87-6.64,35.06-11.7,35.06"/></svg>