<svg xmlns="http://www.w3.org/2000/svg" viewBox="0 0 600 600"><defs><style>.a,.b,.c{fill:none;stroke-linejoin:round;stroke-width:12px;}.a{stroke:#039ae4;}.b,.c{stroke:#52cefd;}.b{stroke-linecap:round;}.d{fill:#52cefd;}</style></defs><title>registrationTag</title><path class="a" d="M390.55,417.26a42.57,42.57,0,0,0,3.84-7.05,51.12,51.12,0,0,0-94.53-38.94,51.12,51.12,0,0,0-94.54,38.94,42.7,42.7,0,0,0,3.85,7.05l16.59,20.55c27.63,30.26,72.24,68.28,74.07,69.83q0,.06,0,0s0,0,0,0c1.82-1.55,46.44-39.57,74.06-69.83Z"/><path class="b" d="M163.79,201h0c39.21-6.06,86-9.58,136.32-9.58a969.11,969.11,0,0,1,107.16,5.7q15.21,1.69,29.23,3.88h0"/><path class="a" d="M286.63,210.5c3.33-17.4,8-28.23,13.23-28.23s9.89,10.83,13.22,28.23c3.17,16.46,5.1,38.78,5.1,63.39A410.53,410.53,0,0,1,316,317.08c-3.09,28.81-9.17,48.42-16.16,48.42s-13.08-19.61-16.16-48.44"/><path class="c" d="M299.86,210.59a53.3,53.3,0,1,1,0,106.6"/><path class="c" d="M154.94,320.53V199.58h0c40.91,6.93,91.05,11,145.2,11,138,0,249.86-26.47,249.86-59.14S438.13,92.32,300.14,92.32,50.28,118.79,50.28,151.45c0,16.11,27.22,30.72,71.35,41.38"/><polyline class="c" points="194.92 195.6 194.92 170.61 154.94 163.95 121.63 170.61 121.63 322.19 154.94 330.52 194.92 310.53"/><circle class="d" cx="199.92" cy="258.89" r="9.99"/><circle class="d" cx="244.89" cy="263.89" r="9.99"/><circle class="d" cx="291.53" cy="263.89" r="9.99"/><path class="c" d="M121.63,299.44c-44.13-10.66-71.35-25.27-71.35-41.38L50,154"/><path class="c" d="M154.94,306.18c11.94,2,24.67,3.82,38.05,5.32a968.91,968.91,0,0,0,107.15,5.69c138,0,249.86-26.46,249.86-59.13L549.72,154"/><path class="a" d="M299.86,182.27c5.2,0,9.89,10.83,13.22,28.23,3.17,16.46,5.1,38.78,5.1,63.39A410.53,410.53,0,0,1,316,317.08c-3.09,28.81-9.17,48.42-16.16,48.42"/></svg>