<svg xmlns="http://www.w3.org/2000/svg" viewBox="0 0 600 600"><defs><style>.a,.b{fill:none;stroke-linejoin:round;stroke-width:12px;}.a{stroke:#52cefd;}.b{stroke:#039ae4;}.c{fill:#039ae4;}</style></defs><title>rental</title><path class="a" d="M278.71,331.75a46.5,46.5,0,0,0-76.42,0"/><circle class="b" cx="240.5" cy="277.75" r="34"/><path class="a" d="M398.71,331.75a46.5,46.5,0,0,0-76.42,0"/><circle class="b" cx="360.5" cy="277.75" r="34"/><path class="b" d="M166.62,331.75H434.38A29.62,29.62,0,0,1,464,361.37v82.38a0,0,0,0,1,0,0H137a0,0,0,0,1,0,0V361.37A29.62,29.62,0,0,1,166.62,331.75Z"/><polygon class="b" points="437 331.75 164 331.75 184 218.75 417 218.75 437 331.75"/><polyline class="b" points="155 481.75 155 526.75 210 526.75 210 481.75"/><polyline class="b" points="392 481.75 392 526.75 447 526.75 447 481.75"/><circle class="a" cx="192" cy="386.75" r="28"/><circle class="a" cx="409" cy="386.75" r="28"/><line class="b" x1="252" y1="358.75" x2="348" y2="358.75"/><line class="b" x1="252" y1="386.75" x2="348" y2="386.75"/><line class="b" x1="252" y1="414.75" x2="348" y2="414.75"/><path class="b" d="M292.18,142.75a52.5,52.5,0,1,1,0-34H401l10,17-10,20-20.53-10-20.54,10-20.53-10-20.53,10Z"/><circle class="c" cx="216" cy="128.75" r="8.5"/><line class="a" x1="130.5" y1="465.75" x2="469.5" y2="465.75"/></svg>