<svg xmlns="http://www.w3.org/2000/svg" viewBox="0 0 600 600"><defs><style>.a{fill:none;stroke:#52cefd;stroke-miterlimit:10;stroke-width:12px;}.b{fill:#039ae4;}</style></defs><title>requestAssistance</title><path class="a" d="M121.71,252.38A184.77,184.77,0,0,1,252.38,121.71M121.71,347.62A184.77,184.77,0,0,0,252.38,478.29m95.24-356.58A184.77,184.77,0,0,1,478.29,252.38M347.62,478.29A184.77,184.77,0,0,0,478.29,347.62"/><path class="b" d="M300,109a191.65,191.65,0,0,1,47.62,6V235.43a80.23,80.23,0,0,0-95.24,0V115A191.65,191.65,0,0,1,300,109m0-12a203.8,203.8,0,0,0-50.6,6.36,12,12,0,0,0-9,11.62V235.43a12,12,0,0,0,19.13,9.65,68.24,68.24,0,0,1,81,0,12,12,0,0,0,19.13-9.65V115a12,12,0,0,0-9-11.62A203.8,203.8,0,0,0,300,97Z"/><path class="b" d="M347.62,364.57V485a192.59,192.59,0,0,1-95.24,0V364.57a80.23,80.23,0,0,0,95.24,0m0-12a12,12,0,0,0-7.13,2.35,68.24,68.24,0,0,1-81,0,12,12,0,0,0-19.13,9.65V485a12,12,0,0,0,9,11.62,204.47,204.47,0,0,0,101.2,0,12,12,0,0,0,9-11.62V364.57a12,12,0,0,0-12-12Z"/><path class="b" d="M235.43,252.38h0m0,0a80.23,80.23,0,0,0,0,95.24H115a192.59,192.59,0,0,1,0-95.24H235.43m0-12H115a12,12,0,0,0-11.62,9,204.47,204.47,0,0,0,0,101.2,12,12,0,0,0,11.62,9H235.43a12,12,0,0,0,9.65-19.13,68.23,68.23,0,0,1-.11-80.82,12,12,0,0,0-9.53-19.29Zm0,24h0Z"/><path class="b" d="M485,252.38a192.59,192.59,0,0,1,0,95.24H364.57a80.23,80.23,0,0,0,0-95.24H485m0-12H364.57a12,12,0,0,0-9.65,19.13,68.24,68.24,0,0,1,0,81,12,12,0,0,0,9.65,19.13H485a12,12,0,0,0,11.62-9,204.47,204.47,0,0,0,0-101.2,12,12,0,0,0-11.62-9Z"/></svg>