<svg xmlns="http://www.w3.org/2000/svg" viewBox="0 0 600 600"><defs><style>.a,.b{fill:none;stroke-miterlimit:10;stroke-width:12px;}.a{stroke:#52cefd;}.b{stroke:#039ae4;}</style></defs><title>ryanWhite</title><path class="a" d="M218.13,392.3c-6-7.62-20.54-26.39-35.41-48.81-34.09-51.38-49.28-90.63-49.28-127.25C133.44,124.58,208,50,299.68,50s166.25,74.58,166.25,166.24c0,36.62-15.19,75.87-49.28,127.25-18.35,27.68-36.17,49.78-38.15,52.22l-11.13,13.72"/><polyline class="b" points="232.3 409.8 233.06 410.74 233.15 410.84"/><path class="a" d="M364.4,216.24c0,35.75-64.72,115.49-64.72,115.49S235,252,235,216.24a64.72,64.72,0,1,1,129.44,0Z"/><polyline class="a" points="232.3 409.8 232.27 409.83 110.64 550 246.09 550 297.77 490.46 300 487.88"/><polyline class="b" points="218.13 392.3 218.13 392.83 232.27 409.83 233.15 410.84 300 487.88 301.9 490.08 353.91 550 489.37 550 367.73 409.83 367.37 409.43 300 331.8 299.81 331.57 296.94 328.29 296.9 328.22"/><path class="b" d="M218.13,392.3v.53l14.14,17,.88,1,66.85,77,1.9,2.2,52,59.92H489.37L367.73,409.84l-.36-.41-49.68-57.25c-22.47-25.9-45-53.91-61.77-83.82-9.7-17.31-18.72-35.89-23.5-52.12C213.39,151.52,233.69,50,299.68,50,208,50,133.44,124.58,133.44,216.24c0,36.62,15.19,75.87,49.28,127.25,14.87,22.42,29.39,41.19,35.41,48.81"/></svg>