<svg xmlns="http://www.w3.org/2000/svg" viewBox="0 0 600 600"><defs><style>.a,.b{fill:none;stroke-width:12px;}.a{stroke:#52cefd;stroke-miterlimit:10;}.b{stroke:#039ae4;stroke-linejoin:round;}</style></defs><title>shoppingGuide</title><polyline class="a" points="358.31 550 125.07 550 125.07 50 474.93 50 474.93 433.38"/><rect class="a" x="165.28" y="121.05" width="46.92" height="45.58"/><rect class="a" x="165.28" y="205.5" width="46.92" height="45.58"/><rect class="a" x="165.28" y="289.95" width="46.92" height="45.58"/><rect class="a" x="165.28" y="374.4" width="46.92" height="45.58"/><rect class="a" x="165.28" y="458.85" width="46.92" height="45.58"/><polygon class="b" points="358.31 550 358.31 433.38 474.93 433.38 358.31 550"/><line class="a" x1="252.41" y1="143.83" x2="434.72" y2="143.83"/><line class="a" x1="252.41" y1="228.28" x2="434.72" y2="228.28"/><line class="a" x1="252.41" y1="312.73" x2="434.72" y2="312.73"/><line class="a" x1="252.41" y1="397.18" x2="434.72" y2="397.18"/><line class="a" x1="252.41" y1="481.64" x2="350.27" y2="481.64"/><polyline class="b" points="165.78 124.23 189.58 148.02 237.16 100.44"/><polyline class="b" points="165.78 208.68 189.58 232.47 237.16 184.89"/></svg>