<svg xmlns="http://www.w3.org/2000/svg" viewBox="0 0 600 600"><defs><style>.a,.b{fill:none;stroke-width:12px;}.a{stroke:#52cefd;stroke-miterlimit:10;}.b{stroke:#039ae4;stroke-linejoin:round;}</style></defs><title>shoppingGuide</title><polyline class="a" points="341 468 167 468 167 95 428 95 428 381"/><rect class="a" x="197" y="148" width="35" height="34"/><rect class="a" x="197" y="211" width="35" height="34"/><rect class="a" x="197" y="274" width="35" height="34"/><rect class="a" x="197" y="337" width="35" height="34"/><rect class="a" x="197" y="400" width="35" height="34"/><polygon class="b" points="341 468 341 381 428 381 341 468"/><line class="a" x1="262" y1="165" x2="398" y2="165"/><line class="a" x1="262" y1="228" x2="398" y2="228"/><line class="a" x1="262" y1="291" x2="398" y2="291"/><line class="a" x1="262" y1="354" x2="398" y2="354"/><line class="a" x1="262" y1="417" x2="335" y2="417"/><polyline class="b" points="197.38 150.38 215.13 168.13 250.63 132.63"/><polyline class="b" points="197.38 213.38 215.13 231.13 250.63 195.63"/></svg>