<svg xmlns="http://www.w3.org/2000/svg" viewBox="0 0 600 600"><defs><style>.a,.b{fill:none;stroke-linejoin:round;stroke-width:12px;}.a{stroke:#039ae4;}.b{stroke:#52cefd;}</style></defs><title>spayNeuter</title><line class="a" x1="153.66" y1="550" x2="468.29" y2="550"/><path class="b" d="M214.39,211.21h0A131.26,131.26,0,0,1,330.49,187.6"/><path class="b" d="M426.79,311.51c0,.83,0,1.67,0,2.51a130.72,130.72,0,0,1-2.81,27.1v.08h0"/><path class="b" d="M424,341.12v.08L407.15,529.54A23,23,0,0,1,384.3,550h0a23,23,0,0,1-22.85-25.59l7.38-101.54a130.84,130.84,0,0,1-29.74,14.91l-6.28,91.82A23,23,0,0,1,310,550h-2.82a23,23,0,0,1-23-23V444.61a130.32,130.32,0,0,1-42.69-11.22V527a23,23,0,0,1-23,23h-3.8A23,23,0,0,1,192,530.71L164.63,326.83l.69.71"/><path class="b" d="M214.4,211.21h0a64,64,0,1,1,79.25-75.57,17.26,17.26,0,0,0,16.78,13.75h1.18a17.13,17.13,0,0,0,16.71-20.77A99.41,99.41,0,0,0,228.67,50c-53.93,1.29-97.37,46.2-97,100.14a99.39,99.39,0,0,0,56.47,88.89,130.38,130.38,0,0,0-23.55,75,134,134,0,0,0,.69,13.52"/><path class="b" d="M468.29,219.51V170.73L419.51,212.2H379.27l-48.78-41.47v87.2c0,24.53,28.64,46.07,49,58.28a38.74,38.74,0,0,0,39.82,0c20.35-12.21,49-33.75,49-58.28Z"/></svg>