<svg xmlns="http://www.w3.org/2000/svg" viewBox="0 0 600 600"><defs><style>.a,.b{fill:none;stroke-linejoin:round;stroke-width:12px;}.a{stroke:#039ae4;}.b{stroke:#52cefd;}</style></defs><title>spayNeuter</title><line class="a" x1="180" y1="505" x2="438" y2="505"/><path class="b" d="M229.8,227.19h0A107.62,107.62,0,0,1,325,207.83"/><path class="b" d="M404,309.44c0,.68,0,1.37,0,2.06a107.71,107.71,0,0,1-2.3,22.22v.06h0"/><path class="b" d="M401.7,333.72v.06L387.86,488.23A18.85,18.85,0,0,1,369.12,505h0a18.85,18.85,0,0,1-18.73-21l6.05-83.26A106.93,106.93,0,0,1,332.05,413l-5.15,75.29A18.85,18.85,0,0,1,308.17,505h-2.31A18.85,18.85,0,0,1,287,486.14V418.58a106.72,106.72,0,0,1-35-9.2v76.76A18.85,18.85,0,0,1,233.14,505H230a18.86,18.86,0,0,1-18.61-15.82L189,322l.56.58"/><path class="b" d="M229.81,227.19h0a52.51,52.51,0,1,1,65-62,14.15,14.15,0,0,0,13.75,11.27h1a14.06,14.06,0,0,0,13.71-17A81.54,81.54,0,0,0,241.51,95c-44.22,1.06-79.85,37.89-79.51,82.12A81.49,81.49,0,0,0,208.31,250,106.89,106.89,0,0,0,189,311.5a109.6,109.6,0,0,0,.56,11.08"/><path class="b" d="M438,234V194l-40,34H365l-40-34v71.5c0,20.12,23.49,37.78,40.18,47.79a31.74,31.74,0,0,0,24.72,3.39,31.34,31.34,0,0,0,7.92-3.39c16.69-10,40.18-27.67,40.18-47.79Z"/></svg>