<svg xmlns="http://www.w3.org/2000/svg" viewBox="0 0 600 600"><defs><style>.a,.c{fill:none;stroke-linejoin:round;stroke-width:12px;}.a{stroke:#52cefd;}.b{fill:#52cefd;}.c{stroke:#039ae4;stroke-linecap:round;}</style></defs><title>streets</title><line class="a" x1="185" y1="174" x2="491" y2="174"/><path class="b" d="M339.79,426.23a93,93,0,0,0-4.51-8.73c-1.69-2.9-3.5-5.78-5.38-8.64-3.77-5.72-7.81-11.34-11.95-16.89l8.74-6.69c4.36,5.58,8.65,11.25,12.74,17.14,2,2.95,4,5.95,5.94,9.06a103.13,103.13,0,0,1,5.36,9.83Z"/><polygon class="b" points="299.54 368.5 272.51 336.56 279.43 330.37 307.43 361.9 299.54 368.5"/><polygon class="b" points="252.64 314.17 224.24 283.35 229.68 278.08 258.94 308.36 252.64 314.17"/><path class="b" d="M244.65,257.85c6-3.73,12.15-7.22,18.32-10.62s12.37-6.68,18.61-9.89l2.75,5.17c-6.12,3.35-12.21,6.75-18.23,10.26s-12,7.09-17.77,10.86Z"/><path class="b" d="M308.5,223.91l12.06-5.75-.24.13a2.36,2.36,0,0,0,1.12-1.25,1.33,1.33,0,0,0-.38-1.26,2.48,2.48,0,0,0-.36-.37l-.22-.18-.35-.26-1.41-1c-1-.66-1.93-1.31-2.92-1.93a132.76,132.76,0,0,0-12.31-6.87l1.8-3.74a140.2,140.2,0,0,1,12.88,6.79c1,.63,2.08,1.29,3.11,2l1.53,1,.38.26.48.37a8.44,8.44,0,0,1,.92.88,6.53,6.53,0,0,1,1.36,2.41,5.86,5.86,0,0,1,.11,3,6.26,6.26,0,0,1-1.25,2.56,8.2,8.2,0,0,1-1.91,1.7l-.08,0-.17.09-11.86,6Z"/><path class="b" d="M276,194a335.5,335.5,0,0,0-40.44-10.55l.45-2.39a337.54,337.54,0,0,1,41,9.68Z"/><path class="b" d="M206,178.6c-13.86-1.81-77.3-3-91.27-3.83v-.72c14,.45,77.53,1.36,91.47,2.84Z"/><path class="c" d="M491.26,423.27c0-59-177-130.5-177-146.93,0-12.14,45.65-40.29,65.77-52.12a5.91,5.91,0,0,0-.31-10.58c-22.72-11.85-88.31-39.87-178.27-39.87H114.72c61,0,132.06,19,148.88,45.08C268,225.61,162.21,255.3,119,281.41c-11.73,7.09-13.77,22-4.3,31.42C134.83,332.91,170,375,170,423.27"/></svg>