<svg xmlns="http://www.w3.org/2000/svg" viewBox="0 0 600 600"><defs><style>.a,.c{fill:none;stroke-linejoin:round;stroke-width:12px;}.a{stroke:#52cefd;}.b{fill:#52cefd;}.c{stroke:#039ae4;stroke-linecap:round;}</style></defs><title>streets</title><line class="a" x1="149.68" y1="135.3" x2="549.66" y2="135.3"/><path class="b" d="M352,465a119.21,119.21,0,0,0-5.9-11.41c-2.2-3.79-4.57-7.56-7-11.3-4.93-7.47-10.2-14.81-15.61-22.08l11.41-8.74c5.71,7.3,11.31,14.71,16.66,22.41,2.66,3.85,5.27,7.77,7.76,11.85a132.69,132.69,0,0,1,7,12.83Z"/><polygon class="b" points="299.4 389.53 264.06 347.79 273.12 339.7 309.71 380.91 299.4 389.53"/><polygon class="b" points="238.09 318.53 200.97 278.23 208.08 271.35 246.32 310.92 238.09 318.53"/><path class="b" d="M227.65,244.9c7.89-4.87,15.89-9.44,23.94-13.88s16.18-8.72,24.34-12.93l3.59,6.76q-12,6.57-23.83,13.41c-7.87,4.58-15.66,9.27-23.23,14.2Z"/><path class="b" d="M311.1,200.54,326.88,193l-.32.18a3.08,3.08,0,0,0,1.47-1.64,1.8,1.8,0,0,0-.5-1.65,5.23,5.23,0,0,0-.47-.48l-.29-.24-.46-.33-1.85-1.32q-1.86-1.29-3.8-2.52a173.91,173.91,0,0,0-16.1-9l2.35-4.88A180.43,180.43,0,0,1,323.75,180c1.36.83,2.72,1.68,4.06,2.56l2,1.36.5.34.63.49a10,10,0,0,1,1.2,1.15,8.44,8.44,0,0,1,1.78,3.15,7.5,7.5,0,0,1,.14,3.88,8.2,8.2,0,0,1-1.63,3.35,11,11,0,0,1-2.5,2.22l-.09.07-.23.11-15.51,7.85Z"/><path class="b" d="M268.57,161.43a442.61,442.61,0,0,0-52.85-13.8l.58-3.12a443,443,0,0,1,53.64,12.66Z"/><path class="b" d="M177.12,141.31c-18.12-2.37-101.05-4-119.31-5v-.93c18.3.59,101.34,1.77,119.57,3.71Z"/><path class="c" d="M550,461.13c0-77.06-231.31-170.58-231.31-192.06,0-15.86,59.67-52.67,86-68.12,5.62-3.3,5.4-10.8-.4-13.83-29.71-15.5-115.43-52.12-233-52.12H57.81c79.79,0,172.63,24.82,194.61,58.92,5.7,8.85-132.53,47.66-189,81.78-15.32,9.26-18,28.71-5.62,41.07C84.1,343,130.1,398,130.1,461.13"/></svg>