<svg xmlns="http://www.w3.org/2000/svg" viewBox="0 0 600 600"><defs><style>.a,.b{fill:none;stroke-linejoin:round;stroke-width:12px;}.a{stroke:#52cefd;}.b{stroke:#039ae4;}</style></defs><title>subscription</title><line class="a" x1="133.14" y1="164.71" x2="56.68" y2="216.32"/><polyline class="a" points="239.04 93.22 303.08 50 365.84 93.45"/><polyline class="a" points="139.35 216.32 56.68 216.32 56.68 216.34 56.68 549.94 56.77 549.94 542.99 549.94 542.99 549.76 542.99 216.56 542.99 216.32 466.6 216.32"/><polyline class="a" points="56.67 216.32 56.68 216.32 56.68 216.34 302.62 383.36 302.63 383.37 303.02 383.63 303.08 383.68 542.99 216.56 543.33 216.32 473.33 167.86"/><path class="b" d="M461,226.13a75,75,0,0,0,6.71-12.3A89.08,89.08,0,0,0,303,146a89.08,89.08,0,0,0-164.73,67.85,75,75,0,0,0,6.71,12.3l28.91,35.79c48.14,52.74,125.88,119,129.06,121.7,0,.05,0,.07.05,0s0,0,.06,0c3.17-2.71,80.92-69,129.06-121.7Z"/><polyline class="a" points="56.67 550 303.08 383.68 543.33 550"/></svg>