<svg xmlns="http://www.w3.org/2000/svg" viewBox="0 0 600 600"><defs><style>.a,.b{fill:none;stroke-linejoin:round;stroke-width:12px;}.a{stroke:#52cefd;}.b{stroke:#039ae4;}</style></defs><title>subscription</title><line class="a" x1="164.18" y1="189.88" x2="101.94" y2="231.89"/><polyline class="a" points="250.38 131.68 302.51 96.5 353.6 131.87"/><polyline class="a" points="169.23 231.89 101.94 231.89 101.94 231.9 101.94 503.45 102.01 503.45 497.79 503.45 497.79 503.31 497.79 232.08 497.79 231.89 435.61 231.89"/><polyline class="a" points="101.93 231.89 101.94 231.89 101.94 231.9 302.13 367.85 302.14 367.86 302.46 368.08 302.51 368.11 497.79 232.08 498.07 231.89 441.09 192.44"/><path class="b" d="M431.06,239.87a61.17,61.17,0,0,0,5.45-10,72.51,72.51,0,0,0-134.09-55.23,72.51,72.51,0,0,0-134.09,55.23,60.55,60.55,0,0,0,5.46,10L197.32,269c39.19,42.93,102.47,96.86,105.06,99.06,0,.05,0,.06,0,0s0,0,.05,0c2.58-2.2,65.86-56.13,105-99.06Z"/><polyline class="a" points="101.93 503.5 302.51 368.11 498.07 503.5"/></svg>