<svg xmlns="http://www.w3.org/2000/svg" viewBox="0 0 600 600"><defs><style>.a,.b{fill:none;stroke-linejoin:round;stroke-width:12px;}.a{stroke:#039ae4;}.b{stroke:#52cefd;stroke-linecap:round;}</style></defs><title>suggestions</title><path class="a" d="M510.32,276.73c-.29-.17-.59-.31-.88-.45"/><path class="a" d="M510.32,276.73c-.29-.17-.59-.31-.88-.45"/><path class="a" d="M444.54,550a144,144,0,0,0,64.9-15.35A144.69,144.69,0,0,1,431.25,426a210.44,210.44,0,0,0,79.07-149.29q0-.47.06-.93.54-7.38.53-14.89C510.91,144.42,416.49,50,300,50S89.09,144.42,89.09,260.91,183.51,471.83,300,471.83q8,0,15.81-.59A144.54,144.54,0,0,0,444.54,550"/><path class="a" d="M510.38,275.8c-.32.16-.63.31-.94.48"/><circle class="b" cx="207.08" cy="262.39" r="29.5"/><circle class="b" cx="300" cy="262.39" r="29.5"/><circle class="b" cx="392.92" cy="262.39" r="29.5"/></svg>