<svg xmlns="http://www.w3.org/2000/svg" viewBox="0 0 600 600"><defs><style>.a,.b{fill:none;stroke-width:12px;}.a{stroke:#039ae4;stroke-miterlimit:10;}.b{stroke:#52cefd;stroke-linejoin:round;}</style></defs><title>sustainability</title><path class="a" d="M421.46,320.11c-3.91-10.68-8.36-21.89-13.2-33.4C367.93,190.79,301,74.45,301,74.45s-41,71.21-78.11,148.14"/><path class="a" d="M163.91,382.72c.09,5.39.48,18.7,1.18,23.91v.05a137.12,137.12,0,0,0,271.8,0v0a138.09,138.09,0,0,0,1.2-18.18,86.17,86.17,0,0,0-.85-11.46"/><polyline class="b" points="84 364 145.11 364 164 364 214.88 238 274 466 322 223 379 377 426 337 433 361 516 361"/></svg>