<svg xmlns="http://www.w3.org/2000/svg" viewBox="0 0 600 600"><defs><style>.a,.b,.c{fill:none;stroke-width:12px;}.a,.b{stroke:#039ae4;}.a,.c{stroke-linejoin:round;}.b{stroke-miterlimit:10;}.c{stroke:#52cefd;}</style></defs><title>sustainability copy</title><path class="a" d="M50.55,103.13l4.91,201.28h98.19s54-7.36,54-51.55-34.37-54-34.37-54,29.46-9.82,29.46-44.19-34.36-51.54-49.09-51.54Z"/><path class="a" d="M109.46,147.31v31.91H129.1s12.27-4.91,12.27-17.18-12.27-14.73-12.27-14.73Z"/><path class="b" d="M109.46,225.86v31.91H129.1s12.27-4.91,12.27-17.18-12.27-14.73-12.27-14.73Z"/><path class="a" d="M340.58,311.69c12.48-1.85,25.91-5.42,31.72-12.2l4.08-58.05s-17.31,19.35-45.83,20.37-55-28.51-55-57,21.38-57,55-57S372.3,167.1,372.3,167.1l-4.07-58s-21.39-13.24-43.79-13.24-110,2-110,107.94c0,56.71,28.61,84.22,55.19,97.55"/><polygon class="a" points="397.76 102.95 397.76 304.58 520.99 304.58 539.32 254.68 459.88 253.66 459.88 102.95 397.76 102.95"/><polygon class="c" points="50.5 324.95 103.45 496.04 141.13 404.38 178.81 496.04 247.04 319.86 196.13 319.86 176.78 386.05 148.26 316.8 113.64 391.14 95.31 321.89 50.5 324.95"/><polygon class="c" points="352.95 324.95 405.91 496.04 443.59 404.38 481.27 496.04 549.5 319.86 498.58 319.86 479.23 386.05 450.72 316.8 416.09 391.14 397.76 321.89 352.95 324.95"/><path class="c" d="M237.74,319.86a87.46,87.46,0,0,1,31.91-18.55,81.2,81.2,0,0,1,24.75-3.86,82.69,82.69,0,0,1,46.18,14.24,92.37,92.37,0,0,1,15.51,13.05"/><path class="c" d="M383.38,423.25c-9,46.31-45.44,80.93-89,80.93-42.7,0-78.54-33.3-88.44-78.25h0"/><ellipse class="c" cx="294.4" cy="400.82" rx="45.32" ry="51.39"/></svg>