<svg xmlns="http://www.w3.org/2000/svg" viewBox="0 0 600 600"><defs><style>.a,.b{fill:none;stroke-width:12px;}.a{stroke:#039ae4;stroke-miterlimit:10;}.b{stroke:#52cefd;stroke-linejoin:round;}</style></defs><title>sustainability</title><path class="a" d="M434.62,322.29c-4.33-11.84-9.26-24.27-14.62-37C375.29,179,301.1,50,301.1,50s-45.41,78.93-86.58,164.2"/><path class="a" d="M149.16,391.69c.1,6,.53,20.72,1.31,26.5v.05a152,152,0,0,0,301.26,0v0A154.06,154.06,0,0,0,453.06,398a95.56,95.56,0,0,0-.94-12.7"/><polyline class="b" points="60.59 370.94 128.32 370.94 149.26 370.94 205.65 231.28 271.18 484 324.38 214.65 387.56 385.35 439.66 341.01 447.42 367.61 539.41 367.61"/></svg>