<svg xmlns="http://www.w3.org/2000/svg" viewBox="0 0 600 600"><defs><style>.a,.b,.c{fill:none;stroke-width:12px;}.a,.b{stroke:#039ae4;}.a,.c{stroke-linejoin:round;}.b{stroke-miterlimit:10;}.c{stroke:#52cefd;}</style></defs><title>sustainability copy</title><path class="a" d="M55.05,106.68l4.82,197.65h96.42s53-7.23,53-50.62-33.75-53-33.75-53,28.92-9.64,28.92-43.38-33.74-50.62-48.2-50.62Z"/><path class="a" d="M112.9,150.06V181.4h19.28s12-4.82,12-16.87-12-14.47-12-14.47Z"/><path class="b" d="M112.9,227.2v31.33h19.28s12-4.82,12-16.87-12-14.46-12-14.46Z"/><path class="a" d="M339.85,311.48c12.25-1.82,25.44-5.32,31.15-12l4-57s-17,19-45,20-54-28-54-56,21-56,54-56,41,19,41,19l-4-57s-21-13-43-13-108,2-108,106c0,55.68,28.1,82.7,54.2,95.79"/><polygon class="a" points="396 106.5 396 304.5 517 304.5 535 255.5 457 254.5 457 106.5 396 106.5"/><polygon class="c" points="55 324.5 107 492.5 144 402.5 181 492.5 248 319.5 198 319.5 179 384.5 151 316.5 117 389.5 99 321.5 55 324.5"/><polygon class="c" points="352 324.5 404 492.5 441 402.5 478 492.5 545 319.5 495 319.5 476 384.5 448 316.5 414 389.5 396 321.5 352 324.5"/><path class="c" d="M238.86,319.5a85.8,85.8,0,0,1,31.34-18.21,79.59,79.59,0,0,1,24.3-3.79,81.18,81.18,0,0,1,45.35,14,90.75,90.75,0,0,1,15.23,12.81"/><path class="c" d="M381.88,421C373,466.5,337.26,500.5,294.5,500.5c-41.93,0-77.12-32.7-86.84-76.84h0"/><ellipse class="c" cx="294.5" cy="399" rx="44.5" ry="50.47"/></svg>