<svg xmlns="http://www.w3.org/2000/svg" viewBox="0 0 600 600"><defs><style>.a,.b,.c{fill:none;stroke-width:12px;}.a,.c{stroke:#52cefd;}.a,.b{stroke-miterlimit:10;}.b{stroke:#039ae4;}.c{stroke-linejoin:round;}</style></defs><title>swimming</title><path class="a" d="M550,402.31l-.08-.08a44,44,0,0,0-62.16,0h0l-.15.16h0a44.06,44.06,0,0,1-62.24-.08h-.49l-.08-.08a44,44,0,0,0-62.16,0h0l-.15.16h0a44,44,0,0,1-62.17,0l-.07-.08h-.5l-.07-.08a44,44,0,0,0-62.17,0h0l-.15.16h0a44,44,0,0,1-62.16,0l-.08-.08h-.49l-.08-.08a44,44,0,0,0-62.16,0h0l-.15.16h0a44,44,0,0,1-62.16,0l-.08-.08"/><path class="a" d="M550,481.66l-.08-.08a43.94,43.94,0,0,0-62.16,0h0l-.15.15h0a44.05,44.05,0,0,1-62.24-.07h-.49l-.08-.08a43.94,43.94,0,0,0-62.16,0h0l-.15.15h0a44,44,0,0,1-62.17,0l-.07-.07h-.5l-.07-.08a44,44,0,0,0-62.17,0h0l-.15.15h0a43.94,43.94,0,0,1-62.16,0l-.08-.07h-.49l-.08-.08a43.94,43.94,0,0,0-62.16,0h0l-.15.15h0a43.94,43.94,0,0,1-62.16,0l-.08-.07"/><path class="b" d="M550,442l-.08-.07a43.94,43.94,0,0,0-62.16,0h0l-.15.15h0a44.05,44.05,0,0,1-62.24-.08h-.49l-.08-.07a43.94,43.94,0,0,0-62.16,0h0l-.15.15h0a44,44,0,0,1-62.17,0l-.07-.08h-.5l-.07-.07a44,44,0,0,0-62.17,0h0l-.15.15h0a44,44,0,0,1-62.16,0l-.08-.08h-.49l-.08-.07a43.94,43.94,0,0,0-62.16,0h0l-.15.15h0a44,44,0,0,1-62.16,0L50,442"/><path class="c" d="M195.39,410.61l41.84-41.84a23,23,0,0,0,0-32.57l-59.92-59.91h0a68.43,68.43,0,0,1,0-96.77h0l64.11-64.11a34.21,34.21,0,0,1,48.38,0h0a34.22,34.22,0,0,1,0,48.39L242,211.62a23,23,0,0,0,0,32.57l145.2,145.2"/><circle class="b" cx="395.35" cy="293.41" r="74.09"/></svg>