<svg xmlns="http://www.w3.org/2000/svg" viewBox="0 0 600 600"><defs><style>.a,.b,.c{fill:none;stroke-width:12px;}.a,.c{stroke:#52cefd;}.a,.b{stroke-miterlimit:10;}.b{stroke:#039ae4;}.c{stroke-linejoin:round;}</style></defs><title>swimming</title><path class="a" d="M545.76,400.57l-.08-.07a43.19,43.19,0,0,0-61.1,0h0l-.16.15h0a43.3,43.3,0,0,1-61.18-.08h-.48l-.08-.07a43.19,43.19,0,0,0-61.1,0h0l-.16.15h0a43.21,43.21,0,0,1-61.1,0l-.08-.08h-.48l-.08-.07a43.19,43.19,0,0,0-61.1,0h0l-.16.15h0a43.21,43.21,0,0,1-61.1,0l-.08-.08h-.48l-.08-.07a43.19,43.19,0,0,0-61.1,0h0l-.16.15h0a43.21,43.21,0,0,1-61.1,0l-.08-.08"/><path class="a" d="M545.76,478.57l-.08-.07a43.19,43.19,0,0,0-61.1,0h0l-.16.15h0a43.3,43.3,0,0,1-61.18-.08h-.48l-.08-.07a43.19,43.19,0,0,0-61.1,0h0l-.16.15h0a43.21,43.21,0,0,1-61.1,0l-.08-.08h-.48l-.08-.07a43.19,43.19,0,0,0-61.1,0h0l-.16.15h0a43.21,43.21,0,0,1-61.1,0l-.08-.08h-.48l-.08-.07a43.19,43.19,0,0,0-61.1,0h0l-.16.15h0a43.21,43.21,0,0,1-61.1,0l-.08-.08"/><path class="b" d="M545.76,439.57l-.08-.07a43.19,43.19,0,0,0-61.1,0h0l-.16.15h0a43.3,43.3,0,0,1-61.18-.08h-.48l-.08-.07a43.19,43.19,0,0,0-61.1,0h0l-.16.15h0a43.21,43.21,0,0,1-61.1,0l-.08-.08h-.48l-.08-.07a43.19,43.19,0,0,0-61.1,0h0l-.16.15h0a43.21,43.21,0,0,1-61.1,0l-.08-.08h-.48l-.08-.07a43.19,43.19,0,0,0-61.1,0h0l-.16.15h0a43.21,43.21,0,0,1-61.1,0l-.08-.08"/><path class="c" d="M197.16,408.74,238.3,367.6a22.63,22.63,0,0,0,0-32l-58.91-58.9h0a67.27,67.27,0,0,1,0-95.12h0l63-63a33.62,33.62,0,0,1,47.56,0h0a33.62,33.62,0,0,1,0,47.56l-47,47a22.63,22.63,0,0,0,0,32L385.7,387.87"/><circle class="b" cx="393.73" cy="293.52" r="72.83"/></svg>