<svg xmlns="http://www.w3.org/2000/svg" viewBox="0 0 600 600"><defs><style>.a,.b,.c{fill:none;stroke-width:12px;}.a,.b{stroke:#52cefd;}.a{stroke-miterlimit:10;}.b,.c{stroke-linejoin:round;}.c{stroke:#039ae4;}</style></defs><title>testimonials</title><line class="a" x1="67.36" y1="233.66" x2="67.36" y2="547.22"/><path class="b" d="M309.14,286.15A150.55,150.55,0,0,1,158.59,436.7"/><line class="c" x1="87.85" y1="285.76" x2="150.59" y2="285.76"/><polyline class="c" points="469 550 195.84 550 158.59 521.67 87.85 521.67"/><path class="b" d="M251.71,239.59l85.37-96.23,2.62-3.59A73.5,73.5,0,0,0,328.25,50L149.31,230.3l0,153.63"/><line class="c" x1="245.5" y1="239.59" x2="422.44" y2="239.59"/><rect class="b" x="357.25" y="239.59" width="175.38" height="77.6" rx="38.8" ry="38.8"/><rect class="b" x="357.25" y="317.19" width="175.38" height="77.6" rx="38.8" ry="38.8"/><rect class="b" x="357.25" y="394.79" width="175.38" height="77.6" rx="38.8" ry="38.8"/><rect class="b" x="357.25" y="472.4" width="175.38" height="77.6" rx="38.8" ry="38.8"/></svg>