<svg xmlns="http://www.w3.org/2000/svg" viewBox="0 0 600 600"><defs><style>.a,.b,.c{fill:none;stroke-width:12px;}.a,.b{stroke:#52cefd;}.a{stroke-miterlimit:10;}.b,.c{stroke-linejoin:round;}.c{stroke:#039ae4;}</style></defs><title>testimonials</title><line class="a" x1="146.73" y1="257.26" x2="146.73" y2="459.29"/><path class="b" d="M302.51,291.08a97,97,0,0,1-97,97"/><line class="c" x1="153.49" y1="290.82" x2="205.51" y2="290.82"/><polyline class="c" points="405.51 461.07 229.51 461.07 205.51 442.82 153.49 442.82"/><path class="b" d="M265.51,261.08l55-62,1.69-2.32a47.35,47.35,0,0,0-7.38-57.84L199.53,255.09l0,99"/><line class="c" x1="261.51" y1="261.08" x2="375.51" y2="261.08"/><rect class="b" x="333.51" y="261.08" width="113" height="50" rx="25" ry="25"/><rect class="b" x="333.51" y="311.08" width="113" height="50" rx="25" ry="25"/><rect class="b" x="333.51" y="361.08" width="113" height="50" rx="25" ry="25"/><rect class="b" x="333.51" y="411.08" width="113" height="50" rx="25" ry="25"/></svg>