<svg xmlns="http://www.w3.org/2000/svg" viewBox="0 0 600 600"><defs><style>.a,.b{fill:none;stroke-linejoin:round;stroke-width:12px;}.a{stroke:#039ae4;}.b{stroke:#52cefd;}</style></defs><title>trafficLights</title><circle class="a" cx="300.65" cy="187.35" r="44.58"/><circle class="a" cx="300.65" cy="300.13" r="44.58"/><circle class="a" cx="300.65" cy="412.91" r="44.58"/><polygon class="a" points="410 232 381 232 381 143 430 143 410 232"/><polygon class="a" points="410 344 381 344 381 255 430 255 410 344"/><polygon class="a" points="410 456 381 456 381 367 430 367 410 456"/><polygon class="a" points="190 232 219 232 219 143 170 143 190 232"/><polygon class="a" points="190 344 219 344 219 255 170 255 190 344"/><polygon class="a" points="190 456 219 456 219 367 170 367 190 456"/><rect class="b" x="219" y="120" width="162" height="360"/></svg>