<svg xmlns="http://www.w3.org/2000/svg" viewBox="0 0 600 600"><defs><style>.a,.b{fill:none;stroke-linejoin:round;stroke-width:12px;}.a{stroke:#039ae4;}.b{stroke:#52cefd;}</style></defs><title>trafficLights</title><circle class="a" cx="300.9" cy="143.55" r="61.91"/><circle class="a" cx="300.9" cy="300.18" r="61.91"/><circle class="a" cx="300.9" cy="456.82" r="61.91"/><polygon class="a" points="452.78 205.56 412.5 205.56 412.5 81.94 480.56 81.94 452.78 205.56"/><polygon class="a" points="452.78 361.11 412.5 361.11 412.5 237.5 480.56 237.5 452.78 361.11"/><polygon class="a" points="452.78 516.67 412.5 516.67 412.5 393.06 480.56 393.06 452.78 516.67"/><polygon class="a" points="147.22 205.56 187.5 205.56 187.5 81.94 119.44 81.94 147.22 205.56"/><polygon class="a" points="147.22 361.11 187.5 361.11 187.5 237.5 119.44 237.5 147.22 361.11"/><polygon class="a" points="147.22 516.67 187.5 516.67 187.5 393.06 119.44 393.06 147.22 516.67"/><rect class="b" x="187.5" y="50" width="225" height="500"/></svg>