<svg xmlns="http://www.w3.org/2000/svg" xmlns:xlink="http://www.w3.org/1999/xlink" viewBox="0 0 600 600"><defs><style>.a,.c,.d{fill:none;}.b{clip-path:url(#a);}.c{stroke:#63ccff;}.c,.d{stroke-miterlimit:10;stroke-width:12px;}.d{stroke:#039be5;}</style><clipPath id="a"><rect class="a" x="50" y="82.75" width="500" height="434.5"/></clipPath></defs><title>transit</title><g class="b"><g class="b"><path class="c" d="M193.58,463.63v35.56a11.12,11.12,0,0,1-11.12,11.11H155.79a11.1,11.1,0,0,1-11.11-11.11V463.63"/><path class="c" d="M455.32,463.63v35.56a11.1,11.1,0,0,1-11.11,11.11H417.54a11.11,11.11,0,0,1-11.11-11.11V463.63"/><path class="d" d="M488.41,391.72H111.6V211.23A121.52,121.52,0,0,1,233.12,89.7H366.88A121.52,121.52,0,0,1,488.41,211.23Z"/><path class="d" d="M488.41,420.48v8.42a34.73,34.73,0,0,1-34.73,34.73H146.32A34.72,34.72,0,0,1,111.6,428.9v-8.42"/><rect class="d" x="148.99" y="175.99" width="135.19" height="100.67" rx="10.42" ry="10.42"/><rect class="d" x="315.82" y="175.99" width="135.19" height="100.67" rx="10.42" ry="10.42"/><path class="c" d="M195,325.56a23,23,0,1,1-23-23A23,23,0,0,1,195,325.56Z"/><path class="c" d="M451,325.56a23,23,0,1,1-23-23A23,23,0,0,1,451,325.56Z"/><line class="d" x1="232.4" y1="132.84" x2="364.72" y2="132.84"/><line class="d" x1="232.4" y1="319.81" x2="364.72" y2="319.81"/><line class="d" x1="232.4" y1="348.57" x2="364.72" y2="348.57"/><rect class="c" x="56.94" y="201.87" width="31.64" height="77.66"/><rect class="c" x="511.42" y="201.87" width="31.64" height="77.66"/></g></g></svg>