<svg xmlns="http://www.w3.org/2000/svg" viewBox="0 0 600 600"><defs><style>.a,.b{fill:none;stroke-linejoin:round;stroke-width:12px;}.a{stroke:#039ae4;}.b{stroke:#52cefd;}</style></defs><title>trashServices</title><path class="a" d="M229,550h196.6a14.19,14.19,0,0,0,14.15-13.12l31.69-419.32a14.2,14.2,0,0,0-14.15-15.27H178a14.2,14.2,0,0,0-14.13,15.56L183.74,324a14.19,14.19,0,0,0,14.13,12.84h0a14.19,14.19,0,0,1,14.14,13l6,70.25"/><circle class="a" cx="228.95" cy="484.59" r="65.41"/><circle class="b" cx="228.95" cy="484.59" r="39.47"/><path class="b" d="M150,79.32H470.29A11.28,11.28,0,0,0,481.56,68h0a11.28,11.28,0,0,0-11.27-11.27H150"/><circle class="b" cx="136.48" cy="68.04" r="18.04"/></svg>