<svg xmlns="http://www.w3.org/2000/svg" viewBox="0 0 600 600"><defs><style>.a,.b{fill:none;stroke-linejoin:round;stroke-width:12px;}.a{stroke:#039ae4;}.b{stroke:#52cefd;}</style></defs><title>trashServices</title><path class="a" d="M237,521.68H411.33a12.59,12.59,0,0,0,12.55-11.63L452,138.22a12.59,12.59,0,0,0-12.55-13.53H191.85a12.58,12.58,0,0,0-12.52,13.79L196.91,321.3a12.58,12.58,0,0,0,12.52,11.38h0A12.6,12.6,0,0,1,222,344.21l5.27,62.3"/><circle class="a" cx="237" cy="463.68" r="58"/><circle class="b" cx="237" cy="463.68" r="35"/><path class="b" d="M167,104.32H451a10,10,0,0,0,10-10h0a10,10,0,0,0-10-10H167"/><circle class="b" cx="155" cy="94.32" r="16"/></svg>