<svg xmlns="http://www.w3.org/2000/svg" viewBox="0 0 600 600"><defs><style>.a,.b{fill:none;stroke-linejoin:round;stroke-width:12px;}.a{stroke:#52cefd;}.b{stroke:#039ae4;}.c{fill:#039ae4;}</style></defs><title>vets</title><polyline class="a" points="130.01 205.38 130.15 113.38 470.15 113.87 470.01 205.87"/><path class="a" d="M130,205.38l-.16,111c-.06,40.64,31.75,78,67.85,107.31,23.33,18.94,48.47,34.53,67.93,45.43,20,11.2,34,17.5,34,17.5s14-6.26,34-17.4c19.49-10.85,44.68-26.36,68.07-45.24,36.18-29.19,68.09-66.47,68.15-107.11l.16-111"/><polyline class="a" points="197.69 423.69 198.01 205.47 266.01 205.57 265.63 469.12"/><polyline class="a" points="401.69 423.98 402.01 205.77 334.01 205.67 333.63 469.22"/><polygon class="b" points="333.63 469.22 334.01 205.67 266.01 205.57 265.63 469.12 299.6 486.62 333.63 469.22"/><path class="b" d="M198,205.48l-.31,218.21c-36.1-29.31-67.91-66.67-67.85-107.31l.16-111Z"/><path class="b" d="M402,205.77,401.7,424c36.18-29.19,68.09-66.47,68.15-107.11l.16-111Z"/><polygon class="c" points="198.06 176.16 181.36 184.9 184.57 166.33 171.09 153.15 189.75 150.47 198.12 133.57 206.44 150.49 225.09 153.23 211.57 166.37 214.73 184.95 198.06 176.16"/><polygon class="c" points="300.06 176.31 283.36 185.05 286.57 166.48 273.09 153.3 291.75 150.61 300.12 133.72 308.44 150.64 327.09 153.38 313.57 166.52 316.73 185.1 300.06 176.31"/><polygon class="c" points="402.06 176.45 385.36 185.2 388.57 166.63 375.09 153.45 393.75 150.76 402.12 133.87 410.44 150.79 429.09 153.53 415.57 166.66 418.73 185.25 402.06 176.45"/></svg>