<svg xmlns="http://www.w3.org/2000/svg" viewBox="0 0 600 600"><defs><style>.a,.b{fill:none;stroke-miterlimit:10;stroke-width:12px;}.a{stroke:#039ae4;}.b{stroke:#52cefd;}</style></defs><title>waterServices</title><path class="a" d="M97.57,297.7A86,86,0,0,1,50,273.46"/><path class="a" d="M251.17,297.57h.09a86.13,86.13,0,0,0,18.08-5.13c1.3-.52,2.58-1.08,3.85-1.67h0q2.79-1.29,5.5-2.8l.33-.19a81.43,81.43,0,0,0,7.1-4.44c.59-.41,1.19-.84,1.77-1.27,1.75-1.28,3.45-2.63,5.12-4.07s3.3-2.94,4.88-4.52h4.18q2.37,2.37,4.88,4.52c1.67,1.44,3.37,2.79,5.12,4.07.59.43,1.18.86,1.77,1.27a81.43,81.43,0,0,0,7.1,4.44l.33.19q2.71,1.51,5.5,2.8h0c1.27.59,2.55,1.15,3.85,1.67a87,87,0,0,0,8.49,2.94c1.66.49,3.34.91,5,1.29a86.56,86.56,0,0,0,19,2.11l1.63,0c.41,0,.82,0,1.22,0,1,0,1.95-.08,2.92-.14l1.29-.1c1.46-.12,2.92-.28,4.38-.47.47-.06.94-.12,1.4-.2,1-.14,1.91-.3,2.86-.47.47-.08.93-.17,1.39-.27,2.34-.47,4.68-1,7-1.71l1.11-.33.67-.21c.32-.09.65-.19,1-.31.88-.28,1.75-.58,2.62-.9l.27-.1q.61-.21,1.2-.45c.46-.17.91-.35,1.35-.53s.68-.26,1-.41l.57-.24q.57-.22,1.11-.48l1.32-.6c.89-.4,1.77-.82,2.64-1.27s1.73-.89,2.59-1.37c.43-.23.87-.47,1.29-.72s.85-.48,1.26-.73h0a86.09,86.09,0,0,0,17-13.24h3.49a86.41,86.41,0,0,0,122.21,0"/><path class="b" d="M251.08,297.57h.09a86.13,86.13,0,0,0,18.08-5.13c1.3-.52,2.58-1.08,3.85-1.67h0q2.79-1.29,5.5-2.8l.33-.19a81.43,81.43,0,0,0,7.1-4.44c.59-.41,1.19-.84,1.77-1.27,1.75-1.28,3.45-2.63,5.12-4.07s3.3-2.94,4.88-4.52H302"/><path class="a" d="M50,336.49a86.17,86.17,0,0,0,61.11,25.31c.52,0,1,0,1.56,0"/><path class="a" d="M550,336.49a86.43,86.43,0,0,1-122.21,0h-3.5c-.66.66-1.32,1.3-2,1.93s-1.17,1.09-1.77,1.61c-.21.2-.43.39-.65.58s-.72.62-1.08.92l-.9.76c-.61.5-1.24,1-1.87,1.49-1.72,1.34-3.47,2.59-5.27,3.77-1.07.7-2.15,1.39-3.25,2l-.9.53q-3.45,2-7,3.67c-1.28.59-2.56,1.15-3.86,1.67s-2.62,1-3.94,1.49l-2,.66c-.73.23-1.46.46-2.19.67s-1.21.36-1.82.52-1.34.36-2,.52-1.35.33-2,.47a84.41,84.41,0,0,1-12.33,1.78q-1,.09-2.07.12c-.69,0-1.38.07-2.08.08s-1.37,0-2.06,0-1.33,0-2,0h-.26c-.63,0-1.27,0-1.9-.07s-1.38-.06-2.07-.12a85.56,85.56,0,0,1-12.2-1.75l-.13,0c-.68-.14-1.35-.3-2-.47s-1.18-.29-1.77-.46c-.77-.2-1.54-.42-2.31-.64l-1.95-.61c-.66-.21-1.33-.44-2-.67-1.32-.46-2.63-.95-3.93-1.48s-2.58-1.08-3.85-1.67h0c-1.26-.58-2.52-1.2-3.75-1.85-1.06-.56-2.11-1.14-3.15-1.75-.36-.2-.71-.41-1.06-.62s-.93-.56-1.39-.85c-1.21-.75-2.4-1.54-3.58-2.36s-2.59-1.86-3.85-2.85c-.37-.28-.74-.57-1.1-.87-.71-.57-1.41-1.16-2.09-1.75-.45-.38-.9-.78-1.34-1.18l-1.14-1c-.29-.27-.57-.53-.85-.81-.47-.44-.94-.9-1.4-1.36h-4.18c-.46.46-.93.92-1.4,1.36-.28.28-.56.54-.85.81l-1.14,1c-.44.4-.89.8-1.34,1.18-.68.59-1.38,1.18-2.09,1.75-.36.3-.73.59-1.1.87q-1.89,1.49-3.85,2.85c-1.18.82-2.37,1.61-3.58,2.36s-2.5,1.52-3.77,2.23c-.59.33-1.18.65-1.78,1l-.05,0c-1.23.65-2.49,1.27-3.75,1.85h0c-1.27.59-2.55,1.15-3.85,1.67s-2.61,1-3.93,1.48c-.66.23-1.32.46-2,.67s-1.33.43-2,.62a87,87,0,0,1-24.63,3.57h-.7"/><path class="a" d="M550,399.51h0a86.41,86.41,0,0,1-122.21,0H424.3a86.41,86.41,0,0,1-122.21,0h-4.18a86.41,86.41,0,0,1-122.21,0h-3.49a86.41,86.41,0,0,1-122.21,0h0"/><path class="a" d="M550,462.53h0a86.41,86.41,0,0,1-122.21,0H424.3a86.41,86.41,0,0,1-122.21,0h-4.18a86.41,86.41,0,0,1-122.21,0h-3.49a86.41,86.41,0,0,1-122.21,0h0"/><path class="b" d="M297.91,273.46h4.18A86.45,86.45,0,0,0,407.27,286.7"/><path class="b" d="M426.15,336.49h-1.86c-.66.66-1.33,1.3-2,1.93s-1.17,1.09-1.77,1.61c-.21.2-.43.39-.65.58s-.72.63-1.08.92l-.9.76c-.61.5-1.24,1-1.87,1.49-1.72,1.33-3.47,2.58-5.27,3.77-1.07.7-2.15,1.39-3.25,2l-.9.53q-3.45,2-7,3.67c-1.28.59-2.56,1.14-3.86,1.67s-2.62,1-3.94,1.49l-2,.66c-.73.23-1.46.46-2.19.67l-1.82.52-2,.52-2,.47a87.21,87.21,0,0,1-12.33,1.78q-1,.07-2.07.12l-2.08.08-2.07,0-2,0h-.26l-1.9-.07q-1,0-2.07-.12a88.51,88.51,0,0,1-12.2-1.75l-.13,0-2-.47-1.77-.46c-.77-.2-1.54-.42-2.31-.64l-1.95-.61c-.66-.21-1.33-.44-2-.67-1.32-.46-2.63-.95-3.93-1.48s-2.58-1.08-3.85-1.67h0c-1.26-.59-2.51-1.2-3.75-1.85-1.06-.56-2.11-1.14-3.15-1.75l-1.06-.62c-.46-.27-.93-.56-1.39-.85-1.21-.75-2.4-1.54-3.58-2.36s-2.59-1.86-3.85-2.85l-1.1-.87c-.71-.57-1.41-1.16-2.09-1.75-.45-.39-.9-.78-1.34-1.18l-1.14-1c-.28-.26-.57-.53-.85-.81-.47-.44-.94-.9-1.4-1.36h-4.18c-.46.46-.93.92-1.4,1.36-.28.28-.57.55-.85.81l-1.14,1c-.44.4-.89.79-1.34,1.18-.68.59-1.38,1.18-2.09,1.75l-1.1.87q-1.89,1.49-3.85,2.85c-1.18.82-2.37,1.61-3.58,2.36s-2.5,1.52-3.77,2.23c-.59.33-1.19.65-1.78,1l-.05,0c-1.24.65-2.49,1.26-3.75,1.85h0c-1.27.59-2.56,1.15-3.85,1.67s-2.61,1-3.93,1.48c-.66.23-1.32.46-2,.67s-1.33.42-2,.62a86.62,86.62,0,0,1-24.61,3.56h-.71"/><path class="b" d="M164.08,406.64a83.2,83.2,0,0,0,8.12-7.13h3.48a86.44,86.44,0,0,0,122.23,0h4.18a86.4,86.4,0,0,0,122.2,0h3.48a82.15,82.15,0,0,0,8.13,7.13"/><path class="b" d="M195.72,477.46a86.45,86.45,0,0,0,102.19-14.93h4.18a86.44,86.44,0,0,0,102.13,15"/><path class="a" d="M162.91,390.72a136.59,136.59,0,0,0,1.18,15.91v.05a137.12,137.12,0,0,0,271.8,0v0a138.09,138.09,0,0,0,1.2-18.18c0-13.13-4.12-31.15-10.94-52-5-15.35-11.51-32.22-18.89-49.78C366.93,190.79,300,74.45,300,74.45s-41,71.21-78.11,148.14"/><path class="b" d="M253.26,312.68a78.88,78.88,0,0,1-157.75,0c0-43.56,78.88-180.64,78.88-180.64S253.26,269.12,253.26,312.68Z"/></svg>