<svg xmlns="http://www.w3.org/2000/svg" viewBox="0 0 24 24"><defs><style>.a{fill:#bcbcbc;}</style></defs><title>00 - tornado</title><path class="a" d="M19,3H5A1.5,1.5,0,0,0,5,6H17a.5.5,0,0,1,0,1H7a1.5,1.5,0,0,0,0,3h9a.5.5,0,0,1,0,1H8a1.5,1.5,0,0,0,0,3h4a.5.5,0,0,1,0,1H9a1.5,1.5,0,0,0,0,3,.5.5,0,0,1,0,1,1.5,1.5,0,0,0-1.5,1.5h1A.5.5,0,0,1,9,20a1.5,1.5,0,0,0,0-3,.5.5,0,0,1,0-1h3a1.5,1.5,0,0,0,0-3H8a.5.5,0,0,1,0-1h8a1.5,1.5,0,0,0,0-3H7A.5.5,0,0,1,7,8H17a1.5,1.5,0,0,0,0-3H5A.5.5,0,0,1,5,4H19a.5.5,0,0,1,.5.5h1A1.5,1.5,0,0,0,19,3Z"/></svg>