<svg xmlns="http://www.w3.org/2000/svg" viewBox="0 0 24 24"><defs><style>.a{fill:#f03a47;}</style></defs><title>02 - hurricane</title><path class="a" d="M11.29,11.29a1,1,0,1,0,1.41,0A1,1,0,0,0,11.29,11.29Z"/><path class="a" d="M18.41,11.5A6.44,6.44,0,0,0,12,5.56,6.54,6.54,0,0,0,8.26,6.72,9,9,0,0,1,15.56,3h.5V2h-.5a10,10,0,0,0-10,9.22,6.56,6.56,0,0,0,0,.66v.5h0A6.49,6.49,0,0,0,12,18.44a6.4,6.4,0,0,0,3.76-1.22A9,9,0,0,1,8.44,21h-.5v1h.5a10,10,0,0,0,10-10v-.5ZM12,17.44a5.57,5.57,0,0,1-5.44-5.55A5.32,5.32,0,0,1,12,6.56a5.44,5.44,0,0,1,0,10.88Z"/></svg>