<svg xmlns="http://www.w3.org/2000/svg" viewBox="0 0 24 24"><defs><style>.a{fill:#039be5;}.b{fill:#bcbcbc;}</style></defs><title>05 - mixed rain and snow</title><rect class="a" x="8.63" y="17.01" width="1.99" height="1" transform="translate(-9.57 11.94) rotate(-45.02)"/><rect class="a" x="6.4" y="19.16" width="2.16" height="1" transform="translate(-11.71 11.05) rotate(-45)"/><rect class="a" x="5.18" y="17.01" width="2" height="1" transform="translate(-10.57 9.5) rotate(-45)"/><circle class="b" cx="14.5" cy="13.93" r="0.5"/><circle class="b" cx="14.5" cy="15.93" r="0.5"/><circle class="b" cx="14.5" cy="17.93" r="0.5"/><circle class="b" cx="12.77" cy="14.93" r="0.5" transform="translate(-6.54 18.52) rotate(-60)"/><circle class="b" cx="16.23" cy="16.93" r="0.5" transform="translate(-6.54 22.52) rotate(-60)"/><circle class="b" cx="12.77" cy="16.93" r="0.5" transform="translate(-6.75 8.65) rotate(-30)"/><circle class="b" cx="16.23" cy="14.93" r="0.5" transform="translate(-5.29 10.12) rotate(-30)"/><path class="b" d="M6.46,15.47l-1-.11v0a4,4,0,0,1,.91-7.93,6,6,0,0,1,11.58,1,3.5,3.5,0,1,1,.58,6.95H18v-1h.5a2.5,2.5,0,0,0,2.5-2.5,2.46,2.46,0,0,0-3.35-2.34L17,9.14a5,5,0,0,0-9.81-1l-.58.36a3,3,0,1,0-1,5.89h0l1,.08Z"/></svg>