<svg xmlns="http://www.w3.org/2000/svg" viewBox="0 0 24 24"><defs><style>.a{fill:#bcbcbc;}.b{fill:#63ccff;}</style></defs><title>07 - mixed snow and sleet</title><circle class="a" cx="8.5" cy="15.25" r="0.5"/><circle class="a" cx="8.5" cy="17.25" r="0.5"/><circle class="a" cx="8.5" cy="19.25" r="0.5"/><circle class="a" cx="6.77" cy="16.25" r="0.5" transform="translate(-10.69 13.99) rotate(-60)"/><circle class="a" cx="10.23" cy="18.25" r="0.5" transform="translate(-10.69 17.99) rotate(-60)"/><circle class="a" cx="6.77" cy="18.25" r="0.5" transform="translate(-8.22 5.83) rotate(-30)"/><circle class="a" cx="10.23" cy="16.25" r="0.5" transform="translate(-6.75 7.29) rotate(-30)"/><rect class="b" x="10.33" y="16.93" width="6.52" height="1" transform="translate(-8.35 14.71) rotate(-45)"/><rect class="b" x="13.73" y="17.91" width="3.76" height="1" transform="translate(-8.45 16.43) rotate(-45)"/><path class="a" d="M18.28,15.78v-1l.5-.05A2.5,2.5,0,0,0,21,12.25a2.46,2.46,0,0,0-3.35-2.34L17,9.47a5,5,0,0,0-9.81-1l-.58.36a3,3,0,1,0-1,5.9v1L5,15.61A4,4,0,0,1,6.34,7.77a6,6,0,0,1,11.58,1,3.5,3.5,0,1,1,1,6.93Z"/></svg>