<svg xmlns="http://www.w3.org/2000/svg" viewBox="0 0 24 24"><defs><style>.a{fill:#bcbcbc;}.b{fill:#039be5;}</style></defs><title>09 - drizzle</title><path class="a" d="M6.54,15.79l-1.11-.11v0a4,4,0,0,1,.91-7.93,6,6,0,0,1,11.58,1,3.5,3.5,0,1,1,.58,6.95H18v-1h.5a2.5,2.5,0,0,0,2.5-2.5,2.46,2.46,0,0,0-3.35-2.34L17,9.47a5,5,0,0,0-9.81-1l-.58.36a3,3,0,1,0-1,5.9h0l1,.08Z"/><circle class="b" cx="6.5" cy="17.25" r="0.5"/><circle class="b" cx="9.83" cy="17.25" r="0.5"/><circle class="b" cx="13.17" cy="17.25" r="0.5"/><circle class="b" cx="16.5" cy="17.25" r="0.5"/><circle class="b" cx="7.83" cy="19.25" r="0.5"/><circle class="b" cx="11.17" cy="19.25" r="0.5"/><circle class="b" cx="14.5" cy="19.25" r="0.5"/></svg>