<svg xmlns="http://www.w3.org/2000/svg" viewBox="0 0 24 24"><defs><style>.a{fill:#039be5;}.b{fill:#bcbcbc;}</style></defs><title>12 - showers</title><rect class="a" x="9.43" y="17.01" width="1.99" height="1" transform="translate(-9.33 12.5) rotate(-45)"/><rect class="a" x="7.49" y="19.16" width="2.16" height="1" transform="translate(-11.39 11.82) rotate(-45)"/><rect class="a" x="12.58" y="17.01" width="1.99" height="1" transform="translate(-8.41 14.73) rotate(-45)"/><rect class="a" x="10.49" y="19.16" width="2.16" height="1" transform="translate(-10.51 13.94) rotate(-45)"/><rect class="a" x="15.73" y="17.01" width="1.99" height="1" transform="translate(-7.49 16.95) rotate(-45)"/><rect class="a" x="13.49" y="19.16" width="2.16" height="1" transform="translate(-9.63 16.06) rotate(-45)"/><rect class="a" x="6.28" y="17.01" width="1.99" height="1" transform="translate(-10.25 10.28) rotate(-45)"/><path class="b" d="M6.46,15.47l-1-.11v0a4,4,0,0,1,.91-7.93,6,6,0,0,1,11.58,1,3.5,3.5,0,1,1,1,6.93l-.86,0v-1l.78,0A2.49,2.49,0,0,0,21,11.93a2.46,2.46,0,0,0-3.35-2.34L17,9.14a5,5,0,0,0-9.81-1l-.58.36a3,3,0,1,0-1,5.89h0l.88.08Z"/></svg>