<svg xmlns="http://www.w3.org/2000/svg" viewBox="0 0 24 24"><defs><style>.a{fill:#bcbcbc;}.b{fill:#63ccff;}</style></defs><title>15 - blowing snow</title><circle class="a" cx="17.88" cy="13.25" r="0.5"/><circle class="a" cx="17.88" cy="15.25" r="0.5"/><circle class="a" cx="17.88" cy="17.25" r="0.5"/><circle class="a" cx="16.15" cy="14.25" r="0.5" transform="translate(-4.26 21.11) rotate(-60)"/><circle class="a" cx="19.62" cy="16.25" r="0.5" transform="translate(-4.26 25.11) rotate(-60)"/><circle class="a" cx="16.15" cy="16.25" r="0.5" transform="translate(-5.96 10.25) rotate(-30)"/><circle class="a" cx="19.62" cy="14.25" r="0.5" transform="translate(-4.5 11.72) rotate(-30)"/><circle class="a" cx="7.88" cy="5.25" r="0.5"/><circle class="a" cx="7.88" cy="7.25" r="0.5"/><circle class="a" cx="7.88" cy="9.25" r="0.5"/><circle class="a" cx="6.15" cy="6.25" r="0.5" transform="translate(-2.34 8.45) rotate(-60)"/><circle class="a" cx="9.62" cy="8.25" r="0.5" transform="translate(-2.34 12.45) rotate(-60)"/><circle class="a" cx="6.15" cy="8.25" r="0.5" transform="translate(-3.3 4.18) rotate(-30)"/><circle class="a" cx="9.62" cy="6.25" r="0.5" transform="translate(-1.84 5.65) rotate(-30)"/><path class="b" d="M18.38,9.25a2.5,2.5,0,0,0-5,0v.5h1v-.5a1.5,1.5,0,1,1,1.5,1.5H3.38v1h12.5l.5-.05A2.5,2.5,0,0,0,18.38,9.25Z"/><path class="b" d="M10.38,14.8l-.5-.05H3.38v1h6.5a1.5,1.5,0,1,1-1.5,1.5v-.5h-1v.5a2.5,2.5,0,1,0,3-2.45Z"/><rect class="b" x="3.38" y="12.75" width="11" height="1"/></svg>