<svg xmlns="http://www.w3.org/2000/svg" viewBox="0 0 24 24"><defs><style>.a{fill:#bcbcbc;}.b{fill:#63ccff;}</style></defs><title>17 - hail</title><circle class="a" cx="5.5" cy="19.18" r="0.5" transform="translate(-13.86 14.35) rotate(-60)"/><circle class="a" cx="13.5" cy="19.18" r="0.5" transform="translate(-9.86 21.28) rotate(-60)"/><rect class="b" x="7.31" y="17.12" width="10.05" height="1" transform="translate(-8.84 13.88) rotate(-45)"/><rect class="b" x="9.14" y="15.12" width="4.39" height="1" transform="translate(-7.72 12.59) rotate(-45)"/><rect class="b" x="7.34" y="14.62" width="2.98" height="1" transform="translate(-8.1 10.67) rotate(-45)"/><rect class="b" x="13.64" y="16.44" width="4.75" height="1" transform="translate(-7.29 16.28) rotate(-45)"/><path class="a" d="M18.28,14.72v-1l.5-.05A2.5,2.5,0,0,0,21,11.18a2.46,2.46,0,0,0-3.35-2.34L17,8.4a5,5,0,0,0-9.81-1l-.58.36a3,3,0,1,0-1,5.89v1L5,14.54A4,4,0,0,1,6.34,6.7a6,6,0,0,1,11.58,1,3.5,3.5,0,1,1,1,6.93Z"/><path class="b" d="M9.5,21.32h-1v-.5A1.5,1.5,0,0,0,7,19.32H6.5v-1H7a2.5,2.5,0,0,1,2.5,2.5Z"/></svg>