<svg xmlns="http://www.w3.org/2000/svg" viewBox="0 0 24 24"><defs><style>.a{fill:#63ccff;}.b{fill:#bcbcbc;}</style></defs><title>18 - sleet</title><rect class="a" x="10.33" y="17.12" width="6.52" height="1" transform="translate(-8.48 14.77) rotate(-45)"/><rect class="a" x="7.33" y="17.12" width="6.52" height="1" transform="translate(-9.36 12.64) rotate(-45)"/><rect class="a" x="4.33" y="17.12" width="6.52" height="1" transform="translate(-10.24 10.52) rotate(-45)"/><path class="b" d="M6.54,16l-1.11-.11v0a4,4,0,0,1,.91-7.93A6,6,0,0,1,17.92,9a3.5,3.5,0,1,1,1,6.93l-.61.05V15l.5-.05A2.5,2.5,0,0,0,21,12.43a2.46,2.46,0,0,0-3.35-2.34L17,9.65a5,5,0,0,0-9.81-1L6.6,9a3,3,0,1,0-1,5.89h0l1,.08Z"/></svg>