<svg xmlns="http://www.w3.org/2000/svg" viewBox="0 0 24 24"><defs><style>.a{fill:#eee;}.b{fill:#bcbcbc;}</style></defs><title>19 - dust</title><circle class="a" cx="18" cy="7" r="0.5"/><circle class="a" cx="16" cy="7" r="0.5"/><circle class="a" cx="14" cy="7" r="0.5"/><circle class="b" cx="17" cy="5.27" r="0.5" transform="translate(3.94 17.36) rotate(-60)"/><circle class="b" cx="15" cy="8.73" r="0.5" transform="translate(-0.06 17.36) rotate(-60)"/><circle class="b" cx="15" cy="5.27" r="0.5" transform="translate(-0.62 8.21) rotate(-30)"/><circle class="b" cx="17" cy="8.73" r="0.5" transform="translate(-2.09 9.67) rotate(-30)"/><circle class="a" cx="20" cy="7" r="0.5"/><circle class="b" cx="19" cy="5.27" r="0.5" transform="translate(4.94 19.09) rotate(-60)"/><circle class="b" cx="19" cy="8.73" r="0.5" transform="translate(-1.82 10.67) rotate(-30)"/><circle class="b" cx="19" cy="12" r="0.5"/><circle class="b" cx="17" cy="12" r="0.5"/><circle class="b" cx="15" cy="12" r="0.5"/><circle class="a" cx="18" cy="10.27" r="0.5" transform="translate(0.11 20.72) rotate(-60)"/><circle class="a" cx="16" cy="13.73" r="0.5" transform="translate(-3.89 20.72) rotate(-60)"/><circle class="a" cx="16" cy="10.27" r="0.5" transform="translate(-2.99 9.38) rotate(-30)"/><circle class="a" cx="18" cy="13.73" r="0.5" transform="translate(-4.45 10.84) rotate(-30)"/><circle class="b" cx="20" cy="10.27" r="0.5" transform="translate(1.11 22.45) rotate(-60)"/><circle class="a" cx="18" cy="13.73" r="0.5" transform="translate(-2.89 22.45) rotate(-60)"/><circle class="a" cx="18" cy="10.27" r="0.5" transform="translate(-2.72 10.38) rotate(-30)"/><circle class="a" cx="20" cy="13.73" r="0.5" transform="translate(-4.19 11.84) rotate(-30)"/><circle class="a" cx="18" cy="17" r="0.5"/><circle class="a" cx="16" cy="17" r="0.5"/><circle class="a" cx="14" cy="17" r="0.5"/><circle class="b" cx="17" cy="15.27" r="0.5" transform="translate(-4.72 22.36) rotate(-60)"/><circle class="b" cx="15" cy="18.73" r="0.5" transform="translate(-8.72 22.36) rotate(-60)"/><circle class="b" cx="15" cy="15.27" r="0.5" transform="translate(-5.62 9.55) rotate(-30)"/><circle class="b" cx="17" cy="18.73" r="0.5" transform="translate(-7.09 11.01) rotate(-30)"/><circle class="b" cx="20" cy="17" r="0.5"/><circle class="b" cx="19" cy="15.27" r="0.5" transform="translate(-3.72 24.09) rotate(-60)"/><circle class="b" cx="19" cy="18.73" r="0.5" transform="translate(-6.82 12.01) rotate(-30)"/><circle class="a" cx="14" cy="7" r="0.5"/><circle class="a" cx="12" cy="7" r="0.5"/><circle class="a" cx="10" cy="7" r="0.5"/><circle class="b" cx="13" cy="5.27" r="0.5" transform="translate(1.94 13.89) rotate(-60)"/><circle class="b" cx="11" cy="8.73" r="0.5" transform="translate(-2.06 13.89) rotate(-60)"/><circle class="b" cx="11" cy="5.27" r="0.5" transform="translate(-1.16 6.21) rotate(-30)"/><circle class="b" cx="13" cy="8.73" r="0.5" transform="translate(-2.62 7.67) rotate(-30)"/><circle class="b" cx="15" cy="12" r="0.5"/><circle class="b" cx="13" cy="12" r="0.5"/><circle class="b" cx="11" cy="12" r="0.5"/><circle class="a" cx="14" cy="10.27" r="0.5" transform="translate(-1.89 17.26) rotate(-60)"/><circle class="a" cx="12" cy="13.73" r="0.5" transform="translate(-5.89 17.26) rotate(-60)"/><circle class="a" cx="12" cy="10.27" r="0.5" transform="translate(-3.53 7.38) rotate(-30)"/><circle class="a" cx="14" cy="13.73" r="0.5" transform="translate(-4.99 8.84) rotate(-30)"/><circle class="a" cx="14" cy="17" r="0.5"/><circle class="a" cx="12" cy="17" r="0.5"/><circle class="a" cx="10" cy="17" r="0.5"/><circle class="b" cx="13" cy="15.27" r="0.5" transform="translate(-6.72 18.89) rotate(-60)"/><circle class="b" cx="11" cy="18.73" r="0.5" transform="translate(-10.72 18.89) rotate(-60)"/><circle class="b" cx="11" cy="15.27" r="0.5" transform="translate(-6.16 7.55) rotate(-30)"/><circle class="b" cx="13" cy="18.73" r="0.5" transform="translate(-7.62 9.01) rotate(-30)"/><circle class="a" cx="10" cy="7" r="0.5"/><circle class="a" cx="8" cy="7" r="0.5"/><circle class="a" cx="6" cy="7" r="0.5"/><circle class="b" cx="9" cy="5.27" r="0.5" transform="translate(-0.06 10.43) rotate(-60)"/><circle class="b" cx="7" cy="8.73" r="0.5" transform="translate(-4.06 10.43) rotate(-60)"/><circle class="b" cx="7" cy="5.27" r="0.5" transform="translate(-1.7 4.21) rotate(-30)"/><circle class="b" cx="9" cy="8.73" r="0.5" transform="translate(-3.16 5.67) rotate(-30)"/><circle class="b" cx="4" cy="7" r="0.5"/><circle class="b" cx="5" cy="8.73" r="0.5" transform="translate(-5.06 8.7) rotate(-60)"/><circle class="b" cx="5" cy="5.27" r="0.5" transform="translate(-1.96 3.21) rotate(-30)"/><circle class="b" cx="11" cy="12" r="0.5"/><circle class="b" cx="9" cy="12" r="0.5"/><circle class="b" cx="7" cy="12" r="0.5"/><circle class="a" cx="10" cy="10.27" r="0.5" transform="translate(-3.89 13.79) rotate(-60)"/><circle class="a" cx="8" cy="13.73" r="0.5" transform="translate(-7.89 13.79) rotate(-60)"/><circle class="a" cx="8" cy="10.27" r="0.5" transform="translate(-4.06 5.38) rotate(-30)"/><circle class="a" cx="10" cy="13.73" r="0.5" transform="translate(-5.53 6.84) rotate(-30)"/><circle class="b" cx="9" cy="12" r="0.5"/><circle class="b" cx="7" cy="12" r="0.5"/><circle class="b" cx="5" cy="12" r="0.5"/><circle class="a" cx="8" cy="10.27" r="0.5" transform="translate(-4.89 12.06) rotate(-60)"/><circle class="a" cx="6" cy="13.73" r="0.5" transform="translate(-8.89 12.06) rotate(-60)"/><circle class="a" cx="6" cy="10.27" r="0.5" transform="translate(-4.33 4.38) rotate(-30)"/><circle class="a" cx="8" cy="13.73" r="0.5" transform="translate(-5.79 5.84) rotate(-30)"/><circle class="b" cx="5" cy="12" r="0.5"/><circle class="a" cx="6" cy="10.27" r="0.5" transform="translate(-5.89 10.33) rotate(-60)"/><circle class="b" cx="4" cy="13.73" r="0.5" transform="translate(-9.89 10.33) rotate(-60)"/><circle class="a" cx="10" cy="17" r="0.5"/><circle class="a" cx="8" cy="17" r="0.5"/><circle class="a" cx="6" cy="17" r="0.5"/><circle class="b" cx="9" cy="15.27" r="0.5" transform="translate(-8.72 15.43) rotate(-60)"/><circle class="b" cx="7" cy="18.73" r="0.5" transform="translate(-12.72 15.43) rotate(-60)"/><circle class="b" cx="7" cy="15.27" r="0.5" transform="translate(-6.7 5.55) rotate(-30)"/><circle class="b" cx="9" cy="18.73" r="0.5" transform="translate(-8.16 7.01) rotate(-30)"/><circle class="a" cx="4" cy="17" r="0.5"/><circle class="b" cx="5" cy="18.73" r="0.5" transform="translate(-13.72 13.7) rotate(-60)"/><circle class="b" cx="5" cy="15.27" r="0.5" transform="translate(-6.96 4.55) rotate(-30)"/></svg>