<svg xmlns="http://www.w3.org/2000/svg" viewBox="0 0 24 24"><defs><style>.a{fill:#63ccff;}</style></defs><title>24 - windy</title><path class="a" d="M17,10.5h-.5v-1H17A1.5,1.5,0,1,0,15.5,8v.5h-1V8A2.5,2.5,0,1,1,17,10.5Z"/><rect class="a" x="4.5" y="9.5" width="13" height="1"/><path class="a" d="M11,18.5A2.5,2.5,0,0,1,8.5,16v-.5h1V16A1.5,1.5,0,1,0,11,14.5h-.5v-1H11a2.5,2.5,0,0,1,0,5Z"/><rect class="a" x="4.5" y="13.5" width="7" height="1"/><rect class="a" x="4.5" y="11.5" width="11" height="1"/></svg>