<svg xmlns="http://www.w3.org/2000/svg" viewBox="0 0 24 24"><defs><style>.a{fill:#fc0;}.b{fill:#fff;}.c{fill:#bcbcbc;}</style></defs><title>27 - mostly cloudy (night)</title><path class="a" d="M19.5,15A5.5,5.5,0,1,1,21.7,4.46v.92a4.49,4.49,0,0,0,0,8.24v.92A5.46,5.46,0,0,1,19.5,15Zm0-10a4.5,4.5,0,0,0,0,9,4.43,4.43,0,0,0,.75-.06,5.49,5.49,0,0,1,0-8.87A4.43,4.43,0,0,0,19.5,5Z"/><path class="b" d="M18.5,19.5a3,3,0,1,0-1-5.81A5.49,5.49,0,0,0,6.69,12.57,3.49,3.49,0,1,0,5.5,19.45h0l.5,0Z"/><path class="c" d="M18.5,20,5.43,19.94A4,4,0,0,1,6.34,12a6,6,0,0,1,11.58,1A3.5,3.5,0,1,1,18.5,20ZM5.58,19,6,19H18.5A2.5,2.5,0,0,0,21,16.5a2.46,2.46,0,0,0-3.35-2.34L17,13.72a5,5,0,0,0-9.81-1l-.58.36a3,3,0,1,0-1,5.89Z"/><path class="a" d="M5,11.5H4A1.5,1.5,0,0,0,2.5,10V9A1.5,1.5,0,0,0,4,7.5H5A1.5,1.5,0,0,0,6.5,9v1A1.5,1.5,0,0,0,5,11.5Zm0,0H5Zm-1-2a2.51,2.51,0,0,1,.5.5A2.51,2.51,0,0,1,5,9.5,2.51,2.51,0,0,1,4.5,9,2.51,2.51,0,0,1,4,9.5Z"/><path class="a" d="M9,8.5H8A1.5,1.5,0,0,0,6.5,7V6A1.5,1.5,0,0,0,8,4.5H9A1.5,1.5,0,0,0,10.5,6V7A1.5,1.5,0,0,0,9,8.5Zm0,0H9Zm-1-2a2.51,2.51,0,0,1,.5.5A2.51,2.51,0,0,1,9,6.5,2.51,2.51,0,0,1,8.5,6,2.51,2.51,0,0,1,8,6.5Z"/></svg>