<svg xmlns="http://www.w3.org/2000/svg" viewBox="0 0 24 24"><defs><style>.a{fill:#fc0;}.b{fill:#fff;}.c{fill:#63ccff;}</style></defs><title>28 - mostly cloudy (day)</title><path class="a" d="M13.75,17.25a5.5,5.5,0,1,1,3.89-1.61h0A5.48,5.48,0,0,1,13.75,17.25Zm0-10a4.5,4.5,0,1,0,3.18,1.32A4.49,4.49,0,0,0,13.75,7.25Zm3.54,8h0Z"/><rect class="a" x="6.95" y="16.55" width="3" height="1" transform="translate(-9.58 10.97) rotate(-45)"/><rect class="a" x="17.55" y="5.95" width="3" height="1" transform="translate(1.02 15.36) rotate(-45)"/><rect class="a" x="4.75" y="11.25" width="3" height="1"/><rect class="a" x="19.75" y="11.25" width="3" height="1"/><rect class="a" x="7.95" y="4.95" width="1" height="3" transform="translate(-2.08 7.86) rotate(-45)"/><rect class="a" x="18.55" y="15.55" width="1" height="3" transform="translate(-6.48 18.47) rotate(-45)"/><rect class="a" x="13.25" y="2.75" width="1" height="3"/><rect class="a" x="13.25" y="17.75" width="1" height="3"/><path class="b" d="M17.75,20.75a3,3,0,1,0-1-5.81A5.49,5.49,0,0,0,5.94,13.82,3.49,3.49,0,1,0,4.75,20.7h0l.5,0Z"/><path class="c" d="M17.75,21.25,4.68,21.19a4,4,0,0,1,.91-7.93,6,6,0,0,1,11.58,1,3.5,3.5,0,1,1,.58,6.95Zm-12.92-1,.46,0H17.75a2.5,2.5,0,0,0,2.5-2.5,2.46,2.46,0,0,0-3.35-2.34L16.24,15a5,5,0,0,0-9.81-1l-.58.36a3,3,0,0,0-.59-.06,3,3,0,0,0-.43,6Z"/></svg>