<svg xmlns="http://www.w3.org/2000/svg" viewBox="0 0 24 24"><defs><style>.a{fill:#bcbcbc;}.b{fill:#fc0;}</style></defs><title>03 - severe thunderstorms</title><path class="a" d="M6.46,14.94l-1-.09a4,4,0,0,1,.91-7.93A6,6,0,0,1,17.92,8a3.5,3.5,0,1,1,.58,6.95H18v-1h.5a2.5,2.5,0,0,0,2.5-2.5,2.46,2.46,0,0,0-3.35-2.34L17,8.62a5,5,0,0,0-9.81-1L6.6,8a3,3,0,1,0-1,5.9l1,.09Z"/><polygon class="b" points="6.91 21.3 6.2 20.59 7.87 18.92 7.13 18.93 6.77 18.07 8.91 15.93 9.62 16.64 8.34 17.91 9.09 17.91 9.45 18.76 6.91 21.3"/><polygon class="b" points="10.91 21.3 10.2 20.59 11.87 18.92 11.13 18.93 10.77 18.07 12.91 15.93 13.62 16.64 12.34 17.91 13.09 17.91 13.45 18.76 10.91 21.3"/><polygon class="b" points="14.91 21.3 14.2 20.59 15.87 18.92 15.13 18.93 14.77 18.07 16.91 15.93 17.62 16.64 16.34 17.91 17.09 17.91 17.45 18.76 14.91 21.3"/></svg>