<svg xmlns="http://www.w3.org/2000/svg" viewBox="0 0 24 24"><defs><style>.a{fill:#fc0;}.b{fill:#fff;}.c{fill:#bcbcbc;}</style></defs><title>30 - partly cloudy (night)</title><path class="a" d="M19.5,14A5.5,5.5,0,1,1,21.7,3.46v.92a4.49,4.49,0,0,0,0,8.24v.92A5.46,5.46,0,0,1,19.5,14Zm0-10a4.5,4.5,0,0,0,0,9,4.43,4.43,0,0,0,.75-.06,5.49,5.49,0,0,1,0-8.87A4.43,4.43,0,0,0,19.5,4Z"/><path class="a" d="M5,10.5H4A1.5,1.5,0,0,0,2.5,9V8A1.5,1.5,0,0,0,4,6.5H5A1.5,1.5,0,0,0,6.5,8V9A1.5,1.5,0,0,0,5,10.5Zm0,0H5Zm-1-2a2.51,2.51,0,0,1,.5.5A2.51,2.51,0,0,1,5,8.5,2.51,2.51,0,0,1,4.5,8,2.51,2.51,0,0,1,4,8.5Z"/><path class="a" d="M9,7.5H8A1.5,1.5,0,0,0,6.5,6V5A1.5,1.5,0,0,0,8,3.5H9A1.5,1.5,0,0,0,10.5,5V6A1.5,1.5,0,0,0,9,7.5Zm0,0H9Zm-1-2a2.51,2.51,0,0,1,.5.5A2.51,2.51,0,0,1,9,5.5,2.51,2.51,0,0,1,8.5,5,2.51,2.51,0,0,1,8,5.5Z"/><path class="b" d="M18.5,20.5a3,3,0,1,0-1-5.81A5.49,5.49,0,0,0,6.69,13.57,3.49,3.49,0,1,0,5.5,20.45h0l.5,0Z"/><path class="c" d="M18.5,21,5.43,20.94A4,4,0,0,1,6.34,13a6,6,0,0,1,11.58,1A3.5,3.5,0,1,1,18.5,21ZM5.58,20,6,20H18.5A2.5,2.5,0,0,0,21,17.5a2.46,2.46,0,0,0-3.35-2.34L17,14.72a5,5,0,0,0-9.81-1l-.58.36A3,3,0,0,0,6,14a3,3,0,0,0-.43,6Z"/></svg>