<svg xmlns="http://www.w3.org/2000/svg" viewBox="0 0 24 24"><defs><style>.a{fill:#fc0;}</style></defs><title>33 - fair (night)</title><path class="a" d="M19.5,17.5A5.5,5.5,0,1,1,21.7,7v.92a4.49,4.49,0,0,0,0,8.24V17A5.46,5.46,0,0,1,19.5,17.5Zm0-10a4.5,4.5,0,0,0,0,9,4.43,4.43,0,0,0,.75-.06,5.49,5.49,0,0,1,0-8.87A4.43,4.43,0,0,0,19.5,7.5Z"/><path class="a" d="M5,14H4a1.5,1.5,0,0,0-1.5-1.5v-1A1.5,1.5,0,0,0,4,10H5a1.5,1.5,0,0,0,1.5,1.5v1A1.5,1.5,0,0,0,5,14Zm0,0H5ZM4,12a2.51,2.51,0,0,1,.5.5A2.51,2.51,0,0,1,5,12a2.51,2.51,0,0,1-.5-.5A2.51,2.51,0,0,1,4,12Z"/><path class="a" d="M9,11H8A1.5,1.5,0,0,0,6.5,9.5v-1A1.5,1.5,0,0,0,8,7H9a1.5,1.5,0,0,0,1.5,1.5v1A1.5,1.5,0,0,0,9,11Zm0,0H9ZM8,9a2.51,2.51,0,0,1,.5.5A2.51,2.51,0,0,1,9,9a2.51,2.51,0,0,1-.5-.5A2.51,2.51,0,0,1,8,9Z"/></svg>