<svg xmlns="http://www.w3.org/2000/svg" viewBox="0 0 24 24"><defs><style>.a{fill:#fc0;}</style></defs><title>34 - fair (day)</title><path class="a" d="M12,17.5a5.5,5.5,0,1,1,3.89-1.61h0A5.48,5.48,0,0,1,12,17.5Zm0-10a4.5,4.5,0,1,0,3.18,7.68h0A4.5,4.5,0,0,0,12,7.5Zm3.54,8h0Z"/><rect class="a" x="5.2" y="16.8" width="3" height="1" transform="translate(-10.27 9.8) rotate(-45)"/><rect class="a" x="15.8" y="6.2" width="3" height="1" transform="translate(0.33 14.2) rotate(-45)"/><rect class="a" x="3" y="11.5" width="3" height="1"/><rect class="a" x="18" y="11.5" width="3" height="1"/><rect class="a" x="6.2" y="5.2" width="1" height="3" transform="translate(-2.77 6.7) rotate(-45)"/><rect class="a" x="16.8" y="15.8" width="1" height="3" transform="translate(-7.17 17.3) rotate(-45)"/><rect class="a" x="11.5" y="3" width="1" height="3"/><rect class="a" x="11.5" y="18" width="1" height="3"/></svg>