<svg xmlns="http://www.w3.org/2000/svg" viewBox="0 0 24 24"><defs><style>.a{fill:#039be5;}.b{fill:#bcbcbc;}.c{fill:#63ccff;}</style></defs><title>35 - mixed rain and hail</title><rect class="a" x="10.43" y="14.27" width="1.99" height="1" transform="translate(-7.1 12.4) rotate(-45)"/><rect class="a" x="8.49" y="16.42" width="2.16" height="1" transform="translate(-9.16 11.73) rotate(-45)"/><rect class="a" x="7.28" y="14.27" width="1.99" height="1" transform="translate(-8.01 10.16) rotate(-44.92)"/><circle class="b" cx="5.5" cy="19.18" r="0.5" transform="translate(-13.86 14.35) rotate(-60)"/><circle class="b" cx="13.5" cy="19.18" r="0.5" transform="translate(-9.86 21.28) rotate(-60)"/><polygon class="c" points="8.49 20.76 9.33 19.92 15.53 13.71 16.24 14.42 9.5 21.15 9.33 21.32 9.13 21.52 8.93 21.32 8.5 20.89 8.49 20.76"/><rect class="c" x="13.67" y="16.53" width="4.5" height="1" transform="translate(-7.37 16.25) rotate(-45)"/><path class="b" d="M18.28,14.72v-1l.5-.05A2.49,2.49,0,0,0,21,11.18a2.46,2.46,0,0,0-3.35-2.34L17,8.4a5,5,0,0,0-9.81-1l-.58.36a3,3,0,1,0-1,5.89H6v.9H5A4,4,0,0,1,6.34,6.7a6,6,0,0,1,11.58,1,3.5,3.5,0,1,1,1,6.92Z"/><path class="c" d="M9.5,20.82v.33l-.17.17h-.4l-.43-.43v-.07a.13.13,0,0,0,0-.06A1.48,1.48,0,0,0,7,19.32H6.5v-1H7a2.51,2.51,0,0,1,2.33,1.6A2.44,2.44,0,0,1,9.5,20.82Z"/></svg>