<svg xmlns="http://www.w3.org/2000/svg" viewBox="0 0 24 24"><defs><style>.a{fill:#63ccff;}.b{fill:#f03a47;}</style></defs><title>36 - hot</title><path class="a" d="M12,22a4.49,4.49,0,0,1-2.5-8.22V4.5a2.5,2.5,0,0,1,5,0v9.28A4.49,4.49,0,0,1,12,22ZM12,3a1.5,1.5,0,0,0-1.5,1.5v9.55l-.25.43a3.47,3.47,0,0,0-1.75,3,3.5,3.5,0,0,0,7,0,3.47,3.47,0,0,0-1.75-3l-.25-.43V4.5A1.5,1.5,0,0,0,12,3Z"/><path class="b" d="M12,19.5a2,2,0,0,1-2-2,2,2,0,0,1,1-1.72l1-.58v0l1,.58a2,2,0,0,1,1,1.72A2,2,0,0,1,12,19.5Z"/><path class="b" d="M12,20a2.5,2.5,0,0,1-2.5-2.5,2.48,2.48,0,0,1,1.25-2.15l.75-.43V4.5h1V14.92l.75.43A2.47,2.47,0,0,1,14.5,17.5,2.5,2.5,0,0,1,12,20Zm0-4.22-.74.43a1.48,1.48,0,0,0-.76,1.29,1.5,1.5,0,0,0,3,0,1.48,1.48,0,0,0-.76-1.29Z"/></svg>