<svg xmlns="http://www.w3.org/2000/svg" viewBox="0 0 24 24"><defs><style>.a{fill:#bcbcbc;}.b{fill:#fc0;}.c{fill:#039be5;}</style></defs><title>38 - scattered thunderstorms</title><path class="a" d="M6.54,14.94l-1.11-.11v0a4,4,0,0,1,.91-7.93A6,6,0,0,1,17.92,8a3.5,3.5,0,1,1,.58,6.95H18v-1h.5a2.5,2.5,0,0,0,0-5,2.46,2.46,0,0,0-.85.16L17,8.62a5,5,0,0,0-9.81-1L6.6,8a3,3,0,1,0-1,5.89h0l1,.08Z"/><polygon class="b" points="11.26 21.3 10.55 20.59 12.22 18.92 11.48 18.93 11.12 18.07 13.26 15.93 13.97 16.64 12.69 17.91 13.44 17.91 13.8 18.76 11.26 21.3"/><rect class="c" x="8.63" y="16.49" width="1.99" height="1" transform="translate(-9.2 11.81) rotate(-45.08)"/><rect class="c" x="6.4" y="18.64" width="2.16" height="1" transform="translate(-11.34 10.89) rotate(-45)"/><rect class="c" x="5.18" y="16.49" width="2" height="1" transform="translate(-10.2 9.35) rotate(-45)"/><rect class="c" x="14.88" y="18.64" width="2.16" height="1" transform="translate(-8.86 16.89) rotate(-45)"/><rect class="c" x="17.11" y="16.49" width="2" height="1" transform="translate(-6.71 17.78) rotate(-45)"/></svg>