<svg xmlns="http://www.w3.org/2000/svg" viewBox="0 0 24 24"><defs><style>.a{fill:#bcbcbc;}</style></defs><title>41 - heavy snow</title><circle class="a" cx="8.5" cy="14.38" r="0.5"/><circle class="a" cx="8.5" cy="16.38" r="0.5"/><circle class="a" cx="8.5" cy="18.38" r="0.5"/><circle class="a" cx="6.5" cy="15.38" r="0.5" transform="translate(-10.07 13.32) rotate(-60)"/><circle class="a" cx="10.5" cy="17.38" r="0.5" transform="translate(-9.8 17.78) rotate(-60)"/><circle class="a" cx="6.5" cy="17.38" r="0.5" transform="translate(-7.82 5.58) rotate(-30)"/><circle class="a" cx="10.5" cy="15.38" r="0.5" transform="translate(-6.28 7.31) rotate(-30)"/><circle class="a" cx="15.5" cy="16.38" r="0.5"/><circle class="a" cx="15.5" cy="18.38" r="0.5"/><circle class="a" cx="15.5" cy="20.38" r="0.5"/><circle class="a" cx="13.5" cy="17.38" r="0.5" transform="translate(-8.3 20.38) rotate(-60)"/><circle class="a" cx="17.5" cy="19.38" r="0.5" transform="translate(-8.03 24.84) rotate(-60)"/><circle class="a" cx="13.5" cy="19.38" r="0.5" transform="translate(-7.88 9.35) rotate(-30)"/><circle class="a" cx="17.5" cy="17.38" r="0.5" transform="translate(-6.34 11.08) rotate(-30)"/><path class="a" d="M5.92,14.64l-.49-.07A4,4,0,0,1,2.78,13,4,4,0,0,1,2,10a4,4,0,0,1,2.6-3.14,4,4,0,0,1,1.69-.22,6,6,0,0,1,11.58,1,3.32,3.32,0,0,1,2.45.53,3.44,3.44,0,0,1,.92,5,3.51,3.51,0,0,1-2.4,1.36H12v-1h6.83a2.47,2.47,0,0,0,1-4.56,2.3,2.3,0,0,0-2.17-.27L17,8.34a5,5,0,0,0-9.81-1l-.58.36A3,3,0,0,0,5,7.8a3,3,0,0,0-2,2.34,3,3,0,0,0,.55,2.24,3,3,0,0,0,2,1.19l.35.07Z"/></svg>