<svg xmlns="http://www.w3.org/2000/svg" viewBox="0 0 24 24"><defs><style>.a{fill:#039be5;}.b{fill:#63ccff;}.c{fill:#bcbcbc;}</style></defs><title>06 - mixed rain and sleet</title><rect class="a" x="8.63" y="17.01" width="1.99" height="1" transform="translate(-9.57 11.94) rotate(-45.02)"/><rect class="a" x="6.4" y="19.16" width="2.16" height="1" transform="translate(-11.71 11.05) rotate(-45)"/><rect class="a" x="5.18" y="17.01" width="2" height="1" transform="translate(-10.57 9.5) rotate(-45)"/><rect class="b" x="10.33" y="16.61" width="6.52" height="1" transform="translate(-8.12 14.62) rotate(-45)"/><rect class="b" x="13.69" y="17.49" width="4.02" height="1" transform="translate(-8.13 16.37) rotate(-45)"/><path class="c" d="M6.46,15.47l-1-.11v0a4,4,0,0,1,.91-7.93,6,6,0,0,1,11.58,1,3.5,3.5,0,1,1,1,6.93l-.5.05-.11-1,.5-.05A2.5,2.5,0,0,0,21,11.93a2.46,2.46,0,0,0-3.35-2.34L17,9.14a5,5,0,0,0-9.81-1l-.58.36a3,3,0,1,0-1,5.89h0l1,.08Z"/></svg>