<svg xmlns="http://www.w3.org/2000/svg" xmlns:xlink="http://www.w3.org/1999/xlink" viewBox="0 0 133.55 32.69"><defs><linearGradient id="a" x1="62.09" y1="68.44" x2="114.17" y2="6.37" gradientUnits="userSpaceOnUse"><stop offset="0" stop-color="#ffab00"/><stop offset="1" stop-color="#ffd900"/></linearGradient><linearGradient id="b" x1="63.75" y1="66.17" x2="112.1" y2="8.56" gradientUnits="userSpaceOnUse"><stop offset="0" stop-color="#ff5805"/><stop offset="1" stop-color="#ff9505"/></linearGradient><symbol id="c" viewBox="0 0 365.58 89.5"><path d="M117.49,23.77q-1.64-5.24-3.28-10.48c-.77-2.46-1.56-4.92-2.39-7.5l1.09-.25c1.28,0,2.55.14,3.83.09.89,0,1.23.31,1.48,1.13q5.33,16.78,10.72,33.54c.09.3.21.58.41,1.1,1.28-4,2.49-7.72,3.7-11.47q3.75-11.69,7.48-23.38a1.1,1.1,0,0,1,1.28-.91,34.29,34.29,0,0,0,3.72,0c.87-.06,1.18.33,1.42,1.08q4.46,13.91,9,27.81c.72,2.23,1.45,4.45,2.27,7l3.27-10.34C164,23,166.58,14.94,169.1,6.82a1.41,1.41,0,0,1,1.68-1.2c1.5.09,3,0,4.7,0-.43,1.38-.79,2.59-1.18,3.79q-7.71,23.94-15.4,47.89c-.27.86-.64,1.23-1.61.89L143.71,15.86c-.25.69-.41,1.09-.55,1.51L130.24,57.24c-.16.5-.11,1.1-1,1.1s-.81-.66-1-1.13q-3.2-9.92-6.36-19.84c-.12-.38-.28-.75-.42-1.12l-2.16-7a3.5,3.5,0,0,1,.85-.53,1.16,1.16,0,0,0,1-1.54l-1.71-.37,1.2-.42c-1.62-.16-2.62-.71-2.89-2.16A1.69,1.69,0,0,0,117.49,23.77Z" style="fill:#fff"/><path d="M239.59,58.53V6.44H241c4.84,0,9.68,0,14.51,0,9-.07,15.53,4,19.23,12,5.14,11.13,4.62,22.08-2.77,32.18a19,19,0,0,1-15.67,8c-5.36.09-10.71,0-16.07,0C240,58.59,239.87,58.56,239.59,58.53Zm6-6.75c3.73,0,7.34.18,10.92,0,6.2-.39,10.54-3.67,13-9.29A24.5,24.5,0,0,0,270.3,24c-1.94-5.63-5.82-9.29-11.78-10.42a30.28,30.28,0,0,0-5-.35c-2.62-.05-5.25,0-7.93,0Z" style="fill:#fff"/><path d="M18.92,31.07c.44.15,1,.31,1.47.52,5.25,2.13,7.73,6.25,8.11,11.7.36,5.16-1.08,9.67-5.45,12.84a13.51,13.51,0,0,1-8,2.44c-4.8,0-9.59,0-14.39,0A6.15,6.15,0,0,1,0,58.52V6.63c.08-.06.15-.14.21-.14,4.6,0,9.2-.22,13.78.05,5.92.36,10.33,5.16,10.82,11.39.27,3.4.11,6.78-2.15,9.58A36.8,36.8,0,0,1,18.92,31.07ZM6.07,35.4V51.63c3.25,0,6.46.24,9.61-.06,4.23-.4,6.66-3.5,6.71-7.94,0-4.12-2.37-7.28-6.45-7.8C12.71,35.42,9.42,35.53,6.07,35.4Zm0-6.46c2.51-.22,5-.24,7.32-.68a5.82,5.82,0,0,0,4.86-4.72,15.61,15.61,0,0,0,.25-4.86c-.28-2.6-1.73-4.62-4.37-5.08a71.91,71.91,0,0,0-8.07-.53Z" style="fill:#fff"/><path d="M223.65,33.8c4,3.6,6.08,8.23,8.38,12.75,1.83,3.59,3.81,7.11,5.72,10.66l.76,1.39c-2.37,0-4.55,0-6.73,0-.35,0-.77-.59-1-1-2-3.89-4-7.83-6.08-11.69-1.14-2.1-2.45-4.12-3.77-6.11-2-3-4.76-4.42-8.57-3.57V58.51h-6V6.44H217.1c7,0,11.91,4.11,13.13,11a19.14,19.14,0,0,1-.24,8.09A12.34,12.34,0,0,1,223.65,33.8Zm-11.26-4.55c2.13-.11,4.2-.11,6.24-.37a6.47,6.47,0,0,0,2.72-1.14c3.62-2.5,4-10,.75-13a6.61,6.61,0,0,0-1.71-1.08c-2.58-1.15-5.3-.67-8-.71Z" style="fill:#fff"/><path d="M56.24,43.69,64,58.61c-2.23,0-4.41,0-6.58,0-.29,0-.66-.39-.83-.69-.68-1.21-1.3-2.45-1.95-3.69-2.26-4.22-4.51-8.45-6.8-12.66a22.48,22.48,0,0,0-1.52-2.16,7.55,7.55,0,0,0-8.39-3.22V58.54H32V6.44H42.07c8.21,0,13,4.32,14,12.51L55.6,25.7a12.47,12.47,0,0,1-6.27,8.1l1.42,1.49c-.32.31-.86.6-.89.93s.51.65.9,1.08l-.05,1.06-1-.36-.14.2ZM38,29.33a63,63,0,0,0,6.94-.63,5.84,5.84,0,0,0,4.45-4.28,11.54,11.54,0,0,0,.07-6.85,5.93,5.93,0,0,0-3.88-4.11c-2.48-.89-5-.48-7.59-.51Z" style="fill:#fff"/><path d="M163.66,58.6c.51-1.54,1-2.93,1.43-4.31q8-23.4,16-46.8c.35-1,.79-1.43,1.92-1.39,2.89.09,2.89,0,3.84,2.72L204,57.1c.16.44.3.89.51,1.5-2,0-3.81.05-5.64,0-.32,0-.75-.61-.9-1-1.61-4.34-3.19-8.69-4.72-13.06a1.56,1.56,0,0,0-1.78-1.25q-7.56.09-15.11,0a1.47,1.47,0,0,0-1.68,1.21c-1.44,4.36-3,8.69-4.4,13a1.38,1.38,0,0,1-1.6,1.15C167,58.54,165.45,58.6,163.66,58.6ZM183.6,17.7,177.44,36.4h12.81Z" style="fill:#fff"/><path d="M74.75,79.36c-1.77.36-3.44.63-5.08,1a33,33,0,0,0-4.44,1.41c-1.39.57-2.66,1.44-4,2-1.85.82-3.76,1.51-5.64,2.26-.4.16-1,.25-1.16.55a1.68,1.68,0,0,1-2.48.6c-1.07-.52-2.5-1.05-2.91-2s.11-2.37.33-3.57a3.06,3.06,0,0,1,.73-1.65c3.12-2.82,5.82-6.16,9.87-7.85a39.4,39.4,0,0,1,12.16-3A17.39,17.39,0,0,1,81.51,71a5.79,5.79,0,0,1,3.19,6.27c-.09.58-.21,1.15-.35,1.94,1.24-.23,2.32-.38,3.39-.63A51,51,0,0,1,106,77.38a13.52,13.52,0,0,1,8.24,3.77c.77.79,1.47,1.57.84,2.78a.34.34,0,0,0,0,.3c.75,1.05-.17,1.08-.75,1.06-2.07-.07-4.15-.18-6.21-.36a51.13,51.13,0,0,0-13,.16c-3,.51-6,1.15-8.93,1.94-2.13.57-4.15,1.57-6.26,2.23a4.62,4.62,0,0,1-4.09-.55,4,4,0,0,1-1.29-2.63,43,43,0,0,1,.16-5.25C74.77,80.43,74.75,80,74.75,79.36Z" style="fill:#039be5"/><path d="M109.41,56.31c-3.14-1.84-6-4.15-6.8-8.07-.35.48-.72.95-1,1.45a8,8,0,0,1-6.71,4.13,7.76,7.76,0,0,0-1.75.34c-2.6.73-5.1-.08-7.66-.41C80,53,76.15,49.69,72.81,45.81A21,21,0,0,1,69,37.68c-1.25-4.37.05-8.32,1.21-12.28.47-1.6,2-2.88,3.12-4.3-.7-.27-1.39-.55-2.09-.79-1.6-.55-2.52-1.88-3.58-3.06-.9-1-1.74-2.07-2.58-3.12a3.59,3.59,0,0,1-.27-.86l.89.93.27-.15-.84-1.74c-.26-.53-.74-1,.16-1.52.16-.08,0-.74,0-1.13,0-.58-.12-1.16-.18-1.74h0L63.93,5c-1.4.95-2.8,1.88-4.19,2.85a1.18,1.18,0,0,0-.35.6c-.41,1.33-.9,2.64-1.18,4-.64,3.1-1.17,6.23-1.76,9.43L56.07,19,55.6,25.7c0,1.06,0,2.13,0,3.18-.13,1.79-.32,3.57-.53,5.35a4.18,4.18,0,0,1-.45,1.07c3.26.48,6.53.92,9.78,1.47a6.22,6.22,0,0,1,2,1,1.13,1.13,0,0,1,.18,2,24.31,24.31,0,0,1-4.7,3.12c-1,.47-2.4.16-3.61.3a13.65,13.65,0,0,0-2,.52L64,58.61c-2.23,0-4.41,0-6.58,0-.29,0-.66-.39-.83-.69-.68-1.21-1.3-2.46-1.95-3.69.86,3,1.64,6.08,2.61,9.07a4.78,4.78,0,0,0,2.22,2.85,8.9,8.9,0,0,0,7.63.38l1.12-1L64,66.37a38.05,38.05,0,0,1,7.62-14.88c.21-.24.36-.52.55-.78a1.26,1.26,0,0,1,2-.08c1.88,2,2,4.1,1.3,6.67-.88,3-2.51,5.66-3.81,8.47,2.21-.48,4.4-1.11,6.64-1.39a4.6,4.6,0,0,1,3,.74,24,24,0,0,1,4.86,4.41c2,2.62,4.58,3.26,7.6,3,1.71-.15,3.41-.41,5.12-.49,3.06-.15,6.13-.07,9.18-.33a10.2,10.2,0,0,0,7.84-4.06c1.63-2.27,1.87-4.95,1.78-7.66A75.27,75.27,0,0,1,109.41,56.31ZM93.46,68.49a4.13,4.13,0,0,1-.11.58c-.13.37-.29.74-.44,1.13-.37-.83-1-.76-1.69-.59a5.19,5.19,0,0,1-2,.45c-.63-.13-1.16-.77-1.94-.61a12.39,12.39,0,0,1-.41-2.29,71.89,71.89,0,0,1,.26-7.74,11.8,11.8,0,0,1,1.51-3.74c.35-.68,1.43-.63,2,.21a13.63,13.63,0,0,1,2.28,4A19.05,19.05,0,0,1,93.46,68.49ZM65.12,7.92,63.93,5c2-.7,4-1.54,6-2.09A75.37,75.37,0,0,1,86.44.22a6,6,0,0,0,1-.22h7C96,.16,97.55.31,99.1.5a12.48,12.48,0,0,1,1.34.31c-.5.39-1,.79-1.52,1.17S97.73,2.57,97.48,3c-1.49,2.81-3,5.64-4.25,8.54a6,6,0,0,0-.41,3.27,4.29,4.29,0,0,0,1.58,2.06c.2.17,1.09-.07,1.33-.38q3.62-4.52,7.1-9.16c.48-.65,1.3-1.48.12-2.33-.07-.05.08-.44.14-.66.33-1.15.67-2.29,0-3.42a22.12,22.12,0,0,1,9.63,4.17,1.35,1.35,0,0,1,.24.41l-1.09.25c.82,2.59,1.61,5,2.39,7.5q1.65,5.24,3.28,10.48c-.67,0-1.34,0-2,0s-1-.08-1.57-.13a6.59,6.59,0,0,0-1.66.06c-.41.09-.77.38-1.17.5-2.51.74-5.07,1.38-7.23,3A20.64,20.64,0,0,0,92.63,18a22.57,22.57,0,0,0-3.22-.7,1.62,1.62,0,0,0-2.12-1.13c-1.23.28-2.46.58-3.69.86-.15,0-.32-.17-.44-.13-2.23.77-4.47,1.53-6.68,2.37-.27.1-.38.63-.57,1-1.05-6.29-5.31-10.54-9.21-15l-.57,0Zm56.42,28.33c-.54,2.72-1.08,5.43-1.63,8.15-.42,2.06-1,4.1-1.25,6.17-.34,2.39-.46,4.82-.68,7.23l-.25.05a14,14,0,0,1-4-5.51,5.87,5.87,0,0,0-2.35-2.7c-.33-.23-.63-.48-1-.7l-6.62-4.33.23-1.17,0-.48c.37-2,.82-4,1.11-6,.33-2.32.63-4.66-.18-7,4.4,1.36,8.8,1.13,13.43.08l-1.1-.29c.68-.65,1.26-1,2.08-.55Z" style="fill:url(#a)"/><path d="M117.95,59.31a4.72,4.72,0,0,0-.56-1.13c-.31-.35-.75-.57-1-1l1.38.69.25-.05,1.15,1.62Z" style="fill:#aeaeae"/><path d="M67.09,66.5l1.12-1L64,66.37a38.05,38.05,0,0,1,7.62-14.88c.21-.24.36-.52.55-.78a1.26,1.26,0,0,1,2-.08c1.88,2,2,4.1,1.3,6.67-.88,3-2.51,5.66-3.81,8.47a2.26,2.26,0,0,1-2.73.6C68.42,66.15,67.7,66.44,67.09,66.5ZM100.44.8c-.5.39-1,.79-1.52,1.17S97.73,2.57,97.48,3c-1.49,2.81-3,5.64-4.25,8.54a6,6,0,0,0-.41,3.27,4.29,4.29,0,0,0,1.58,2.06c.2.17,1.09-.07,1.33-.38q3.62-4.52,7.1-9.16c.48-.65,1.3-1.48.12-2.33-.07-.05.08-.44.14-.66.33-1.15.67-2.29,0-3.42Zm2.47,45.69a11.83,11.83,0,0,0-.31,1.75c.8,3.92,3.67,6.23,6.8,8.07a75.27,75.27,0,0,0,8.3,3.67l.24-.67a4.72,4.72,0,0,0-.56-1.13c-.31-.35-.75-.57-1-1l1.38.69a14,14,0,0,1-4-5.51,5.87,5.87,0,0,0-2.35-2.7c-.33-.23-.63-.48-1-.7l-6.62-4.33C102.73,44.87,103.13,45.84,102.91,46.5ZM75.14,23.55a19.66,19.66,0,0,0-2.66,12.63A20.37,20.37,0,0,0,76,45.83,13.63,13.63,0,0,0,88,52.3a16.76,16.76,0,0,0,10-3.78,21.44,21.44,0,0,0,4.25-4.86c-.19-.67-.35-1.33.53-1.66.2-.29.41-.56.58-.87a3.4,3.4,0,0,0,.53-1.13c.18-1.49.33-3,.4-4.48a26.16,26.16,0,0,0,0-4.33c-.42-3.47-2.62-5.78-5.34-7.69a29.88,29.88,0,0,0-8.63-4.29c-.3-.09-.53-.57-.7-.91a4.57,4.57,0,0,1-.24-1,1.62,1.62,0,0,0-2.12-1.13c-1.23.28-2.46.58-3.69.86A16,16,0,0,0,75.14,23.55Zm23.81,2.67a2.15,2.15,0,0,1,.42.72c1,3.87,1.63,7.76-.12,11.58a10.8,10.8,0,0,1-6.51,6c-4,1.37-8.74-1.36-10.07-5.32a18.79,18.79,0,0,1-1.3-5.78c0-3.56.42-7.12,3.81-9.43A41.2,41.2,0,0,0,89,20.85a5.21,5.21,0,0,0,.79-1.35A23,23,0,0,1,98.95,26.22Zm-32.24-21-.57,0-1,2.7c.06.58.14,1.16.18,1.74,0,.39.14,1,0,1.13-.9.47-.42,1-.16,1.52L66,14.05l-.27.15-.89-.93a3.59,3.59,0,0,0,.27.86c.85,1.05,1.68,2.12,2.58,3.12,1.05,1.17,2,2.51,3.58,3.06.71.24,1.4.53,2.09.79,1,0,2,.26,2.6-.91C74.86,13.91,70.61,9.66,66.71,5.18Zm53.53,23.58a1.16,1.16,0,0,0,1-1.54l-1.71-.37,1.2-.42c-1.62-.16-2.62-.71-2.89-2.16a1.69,1.69,0,0,0-.31-.5c-.67,0-1.34,0-2,0s-1-.08-1.57-.13a6.6,6.6,0,0,0-1.66.06c-.41.09-.77.38-1.17.5-2.51.74-5.07,1.38-7.23,3a7.28,7.28,0,0,0,.28,1.07c.26.62.57,1.21.87,1.81,4.4,1.36,8.8,1.13,13.43.08l-1.1-.29c.68-.65,1.26-1,2.08-.55A3.5,3.5,0,0,1,120.24,28.76Zm-62,14.41c1.21-.13,2.58.18,3.61-.3a24.32,24.32,0,0,0,4.7-3.12,1.13,1.13,0,0,0-.18-2,6.22,6.22,0,0,0-2-1c-3.25-.55-6.52-1-9.78-1.47l-3.82,0c-.32.31-.86.6-.89.93s.51.65.9,1.08l-.05,1.06-1-.36-.14.2,6.66,5.49A13.66,13.66,0,0,1,58.24,43.17Zm35.12,25.9a4.13,4.13,0,0,0,.11-.58,19.05,19.05,0,0,0-.54-8.62,13.63,13.63,0,0,0-2.28-4c-.59-.84-1.67-.89-2-.21a11.8,11.8,0,0,0-1.51,3.74,71.88,71.88,0,0,0-.26,7.74,12.39,12.39,0,0,0,.41,2.29c.78-.17,1.3.48,1.94.61a5.2,5.2,0,0,0,2-.45c.68-.17,1.33-.24,1.69.59C93.07,69.81,93.22,69.44,93.35,69.07Z" style="fill:url(#b)"/><path d="M275.32,55.15a3.82,3.82,0,0,1,.3-1.51,4.18,4.18,0,0,1,.81-1.25,3.54,3.54,0,0,1,1.23-.84,3.94,3.94,0,0,1,1.53-.3,3.82,3.82,0,0,1,1.51.3,3.75,3.75,0,0,1,1.23.84,4.06,4.06,0,0,1,.83,1.25,3.84,3.84,0,0,1,.3,1.51,3.92,3.92,0,0,1-.3,1.54A3.84,3.84,0,0,1,279.19,59a4,4,0,0,1-1.53-.3,3.66,3.66,0,0,1-1.23-.83,4,4,0,0,1-.81-1.23A3.9,3.9,0,0,1,275.32,55.15Z" style="fill:#039be5"/><path d="M298.54,27.67a16,16,0,0,1,6.06,1.1,12.65,12.65,0,0,1,4.59,3.13,14,14,0,0,1,2.91,4.94,19.47,19.47,0,0,1,1,6.5,19.6,19.6,0,0,1-1,6.51,14,14,0,0,1-2.91,5,12.64,12.64,0,0,1-4.59,3.13,17.36,17.36,0,0,1-12.13,0,12.75,12.75,0,0,1-4.62-3.13,13.86,13.86,0,0,1-2.92-5,19.57,19.57,0,0,1-1-6.51,19.44,19.44,0,0,1,1-6.5,13.88,13.88,0,0,1,2.92-4.94,12.75,12.75,0,0,1,4.62-3.13A16.11,16.11,0,0,1,298.54,27.67Zm0,26.91q4.38,0,6.54-2.94t2.16-8.28q0-5.31-2.16-8.28a7.56,7.56,0,0,0-6.54-3q-4.44,0-6.62,3t-2.17,8.28q0,5.34,2.17,8.28T298.54,54.58Z" style="fill:#039be5"/><path d="M317.28,58.6V28.15h3.27a1.86,1.86,0,0,1,1.27.33,2,2,0,0,1,.47,1.2l.36,4.44a13.7,13.7,0,0,1,3.54-4.77,7.65,7.65,0,0,1,5-1.74,8.09,8.09,0,0,1,1.88.21,4.6,4.6,0,0,1,1.54.66l-.39,4.26a.91.91,0,0,1-1,.81,6.4,6.4,0,0,1-1.25-.18,8.52,8.52,0,0,0-1.82-.18,7,7,0,0,0-2.5.42,6,6,0,0,0-2,1.23,8.43,8.43,0,0,0-1.54,2A18.45,18.45,0,0,0,323,39.49V58.6Z" style="fill:#039be5"/><path d="M349.11,27.64a14.78,14.78,0,0,1,3.67.44,12.91,12.91,0,0,1,3.13,1.25h8.4v2.1q0,1.08-1.32,1.35l-3.33.48a9.51,9.51,0,0,1,.93,4.2,9.32,9.32,0,0,1-.85,4,9.12,9.12,0,0,1-2.38,3.09,10.77,10.77,0,0,1-3.65,2,14.79,14.79,0,0,1-4.6.69,16.06,16.06,0,0,1-3.9-.45q-1.89,1.14-1.89,2.52a1.71,1.71,0,0,0,.88,1.57,6.74,6.74,0,0,0,2.33.77,25,25,0,0,0,3.27.3q1.83.06,3.75.2a34.93,34.93,0,0,1,3.75.46,11.15,11.15,0,0,1,3.27,1.09,6.33,6.33,0,0,1,2.33,2.08,6.1,6.1,0,0,1,.88,3.45,8.08,8.08,0,0,1-1,3.83A10.1,10.1,0,0,1,360,66.35a14.85,14.85,0,0,1-4.52,2.29,19.42,19.42,0,0,1-6,.87,23.2,23.2,0,0,1-5.87-.66,13.85,13.85,0,0,1-4.17-1.77,7.67,7.67,0,0,1-2.49-2.57,6.08,6.08,0,0,1-.83-3,5.45,5.45,0,0,1,1.4-3.79,9.22,9.22,0,0,1,3.82-2.42,5.3,5.3,0,0,1-2.13-1.63,4.45,4.45,0,0,1-.78-2.75,4.23,4.23,0,0,1,.24-1.37,5.63,5.63,0,0,1,.74-1.41,7.22,7.22,0,0,1,1.23-1.33,8.26,8.26,0,0,1,1.69-1.11,9.58,9.58,0,0,1-3.54-3.34,9.07,9.07,0,0,1-1.29-4.87,9,9,0,0,1,3.29-7.14,10.92,10.92,0,0,1,3.67-2A15.12,15.12,0,0,1,349.11,27.64Zm9.42,32.55a2.45,2.45,0,0,0-.62-1.74,4.27,4.27,0,0,0-1.67-1,10.19,10.19,0,0,0-2.43-.54q-1.38-.15-2.91-.24l-3.13-.18q-1.61-.09-3.08-.3a8.35,8.35,0,0,0-2.64,1.92,3.88,3.88,0,0,0-1,2.67,3.54,3.54,0,0,0,.51,1.84A4.3,4.3,0,0,0,343.1,64a9.1,9.1,0,0,0,2.64,1,17.51,17.51,0,0,0,3.79.36,17.08,17.08,0,0,0,3.84-.39,9.66,9.66,0,0,0,2.82-1.08,5.19,5.19,0,0,0,1.74-1.63A3.81,3.81,0,0,0,358.53,60.19Zm-9.42-16.68a8.18,8.18,0,0,0,2.79-.44,5.59,5.59,0,0,0,2-1.22A5,5,0,0,0,355.13,40a6.78,6.78,0,0,0,.41-2.4,5.76,5.76,0,0,0-1.63-4.31,7.94,7.94,0,0,0-9.57,0,5.76,5.76,0,0,0-1.63,4.31,6.48,6.48,0,0,0,.42,2.37,5.26,5.26,0,0,0,1.23,1.88,5.49,5.49,0,0,0,2,1.23A8.08,8.08,0,0,0,349.11,43.51Z" style="fill:#039be5"/></symbol></defs><title>broward-dot-org-logo</title><ellipse cx="32.49" cy="13.86" rx="8.36" ry="9.05" style="fill:#fff"/><use width="365.58" height="89.5" transform="scale(0.37)" xlink:href="#c"/></svg>