<svg id="Layer_1" data-name="Layer 1" xmlns="http://www.w3.org/2000/svg" viewBox="0 0 600 600"><defs><style>.cls-1{fill:#bcbcbc;}</style></defs><title>0</title><path class="cls-1" d="M392.87,297.1H207.13V285.49H392.87a17.41,17.41,0,1,0,0-34.83h-209a29,29,0,0,1,0-58H416.08a17.41,17.41,0,0,0,0-34.83H137.48a29,29,0,0,1,0-58v11.61a17.41,17.41,0,0,0,0,34.83h278.6a29,29,0,1,1,0,58H183.92a17.41,17.41,0,0,0,0,34.83h209a29,29,0,1,1,0,58Z"/><path class="cls-1" d="M230.35,482.83V471.22a17.41,17.41,0,1,0,0-34.83,29,29,0,0,1,0-58H300a17.41,17.41,0,0,0,0-34.83H207.13a29,29,0,1,1,0-58V297.1a17.41,17.41,0,0,0,0,34.83H300a29,29,0,0,1,0,58H230.35a17.41,17.41,0,1,0,0,34.83,29,29,0,1,1,0,58Z"/><path class="cls-1" d="M491.54,128.78H479.93a17.43,17.43,0,0,0-17.41-17.41h-325V99.75h325A29,29,0,0,1,491.54,128.78Z"/><path class="cls-1" d="M212.94,500.25H201.33a29,29,0,0,1,29-29v11.61A17.43,17.43,0,0,0,212.94,500.25Z"/></svg>