<svg id="Layer_1" data-name="Layer 1" xmlns="http://www.w3.org/2000/svg" viewBox="0 0 600 600"><defs><style>.cls-1{fill:#f03a47;}</style></defs><title>1</title><path class="cls-1" d="M300,407.38A107.38,107.38,0,1,1,407.38,300,107.5,107.5,0,0,1,300,407.38Zm0-203.15A95.77,95.77,0,1,0,395.77,300,95.88,95.88,0,0,0,300,204.23Z"/><path class="cls-1" d="M305.8,407.38H300c-92.81,0-168.32-75.51-168.32-168.32S207.19,70.73,300,70.73h5.8V82.34H300c-86.42,0-156.71,70.3-156.71,156.71S213.58,395.77,300,395.77h5.8Z"/><path class="cls-1" d="M300,529.27h-5.8V517.66H300c86.42,0,156.71-70.3,156.71-156.71S386.42,204.23,300,204.23h-5.8V192.62H300c92.81,0,168.32,75.51,168.32,168.32S392.81,529.27,300,529.27Z"/></svg>