<svg id="Layer_1" data-name="Layer 1" xmlns="http://www.w3.org/2000/svg" viewBox="0 0 24 24"><defs><style>.cls-1{fill:#039be5;}.cls-2{fill:#bcbcbc;}</style></defs><title>11</title><rect class="cls-1" x="9.68" y="17.26" width="1.5" height="0.5" transform="translate(-9.33 12.5) rotate(-45)"/><rect class="cls-1" x="7.74" y="19.41" width="1.66" height="0.5" transform="translate(-11.39 11.82) rotate(-45)"/><rect class="cls-1" x="12.83" y="17.26" width="1.5" height="0.5" transform="translate(-8.41 14.73) rotate(-45)"/><rect class="cls-1" x="10.74" y="19.41" width="1.66" height="0.5" transform="translate(-10.51 13.94) rotate(-45)"/><rect class="cls-1" x="15.98" y="17.26" width="1.5" height="0.5" transform="translate(-7.49 16.95) rotate(-45)"/><rect class="cls-1" x="13.74" y="19.41" width="1.66" height="0.5" transform="translate(-9.63 16.06) rotate(-45)"/><rect class="cls-1" x="6.53" y="17.26" width="1.5" height="0.5" transform="translate(-10.25 10.28) rotate(-45)"/><path class="cls-2" d="M6.23,15.2l-.76-.08h0A3.74,3.74,0,0,1,6.52,7.71,5.74,5.74,0,0,1,17.71,8.78a3.06,3.06,0,0,1,.79-.11,3.25,3.25,0,0,1,.36,6.48l-.59,0,0-.5.58,0a2.75,2.75,0,0,0-.32-5.48,2.7,2.7,0,0,0-.93.17l-.33-.22A5.24,5.24,0,0,0,6.94,8.06l-.29.18a3.24,3.24,0,1,0-1.11,6.39h0l.72.06Z"/></svg>