<svg id="Layer_1" data-name="Layer 1" xmlns="http://www.w3.org/2000/svg" viewBox="0 0 600 600"><defs><style>.cls-1{fill:#039be5;}.cls-2{fill:#bcbcbc;}</style></defs><title>12</title><rect class="cls-1" x="246.09" y="421" width="34.71" height="11.61" transform="translate(-224.63 311.29) rotate(-45)"/><rect class="cls-1" x="201.2" y="470.87" width="38.56" height="11.61" transform="translate(-272.48 295.52) rotate(-45)"/><rect class="cls-1" x="319.2" y="421" width="34.71" height="11.61" transform="translate(-203.22 362.99) rotate(-45)"/><rect class="cls-1" x="270.85" y="470.87" width="38.56" height="11.61" transform="translate(-252.08 344.77) rotate(-45)"/><rect class="cls-1" x="392.3" y="421" width="34.71" height="11.61" transform="translate(-181.81 414.67) rotate(-45)"/><rect class="cls-1" x="340.5" y="470.87" width="38.56" height="11.61" transform="translate(-231.68 394.02) rotate(-45)"/><rect class="cls-1" x="172.99" y="421" width="34.71" height="11.61" transform="translate(-246.04 259.6) rotate(-45)"/><path class="cls-2" d="M166,373l-17.75-1.77v.09c-42.55-6.13-74.63-43-74.63-85.83a87,87,0,0,1,99.06-86.22,133.33,133.33,0,0,1,259.82,24.85,71,71,0,0,1,18.4-2.47,75.46,75.46,0,0,1,8.33,150.46l-13.81.76-.63-11.59,13.49-.74a63.86,63.86,0,0,0-7.38-127.28,62.77,62.77,0,0,0-21.61,4l-7.77-5.12a121.73,121.73,0,0,0-239.12-24.79l-6.75,4.18a75.42,75.42,0,0,0-90.43,73.95c0,37.06,27.81,69,64.67,74.33l.23.26,16.8,1.34Z"/></svg>