<svg id="Layer_1" data-name="Layer 1" xmlns="http://www.w3.org/2000/svg" viewBox="0 0 600 600"><defs><style>.cls-1{fill:#bcbcbc;}</style></defs><title>13</title><circle class="cls-1" cx="218.74" cy="358.04" r="11.61"/><circle class="cls-1" cx="218.74" cy="404.48" r="11.61"/><circle class="cls-1" cx="218.74" cy="450.91" r="11.61"/><circle class="cls-1" cx="172.31" cy="381.26" r="11.61" transform="translate(-244.03 339.85) rotate(-60)"/><circle class="cls-1" cx="265.18" cy="427.69" r="11.61" transform="translate(-237.81 443.5) rotate(-60)"/><circle class="cls-1" cx="172.31" cy="427.69" r="11.61" transform="translate(-190.76 143.46) rotate(-30)"/><circle class="cls-1" cx="265.18" cy="381.26" r="11.61" transform="translate(-155.1 183.67) rotate(-30)"/><circle class="cls-1" cx="381.26" cy="404.48" r="11.61"/><circle class="cls-1" cx="381.26" cy="450.91" r="11.61"/><circle class="cls-1" cx="381.26" cy="497.34" r="11.61"/><circle class="cls-1" cx="334.83" cy="427.69" r="11.61" transform="translate(-202.98 503.82) rotate(-60)"/><circle class="cls-1" cx="427.69" cy="474.13" r="11.61" transform="translate(-196.76 607.46) rotate(-60)"/><circle class="cls-1" cx="334.83" cy="474.13" r="11.61" transform="translate(-192.21 230.93) rotate(-30)"/><circle class="cls-1" cx="427.69" cy="427.69" r="11.61" transform="translate(-156.55 271.15) rotate(-30)"/><path class="cls-1" d="M154,357.65l-5.75-.83A87.92,87.92,0,0,1,90.6,322.41a86.51,86.51,0,0,1-15.92-65.1c4.7-30.79,26.94-57.55,56.61-68.2a85.76,85.76,0,0,1,41.4-4.35A133.33,133.33,0,0,1,432.51,209.6c20.3-5.38,39.56-2.05,58.62,10.17,18.51,11.88,31,30.21,34.21,50.3a75.5,75.5,0,0,1-66.1,87.52l-153.44,0V346h152.8a64,64,0,0,0,55.29-74.09c-2.68-16.59-13.52-32.42-29-42.38-18.26-11.72-35.92-13.88-55.56-6.77l-7.77-5.14a121.73,121.73,0,0,0-239.12-24.79L175.67,197a74.52,74.52,0,0,0-40.46,3c-25.73,9.23-45,32.39-49.06,59a75.1,75.1,0,0,0,13.76,56.45,76.18,76.18,0,0,0,50,29.81l5.75.83Z"/></svg>