<svg id="Layer_1" data-name="Layer 1" xmlns="http://www.w3.org/2000/svg" viewBox="0 0 600 600"><defs><style>.cls-1{fill:#bcbcbc;}</style></defs><title>14</title><circle class="cls-1" cx="218.74" cy="381.26" r="11.61"/><circle class="cls-1" cx="218.74" cy="427.69" r="11.61"/><circle class="cls-1" cx="218.74" cy="474.13" r="11.61"/><circle class="cls-1" cx="172.31" cy="404.48" r="11.61" transform="matrix(0.5, -0.87, 0.87, 0.5, -264.13, 351.46)"/><circle class="cls-1" cx="265.18" cy="450.91" r="11.61" transform="translate(-257.91 455.11) rotate(-60)"/><circle class="cls-1" cx="172.31" cy="450.91" r="11.61" transform="translate(-202.37 146.57) rotate(-30)"/><circle class="cls-1" cx="265.18" cy="404.48" r="11.61" transform="translate(-166.71 186.78) rotate(-30)"/><path class="cls-1" d="M154,380.86l-5.75-.83A87.92,87.92,0,0,1,90.6,345.63a86.51,86.51,0,0,1-15.92-65.1c4.7-30.79,26.94-57.55,56.61-68.2a85.78,85.78,0,0,1,41.4-4.35,133.33,133.33,0,0,1,259.82,24.85c20.31-5.38,39.56-2.05,58.62,10.17,18.51,11.88,31,30.21,34.21,50.3a75.5,75.5,0,0,1-66.1,87.52l-153.44,0V369.23h152.8a64,64,0,0,0,55.29-74.09c-2.68-16.59-13.52-32.42-29-42.38C466.61,241,449,238.89,429.3,246l-7.77-5.14a121.73,121.73,0,0,0-239.12-24.79l-6.75,4.18a74.52,74.52,0,0,0-40.46,3c-25.73,9.23-45,32.39-49.06,59a75.1,75.1,0,0,0,13.76,56.45,76.18,76.18,0,0,0,50,29.81l5.75.83Z"/></svg>