<svg id="Layer_1" data-name="Layer 1" xmlns="http://www.w3.org/2000/svg" viewBox="0 0 24 24"><defs><style>.cls-1{fill:#bcbcbc;}.cls-2{fill:#63ccff;}</style></defs><title>15</title><circle class="cls-1" cx="17.88" cy="13.25" r="0.5"/><circle class="cls-1" cx="17.88" cy="15.25" r="0.5"/><circle class="cls-1" cx="17.88" cy="17.25" r="0.5"/><circle class="cls-1" cx="16.15" cy="14.25" r="0.5" transform="translate(-4.26 21.11) rotate(-60)"/><circle class="cls-1" cx="19.62" cy="16.25" r="0.5" transform="translate(-4.26 25.11) rotate(-60)"/><circle class="cls-1" cx="16.15" cy="16.25" r="0.5" transform="translate(-5.96 10.25) rotate(-30)"/><circle class="cls-1" cx="19.62" cy="14.25" r="0.5" transform="translate(-4.5 11.72) rotate(-30)"/><circle class="cls-1" cx="7.88" cy="5.25" r="0.5"/><circle class="cls-1" cx="7.88" cy="7.25" r="0.5"/><circle class="cls-1" cx="7.88" cy="9.25" r="0.5"/><circle class="cls-1" cx="6.15" cy="6.25" r="0.5" transform="translate(-2.34 8.45) rotate(-60)"/><circle class="cls-1" cx="9.62" cy="8.25" r="0.5" transform="translate(-2.34 12.45) rotate(-60)"/><circle class="cls-1" cx="6.15" cy="8.25" r="0.5" transform="translate(-3.3 4.18) rotate(-30)"/><circle class="cls-1" cx="9.62" cy="6.25" r="0.5" transform="translate(-1.84 5.65) rotate(-30)"/><path class="cls-2" d="M15.88,11.5h-.25V11h.25a1.75,1.75,0,1,0-1.75-1.75V9.5h-.5V9.25a2.25,2.25,0,1,1,2.25,2.25Z"/><rect class="cls-2" x="3.63" y="11" width="12.5" height="0.5"/><path class="cls-2" d="M9.88,19.5a2.25,2.25,0,0,1-2.25-2.25V17h.5v.25A1.75,1.75,0,1,0,9.88,15.5H9.63V15h.25a2.25,2.25,0,0,1,0,4.5Z"/><rect class="cls-2" x="3.63" y="15" width="6.5" height="0.5"/><rect class="cls-2" x="3.63" y="13" width="10.5" height="0.5"/></svg>