<svg id="Layer_1" data-name="Layer 1" xmlns="http://www.w3.org/2000/svg" viewBox="0 0 600 600"><defs><style>.cls-1{fill:#bcbcbc;}.cls-2{fill:#63ccff;}</style></defs><title>15</title><circle class="cls-1" cx="439.51" cy="326.12" r="11.61"/><circle class="cls-1" cx="439.51" cy="372.55" r="11.61"/><circle class="cls-1" cx="439.51" cy="418.99" r="11.61"/><circle class="cls-1" cx="399.3" cy="349.34" r="11.61" transform="matrix(0.5, -0.87, 0.87, 0.5, -102.88, 520.47)"/><circle class="cls-1" cx="479.72" cy="395.77" r="11.61" transform="translate(-102.88 613.34) rotate(-60)"/><circle class="cls-1" cx="399.3" cy="395.77" r="11.61" transform="translate(-144.39 252.67) rotate(-30)"/><circle class="cls-1" cx="479.72" cy="349.34" r="11.61" transform="translate(-110.4 286.66) rotate(-30)"/><circle class="cls-1" cx="207.34" cy="140.38" r="11.61"/><circle class="cls-1" cx="207.34" cy="186.82" r="11.61"/><circle class="cls-1" cx="207.34" cy="233.25" r="11.61"/><circle class="cls-1" cx="167.13" cy="163.6" r="11.61" transform="translate(-58.12 226.54) rotate(-60)"/><circle class="cls-1" cx="247.55" cy="210.03" r="11.61" transform="translate(-58.12 319.41) rotate(-60)"/><circle class="cls-1" cx="167.13" cy="210.03" r="11.61" transform="translate(-82.63 111.7) rotate(-30)"/><circle class="cls-1" cx="247.55" cy="163.6" r="11.61" transform="translate(-48.63 145.7) rotate(-30)"/><path class="cls-2" d="M393.07,285.49h-5.8V273.88h5.8a40.63,40.63,0,1,0-40.63-40.63v5.8H340.84v-5.8a52.24,52.24,0,1,1,52.24,52.24Z"/><rect class="cls-2" x="108.67" y="273.88" width="290.21" height="11.61"/><path class="cls-2" d="M253.77,471.22A52.3,52.3,0,0,1,201.53,419v-5.8h11.61V419a40.63,40.63,0,1,0,40.63-40.63H248V366.75h5.8a52.24,52.24,0,0,1,0,104.48Z"/><rect class="cls-2" x="108.67" y="366.75" width="150.91" height="11.61"/><rect class="cls-2" x="108.67" y="320.31" width="243.78" height="11.61"/></svg>