<svg id="Layer_1" data-name="Layer 1" xmlns="http://www.w3.org/2000/svg" viewBox="0 0 600 600"><defs><style>.cls-1{fill:#bcbcbc;}</style></defs><title>16</title><circle class="cls-1" cx="218.74" cy="358.04" r="11.61"/><circle class="cls-1" cx="218.74" cy="404.48" r="11.61"/><circle class="cls-1" cx="218.74" cy="450.91" r="11.61"/><circle class="cls-1" cx="172.3" cy="381.26" r="11.61" transform="matrix(0.5, -0.87, 0.87, 0.5, -244.03, 339.85)"/><circle class="cls-1" cx="265.17" cy="427.69" r="11.61" transform="translate(-237.81 443.49) rotate(-60)"/><circle class="cls-1" cx="172.3" cy="427.69" r="11.61" transform="translate(-190.76 143.45) rotate(-30)"/><circle class="cls-1" cx="265.17" cy="381.26" r="11.61" transform="translate(-155.1 183.66) rotate(-30)"/><circle class="cls-1" cx="381.25" cy="404.48" r="11.61"/><circle class="cls-1" cx="381.25" cy="450.91" r="11.61"/><circle class="cls-1" cx="381.25" cy="497.34" r="11.61"/><circle class="cls-1" cx="334.82" cy="427.69" r="11.61" transform="translate(-202.98 503.81) rotate(-60)"/><circle class="cls-1" cx="427.69" cy="474.13" r="11.61" transform="translate(-196.76 607.45) rotate(-60)"/><circle class="cls-1" cx="334.82" cy="474.13" r="11.61" transform="translate(-192.21 230.93) rotate(-30)"/><circle class="cls-1" cx="427.69" cy="427.69" r="11.61" transform="translate(-156.55 271.14) rotate(-30)"/><path class="cls-1" d="M154,357.65l-5.76-.83a87.91,87.91,0,0,1-57.66-34.39,86.53,86.53,0,0,1-15.92-65.12c4.72-30.79,26.94-57.57,56.64-68.2a85.51,85.51,0,0,1,41.38-4.35A133.32,133.32,0,0,1,432.49,209.6c20.31-5.43,39.61-2.05,58.63,10.17,18.52,11.88,31,30.21,34.24,50.29a75.53,75.53,0,0,1-66.14,87.53l-153.43,0V346H458.59a64,64,0,0,0,55.3-74.09c-2.68-16.59-13.54-32.42-29-42.38-18.25-11.72-35.91-13.84-55.57-6.78l-7.78-5.12a121.72,121.72,0,0,0-239.11-24.79L175.66,197a74.44,74.44,0,0,0-40.45,3c-25.73,9.22-45,32.39-49.06,59a75,75,0,0,0,13.76,56.45,76.15,76.15,0,0,0,50,29.81l5.74.83Z"/></svg>