<svg id="Layer_1" data-name="Layer 1" xmlns="http://www.w3.org/2000/svg" viewBox="0 0 600 600"><defs><style>.cls-1{fill:#bcbcbc;}.cls-2{fill:#63ccff;}</style></defs><title>17</title><circle class="cls-1" cx="149.09" cy="465.57" r="11.61" transform="translate(-328.65 361.9) rotate(-60)"/><circle class="cls-1" cx="334.83" cy="465.57" r="11.61" transform="translate(-235.78 522.75) rotate(-60)"/><rect class="cls-2" x="196.88" y="423.4" width="221.75" height="11.61" transform="translate(-213.35 343.32) rotate(-45)"/><rect class="cls-2" x="239.33" y="376.96" width="90.42" height="11.61" transform="translate(-187.32 313.31) rotate(-45)"/><rect class="cls-2" x="197.7" y="365.35" width="57.59" height="11.61" transform="translate(-196.11 268.87) rotate(-45)"/><rect class="cls-2" x="343.82" y="407.7" width="98.56" height="11.61" transform="translate(-177.26 399.07) rotate(-45)"/><path class="cls-1" d="M453.47,355.47l-1.27-11.54,5.76-.63A63.85,63.85,0,0,0,450.91,216a62.82,62.82,0,0,0-21.61,4l-7.78-5.12a121.72,121.72,0,0,0-239.11-24.78l-6.76,4.18a75.36,75.36,0,0,0-90.42,73.94c0,37.06,27.8,69,64.69,74.34l5,5.75v5.8l-11.61.24v-1.17c-40-8.18-69.65-43.86-69.65-85,0-52,46.5-93.47,99.06-86.22A133.32,133.32,0,0,1,432.5,206.85c48.79-12.93,93.86,25.28,93.86,73a75.33,75.33,0,0,1-67.13,75Z"/><path class="cls-2" d="M236.15,509.3H224.55v-5.8a40.68,40.68,0,0,0-40.63-40.63h-5.8V451.26h5.8a52.3,52.3,0,0,1,52.24,52.24Z"/></svg>