<svg xmlns="http://www.w3.org/2000/svg" viewBox="0 0 24 24"><defs><style>.a{fill:#bcbcbc;}.b{fill:#63ccff;}</style></defs><title>17</title><circle class="a" cx="5.5" cy="19.18" r="0.5" transform="translate(-13.86 14.35) rotate(-60)"/><circle class="a" cx="13.5" cy="19.18" r="0.5" transform="translate(-9.86 21.28) rotate(-60)"/><rect class="b" x="7.56" y="17.37" width="9.55" height="0.5" transform="translate(-8.84 13.88) rotate(-45)"/><rect class="b" x="9.39" y="15.37" width="3.89" height="0.5" transform="translate(-7.72 12.59) rotate(-45)"/><rect class="b" x="7.59" y="14.87" width="2.48" height="0.5" transform="translate(-8.1 10.67) rotate(-45)"/><rect class="b" x="13.89" y="16.69" width="4.25" height="0.5" transform="translate(-7.29 16.28) rotate(-45)"/><path class="a" d="M18.61,14.44l-.05-.5.25,0a2.75,2.75,0,0,0-.3-5.48,2.71,2.71,0,0,0-.93.17l-.33-.22A5.24,5.24,0,0,0,6.94,7.32l-.29.18a3.24,3.24,0,1,0-1.11,6.39l.21.25v.25h-.5v-.05A3.74,3.74,0,0,1,6.52,7,5.74,5.74,0,0,1,17.71,8a3.25,3.25,0,1,1,1.15,6.37Z"/><path class="b" d="M9.25,21.07h-.5v-.25A1.75,1.75,0,0,0,7,19.07H6.75v-.5H7a2.25,2.25,0,0,1,2.25,2.25Z"/></svg>