<svg id="Layer_1" data-name="Layer 1" xmlns="http://www.w3.org/2000/svg" viewBox="0 0 24 24"><defs><style>.cls-1{fill:#63ccff;}.cls-2{fill:#bcbcbc;}</style></defs><title>18</title><rect class="cls-1" x="10.58" y="17.37" width="6.02" height="0.5" transform="translate(-8.48 14.77) rotate(-45)"/><rect class="cls-1" x="7.58" y="17.37" width="6.02" height="0.5" transform="translate(-9.36 12.64) rotate(-45)"/><rect class="cls-1" x="4.58" y="17.37" width="6.02" height="0.5" transform="translate(-10.24 10.52) rotate(-45)"/><path class="cls-2" d="M6.23,15.7l-.76-.08h0A3.74,3.74,0,0,1,6.52,8.22,5.74,5.74,0,0,1,17.71,9.29a3.25,3.25,0,1,1,1.15,6.37l-.25,0-.05-.5.25,0a2.75,2.75,0,0,0-.3-5.48,2.71,2.71,0,0,0-.93.17l-.33-.22A5.24,5.24,0,0,0,6.94,8.57l-.29.18a3.24,3.24,0,1,0-1.11,6.39h0l.72.06Z"/></svg>