<svg id="Layer_1" data-name="Layer 1" xmlns="http://www.w3.org/2000/svg" viewBox="0 0 600 600"><defs><style>.cls-1{fill:#63ccff;}.cls-2{fill:#bcbcbc;}</style></defs><title>18</title><rect class="cls-1" x="266.94" y="423.4" width="139.67" height="11.61" transform="translate(-204.85 363.85) rotate(-45)"/><rect class="cls-1" x="197.29" y="423.4" width="139.67" height="11.61" transform="translate(-225.25 314.6) rotate(-45)"/><rect class="cls-1" x="127.64" y="423.4" width="139.67" height="11.61" transform="translate(-245.65 265.35) rotate(-45)"/><path class="cls-2" d="M166,384.75,148.27,383l0,.1c-42.53-6.14-74.62-43-74.62-85.84,0-52,46.46-93.54,99.06-86.22A133.32,133.32,0,0,1,432.5,235.87c48.79-13,93.86,25.29,93.86,73a75.33,75.33,0,0,1-67.13,75l-5.76.63-1.27-11.54,5.76-.63A63.85,63.85,0,0,0,450.91,245a62.82,62.82,0,0,0-21.61,4l-7.78-5.12a121.72,121.72,0,0,0-239.11-24.78l-6.76,4.18a75.36,75.36,0,0,0-90.42,73.94c0,37.06,27.8,69,64.69,74.34l.2.25L167,373.18Z"/></svg>