<svg id="Layer_1" data-name="Layer 1" xmlns="http://www.w3.org/2000/svg" viewBox="0 0 600 600"><defs><style>.cls-1{fill:#eee;}.cls-2{fill:#bcbcbc;}</style></defs><title>19</title><circle class="cls-1" cx="439.3" cy="183.92" r="11.61"/><circle class="cls-1" cx="392.87" cy="183.92" r="11.61"/><circle class="cls-1" cx="346.43" cy="183.92" r="11.61"/><circle class="cls-2" cx="416.08" cy="143.7" r="11.61" transform="translate(83.59 432.19) rotate(-60)"/><circle class="cls-2" cx="369.65" cy="224.13" r="11.61" transform="translate(-9.28 432.19) rotate(-60)"/><circle class="cls-2" cx="369.65" cy="143.7" r="11.61" transform="translate(-22.33 204.08) rotate(-30)"/><circle class="cls-2" cx="416.08" cy="224.13" r="11.61" transform="translate(-56.32 238.07) rotate(-30)"/><circle class="cls-1" cx="485.73" cy="183.92" r="11.61"/><circle class="cls-2" cx="462.52" cy="143.7" r="11.61" transform="translate(106.81 472.4) rotate(-60)"/><circle class="cls-2" cx="462.52" cy="224.13" r="11.61" transform="translate(-50.1 261.29) rotate(-30)"/><circle class="cls-2" cx="462.52" cy="300" r="11.61"/><circle class="cls-2" cx="416.08" cy="300" r="11.61"/><circle class="cls-2" cx="369.65" cy="300" r="11.61"/><circle class="cls-1" cx="439.3" cy="259.79" r="11.61" transform="translate(-5.33 510.34) rotate(-60)"/><circle class="cls-1" cx="392.87" cy="340.21" r="11.61" transform="translate(-98.2 510.34) rotate(-60)"/><circle class="cls-1" cx="392.87" cy="259.79" r="11.61" transform="translate(-77.26 231.24) rotate(-30)"/><circle class="cls-1" cx="439.3" cy="340.21" r="11.61" transform="translate(-111.25 265.23) rotate(-30)"/><circle class="cls-2" cx="485.73" cy="259.79" r="11.61" transform="translate(17.88 550.55) rotate(-60)"/><circle class="cls-1" cx="439.3" cy="340.21" r="11.61" transform="translate(-74.98 550.55) rotate(-60)"/><circle class="cls-1" cx="439.3" cy="259.79" r="11.61" transform="translate(-71.04 254.46) rotate(-30)"/><circle class="cls-1" cx="485.73" cy="340.21" r="11.61" transform="translate(-105.03 288.45) rotate(-30)"/><circle class="cls-1" cx="439.3" cy="416.08" r="11.61"/><circle class="cls-1" cx="392.87" cy="416.08" r="11.61"/><circle class="cls-1" cx="346.43" cy="416.08" r="11.61"/><circle class="cls-2" cx="416.08" cy="375.87" r="11.61" transform="translate(-117.47 548.28) rotate(-60)"/><circle class="cls-2" cx="369.65" cy="456.3" r="11.61" transform="translate(-210.34 548.28) rotate(-60)"/><circle class="cls-2" cx="369.65" cy="375.87" r="11.61" transform="translate(-138.41 235.18) rotate(-30)"/><circle class="cls-2" cx="416.08" cy="456.3" r="11.61" transform="translate(-172.4 269.17) rotate(-30)"/><circle class="cls-2" cx="485.73" cy="416.08" r="11.61"/><circle class="cls-2" cx="462.52" cy="375.87" r="11.61" transform="translate(-94.26 588.49) rotate(-60)"/><circle class="cls-2" cx="462.52" cy="456.3" r="11.61" transform="translate(-166.18 292.39) rotate(-30)"/><circle class="cls-1" cx="346.43" cy="183.92" r="11.61"/><circle class="cls-1" cx="300" cy="183.92" r="11.61"/><circle class="cls-1" cx="253.57" cy="183.92" r="11.61"/><circle class="cls-2" cx="323.22" cy="143.7" r="11.61" transform="translate(37.16 351.77) rotate(-60)"/><circle class="cls-2" cx="276.78" cy="224.13" r="11.61" transform="translate(-55.71 351.77) rotate(-60)"/><circle class="cls-2" cx="276.78" cy="143.7" r="11.61" transform="translate(-34.77 157.64) rotate(-30)"/><circle class="cls-2" cx="323.22" cy="224.13" r="11.61" transform="translate(-68.76 191.64) rotate(-30)"/><circle class="cls-2" cx="369.65" cy="300" r="11.61"/><circle class="cls-2" cx="323.22" cy="300" r="11.61"/><circle class="cls-2" cx="276.78" cy="300" r="11.61"/><circle class="cls-1" cx="346.43" cy="259.79" r="11.61" transform="translate(-51.77 429.91) rotate(-60)"/><circle class="cls-1" cx="300" cy="340.21" r="11.61" transform="translate(-144.63 429.91) rotate(-60)"/><circle class="cls-1" cx="300" cy="259.79" r="11.61" transform="translate(-89.7 184.8) rotate(-30)"/><circle class="cls-1" cx="346.43" cy="340.21" r="11.61" transform="translate(-123.69 218.8) rotate(-30)"/><circle class="cls-1" cx="346.43" cy="416.08" r="11.61"/><circle class="cls-1" cx="300" cy="416.08" r="11.61"/><circle class="cls-1" cx="253.57" cy="416.08" r="11.61"/><circle class="cls-2" cx="323.22" cy="375.87" r="11.61" transform="translate(-163.91 467.85) rotate(-60)"/><circle class="cls-2" cx="276.78" cy="456.3" r="11.61" transform="translate(-256.77 467.85) rotate(-60)"/><circle class="cls-2" cx="276.78" cy="375.87" r="11.61" transform="translate(-150.85 188.75) rotate(-30)"/><circle class="cls-2" cx="323.22" cy="456.3" r="11.61" transform="translate(-184.85 222.74) rotate(-30)"/><circle class="cls-1" cx="253.57" cy="183.92" r="11.61"/><circle class="cls-1" cx="207.13" cy="183.92" r="11.61"/><circle class="cls-1" cx="160.7" cy="183.92" r="11.61"/><circle class="cls-2" cx="230.35" cy="143.7" r="11.61" transform="translate(-9.28 271.34) rotate(-60)"/><circle class="cls-2" cx="183.92" cy="224.13" r="11.61" transform="matrix(0.5, -0.87, 0.87, 0.5, -102.14, 271.34)"/><circle class="cls-2" cx="183.92" cy="143.7" r="11.61" transform="translate(-47.21 111.21) rotate(-30)"/><circle class="cls-2" cx="230.35" cy="224.13" r="11.61" transform="translate(-81.2 145.2) rotate(-30)"/><circle class="cls-2" cx="114.27" cy="183.92" r="11.61"/><circle class="cls-2" cx="137.48" cy="224.13" r="11.61" transform="translate(-125.36 231.13) rotate(-60)"/><circle class="cls-2" cx="137.48" cy="143.7" r="11.61" transform="translate(-53.43 87.99) rotate(-30)"/><circle class="cls-2" cx="276.78" cy="300" r="11.61"/><circle class="cls-2" cx="230.35" cy="300" r="11.61"/><circle class="cls-2" cx="183.92" cy="300" r="11.61"/><circle class="cls-1" cx="253.57" cy="259.79" r="11.61" transform="translate(-98.2 349.49) rotate(-60)"/><circle class="cls-1" cx="207.13" cy="340.21" r="11.61" transform="translate(-191.07 349.49) rotate(-60)"/><circle class="cls-1" cx="207.13" cy="259.79" r="11.61" transform="translate(-102.14 138.37) rotate(-30)"/><circle class="cls-1" cx="253.57" cy="340.21" r="11.61" transform="translate(-136.13 172.36) rotate(-30)"/><circle class="cls-2" cx="230.35" cy="300" r="11.61"/><circle class="cls-2" cx="183.92" cy="300" r="11.61"/><circle class="cls-2" cx="137.48" cy="300" r="11.61"/><circle class="cls-1" cx="207.13" cy="259.79" r="11.61" transform="translate(-121.42 309.28) rotate(-60)"/><circle class="cls-1" cx="160.7" cy="340.21" r="11.61" transform="translate(-214.28 309.28) rotate(-60)"/><circle class="cls-1" cx="160.7" cy="259.79" r="11.61" transform="translate(-108.36 115.15) rotate(-30)"/><circle class="cls-1" cx="207.13" cy="340.21" r="11.61" transform="translate(-142.36 149.15) rotate(-30)"/><circle class="cls-2" cx="137.48" cy="300" r="11.61"/><circle class="cls-1" cx="160.7" cy="259.79" r="11.61" transform="translate(-144.63 269.06) rotate(-60)"/><circle class="cls-2" cx="114.27" cy="340.21" r="11.61" transform="matrix(0.5, -0.87, 0.87, 0.5, -237.5, 269.06)"/><circle class="cls-1" cx="253.57" cy="416.08" r="11.61"/><circle class="cls-1" cx="207.13" cy="416.08" r="11.61"/><circle class="cls-1" cx="160.7" cy="416.08" r="11.61"/><circle class="cls-2" cx="230.35" cy="375.87" r="11.61" transform="translate(-210.34 387.42) rotate(-60)"/><circle class="cls-2" cx="183.92" cy="456.3" r="11.61" transform="matrix(0.5, -0.87, 0.87, 0.5, -303.21, 387.42)"/><circle class="cls-2" cx="183.92" cy="375.87" r="11.61" transform="translate(-163.3 142.32) rotate(-30)"/><circle class="cls-2" cx="230.35" cy="456.3" r="11.61" transform="translate(-197.29 176.31) rotate(-30)"/><circle class="cls-1" cx="114.27" cy="416.08" r="11.61"/><circle class="cls-2" cx="137.48" cy="456.3" r="11.61" transform="translate(-326.42 347.21) rotate(-60)"/><circle class="cls-2" cx="137.48" cy="375.87" r="11.61" transform="translate(-169.52 119.1) rotate(-30)"/></svg>