<svg id="Layer_1" data-name="Layer 1" xmlns="http://www.w3.org/2000/svg" viewBox="0 0 600 600"><defs><style>.cls-1{fill:#f03a47;}</style></defs><title>2</title><path class="cls-1" d="M312.58,312.3a17.4,17.4,0,1,1,5.11-12.3A17.37,17.37,0,0,1,312.58,312.3ZM296.17,295.9a5.8,5.8,0,1,0,4.1-1.7A5.79,5.79,0,0,0,296.17,295.9Z"/><path class="cls-1" d="M401.85,401.58c-56,56-148,55.17-205-1.86-55.92-55.92-55.1-144.34,1.86-201.3,56-56,147.15-56,203.16,0S457.86,345.57,401.85,401.58ZM206.9,206.63C154.54,259,153.73,340.2,205,391.51c52.51,52.51,137.11,53.35,188.6,1.86s51.49-135.25,0-186.74S258.39,155.14,206.9,206.63Z"/><path class="cls-1" d="M209.15,395.61l-8.21,8.21-4.1-4.1c-87.23-87.23-86.4-230,1.86-318.27l4.1-4.1L211,85.56l-4.1,4.1C123.17,173.4,122.34,308.8,205,391.51Z"/><path class="cls-1" d="M401.85,518.55l-4.1,4.1-8.21-8.21,4.1-4.1c83.74-83.74,83.74-220,0-303.71l-4.1-4.1,8.21-8.21,4.1,4.1C490.11,286.68,490.11,430.29,401.85,518.55Z"/></svg>