<svg id="Layer_1" data-name="Layer 1" xmlns="http://www.w3.org/2000/svg" viewBox="0 0 24 24"><defs><style>.cls-1{fill:#f03a47;}</style></defs><title>2</title><path class="cls-1" d="M12.53,12.53a.75.75,0,1,1,.22-.53A.75.75,0,0,1,12.53,12.53Zm-.71-.71a.25.25,0,1,0,.18-.07A.25.25,0,0,0,11.82,11.82Z"/><path class="cls-1" d="M16.38,16.38a6.25,6.25,0,0,1-8.83-.08,6.07,6.07,0,0,1,.08-8.67,6.19,6.19,0,0,1,8.75,8.75ZM8,8a5.57,5.57,0,0,0-.08,8A5.75,5.75,0,0,0,16,16,5.69,5.69,0,0,0,8,8Z"/><path class="cls-1" d="M8.08,16.12l-.35.35-.18-.18A9.71,9.71,0,0,1,7.62,2.59l.18-.18.35.35L8,2.94a9.2,9.2,0,0,0-.08,13Z"/><path class="cls-1" d="M16.38,21.41l-.18.18-.35-.35.18-.18A9.26,9.26,0,0,0,16,8l-.18-.18.35-.35.18.18A9.76,9.76,0,0,1,16.38,21.41Z"/></svg>