<svg id="Layer_1" data-name="Layer 1" xmlns="http://www.w3.org/2000/svg" viewBox="0 0 24 24"><defs><style>.cls-1{fill:#bcbcbc;}</style></defs><title>20</title><path class="cls-1" d="M7.75,20.25H7.5a2.25,2.25,0,0,1,0-4.5h.25v.5H7.5a1.75,1.75,0,0,0,0,3.5h.25Z"/><path class="cls-1" d="M18.5,8.25h-.25v-.5h.25a1.75,1.75,0,0,0,0-3.5h-.25v-.5h.25a2.25,2.25,0,0,1,0,4.5Z"/><path class="cls-1" d="M19.5,16.25H7.25v-.5H19.5a.75.75,0,0,0,0-1.5H3.5a1.25,1.25,0,0,1,0-2.5H18.75v.5H3.5a.75.75,0,0,0,0,1.5h16a1.25,1.25,0,0,1,0,2.5Z"/><path class="cls-1" d="M20.5,12.25H15.25v-.5H20.5a.75.75,0,0,0,0-1.5H5.5a1.25,1.25,0,0,1,0-2.5H18.75v.5H5.5a.75.75,0,0,0,0,1.5h15a1.25,1.25,0,0,1,0,2.5Z"/></svg>