<svg id="Layer_1" data-name="Layer 1" xmlns="http://www.w3.org/2000/svg" viewBox="0 0 600 600"><defs><style>.cls-1{fill:#bcbcbc;}</style></defs><title>22</title><path class="cls-1" d="M201.33,491.54h-5.8a52.24,52.24,0,0,1,0-104.48h5.8v11.61h-5.8a40.63,40.63,0,0,0,0,81.26h5.8Z"/><path class="cls-1" d="M450.91,212.94h-5.8V201.33h5.8a40.63,40.63,0,0,0,0-81.26h-5.8V108.46h5.8a52.24,52.24,0,0,1,0,104.48Z"/><path class="cls-1" d="M474.13,398.67H189.72V387.06H474.13a17.41,17.41,0,0,0,0-34.83H102.66a29,29,0,1,1,0-58H456.71V305.8H102.66a17.41,17.41,0,1,0,0,34.83H474.13a29,29,0,0,1,0,58Z"/><path class="cls-1" d="M497.34,305.8H375.45V294.2H497.34a17.41,17.41,0,1,0,0-34.83H149.09a29,29,0,0,1,0-58H456.71v11.61H149.09a17.41,17.41,0,0,0,0,34.83H497.34a29,29,0,1,1,0,58Z"/></svg>