<svg id="Layer_1" data-name="Layer 1" xmlns="http://www.w3.org/2000/svg" viewBox="0 0 600 600"><defs><style>.cls-1{fill:#63ccff;}</style></defs><title>23</title><path class="cls-1" d="M416.08,259.37h-5.8V247.76h5.8a40.63,40.63,0,1,0-40.63-40.63v5.8H363.85v-5.8a52.24,52.24,0,1,1,52.24,52.24Z"/><rect class="cls-1" x="131.68" y="247.76" width="290.21" height="11.61"/><path class="cls-1" d="M276.78,445.11a52.3,52.3,0,0,1-52.24-52.24v-5.8h11.61v5.8a40.63,40.63,0,1,0,40.63-40.63H271V340.63h5.8a52.24,52.24,0,0,1,0,104.48Z"/><rect class="cls-1" x="131.68" y="340.63" width="150.91" height="11.61"/><rect class="cls-1" x="131.68" y="294.2" width="243.78" height="11.61"/></svg>