<svg xmlns="http://www.w3.org/2000/svg" viewBox="0 0 24 24"><defs><style>.a{fill:#63ccff;}</style></defs><title>24</title><path class="a" d="M17,10.25h-.25v-.5H17A1.75,1.75,0,1,0,15.25,8v.25h-.5V8A2.25,2.25,0,1,1,17,10.25Z"/><rect class="a" x="4.75" y="9.75" width="12.5" height="0.5"/><path class="a" d="M11,18.25A2.25,2.25,0,0,1,8.75,16v-.25h.5V16A1.75,1.75,0,1,0,11,14.25h-.25v-.5H11a2.25,2.25,0,0,1,0,4.5Z"/><rect class="a" x="4.75" y="13.75" width="6.5" height="0.5"/><rect class="a" x="4.75" y="11.75" width="10.5" height="0.5"/></svg>