<svg xmlns="http://www.w3.org/2000/svg" viewBox="0 0 24 24"><defs><style>.a{fill:#63ccff;}.b{fill:#039be5;}</style></defs><title>25</title><path class="a" d="M12,21.75a4.24,4.24,0,0,1-2.25-7.84V4.5a2.25,2.25,0,0,1,4.5,0v9.41A4.24,4.24,0,0,1,12,21.75Zm0-19A1.75,1.75,0,0,0,10.25,4.5v9.55l-.12.22A3.71,3.71,0,0,0,8.25,17.5a3.75,3.75,0,0,0,7.5,0,3.71,3.71,0,0,0-1.88-3.23l-.12-.22V4.5A1.75,1.75,0,0,0,12,2.75Z"/><path class="b" d="M10.07,18a2,2,0,0,0,3.86,0Z"/><path class="b" d="M12,19.75a2.25,2.25,0,0,1-2.17-1.69l.24-.31h3.86l.24.31A2.25,2.25,0,0,1,12,19.75Zm-1.57-1.5a1.74,1.74,0,0,0,3.15,0Z"/></svg>