<svg id="Layer_1" data-name="Layer 1" xmlns="http://www.w3.org/2000/svg" viewBox="0 0 600 600"><defs><style>.cls-1{fill:#63ccff;}.cls-2{fill:#039be5;}</style></defs><title>25</title><path class="cls-1" d="M300,526.36a98.77,98.77,0,0,1-98.67-98.67c0-33.6,17.71-65.21,46.43-83.25V125.87a52.24,52.24,0,1,1,104.48,0V344.44c28.73,18,46.43,49.65,46.43,83.25A98.77,98.77,0,0,1,300,526.36Zm0-441.12a40.68,40.68,0,0,0-40.63,40.63V347.7l-2.88,5c-27.28,15.89-43.55,43.92-43.55,75a87.06,87.06,0,0,0,174.13,0c0-31.06-16.28-59.08-43.55-75l-2.88-5V125.87A40.68,40.68,0,0,0,300,85.24Z"/><path class="cls-2" d="M255.22,439.3a46.21,46.21,0,0,0,89.57,0Z"/><path class="cls-2" d="M300,479.93a52.19,52.19,0,0,1-50.4-39.18l5.62-7.26h89.56l5.62,7.26A52.19,52.19,0,0,1,300,479.93Zm-36.53-34.83a40.34,40.34,0,0,0,73.05,0Z"/></svg>