<svg id="Layer_1" data-name="Layer 1" xmlns="http://www.w3.org/2000/svg" viewBox="0 0 600 600"><defs><style>.cls-1{fill:#63ccff;}</style></defs><title>26</title><path class="cls-1" d="M450.91,433.5H160.7l-12.42-1.34,0,.09c-42.53-6.12-74.62-43-74.62-85.82,0-52,46.55-93.47,99.06-86.22A133.32,133.32,0,0,1,432.5,285.06c48.79-12.89,93.86,25.29,93.86,73A75.54,75.54,0,0,1,450.91,433.5ZM150.13,421l11,.88,289.76,0a63.85,63.85,0,1,0,0-127.69,62.82,62.82,0,0,0-21.61,4l-7.78-5.12A121.72,121.72,0,0,0,182.42,268.3l-6.73,4.18a76.89,76.89,0,0,0-15-1.51,75.54,75.54,0,0,0-75.45,75.45c0,37.07,27.8,69,64.69,74.34Z"/></svg>