<svg id="Layer_1" data-name="Layer 1" xmlns="http://www.w3.org/2000/svg" viewBox="0 0 24 24"><defs><style>.cls-1{fill:#fc0;}.cls-2{fill:#bcbcbc;}</style></defs><title>27</title><path class="cls-1" d="M20.42,14.67l-.11-.49.24-.06.32-.08a5.25,5.25,0,0,1,0-9.09,4.68,4.68,0,0,0-1.38-.2,4.77,4.77,0,0,0-4.73,4.38l0,.25-.5,0,0-.25A5.27,5.27,0,0,1,19.5,4.25a5.16,5.16,0,0,1,2.1.44v.46a4.75,4.75,0,0,0,0,8.7v.46a4.65,4.65,0,0,1-.94.31Z"/><path class="cls-2" d="M18.5,19.75H6l-.54-.06h0a3.74,3.74,0,0,1,1.05-7.41,5.74,5.74,0,0,1,11.19,1.07,3.25,3.25,0,1,1,.79,6.39Zm-13-.54.47,0H18.5a2.75,2.75,0,0,0,0-5.5,2.7,2.7,0,0,0-.93.17l-.33-.22a5.24,5.24,0,0,0-10.3-1.07l-.29.18A3.31,3.31,0,0,0,6,12.75a3.24,3.24,0,0,0-.46,6.45Z"/><path class="cls-1" d="M4.75,11.5h-.5A1.75,1.75,0,0,0,2.5,9.75v-.5A1.75,1.75,0,0,0,4.25,7.5h.5A1.75,1.75,0,0,0,6.5,9.25v.5A1.75,1.75,0,0,0,4.75,11.5Zm0,0h0Zm-1.22-2a2.27,2.27,0,0,1,1,1,2.27,2.27,0,0,1,1-1,2.27,2.27,0,0,1-1-1A2.27,2.27,0,0,1,3.53,9.5Z"/><path class="cls-1" d="M8.75,8.5h-.5A1.75,1.75,0,0,0,6.5,6.75v-.5A1.75,1.75,0,0,0,8.25,4.5h.5A1.75,1.75,0,0,0,10.5,6.25v.5A1.75,1.75,0,0,0,8.75,8.5Zm0,0h0Zm-1.22-2a2.27,2.27,0,0,1,1,1,2.27,2.27,0,0,1,1-1,2.27,2.27,0,0,1-1-1A2.27,2.27,0,0,1,7.53,6.5Z"/></svg>