<svg id="Layer_1" data-name="Layer 1" xmlns="http://www.w3.org/2000/svg" viewBox="0 0 600 600"><defs><style>.cls-1{fill:#fc0;}.cls-2{fill:#bcbcbc;}</style></defs><title>27</title><path class="cls-1" d="M495.53,362,493,350.65l5.65-1.29c2.65-.59,5.12-1.22,7.46-1.9a121.77,121.77,0,0,1,0-211,108.74,108.74,0,0,0-32-4.74c-57.18,0-105.43,44.65-109.85,101.68l-.45,5.78-11.56-.9.45-5.79c4.87-63,58.22-112.38,121.41-112.38a119.81,119.81,0,0,1,48.79,10.25l0,10.62a110.18,110.18,0,0,0,0,202l.11,10.59a108,108,0,0,1-21.81,7.14Z"/><path class="cls-2" d="M450.91,479.93H160.7l-12.42-1.34,0,.09c-42.53-6.12-74.62-43-74.62-85.82,0-52,46.5-93.57,99.06-86.22A133.32,133.32,0,0,1,432.5,331.49c48.79-13,93.86,25.28,93.86,73A75.54,75.54,0,0,1,450.91,479.93ZM150.13,467.46l11,.88,289.76,0a63.85,63.85,0,1,0,0-127.69,62.57,62.57,0,0,0-21.61,4l-7.78-5.15a121.72,121.72,0,0,0-239.11-24.78l-6.73,4.18a76.89,76.89,0,0,0-15-1.51,75.54,75.54,0,0,0-75.45,75.45c0,37.07,27.8,69,64.69,74.34Z"/><path class="cls-1" d="M131.68,288.39H120.07a40.68,40.68,0,0,0-40.63-40.63V236.15a40.68,40.68,0,0,0,40.63-40.63h11.61a40.68,40.68,0,0,0,40.63,40.63v11.61A40.68,40.68,0,0,0,131.68,288.39Zm0,0h0ZM103.36,242a52.64,52.64,0,0,1,22.51,22.51A52.64,52.64,0,0,1,148.39,242a52.64,52.64,0,0,1-22.51-22.51A52.64,52.64,0,0,1,103.36,242Z"/><path class="cls-1" d="M224.55,218.74H212.94a40.68,40.68,0,0,0-40.63-40.63V166.5a40.68,40.68,0,0,0,40.63-40.63h11.61a40.68,40.68,0,0,0,40.63,40.63v11.61A40.68,40.68,0,0,0,224.55,218.74Zm0,0h0Zm-28.32-46.43a52.64,52.64,0,0,1,22.51,22.51,52.64,52.64,0,0,1,22.51-22.51,52.64,52.64,0,0,1-22.51-22.51A52.64,52.64,0,0,1,196.23,172.31Z"/></svg>