<svg id="Layer_1" data-name="Layer 1" xmlns="http://www.w3.org/2000/svg" viewBox="0 0 600 600"><defs><style>.cls-1{fill:#fc0;}.cls-2{fill:#63ccff;}</style></defs><title>28</title><polygon class="cls-1" points="195.52 290.48 195.52 288.39 181.59 288.39 137.48 288.39 137.48 300 172.54 300 187.17 300 195.52 290.48"/><path class="cls-2" d="M433.5,509H143.29l-12.42-1.34,0,.09c-42.53-6.12-74.62-43-74.62-85.82,0-52,46.55-93.47,99.06-86.22a133.32,133.32,0,0,1,259.81,24.85c48.79-12.89,93.86,25.29,93.86,73A75.54,75.54,0,0,1,433.5,509ZM132.72,496.48l11,.88,289.76,0a63.85,63.85,0,1,0,0-127.69,62.82,62.82,0,0,0-21.61,4l-7.78-5.12A121.72,121.72,0,0,0,165,343.76l-6.73,4.18a76.89,76.89,0,0,0-15-1.51,75.54,75.54,0,0,0-75.45,75.45c0,37.07,27.8,69,64.69,74.34Z"/><path class="cls-1" d="M443.71,358.74a53.84,53.84,0,0,0-13.7-.46c31.34-43.42,26.47-104.24-11.61-141.86a109.58,109.58,0,0,0-155.78,0,103,103,0,0,0-22.29,32.27c-4.88,1.86-10,3.72-14.63,6a116.5,116.5,0,0,1,28.56-46.67A121.79,121.79,0,0,1,443.71,358.74Z"/><rect class="cls-1" x="434.75" y="165.27" width="58.04" height="11.61" transform="translate(14.87 378.04) rotate(-45)"/><rect class="cls-1" x="485.73" y="288.39" width="58.04" height="11.61"/><rect class="cls-1" x="211.69" y="142.05" width="11.61" height="58.04" transform="translate(-57.26 203.9) rotate(-45)"/><rect class="cls-1" x="334.83" y="91.05" width="11.61" height="58.04"/></svg>