<svg id="Layer_1" data-name="Layer 1" xmlns="http://www.w3.org/2000/svg" viewBox="0 0 24 24"><defs><style>.cls-1{fill:#fc0;}.cls-2{fill:#63ccff;}</style></defs><title>28</title><polygon class="cls-1" points="7.5 11.59 7.5 11.5 6.9 11.5 5 11.5 5 12 6.51 12 7.14 12 7.5 11.59"/><path class="cls-2" d="M17.75,21H5.25l-.54-.06h0a3.74,3.74,0,0,1,1.05-7.41A5.74,5.74,0,0,1,17,14.61,3.25,3.25,0,1,1,17.75,21Zm-13-.54.47,0H17.75a2.75,2.75,0,0,0,0-5.5,2.71,2.71,0,0,0-.93.17L16.48,15a5.24,5.24,0,0,0-10.3-1.07l-.29.18A3.31,3.31,0,0,0,5.25,14a3.24,3.24,0,0,0-.46,6.45Z"/><path class="cls-1" d="M18.19,14.53a2.32,2.32,0,0,0-.59,0A4.74,4.74,0,0,0,10.39,8.4a4.44,4.44,0,0,0-1,1.39C9.22,9.87,9,10,8.8,10A5,5,0,0,1,10,8a5.25,5.25,0,0,1,8.16,6.49Z"/><rect class="cls-1" x="17.8" y="6.2" width="2.5" height="0.5" transform="translate(1.02 15.36) rotate(-45)"/><rect class="cls-1" x="20" y="11.5" width="2.5" height="0.5"/><rect class="cls-1" x="8.2" y="5.2" width="0.5" height="2.5" transform="translate(-2.08 7.86) rotate(-45)"/><rect class="cls-1" x="13.5" y="3" width="0.5" height="2.5"/></svg>