<svg id="Layer_1" data-name="Layer 1" xmlns="http://www.w3.org/2000/svg" viewBox="0 0 24 24"><defs><style>.cls-1{fill:#fc0;}.cls-2{fill:#bcbcbc;}</style></defs><title>29</title><path class="cls-1" d="M19.5,13.75a5.21,5.21,0,0,1-2.57-.67l.25-.43a4.79,4.79,0,0,0,3.7.4,5.25,5.25,0,0,1,0-9.09,4.68,4.68,0,0,0-1.38-.2A4.76,4.76,0,0,0,14.75,8.5a4.83,4.83,0,0,0,.31,1.7l-.47.18a5.34,5.34,0,0,1-.35-1.88A5.26,5.26,0,0,1,19.5,3.25a5.16,5.16,0,0,1,2.1.44v.46a4.75,4.75,0,0,0,0,8.7v.46A5.16,5.16,0,0,1,19.5,13.75Z"/><path class="cls-2" d="M18.5,20.75H6l-.54-.06h0A3.74,3.74,0,0,1,6,13.25a3.66,3.66,0,0,1,.52,0,5.74,5.74,0,0,1,11.19,1.07,3.25,3.25,0,1,1,.79,6.39Zm-13-.54.47,0H18.5a2.75,2.75,0,0,0,0-5.5,2.7,2.7,0,0,0-.93.17l-.33-.22a5.24,5.24,0,0,0-10.3-1.07l-.29.18A3.18,3.18,0,0,0,6,13.75a3.24,3.24,0,0,0-.46,6.45Z"/><path class="cls-1" d="M4.75,10.5h-.5A1.75,1.75,0,0,0,2.5,8.75v-.5A1.75,1.75,0,0,0,4.25,6.5h.5A1.75,1.75,0,0,0,6.5,8.25v.5A1.75,1.75,0,0,0,4.75,10.5Zm0,0h0Zm-1.22-2a2.27,2.27,0,0,1,1,1,2.27,2.27,0,0,1,1-1,2.27,2.27,0,0,1-1-1A2.27,2.27,0,0,1,3.53,8.5Z"/><path class="cls-1" d="M8.75,7.5h-.5A1.75,1.75,0,0,0,6.5,5.75v-.5A1.75,1.75,0,0,0,8.25,3.5h.5A1.75,1.75,0,0,0,10.5,5.25v.5A1.75,1.75,0,0,0,8.75,7.5Zm0,0h0Zm-1.22-2a2.27,2.27,0,0,1,1,1,2.27,2.27,0,0,1,1-1,2.27,2.27,0,0,1-1-1A2.27,2.27,0,0,1,7.53,5.5Z"/></svg>