<svg id="Layer_1" data-name="Layer 1" xmlns="http://www.w3.org/2000/svg" viewBox="0 0 600 600"><defs><style>.cls-1{fill:#fc0;}.cls-2{fill:#bcbcbc;}</style></defs><title>29</title><path class="cls-1" d="M474.13,340.63A120.92,120.92,0,0,1,414.36,325l5.76-10.09c25.51,14.53,57.77,18,86,9.36a121.79,121.79,0,0,1,0-211.08,108.74,108.74,0,0,0-32-4.74A110.41,110.41,0,0,0,363.85,218.74a112,112,0,0,0,7.3,39.52l-10.88,4.08a123.89,123.89,0,0,1-8-43.6A122,122,0,0,1,474.13,96.85a119.81,119.81,0,0,1,48.79,10.25l0,10.62a110.19,110.19,0,0,0,0,202v10.62A119.78,119.78,0,0,1,474.13,340.63Z"/><path class="cls-2" d="M450.91,503.15H160.7l-12.42-1.34,0,.09c-42.53-6.12-74.62-43-74.62-85.82A87.17,87.17,0,0,1,160.7,329a85.09,85.09,0,0,1,12,.84A133.32,133.32,0,0,1,432.5,354.71c48.79-12.95,93.86,25.28,93.86,73A75.54,75.54,0,0,1,450.91,503.15ZM150.13,490.68l11,.88,289.76,0a63.85,63.85,0,1,0,0-127.69,62.57,62.57,0,0,0-21.61,4l-7.78-5.15A121.72,121.72,0,0,0,182.42,338l-6.76,4.19a73.82,73.82,0,0,0-15-1.52,75.54,75.54,0,0,0-75.45,75.45c0,37.07,27.8,69,64.69,74.34Z"/><path class="cls-1" d="M131.68,265.17H120.07a40.68,40.68,0,0,0-40.63-40.63V212.94a40.68,40.68,0,0,0,40.63-40.63h11.61a40.68,40.68,0,0,0,40.63,40.63v11.61A40.68,40.68,0,0,0,131.68,265.17Zm0,0h0Zm-28.32-46.43a52.64,52.64,0,0,1,22.51,22.51,52.64,52.64,0,0,1,22.51-22.51,52.64,52.64,0,0,1-22.51-22.51A52.64,52.64,0,0,1,103.36,218.74Z"/><path class="cls-1" d="M224.55,195.52H212.94a40.68,40.68,0,0,0-40.63-40.63V143.29a40.68,40.68,0,0,0,40.63-40.63h11.61a40.68,40.68,0,0,0,40.63,40.63v11.61A40.68,40.68,0,0,0,224.55,195.52Zm0,0h0Zm-28.32-46.43a52.64,52.64,0,0,1,22.51,22.51,52.64,52.64,0,0,1,22.51-22.51,52.64,52.64,0,0,1-22.51-22.51A52.64,52.64,0,0,1,196.23,149.09Z"/></svg>