<svg id="Layer_1" data-name="Layer 1" xmlns="http://www.w3.org/2000/svg" viewBox="0 0 600 600"><defs><style>.cls-1{fill:#bcbcbc;}.cls-2{fill:#fc0;}</style></defs><title>3</title><path class="cls-1" d="M166,360.9l-17.75-1.77v.1c-42.55-6.14-74.63-43-74.63-85.84,0-52,46.47-93.55,99.06-86.22A133.33,133.33,0,0,1,432.51,212c48.69-12.88,93.85,25.29,93.85,73a75.54,75.54,0,0,1-75.45,75.45h-5.8V348.85h5.8a63.85,63.85,0,1,0,0-127.69,62.77,62.77,0,0,0-21.61,4l-7.77-5.12a121.73,121.73,0,0,0-239.12-24.79l-6.73,4.18c-47.28-9.4-90.44,27.42-90.44,73.95,0,37.06,27.81,69,64.67,74.34l.22.25,16.81,1.34Z"/><polygon class="cls-2" points="181.73 506.54 173.52 498.33 218.38 453.47 186.83 453.81 182.67 443.9 228.25 398.31 236.46 406.52 200.93 442.06 232.48 441.72 236.64 451.62 181.73 506.54"/><polygon class="cls-2" points="274.6 506.54 266.39 498.33 311.25 453.47 279.7 453.81 275.54 443.9 321.12 398.31 329.33 406.52 293.8 442.06 325.35 441.72 329.51 451.62 274.6 506.54"/><polygon class="cls-2" points="367.46 506.54 359.25 498.33 404.11 453.47 372.56 453.81 368.4 443.9 413.99 398.31 422.19 406.52 386.67 442.06 418.21 441.72 422.38 451.62 367.46 506.54"/></svg>