<svg id="Layer_1" data-name="Layer 1" xmlns="http://www.w3.org/2000/svg" viewBox="0 0 24 24"><defs><style>.cls-1{fill:#bcbcbc;}.cls-2{fill:#fc0;}</style></defs><title>3</title><path class="cls-1" d="M6.23,14.67l-.76-.08h0A3.74,3.74,0,0,1,6.52,7.19,5.74,5.74,0,0,1,17.71,8.26a3.25,3.25,0,1,1,.79,6.39h-.25v-.5h.25a2.75,2.75,0,0,0,0-5.5,2.7,2.7,0,0,0-.93.17l-.33-.22A5.24,5.24,0,0,0,6.94,7.54l-.29.18a3.24,3.24,0,1,0-1.11,6.39h0l.72.06Z"/><polygon class="cls-2" points="6.91 20.95 6.55 20.59 8.48 18.66 7.13 18.68 6.95 18.25 8.91 16.29 9.26 16.64 7.73 18.17 9.09 18.16 9.27 18.58 6.91 20.95"/><polygon class="cls-2" points="10.91 20.95 10.55 20.59 12.48 18.66 11.13 18.68 10.95 18.25 12.91 16.29 13.26 16.64 11.73 18.17 13.09 18.16 13.27 18.58 10.91 20.95"/><polygon class="cls-2" points="14.91 20.95 14.55 20.59 16.48 18.66 15.13 18.68 14.95 18.25 16.91 16.29 17.26 16.64 15.73 18.17 17.09 18.16 17.27 18.58 14.91 20.95"/></svg>