<svg id="Layer_1" data-name="Layer 1" xmlns="http://www.w3.org/2000/svg" viewBox="0 0 24 24"><defs><style>.cls-1{fill:#fc0;}.cls-2{fill:#63ccff;}</style></defs><title>30</title><path class="cls-1" d="M20.11,16.76l-.23.23a2.8,2.8,0,0,0-1-.73L18,15.35l.36-.36.84.85Z"/><path class="cls-2" d="M19.2,15.85h0a2.89,2.89,0,0,0-1-.3,2,2,0,0,0-.43,0,3.13,3.13,0,0,0-.79.11,4.61,4.61,0,0,0-.11-.63,3.23,3.23,0,0,0-.14-.51,4.27,4.27,0,0,1-.44.3,2.72,2.72,0,0,1,.13.51,4.91,4.91,0,0,1,.08.67l.34.22a2.87,2.87,0,0,1,.93-.17,2.62,2.62,0,0,1,1.15.26h0a2.62,2.62,0,0,1,1,.72h0a2.78,2.78,0,0,1,.62,1.75,2.75,2.75,0,0,1-2.75,2.75H5.27l-.47,0h0A3.24,3.24,0,0,1,5.25,15a2.73,2.73,0,0,1,.64.07l.3-.18A5.16,5.16,0,0,1,8.6,11.73l.46-.25A3.17,3.17,0,0,1,9,11a3.22,3.22,0,0,0-.49.25,5.7,5.7,0,0,0-2.75,3.34,3,3,0,0,0-.52,0A3.74,3.74,0,0,0,4.71,22h0l.54.06h12.5a3.24,3.24,0,0,0,1.45-6.15Z"/><path class="cls-1" d="M17.46,7A5.25,5.25,0,0,0,8.52,11.2a3.41,3.41,0,0,0,.08.53,5.24,5.24,0,0,0,7.8,3.55,3.52,3.52,0,0,0,.45-.3,4.3,4.3,0,0,0,.61-.52A5.24,5.24,0,0,0,17.46,7Zm-.35,7.07a4.49,4.49,0,0,1-.4.36,4.27,4.27,0,0,1-.44.3,4.76,4.76,0,0,1-5.88-.66,4.68,4.68,0,0,1-1.33-2.63A3.17,3.17,0,0,1,9,11a4.74,4.74,0,0,1,4.74-5,4.75,4.75,0,0,1,3.36,8.11Z"/><rect class="cls-1" x="7.2" y="15.8" width="2.5" height="0.5" transform="translate(-8.88 10.67) rotate(-45)"/><rect class="cls-1" x="17.8" y="5.2" width="2.5" height="0.5" transform="translate(1.73 15.07) rotate(-45)"/><rect class="cls-1" x="5" y="10.5" width="2.5" height="0.5"/><rect class="cls-1" x="20" y="10.5" width="2.5" height="0.5"/><rect class="cls-1" x="8.2" y="4.2" width="0.5" height="2.5" transform="translate(-1.38 7.57) rotate(-45)"/><rect class="cls-1" x="18.8" y="14.8" width="0.5" height="2.5" transform="translate(-5.77 18.17) rotate(-45)"/><rect class="cls-1" x="13.5" y="2" width="0.5" height="2.5"/><rect class="cls-1" x="13.5" y="17" width="0.5" height="2.5"/></svg>