<svg id="Layer_1" data-name="Layer 1" xmlns="http://www.w3.org/2000/svg" viewBox="0 0 600 600"><defs><style>.cls-1{fill:#63ccff;}.cls-2{fill:#fc0;}</style></defs><title>30</title><path class="cls-1" d="M466.93,389.15a67,67,0,0,0-23.45-7,47,47,0,0,0-10-.93,72.71,72.71,0,0,0-18.34,2.55,107.13,107.13,0,0,0-2.55-14.63,74.9,74.9,0,0,0-3.25-11.84,99.2,99.2,0,0,1-10.22,7,63.24,63.24,0,0,1,3,11.84A114,114,0,0,1,404,391.71l7.89,5.11a66.52,66.52,0,0,1,21.59-3.95,60.85,60.85,0,0,1,26.7,6c8.82,3.71,16.25,9.75,22.75,16.95v.23a64.58,64.58,0,0,1,14.39,40.63,63.81,63.81,0,0,1-63.85,63.85H143.75l-10.91-.93-.23-.23c-36.91-5.34-64.77-37.15-64.77-74.29a75.6,75.6,0,0,1,75.45-75.45,63.33,63.33,0,0,1,14.86,1.63l7-4.18a119.84,119.84,0,0,1,56-73.37c3.48-2.09,7-3.95,10.68-5.8a73.63,73.63,0,0,1-1.16-12.3,74.82,74.82,0,0,0-11.38,5.8A132.23,132.23,0,0,0,155.36,359a70.59,70.59,0,0,0-12.07-.93,87.09,87.09,0,0,0-87.06,87.06c0,42.72,32,79.63,74.53,85.9v-.23l12.54,1.39H433.5a75.4,75.4,0,0,0,33.43-143Z"/><path class="cls-2" d="M488.29,410.51l-5.34,5.34c-6.5-7.2-13.93-13.23-22.75-16.95l-21.13-21.13,8.36-8.36,19.5,19.73Z"/><path class="cls-2" d="M426.76,184.84c-47.6-47.59-124.91-47.59-172.27,0a122.1,122.1,0,0,0-35.29,96.58,79.09,79.09,0,0,0,1.86,12.3,121.65,121.65,0,0,0,181.09,82.42,81.64,81.64,0,0,0,10.45-7,99.86,99.86,0,0,0,14.16-12.07C474.36,309.75,474.36,232.44,426.76,184.84ZM418.64,349a104.14,104.14,0,0,1-9.29,8.36,99.2,99.2,0,0,1-10.22,7C356.65,391,299.54,385.9,262.62,349a108.63,108.63,0,0,1-30.88-61.06,73.63,73.63,0,0,1-1.16-12.3,110,110,0,0,1,110-114.92,111,111,0,0,1,78,32.27C461.59,236.15,461.59,306,418.64,349Z"/><rect class="cls-2" x="188.49" y="388.31" width="58.04" height="11.61" transform="translate(-214.97 269.23) rotate(-45)"/><rect class="cls-2" x="434.74" y="142.04" width="58.04" height="11.61" transform="translate(31.29 371.23) rotate(-45)"/><rect class="cls-2" x="137.48" y="265.17" width="58.04" height="11.61"/><rect class="cls-2" x="485.73" y="265.17" width="58.04" height="11.61"/><rect class="cls-2" x="211.7" y="118.83" width="11.61" height="58.04" transform="translate(-40.84 197.1) rotate(-45)"/><rect class="cls-2" x="457.95" y="365.1" width="11.61" height="58.04" transform="translate(-142.85 443.36) rotate(-45)"/><rect class="cls-2" x="334.83" y="67.83" width="11.61" height="58.04"/><rect class="cls-2" x="334.83" y="416.08" width="11.61" height="58.04"/></svg>