<svg id="Layer_1" data-name="Layer 1" xmlns="http://www.w3.org/2000/svg" viewBox="0 0 600 600"><defs><style>.cls-1{fill:#fc0;}</style></defs><title>31</title><path class="cls-1" d="M473,421.89a121.89,121.89,0,1,1,48.76-233.51V199a110.11,110.11,0,0,0,0,201.92v10.66A121.17,121.17,0,0,1,473,421.89Zm0-232.17a110.28,110.28,0,0,0,0,220.56,108.46,108.46,0,0,0,32-4.81,121.68,121.68,0,0,1,0-210.95A108.46,108.46,0,0,0,473,189.72Z"/><path class="cls-1" d="M130.52,346.43H118.91A40.68,40.68,0,0,0,78.28,305.8V294.2a40.68,40.68,0,0,0,40.63-40.63h11.61a40.68,40.68,0,0,0,40.63,40.63V305.8A40.68,40.68,0,0,0,130.52,346.43Zm0,0h0ZM102.2,300a52.64,52.64,0,0,1,22.51,22.51A52.64,52.64,0,0,1,147.23,300a52.64,52.64,0,0,1-22.51-22.51A52.64,52.64,0,0,1,102.2,300Z"/><path class="cls-1" d="M223.38,276.78H211.77a40.68,40.68,0,0,0-40.63-40.63V224.55a40.68,40.68,0,0,0,40.63-40.63h11.61A40.68,40.68,0,0,0,264,224.55v11.61A40.68,40.68,0,0,0,223.38,276.78Zm0,0h0Zm-28.32-46.43a52.64,52.64,0,0,1,22.51,22.51,52.64,52.64,0,0,1,22.51-22.51,52.64,52.64,0,0,1-22.51-22.51A52.64,52.64,0,0,1,195.07,230.35Z"/></svg>