<svg xmlns="http://www.w3.org/2000/svg" viewBox="0 0 24 24"><defs><style>.a{fill:#fc0;}</style></defs><title>31</title><path class="a" d="M19.5,17.25A5.25,5.25,0,1,1,21.6,7.19v.46a4.74,4.74,0,0,0,0,8.7v.46A5.22,5.22,0,0,1,19.5,17.25Zm0-10a4.75,4.75,0,0,0,0,9.5,4.67,4.67,0,0,0,1.38-.21,5.24,5.24,0,0,1,0-9.09A4.67,4.67,0,0,0,19.5,7.25Z"/><path class="a" d="M4.75,14h-.5A1.75,1.75,0,0,0,2.5,12.25v-.5A1.75,1.75,0,0,0,4.25,10h.5A1.75,1.75,0,0,0,6.5,11.75v.5A1.75,1.75,0,0,0,4.75,14Zm0,0h0ZM3.53,12a2.27,2.27,0,0,1,1,1,2.27,2.27,0,0,1,1-1,2.27,2.27,0,0,1-1-1A2.27,2.27,0,0,1,3.53,12Z"/><path class="a" d="M8.75,11h-.5A1.75,1.75,0,0,0,6.5,9.25v-.5A1.75,1.75,0,0,0,8.25,7h.5A1.75,1.75,0,0,0,10.5,8.75v.5A1.75,1.75,0,0,0,8.75,11Zm0,0h0ZM7.53,9a2.27,2.27,0,0,1,1,1,2.27,2.27,0,0,1,1-1,2.27,2.27,0,0,1-1-1A2.27,2.27,0,0,1,7.53,9Z"/></svg>