<svg id="Layer_1" data-name="Layer 1" xmlns="http://www.w3.org/2000/svg" viewBox="0 0 24 24"><defs><style>.cls-1{fill:#fc0;}</style></defs><title>32</title><path class="cls-1" d="M12,17.25a5.25,5.25,0,1,1,3.71-1.54h0A5.23,5.23,0,0,1,12,17.25Zm0-10a4.75,4.75,0,1,0,3.36,1.39A4.74,4.74,0,0,0,12,7.25Zm3.54,8.28h0Z"/><rect class="cls-1" x="5.45" y="17.05" width="2.5" height="0.5" transform="translate(-10.27 9.8) rotate(-45)"/><rect class="cls-1" x="16.05" y="6.45" width="2.5" height="0.5" transform="translate(0.33 14.2) rotate(-45)"/><rect class="cls-1" x="3.25" y="11.75" width="2.5" height="0.5"/><rect class="cls-1" x="18.25" y="11.75" width="2.5" height="0.5"/><rect class="cls-1" x="6.45" y="5.45" width="0.5" height="2.5" transform="translate(-2.77 6.7) rotate(-45)"/><rect class="cls-1" x="17.05" y="16.05" width="0.5" height="2.5" transform="translate(-7.17 17.3) rotate(-45)"/><rect class="cls-1" x="11.75" y="3.25" width="0.5" height="2.5"/><rect class="cls-1" x="11.75" y="18.25" width="0.5" height="2.5"/></svg>