<svg id="Layer_1" data-name="Layer 1" xmlns="http://www.w3.org/2000/svg" viewBox="0 0 600 600"><defs><style>.cls-1{fill:#fc0;}</style></defs><title>32</title><path class="cls-1" d="M299.94,421.89a121.83,121.83,0,1,1,86.19-35.64h0A121.52,121.52,0,0,1,299.94,421.89Zm0-232.05a110.22,110.22,0,1,0,78,32.24A110,110,0,0,0,299.94,189.83ZM382,382.14h0Z"/><rect class="cls-1" x="147.86" y="417.33" width="58.04" height="11.61" transform="translate(-247.4 249) rotate(-45)"/><rect class="cls-1" x="394.11" y="171.06" width="58.04" height="11.61" transform="translate(-1.13 351) rotate(-45)"/><rect class="cls-1" x="96.85" y="294.2" width="58.04" height="11.61"/><rect class="cls-1" x="445.11" y="294.2" width="58.04" height="11.61"/><rect class="cls-1" x="171.07" y="147.85" width="11.61" height="58.04" transform="translate(-73.26 176.87) rotate(-45)"/><rect class="cls-1" x="417.32" y="394.12" width="11.61" height="58.04" transform="translate(-175.27 423.13) rotate(-45)"/><rect class="cls-1" x="294.2" y="96.85" width="11.61" height="58.04"/><rect class="cls-1" x="294.2" y="445.11" width="11.61" height="58.04"/></svg>