<svg id="Layer_1" data-name="Layer 1" xmlns="http://www.w3.org/2000/svg" viewBox="0 0 24 24"><defs><style>.cls-1{fill:#fc0;}.cls-2{fill:none;stroke:#fc0;stroke-miterlimit:10;stroke-width:0.5px;}</style></defs><title>3200</title><rect class="cls-1" x="5.45" y="17.05" width="2.5" height="0.5" transform="translate(-10.27 9.8) rotate(-45)"/><rect class="cls-1" x="16.05" y="6.45" width="2.5" height="0.5" transform="translate(0.33 14.2) rotate(-45)"/><rect class="cls-1" x="6.45" y="5.45" width="0.5" height="2.5" transform="translate(-2.77 6.7) rotate(-45)"/><rect class="cls-1" x="17.05" y="16.05" width="0.5" height="2.5" transform="translate(-7.17 17.3) rotate(-45)"/><rect class="cls-1" x="11.75" y="3.25" width="0.5" height="2.5"/><rect class="cls-1" x="11.75" y="18.25" width="0.5" height="2.5"/><polyline class="cls-2" points="23.53 10 21.45 10 19.71 13.35 17.94 13.35"/><polyline class="cls-2" points="0.94 10 3.02 10 4.76 13.35 6.53 13.35"/><circle class="cls-2" cx="12" cy="12" r="4.59"/><path class="cls-2" d="M13.87,9.09a4.59,4.59,0,0,1-4.59,4.59"/><line class="cls-2" x1="9.66" y1="9.09" x2="10.22" y2="10.59"/><line class="cls-2" x1="12" y1="8.18" x2="12" y2="9.71"/></svg>