<svg id="Layer_1" data-name="Layer 1" xmlns="http://www.w3.org/2000/svg" viewBox="0 0 600 600"><defs><style>.cls-1{fill:#fc0;}</style></defs><title>3200</title><rect class="cls-1" x="142.4" y="417.33" width="58.04" height="11.61" transform="translate(-249 245.14) rotate(-45)"/><rect class="cls-1" x="388.64" y="171.06" width="58.04" height="11.61" transform="translate(-2.73 347.13) rotate(-45)"/><rect class="cls-1" x="165.61" y="147.85" width="11.61" height="58.04" transform="translate(-74.86 173.01) rotate(-45)"/><rect class="cls-1" x="411.86" y="394.12" width="11.61" height="58.04" transform="translate(-176.87 419.26) rotate(-45)"/><rect class="cls-1" x="288.73" y="96.85" width="11.61" height="58.04"/><rect class="cls-1" x="288.73" y="445.11" width="11.61" height="58.04"/><polygon class="cls-1" points="476.59 336.41 432.47 336.41 432.47 326.41 470.52 326.41 511 248.57 562.21 248.57 562.21 258.57 517.07 258.57 476.59 336.41"/><polygon class="cls-1" points="167.53 336.41 123.41 336.41 82.93 258.57 37.79 258.57 37.79 248.57 89 248.57 129.48 326.41 167.53 326.41 167.53 336.41"/><path class="cls-1" d="M294.54,411.52A111.52,111.52,0,1,1,406.06,300,111.65,111.65,0,0,1,294.54,411.52Zm0-213A101.52,101.52,0,1,0,396.06,300,101.64,101.64,0,0,0,294.54,198.48Z"/><path class="cls-1" d="M231.42,344.17v-10A101.75,101.75,0,0,0,333.06,232.53h10A111.77,111.77,0,0,1,231.42,344.17Z"/><rect class="cls-1" x="241.66" y="231.35" width="10" height="37.19" transform="translate(-72.06 102.52) rotate(-20.56)"/><rect class="cls-1" x="289.54" y="211.23" width="10" height="35.51"/></svg>