<svg id="Layer_1" data-name="Layer 1" xmlns="http://www.w3.org/2000/svg" viewBox="0 0 24 24"><defs><style>.cls-1{fill:#bcbcbc;}.cls-2{fill:#fc0;}</style></defs><title>33</title><path class="cls-1" d="M17.71,14.36a5.43,5.43,0,0,0-.2-1,3.91,3.91,0,0,0-.24-.65,4.32,4.32,0,0,1-.9-.61,4.07,4.07,0,0,1,.49,1,4.73,4.73,0,0,1,.37,1.64l.34.22a2.87,2.87,0,0,1,.93-.17,2.75,2.75,0,0,1,0,5.5H6l-.48,0h0A3.24,3.24,0,0,1,6,13.75a2.73,2.73,0,0,1,.64.07l.3-.19a5.23,5.23,0,0,1,7.63-3.2,5,5,0,0,1,.88.63,4.53,4.53,0,0,1-.48-1c-.2-.11-.4-.22-.61-.31A5.65,5.65,0,0,0,12,9.25a5.74,5.74,0,0,0-5.48,4,3,3,0,0,0-.52,0,3.74,3.74,0,0,0-.54,7.45h0l.54.06H18.5a3.24,3.24,0,1,0-.79-6.39Z"/><path class="cls-2" d="M21.55,4.15V3.69A5.25,5.25,0,0,0,14.2,8.5a4.78,4.78,0,0,0,.16,1.26,4,4,0,0,0,.21.67,5.25,5.25,0,0,0,2.29,2.63,3.54,3.54,0,0,0,.65.31,5,5,0,0,0,1.94.38,5.27,5.27,0,0,0,2.1-.44v-.46a4.74,4.74,0,0,1,0-8.7ZM18.2,8.5A5.23,5.23,0,0,0,20.83,13a4.62,4.62,0,0,1-1.38.21,4.71,4.71,0,0,1-2.18-.53,4.32,4.32,0,0,1-.9-.61,4.6,4.6,0,0,1-.92-1A4.81,4.81,0,0,1,14.7,8.5a4.75,4.75,0,0,1,4.75-4.75A4.62,4.62,0,0,1,20.83,4,5.23,5.23,0,0,0,18.2,8.5Z"/><path class="cls-2" d="M4.7,10.5H4.2A1.75,1.75,0,0,0,2.45,8.75v-.5A1.75,1.75,0,0,0,4.2,6.5h.5A1.75,1.75,0,0,0,6.45,8.25v.5A1.75,1.75,0,0,0,4.7,10.5Zm0,0h0Zm-1.22-2a2.27,2.27,0,0,1,1,1,2.27,2.27,0,0,1,1-1,2.27,2.27,0,0,1-1-1A2.27,2.27,0,0,1,3.48,8.5Z"/><path class="cls-2" d="M8.7,7.5H8.2A1.75,1.75,0,0,0,6.45,5.75v-.5A1.75,1.75,0,0,0,8.2,3.5h.5a1.75,1.75,0,0,0,1.75,1.75v.5A1.75,1.75,0,0,0,8.7,7.5Zm0,0h0Zm-1.22-2a2.27,2.27,0,0,1,1,1,2.27,2.27,0,0,1,1-1,2.27,2.27,0,0,1-1-1A2.27,2.27,0,0,1,7.48,5.5Z"/></svg>