<svg id="Layer_1" data-name="Layer 1" xmlns="http://www.w3.org/2000/svg" viewBox="0 0 600 600"><defs><style>.cls-1{fill:#bcbcbc;}.cls-2{fill:#fc0;}</style></defs><title>33</title><path class="cls-1" d="M432.57,354.79a126.15,126.15,0,0,0-4.64-23,90.87,90.87,0,0,0-5.57-15.09,100.25,100.25,0,0,1-20.9-14.16,94.42,94.42,0,0,1,11.38,22.06,109.79,109.79,0,0,1,8.59,38.08l7.89,5.11a66.52,66.52,0,0,1,21.59-3.95,63.85,63.85,0,1,1,0,127.69H161.16L150,490.61v-.23C113.1,485,85.24,453.23,85.24,416.08a75.6,75.6,0,0,1,75.45-75.45,63.33,63.33,0,0,1,14.86,1.63l7-4.41a121.39,121.39,0,0,1,177.14-74.29,116.73,116.73,0,0,1,20.43,14.63,105.19,105.19,0,0,1-11.15-23c-4.64-2.55-9.29-5.11-14.16-7.2A131.15,131.15,0,0,0,300,236.15a133.35,133.35,0,0,0-127.23,93.8A70.59,70.59,0,0,0,160.7,329a87.09,87.09,0,0,0-87.06,87.06c0,42.72,32,79.63,74.53,85.9v-.23l12.54,1.39H450.91a75.6,75.6,0,0,0,75.45-75.45C526.36,380.1,481.32,341.79,432.57,354.79Z"/><path class="cls-2" d="M521.72,117.75V107.07A121.81,121.81,0,0,0,351.08,218.74,111.08,111.08,0,0,0,354.79,248a92.82,92.82,0,0,0,4.88,15.55,122,122,0,0,0,53.17,61.06,82.14,82.14,0,0,0,15.09,7.2,116.27,116.27,0,0,0,45,8.82,122.43,122.43,0,0,0,48.75-10.22V319.73a110.16,110.16,0,0,1,0-202Zm-77.78,101A121.34,121.34,0,0,0,505,324.14,107.24,107.24,0,0,1,473,329a109.41,109.41,0,0,1-50.61-12.31,100.25,100.25,0,0,1-20.9-14.16,106.79,106.79,0,0,1-21.36-24.38,111.58,111.58,0,0,1-17.41-59.43A110.38,110.38,0,0,1,473,108.46a107.29,107.29,0,0,1,32,4.87A121.34,121.34,0,0,0,443.94,218.74Z"/><path class="cls-2" d="M130.52,265.17H118.91a40.68,40.68,0,0,0-40.63-40.63V212.94a40.68,40.68,0,0,0,40.63-40.63h11.61a40.68,40.68,0,0,0,40.63,40.63v11.61A40.68,40.68,0,0,0,130.52,265.17Zm0,0h0ZM102.2,218.74a52.64,52.64,0,0,1,22.51,22.51,52.64,52.64,0,0,1,22.51-22.51,52.64,52.64,0,0,1-22.51-22.51A52.64,52.64,0,0,1,102.2,218.74Z"/><path class="cls-2" d="M223.38,195.52H211.77a40.68,40.68,0,0,0-40.63-40.63V143.29a40.68,40.68,0,0,0,40.63-40.63h11.61A40.68,40.68,0,0,0,264,143.29v11.61A40.68,40.68,0,0,0,223.38,195.52Zm0,0h0Zm-28.32-46.43a52.64,52.64,0,0,1,22.51,22.51,52.64,52.64,0,0,1,22.51-22.51,52.64,52.64,0,0,1-22.51-22.51A52.64,52.64,0,0,1,195.07,149.09Z"/></svg>