<svg xmlns="http://www.w3.org/2000/svg" viewBox="0 0 24 24"><defs><style>.a{fill:#039be5;}.b{fill:#bcbcbc;}.c{fill:#63ccff;}</style></defs><title>35</title><rect class="a" x="10.68" y="14.52" width="1.49" height="0.5" transform="translate(-7.1 12.4) rotate(-45)"/><rect class="a" x="8.74" y="16.67" width="1.66" height="0.5" transform="translate(-9.16 11.73) rotate(-45)"/><rect class="a" x="7.53" y="14.52" width="1.5" height="0.5" transform="translate(-8.02 10.18) rotate(-45)"/><circle class="b" cx="5.5" cy="19.18" r="0.5" transform="translate(-13.86 14.35) rotate(-60)"/><circle class="b" cx="13.5" cy="19.18" r="0.5" transform="translate(-9.86 21.28) rotate(-60)"/><rect class="c" x="7.56" y="17.37" width="9.55" height="0.5" transform="translate(-8.84 13.88) rotate(-45)"/><rect class="c" x="13.92" y="16.78" width="4" height="0.5" transform="translate(-7.37 16.25) rotate(-45)"/><path class="b" d="M18.61,14.44l-.05-.5.25,0a2.75,2.75,0,0,0-.3-5.48,2.7,2.7,0,0,0-.93.17l-.33-.22A5.24,5.24,0,0,0,6.94,7.32l-.29.18A3.29,3.29,0,0,0,6,7.43a3.24,3.24,0,0,0-.46,6.45l.21.25v.25h-.5v-.05A3.74,3.74,0,0,1,6,6.93a3.68,3.68,0,0,1,.52,0A5.74,5.74,0,0,1,17.71,8a3.25,3.25,0,1,1,1.15,6.37Z"/><path class="c" d="M9.25,21.07h-.5v-.25A1.75,1.75,0,0,0,7,19.07H6.75v-.5H7a2.25,2.25,0,0,1,2.25,2.25Z"/></svg>