<svg id="Layer_1" data-name="Layer 1" xmlns="http://www.w3.org/2000/svg" viewBox="0 0 600 600"><defs><style>.cls-1{fill:#039be5;}.cls-2{fill:#bcbcbc;}.cls-3{fill:#63ccff;}</style></defs><title>35</title><rect class="cls-1" x="269.32" y="357.27" width="34.69" height="11.61" transform="translate(-172.77 309.05) rotate(-45)"/><rect class="cls-1" x="224.41" y="407.14" width="38.57" height="11.61" transform="translate(-220.62 293.27) rotate(-45)"/><rect class="cls-1" x="196.21" y="357.27" width="34.71" height="11.61" transform="translate(-194.18 257.35) rotate(-45)"/><circle class="cls-2" cx="149.09" cy="465.57" r="11.61" transform="translate(-328.65 361.9) rotate(-60)"/><circle class="cls-2" cx="334.83" cy="465.57" r="11.61" transform="translate(-235.78 522.75) rotate(-60)"/><rect class="cls-3" x="196.88" y="423.4" width="221.74" height="11.61" transform="translate(-213.35 343.32) rotate(-45)"/><rect class="cls-3" x="344.63" y="409.68" width="92.95" height="11.61" transform="translate(-179.24 398.25) rotate(-45)"/><path class="cls-2" d="M453.47,355.46l-1.27-11.52,5.76-.63A63.85,63.85,0,0,0,450.91,216a62.57,62.57,0,0,0-21.61,4l-7.78-5.15a121.73,121.73,0,0,0-239.11-24.8l-6.73,4.19a76.36,76.36,0,0,0-15-1.5,75.54,75.54,0,0,0-75.45,75.45c0,37.07,27.8,69,64.69,74.34l5,5.74v5.8l-11.61.25v-1.18c-40-8.18-69.65-43.85-69.65-85a87.17,87.17,0,0,1,87.06-87.06,85.32,85.32,0,0,1,12,.84A133.32,133.32,0,0,1,432.5,206.86c48.79-12.95,93.86,25.28,93.86,73a75.3,75.3,0,0,1-67.13,75Z"/><path class="cls-3" d="M236.15,509.29H224.55v-5.8a40.68,40.68,0,0,0-40.63-40.63h-5.8V451.25h5.8a52.31,52.31,0,0,1,52.24,52.24Z"/></svg>