<svg xmlns="http://www.w3.org/2000/svg" viewBox="0 0 24 24"><defs><style>.a{fill:#63ccff;}.b{fill:#f03a47;}</style></defs><title>36</title><path class="a" d="M12,21.75a4.24,4.24,0,0,1-2.25-7.84V4.5a2.25,2.25,0,0,1,4.5,0v9.41A4.24,4.24,0,0,1,12,21.75Zm0-19A1.75,1.75,0,0,0,10.25,4.5v9.55l-.12.22A3.71,3.71,0,0,0,8.25,17.5a3.75,3.75,0,0,0,7.5,0,3.71,3.71,0,0,0-1.88-3.23l-.12-.22V4.5A1.75,1.75,0,0,0,12,2.75Z"/><path class="b" d="M12,19.5a2,2,0,0,1-2-2,2,2,0,0,1,1-1.72l1-.58v0l1,.58a2,2,0,0,1,1,1.72A2,2,0,0,1,12,19.5Z"/><path class="b" d="M12,19.75A2.25,2.25,0,0,1,9.75,17.5a2.22,2.22,0,0,1,1.13-1.93l.87-.51V4.5h.5V15.06l.87.51a2.22,2.22,0,0,1,1.13,1.93A2.25,2.25,0,0,1,12,19.75Zm0-4.26-.87.51a1.73,1.73,0,0,0-.88,1.5,1.75,1.75,0,0,0,3.5,0,1.73,1.73,0,0,0-.88-1.5Z"/></svg>