<svg id="Layer_1" data-name="Layer 1" xmlns="http://www.w3.org/2000/svg" viewBox="0 0 600 600"><defs><style>.cls-1{fill:#63ccff;}.cls-2{fill:#f03a47;}</style></defs><title>36</title><path class="cls-1" d="M300,526.36a98.77,98.77,0,0,1-98.67-98.67c0-33.6,17.71-65.21,46.43-83.25V125.87a52.24,52.24,0,1,1,104.48,0V344.44c28.73,18,46.43,49.65,46.43,83.25A98.77,98.77,0,0,1,300,526.36Zm0-441.12a40.68,40.68,0,0,0-40.63,40.63V347.7l-2.88,5c-27.28,15.89-43.55,43.92-43.55,75a87.06,87.06,0,0,0,174.13,0c0-31.06-16.28-59.08-43.55-75l-2.88-5V125.87A40.68,40.68,0,0,0,300,85.24Z"/><path class="cls-2" d="M300,474.13a46.49,46.49,0,0,1-46.43-46.43c0-16.44,8.73-31.33,23.38-39.86L300,374.39v0l23.06,13.44c14.65,8.52,23.38,23.42,23.38,39.86A46.49,46.49,0,0,1,300,474.13Z"/><path class="cls-2" d="M300,479.93a52.31,52.31,0,0,1-52.24-52.24c0-18.52,9.82-35.3,26.25-44.87l20.18-11.77V125.87H305.8V371.06L326,382.82c16.44,9.57,26.25,26.35,26.25,44.87A52.31,52.31,0,0,1,300,479.93Zm0-98.83-20.13,11.74c-12.83,7.48-20.5,20.5-20.5,34.85a40.63,40.63,0,1,0,81.26,0c0-14.35-7.66-27.37-20.5-34.85Z"/></svg>