<svg id="Layer_1" data-name="Layer 1" xmlns="http://www.w3.org/2000/svg" viewBox="0 0 600 600"><defs><style>.cls-1{fill:#bcbcbc;}.cls-2{fill:#fc0;}.cls-3{fill:#039be5;}</style></defs><title>38</title><path class="cls-1" d="M166,360.9l-17.75-1.79,0,.11c-42.53-6.14-74.62-43.06-74.62-85.84a87.15,87.15,0,0,1,99.06-86.22A133.32,133.32,0,0,1,432.5,212a70.52,70.52,0,0,1,18.41-2.49,75.45,75.45,0,1,1,0,150.91h-5.8V348.84h5.8a63.85,63.85,0,1,0,0-127.69,62.38,62.38,0,0,0-21.61,4.06l-7.78-5.15a121.72,121.72,0,0,0-239.11-24.8l-6.73,4.19c-48-9.5-90.44,27.43-90.44,73.94,0,37,27.8,69,64.69,74.37l.18.23L167,349.31Z"/><polygon class="cls-2" points="282.7 506.55 274.49 498.34 319.34 453.47 287.8 453.81 283.63 443.9 329.23 398.31 337.43 406.52 301.9 442.04 333.44 441.7 337.61 451.61 282.7 506.55"/><rect class="cls-3" x="227.57" y="408.86" width="34.71" height="11.61" transform="translate(-221.48 294.64) rotate(-45)"/><rect class="cls-3" x="175.77" y="458.74" width="38.57" height="11.61" transform="translate(-271.35 273.99) rotate(-45)"/><rect class="cls-3" x="147.56" y="408.86" width="34.73" height="11.61" transform="translate(-244.91 238.07) rotate(-45)"/><rect class="cls-3" x="372.59" y="458.74" width="38.56" height="11.61" transform="translate(-213.71 413.16) rotate(-45)"/><rect class="cls-3" x="424.38" y="408.86" width="34.73" height="11.61" transform="translate(-163.83 433.81) rotate(-45)"/></svg>