<svg id="Layer_1" data-name="Layer 1" xmlns="http://www.w3.org/2000/svg" viewBox="0 0 600 600"><defs><style>.cls-1{fill:#bcbcbc;}.cls-2{fill:#fc0;}.cls-3{fill:#039be5;}</style></defs><title>4</title><path class="cls-1" d="M166,360.9l-17.75-1.77v.1c-42.55-6.14-74.63-43-74.63-85.84,0-52,46.5-93.55,99.06-86.22A133.33,133.33,0,0,1,432.51,212c48.69-12.88,93.86,25.29,93.85,73a75.54,75.54,0,0,1-75.45,75.45h-5.8V348.85h5.8a63.85,63.85,0,1,0,0-127.69,62.77,62.77,0,0,0-21.61,4l-7.77-5.12a121.73,121.73,0,0,0-239.12-24.79l-6.73,4.18c-47.28-9.4-90.44,27.42-90.44,73.95,0,37.06,27.81,69,64.67,74.34l.22.25,16.81,1.34Z"/><polygon class="cls-2" points="282.69 506.54 274.48 498.33 319.34 453.47 287.79 453.81 283.63 443.9 329.23 398.31 337.43 406.52 301.89 442.06 333.44 441.72 337.6 451.62 282.69 506.54"/><rect class="cls-3" x="227.57" y="408.87" width="34.71" height="11.61" transform="translate(-221.48 294.64) rotate(-45)"/><rect class="cls-3" x="175.78" y="458.74" width="38.56" height="11.61" transform="translate(-271.35 273.98) rotate(-45)"/><rect class="cls-3" x="147.57" y="408.87" width="34.71" height="11.61" transform="translate(-244.91 238.07) rotate(-45)"/><rect class="cls-3" x="372.59" y="458.74" width="38.56" height="11.61" transform="translate(-213.7 413.15) rotate(-45)"/><rect class="cls-3" x="424.38" y="408.87" width="34.72" height="11.61" transform="translate(-163.84 433.81) rotate(-45)"/></svg>