<svg id="Layer_1" data-name="Layer 1" xmlns="http://www.w3.org/2000/svg" viewBox="0 0 600 600"><defs><style>.cls-1{fill:#039be5;}.cls-2{fill:#bcbcbc;}</style></defs><title>40</title><rect class="cls-1" x="246.09" y="420.99" width="34.72" height="11.61" transform="translate(-224.63 311.29) rotate(-45)"/><rect class="cls-1" x="201.2" y="470.87" width="38.56" height="11.61" transform="translate(-272.48 295.52) rotate(-45)"/><rect class="cls-1" x="319.2" y="420.99" width="34.72" height="11.61" transform="translate(-203.22 362.99) rotate(-45)"/><rect class="cls-1" x="270.85" y="470.87" width="38.56" height="11.61" transform="translate(-252.08 344.77) rotate(-45)"/><rect class="cls-1" x="392.29" y="420.99" width="34.72" height="11.61" transform="translate(-181.81 414.67) rotate(-45)"/><rect class="cls-1" x="340.5" y="470.87" width="38.56" height="11.61" transform="translate(-231.68 394.02) rotate(-45)"/><rect class="cls-1" x="172.99" y="420.99" width="34.72" height="11.61" transform="translate(-246.04 259.6) rotate(-45)"/><path class="cls-2" d="M166,373l-17.75-1.79v.11c-42.55-6.14-74.63-43.06-74.63-85.84,0-51.94,45.95-93.37,99.06-86.22a133.33,133.33,0,0,1,259.82,24.85,71,71,0,0,1,18.4-2.47,75.46,75.46,0,0,1,8.33,150.46l-13.82.75-.61-11.59,13.49-.73a63.86,63.86,0,0,0-7.39-127.28,62.53,62.53,0,0,0-21.61,4l-7.77-5.15A121.73,121.73,0,0,0,182.42,207.4l-6.73,4.17C127.81,202.1,85.24,239,85.24,285.51c0,37,27.81,69,64.67,74.37l.2.23,16.82,1.34Z"/></svg>