<svg id="Layer_1" data-name="Layer 1" xmlns="http://www.w3.org/2000/svg" viewBox="0 0 600 600"><defs><style>.cls-1{fill:#fc0;}.cls-2{fill:#63ccff;}</style></defs><title>44</title><path class="cls-1" d="M409.36,371.44l-6.53-9.61a106,106,0,0,0,15.64-12.76,110.39,110.39,0,0,0-78-188.36h0A110.48,110.48,0,0,0,231,284l-11.54,1.32a122.09,122.09,0,0,1,121-136.24h0a121.86,121.86,0,0,1,86.14,208.18A117.63,117.63,0,0,1,409.36,371.44Z"/><rect class="cls-1" x="434.74" y="142.04" width="58.04" height="11.61" transform="translate(31.29 371.23) rotate(-45)"/><rect class="cls-1" x="137.48" y="265.17" width="58.04" height="11.61"/><rect class="cls-1" x="485.73" y="265.17" width="58.04" height="11.61"/><rect class="cls-1" x="211.7" y="118.83" width="11.61" height="58.04" transform="translate(-40.84 197.1) rotate(-45)"/><path class="cls-1" d="M488.29,410.51l-5.34,5.34c-6.5-7.2-13.93-13.23-22.75-16.95l-21.13-21.13,8.36-8.36,19.5,19.73Z"/><rect class="cls-1" x="334.83" y="67.83" width="11.61" height="58.04"/><path class="cls-2" d="M466.93,389.15a67,67,0,0,0-23.45-7,47,47,0,0,0-10-.93,72.71,72.71,0,0,0-18.34,2.55A133.3,133.3,0,0,0,155.36,359a70.59,70.59,0,0,0-12.07-.93,87.09,87.09,0,0,0-87.06,87.06c0,42.72,32,79.63,74.53,85.9v-.23l12.54,1.39H433.5a75.4,75.4,0,0,0,33.43-143ZM433.5,520.56H143.75l-10.91-.93-.23-.23c-36.91-5.34-64.77-37.15-64.77-74.29a75.6,75.6,0,0,1,75.45-75.45,63.33,63.33,0,0,1,14.86,1.63l7-4.18A121.59,121.59,0,0,1,404,391.71l7.89,5.11a66.52,66.52,0,0,1,21.59-3.95,60.85,60.85,0,0,1,26.7,6c8.82,3.71,16.25,9.75,22.75,16.95,0,0-.23,0,0,.23a64.58,64.58,0,0,1,14.39,40.63A63.81,63.81,0,0,1,433.5,520.56Z"/></svg>