<svg id="Layer_1" data-name="Layer 1" xmlns="http://www.w3.org/2000/svg" viewBox="0 0 24 24"><defs><style>.cls-1{fill:#fc0;}.cls-2{fill:#63ccff;}</style></defs><title>44</title><path class="cls-1" d="M16.71,15.08l-.28-.41a4.56,4.56,0,0,0,.67-.55A4.75,4.75,0,0,0,13.75,6h0A4.76,4.76,0,0,0,9,11.31l-.5.06A5.26,5.26,0,0,1,13.75,5.5h0a5.25,5.25,0,0,1,3.71,9A5.07,5.07,0,0,1,16.71,15.08Z"/><rect class="cls-1" x="17.8" y="5.2" width="2.5" height="0.5" transform="translate(1.73 15.07) rotate(-45)"/><rect class="cls-1" x="5" y="10.5" width="2.5" height="0.5"/><rect class="cls-1" x="20" y="10.5" width="2.5" height="0.5"/><rect class="cls-1" x="8.2" y="4.2" width="0.5" height="2.5" transform="translate(-1.38 7.57) rotate(-45)"/><path class="cls-1" d="M20.11,16.76l-.23.23a2.8,2.8,0,0,0-1-.73L18,15.35l.36-.36.84.85Z"/><rect class="cls-1" x="13.5" y="2" width="0.5" height="2.5"/><path class="cls-2" d="M19.19,15.84a2.89,2.89,0,0,0-1-.3,2,2,0,0,0-.43,0,3.13,3.13,0,0,0-.79.11A5.74,5.74,0,0,0,5.77,14.54a3,3,0,0,0-.52,0A3.74,3.74,0,0,0,4.71,22h0l.54.06h12.5a3.25,3.25,0,0,0,1.44-6.16ZM17.75,21.5H5.27l-.47,0h0A3.24,3.24,0,0,1,5.25,15a2.73,2.73,0,0,1,.64.07l.3-.18A5.24,5.24,0,0,1,16.48,16l.34.22a2.87,2.87,0,0,1,.93-.17,2.62,2.62,0,0,1,1.15.26,2.8,2.8,0,0,1,1,.73s0,0,0,0a2.78,2.78,0,0,1,.62,1.75A2.75,2.75,0,0,1,17.75,21.5Z"/></svg>