<svg id="Layer_1" data-name="Layer 1" xmlns="http://www.w3.org/2000/svg" viewBox="0 0 600 600"><defs><style>.cls-1{fill:#bcbcbc;}</style></defs><title>46</title><circle class="cls-1" cx="218.73" cy="358.04" r="11.61"/><circle class="cls-1" cx="218.73" cy="404.48" r="11.61"/><circle class="cls-1" cx="218.73" cy="450.91" r="11.61"/><circle class="cls-1" cx="172.3" cy="381.26" r="11.61" transform="matrix(0.5, -0.87, 0.87, 0.5, -244.03, 339.85)"/><circle class="cls-1" cx="265.17" cy="427.69" r="11.61" transform="translate(-237.81 443.49) rotate(-60)"/><circle class="cls-1" cx="172.3" cy="427.69" r="11.61" transform="translate(-190.76 143.45) rotate(-30)"/><circle class="cls-1" cx="265.17" cy="381.26" r="11.61" transform="translate(-155.1 183.66) rotate(-30)"/><circle class="cls-1" cx="381.25" cy="404.48" r="11.61"/><circle class="cls-1" cx="381.25" cy="450.91" r="11.61"/><circle class="cls-1" cx="381.25" cy="497.34" r="11.61"/><circle class="cls-1" cx="334.82" cy="427.69" r="11.61" transform="matrix(0.5, -0.87, 0.87, 0.5, -202.99, 503.81)"/><circle class="cls-1" cx="427.68" cy="474.13" r="11.61" transform="matrix(0.5, -0.87, 0.87, 0.5, -196.76, 607.45)"/><circle class="cls-1" cx="334.82" cy="474.13" r="11.61" transform="translate(-192.21 230.93) rotate(-30)"/><circle class="cls-1" cx="427.68" cy="427.69" r="11.61" transform="translate(-156.55 271.14) rotate(-30)"/><path class="cls-1" d="M154,357.63l-5.76-.84A87.82,87.82,0,0,1,90.56,322.4a86.56,86.56,0,0,1-15.89-65.09c4.72-30.79,26.94-57.57,56.64-68.2a85,85,0,0,1,41.38-4.35A133.32,133.32,0,0,1,432.49,209.6c20.31-5.4,39.61-2,58.63,10.16,18.52,11.9,31,30.22,34.24,50.31a75.52,75.52,0,0,1-66.14,87.49l-153.43,0V346H458.59a64,64,0,0,0,55.3-74.07c-2.68-16.6-13.51-32.44-29-42.4-18.25-11.68-35.91-13.88-55.57-6.76l-7.78-5.15a121.72,121.72,0,0,0-239.11-24.78L175.65,197a74.3,74.3,0,0,0-40.43,3c-25.76,9.23-45,32.4-49.09,59A75,75,0,0,0,99.9,315.49a76.23,76.23,0,0,0,50,29.84l5.74.82Z"/></svg>