<svg xmlns="http://www.w3.org/2000/svg" viewBox="0 0 24 24"><defs><style>.a{fill:#bcbcbc;}.b{fill:#fc0;}.c{fill:#039be5;}</style></defs><title>47</title><path class="a" d="M6.23,14.67l-.76-.08h0A3.74,3.74,0,0,1,6.52,7.19,5.74,5.74,0,0,1,17.71,8.26a3,3,0,0,1,.79-.11,3.25,3.25,0,0,1,0,6.5h-.25v-.5h.25a2.75,2.75,0,0,0,0-5.5,2.69,2.69,0,0,0-.93.17l-.33-.22A5.24,5.24,0,0,0,6.94,7.54l-.29.18a3.24,3.24,0,1,0-1.11,6.39h0l.73.06Z"/><polygon class="b" points="11.26 20.95 10.9 20.59 12.83 18.66 11.47 18.68 11.29 18.25 13.26 16.29 13.61 16.64 12.08 18.17 13.44 18.16 13.62 18.58 11.26 20.95"/><rect class="c" x="8.88" y="16.74" width="1.5" height="0.5" transform="translate(-9.19 11.78) rotate(-45)"/><rect class="c" x="6.65" y="18.89" width="1.66" height="0.5" transform="translate(-11.34 10.89) rotate(-45)"/><rect class="c" x="5.43" y="16.74" width="1.5" height="0.5" transform="translate(-10.2 9.35) rotate(-45)"/><rect class="c" x="15.13" y="18.89" width="1.66" height="0.5" transform="translate(-8.86 16.89) rotate(-45)"/><rect class="c" x="17.36" y="16.74" width="1.5" height="0.5" transform="translate(-6.71 17.78) rotate(-45)"/></svg>