<svg id="Layer_1" data-name="Layer 1" xmlns="http://www.w3.org/2000/svg" viewBox="0 0 600 600"><defs><style>.cls-1{fill:#039be5;}.cls-2{fill:#bcbcbc;}</style></defs><title>5</title><rect class="cls-1" x="227.58" y="421" width="34.7" height="11.61" transform="translate(-230.06 298.2) rotate(-45)"/><rect class="cls-1" x="175.78" y="470.87" width="38.56" height="11.61" transform="translate(-279.93 277.54) rotate(-45)"/><rect class="cls-1" x="147.57" y="421" width="34.72" height="11.61" transform="translate(-253.49 241.63) rotate(-45)"/><circle class="cls-2" cx="358.04" cy="343.56" r="11.61"/><circle class="cls-2" cx="358.04" cy="390" r="11.61"/><circle class="cls-2" cx="358.04" cy="436.43" r="11.61"/><circle class="cls-2" cx="317.83" cy="366.78" r="11.61" transform="translate(-158.73 458.64) rotate(-60)"/><circle class="cls-2" cx="398.25" cy="413.21" r="11.61" transform="translate(-158.73 551.51) rotate(-60)"/><circle class="cls-2" cx="317.83" cy="413.21" r="11.61" transform="translate(-164.03 214.27) rotate(-30)"/><circle class="cls-2" cx="398.25" cy="366.78" r="11.61" transform="translate(-130.03 248.27) rotate(-30)"/><path class="cls-2" d="M166,373l-17.75-1.77,0,.09c-42.53-6.13-74.62-43-74.62-85.83a87,87,0,0,1,99.06-86.22A133.32,133.32,0,0,1,432.5,224.15c48.79-12.95,93.86,25.28,93.86,73a75.54,75.54,0,0,1-75.45,75.45h-5.8V361h5.8a63.85,63.85,0,1,0,0-127.69,62.82,62.82,0,0,0-21.61,4l-7.78-5.12a121.72,121.72,0,0,0-239.11-24.79l-6.76,4.18a75.41,75.41,0,0,0-90.42,73.95c0,37.07,27.8,69,64.69,74.33l.2.26L167,361.45Z"/></svg>