<svg id="Layer_1" data-name="Layer 1" xmlns="http://www.w3.org/2000/svg" viewBox="0 0 24 24"><defs><style>.cls-1{fill:#039be5;}.cls-2{fill:#bcbcbc;}</style></defs><title>5</title><rect class="cls-1" x="8.88" y="17.26" width="1.49" height="0.5" transform="translate(-9.56 11.94) rotate(-45)"/><rect class="cls-1" x="6.65" y="19.41" width="1.66" height="0.5" transform="translate(-11.71 11.05) rotate(-45)"/><rect class="cls-1" x="5.43" y="17.26" width="1.5" height="0.5" transform="translate(-10.57 9.5) rotate(-45)"/><circle class="cls-2" cx="14.5" cy="13.93" r="0.5"/><circle class="cls-2" cx="14.5" cy="15.93" r="0.5"/><circle class="cls-2" cx="14.5" cy="17.93" r="0.5"/><circle class="cls-2" cx="12.77" cy="14.93" r="0.5" transform="translate(-6.54 18.52) rotate(-60)"/><circle class="cls-2" cx="16.23" cy="16.93" r="0.5" transform="translate(-6.54 22.52) rotate(-60)"/><circle class="cls-2" cx="12.77" cy="16.93" r="0.5" transform="translate(-6.75 8.65) rotate(-30)"/><circle class="cls-2" cx="16.23" cy="14.93" r="0.5" transform="translate(-5.29 10.12) rotate(-30)"/><path class="cls-2" d="M6.23,15.2l-.76-.08h0A3.74,3.74,0,0,1,6.52,7.71,5.74,5.74,0,0,1,17.71,8.78a3.25,3.25,0,1,1,.79,6.39h-.25v-.5h.25a2.75,2.75,0,0,0,0-5.5,2.71,2.71,0,0,0-.93.17l-.33-.22A5.24,5.24,0,0,0,6.94,8.06l-.29.18a3.24,3.24,0,1,0-1.11,6.39h0l.72.06Z"/></svg>