<svg xmlns="http://www.w3.org/2000/svg" viewBox="0 0 24 24"><defs><style>.a{fill:#039be5;}.b{fill:#63ccff;}.c{fill:#bcbcbc;}</style></defs><title>6</title><rect class="a" x="8.88" y="17.26" width="1.49" height="0.5" transform="translate(-9.56 11.94) rotate(-45)"/><rect class="a" x="6.65" y="19.41" width="1.66" height="0.5" transform="translate(-11.71 11.05) rotate(-45)"/><rect class="a" x="5.43" y="17.26" width="1.5" height="0.5" transform="translate(-10.57 9.5) rotate(-45)"/><rect class="b" x="10.58" y="16.86" width="6.02" height="0.5" transform="translate(-8.12 14.62) rotate(-45)"/><rect class="b" x="13.94" y="17.74" width="3.52" height="0.5" transform="translate(-8.13 16.37) rotate(-45)"/><path class="c" d="M6.23,15.2l-.76-.08h0A3.74,3.74,0,0,1,6.52,7.71,5.74,5.74,0,0,1,17.71,8.78a3.25,3.25,0,1,1,1.15,6.37l-.25,0-.05-.5.25,0a2.75,2.75,0,0,0-.3-5.48,2.71,2.71,0,0,0-.93.17l-.33-.22A5.24,5.24,0,0,0,6.94,8.06l-.29.18a3.24,3.24,0,1,0-1.11,6.39h0l.72.06Z"/></svg>