<svg id="Layer_1" data-name="Layer 1" xmlns="http://www.w3.org/2000/svg" viewBox="0 0 600 600"><defs><style>.cls-1{fill:#039be5;}.cls-2{fill:#63ccff;}.cls-3{fill:#bcbcbc;}</style></defs><title>6</title><rect class="cls-1" x="227.58" y="421" width="34.7" height="11.61" transform="translate(-230.06 298.2) rotate(-45)"/><rect class="cls-1" x="175.78" y="470.87" width="38.56" height="11.61" transform="translate(-279.93 277.54) rotate(-45)"/><rect class="cls-1" x="147.57" y="421" width="34.72" height="11.61" transform="translate(-253.49 241.63) rotate(-45)"/><rect class="cls-2" x="266.94" y="411.67" width="139.66" height="11.61" transform="translate(-196.56 360.41) rotate(-45)"/><rect class="cls-2" x="345.09" y="432.18" width="81.66" height="11.61" transform="translate(-196.67 401.17) rotate(-45)"/><path class="cls-3" d="M166,373l-17.75-1.77,0,.09c-42.53-6.13-74.62-43-74.62-85.83a87,87,0,0,1,99.06-86.22A133.32,133.32,0,0,1,432.5,224.15c48.79-12.95,93.86,25.28,93.86,73a75.33,75.33,0,0,1-67.13,75l-5.76.63-1.27-11.54,5.76-.63a63.85,63.85,0,0,0-7.05-127.31,62.82,62.82,0,0,0-21.61,4l-7.78-5.12a121.72,121.72,0,0,0-239.11-24.79l-6.76,4.18a75.41,75.41,0,0,0-90.42,73.95c0,37.07,27.8,69,64.69,74.33l.2.26L167,361.45Z"/></svg>