<svg id="Layer_1" data-name="Layer 1" xmlns="http://www.w3.org/2000/svg" viewBox="0 0 24 24"><defs><style>.cls-1{fill:#bcbcbc;}.cls-2{fill:#63ccff;}</style></defs><title>7</title><circle class="cls-1" cx="8.5" cy="15.25" r="0.5"/><circle class="cls-1" cx="8.5" cy="17.25" r="0.5"/><circle class="cls-1" cx="8.5" cy="19.25" r="0.5"/><circle class="cls-1" cx="6.77" cy="16.25" r="0.5" transform="translate(-10.69 13.99) rotate(-60)"/><circle class="cls-1" cx="10.23" cy="18.25" r="0.5" transform="translate(-10.69 17.99) rotate(-60)"/><circle class="cls-1" cx="6.77" cy="18.25" r="0.5" transform="translate(-8.22 5.83) rotate(-30)"/><circle class="cls-1" cx="10.23" cy="16.25" r="0.5" transform="translate(-6.75 7.29) rotate(-30)"/><rect class="cls-2" x="10.58" y="17.18" width="6.02" height="0.5" transform="translate(-8.35 14.71) rotate(-45)"/><rect class="cls-2" x="13.98" y="18.16" width="3.26" height="0.5" transform="translate(-8.45 16.43) rotate(-45)"/><path class="cls-1" d="M18.61,15.51l-.05-.5.25,0a2.75,2.75,0,0,0-.3-5.48,2.71,2.71,0,0,0-.93.17l-.33-.22A5.24,5.24,0,0,0,6.94,8.38l-.29.18A3.31,3.31,0,0,0,6,8.5,3.24,3.24,0,0,0,5.54,15l.21.25v.25h-.5v-.05A3.74,3.74,0,0,1,6.52,8,5.74,5.74,0,0,1,17.71,9.11a3.25,3.25,0,1,1,1.15,6.37Z"/></svg>