<svg id="Layer_1" data-name="Layer 1" xmlns="http://www.w3.org/2000/svg" viewBox="0 0 600 600"><defs><style>.cls-1{fill:#bcbcbc;}.cls-2{fill:#63ccff;}</style></defs><title>7</title><circle class="cls-1" cx="218.74" cy="378.36" r="11.61"/><circle class="cls-1" cx="218.74" cy="424.79" r="11.61"/><circle class="cls-1" cx="218.74" cy="471.22" r="11.61"/><circle class="cls-1" cx="178.53" cy="401.57" r="11.61" transform="matrix(0.5, -0.87, 0.87, 0.5, -258.51, 355.4)"/><circle class="cls-1" cx="258.95" cy="448.01" r="11.61" transform="translate(-258.51 448.26) rotate(-60)"/><circle class="cls-1" cx="178.53" cy="448.01" r="11.61" transform="translate(-200.09 149.29) rotate(-30)"/><circle class="cls-1" cx="258.95" cy="401.57" r="11.61" transform="translate(-166.09 183.28) rotate(-30)"/><rect class="cls-2" x="266.94" y="423.25" width="139.67" height="11.61" transform="translate(-204.75 363.8) rotate(-45)"/><rect class="cls-2" x="345.97" y="445.89" width="75.64" height="11.61" transform="translate(-206.99 403.68) rotate(-45)"/><path class="cls-1" d="M453.47,384.34,452.2,372.8l5.76-.63a63.85,63.85,0,0,0-7.05-127.31,62.82,62.82,0,0,0-21.61,4l-7.78-5.12A121.72,121.72,0,0,0,182.42,219l-6.73,4.18a76.89,76.89,0,0,0-15-1.51A75.54,75.54,0,0,0,85.24,297.1c0,37.06,27.8,69,64.69,74.34l5,5.75V383l-11.61.24v-1.17c-40-8.18-69.65-43.86-69.65-85,0-52,46.5-93.56,99.06-86.22A133.32,133.32,0,0,1,432.5,235.72c48.79-12.89,93.86,25.28,93.86,73a75.33,75.33,0,0,1-67.13,75Z"/></svg>