<svg id="Layer_1" data-name="Layer 1" xmlns="http://www.w3.org/2000/svg" viewBox="0 0 600 600"><defs><style>.cls-1{fill:#bcbcbc;}.cls-2{fill:#039be5;}</style></defs><title>9</title><path class="cls-1" d="M166,384.6l-17.75-1.77,0,.1c-42.53-6.14-74.62-43-74.62-85.84,0-52,46.41-93.56,99.06-86.22A133.32,133.32,0,0,1,432.5,235.72c48.79-12.89,93.86,25.28,93.86,73a75.54,75.54,0,0,1-75.45,75.45h-5.8V372.55h5.8a63.85,63.85,0,1,0,0-127.69,62.82,62.82,0,0,0-21.61,4l-7.78-5.12A121.72,121.72,0,0,0,182.42,219l-6.73,4.18a76.89,76.89,0,0,0-15-1.51A75.54,75.54,0,0,0,85.24,297.1c0,37.06,27.8,69,64.69,74.34l.2.25L167,373Z"/><circle class="cls-2" cx="172.31" cy="424.79" r="11.61"/><circle class="cls-2" cx="249.7" cy="424.79" r="11.61"/><circle class="cls-2" cx="327.09" cy="424.79" r="11.61"/><circle class="cls-2" cx="404.48" cy="424.79" r="11.61"/><circle class="cls-2" cx="203.26" cy="471.22" r="11.61"/><circle class="cls-2" cx="280.65" cy="471.22" r="11.61"/><circle class="cls-2" cx="358.04" cy="471.22" r="11.61"/></svg>