<svg xmlns="http://www.w3.org/2000/svg" xmlns:xlink="http://www.w3.org/1999/xlink" viewBox="0 0 600 600"><defs><style>.a,.c,.d{fill:none;}.b{clip-path:url(#a);}.c{stroke:#63ccff;}.c,.d{stroke-linejoin:round;stroke-width:12px;}.d{stroke:#039be5;}</style><clipPath id="a"><rect class="a" x="50" y="50" width="500" height="500"/></clipPath></defs><title>airport</title><g class="b"><polyline class="c" points="291 124.14 322.57 92.58 348.71 118.72 329.94 137.5"/><g class="b"><polyline class="c" points="212.2 97.6 243.77 66.03 269.91 92.18 251.14 110.95"/><polyline class="c" points="502.4 387.8 533.97 356.23 507.82 330.09 489.05 348.86"/></g><polyline class="c" points="475.86 309 507.42 277.43 481.28 251.29 462.51 270.06"/><g class="b"><path class="d" d="M490.53,500.11,342.26,313.58,442.91,212.93l86.75,253c.33,3-1.21,6.63-4,9.43l-22.28,22.28C499.16,501.89,493.4,503,490.53,500.11Z"/><path class="d" d="M99.89,109.47,286.42,257.74,387.07,157.09,134,70.33c-3-.33-6.63,1.2-9.43,4L102.34,96.61C98.11,100.84,97,106.6,99.89,109.47Z"/><path class="d" d="M168.14,524.54l-34.72-53.76,43.68-32.65L190,504a8.61,8.61,0,0,1-2.48,4l-14.33,14.33C171.2,524.31,168.92,525.32,168.14,524.54Z"/><path class="d" d="M75.46,431.86l53.79,34.76,32.61-43.72L96,410a8.62,8.62,0,0,0-4,2.48L77.71,426.77C75.69,428.8,74.68,431.08,75.46,431.86Z"/><path class="d" d="M494,161.86,359.73,296.11a442.83,442.83,0,0,1-48.32,41.8l-194.27,145L262.08,288.59a442.92,442.92,0,0,1,41.81-48.32L438.14,106a187.19,187.19,0,0,1,83-48.22,17.12,17.12,0,0,1,21,21A187.24,187.24,0,0,1,494,161.86Z"/><line class="c" x1="358.47" y1="400.25" x2="290.3" y2="468.41"/><line class="c" x1="401.94" y1="462.12" x2="319.13" y2="544.92"/><line class="c" x1="199.75" y1="241.53" x2="131.59" y2="309.7"/><line class="c" x1="137.89" y1="198.06" x2="55.08" y2="280.87"/></g></g></svg>