<svg xmlns="http://www.w3.org/2000/svg" viewBox="0 0 600 600"><title>Artboard 18</title><path d="M198,128h0a43.3,43.3,0,0,0-.08,61.18h0l.15.15h0a43.3,43.3,0,0,1-.08,61.18h0" style="fill:none;stroke:#039ae4;stroke-miterlimit:10;stroke-width:12px"/><path d="M310,128h0a43.3,43.3,0,0,0-.08,61.18h0l.15.15h0a43.3,43.3,0,0,1-.08,61.18h0" style="fill:none;stroke:#039ae4;stroke-miterlimit:10;stroke-width:12px"/><path d="M422,128h0a43.3,43.3,0,0,0-.08,61.18h0l.15.15h0a43.3,43.3,0,0,1-.08,61.18h0" style="fill:none;stroke:#039ae4;stroke-miterlimit:10;stroke-width:12px"/><path d="M514.4,286.67h0a73.7,73.7,0,0,1-104.22,0h-3a73.7,73.7,0,0,1-104.22,0h-3.56a73.7,73.7,0,0,1-104.22,0h-3a73.7,73.7,0,0,1-104.22,0h0" style="fill:none;stroke:#039be5;stroke-linejoin:round;stroke-width:12px"/><circle cx="258.13" cy="407.34" r="10.66" style="fill:none;stroke:#52cefd;stroke-miterlimit:10;stroke-width:12px"/><circle cx="376.44" cy="344" r="10.66" style="fill:none;stroke:#52cefd;stroke-miterlimit:10;stroke-width:12px"/><circle cx="214.21" cy="366.84" r="24.73" style="fill:none;stroke:#52cefd;stroke-miterlimit:10;stroke-width:12px"/><circle cx="402.25" cy="406.49" r="10.66" style="fill:none;stroke:#52cefd;stroke-miterlimit:10;stroke-width:12px"/><circle cx="328.06" cy="379.2" r="20.89" style="fill:none;stroke:#52cefd;stroke-miterlimit:10;stroke-width:12px"/><path d="M550,249.15H514.4v168.7a30,30,0,0,1-30,30H117.14a30,30,0,0,1-30-30V249.15H50" style="fill:none;stroke:#52cefd;stroke-miterlimit:10;stroke-width:12px"/><line x1="142" y1="472" x2="458" y2="472" style="fill:none;stroke:#039ae4;stroke-miterlimit:10;stroke-width:12px"/></svg>