<svg xmlns="http://www.w3.org/2000/svg" viewBox="0 0 600 600"><defs><style>.a,.b{fill:none;stroke-width:12px;}.a{stroke:#52cefd;stroke-linejoin:round;}.b{stroke:#039be5;stroke-miterlimit:10;}.c{fill:#63ccff;}</style></defs><title>benefits</title><path class="a" d="M50,376.82H84.59l68.71-68.06a57.3,57.3,0,0,1,40.33-16.59h136a56.46,56.46,0,0,1-56.3,56.3H201"/><path class="a" d="M370.8,372.52l93.42-93.42a57,57,0,0,1,80.53,0h0L522,301.86"/><path class="a" d="M378.66,404.93l88.18-88.18a57,57,0,0,1,80.53,0h0l-24.51,24.51"/><path class="a" d="M383.45,440.4l86-86a57,57,0,0,1,80.53,0h0L450.08,454.3a150.68,150.68,0,0,1-106.54,44.13H50"/><path class="a" d="M195.38,348.46H354.59l80.73-80.73a57,57,0,0,1,70.47-8"/><path class="b" d="M112.75,440.26a136.24,136.24,0,0,1,192.67,0"/><line class="b" x1="50" y1="354.53" x2="50" y2="521.66"/><circle class="b" cx="300" cy="164.74" r="96.4"/><path class="c" d="M313.73,185.73a11.14,11.14,0,0,0-3.12-8.1q-3.12-3.2-10.38-5.77a81.5,81.5,0,0,1-11.3-4.76q-13.44-7.21-13.44-21.34,0-9.57,5.82-15.75t15.8-7.32V110.12h9.23V122.8q10,1.45,15.51,8.51t5.48,18.37h-14q0-7.26-3.26-11.45a10.63,10.63,0,0,0-8.85-4.18q-5.54,0-8.65,3t-3.12,8.59a10.76,10.76,0,0,0,3.09,8q3.08,3,10.46,5.74a88.64,88.64,0,0,1,11.59,5,29.59,29.59,0,0,1,7.09,5.28,20.85,20.85,0,0,1,4.44,6.84,24.12,24.12,0,0,1,1.56,9.05q0,9.75-6,15.8t-16.64,7.15v11.25H296V208.63q-11.42-1.27-17.56-8.19t-6.14-18.34h14q0,7.27,3.66,11.25t10.35,4q6.58,0,10-3.17a10.92,10.92,0,0,0,3.43-8.42"/></svg>