<svg xmlns="http://www.w3.org/2000/svg" viewBox="0 0 600 600"><defs><style>.a,.b,.c,.d,.e,.f,.g{fill:none;stroke-width:12px;}.a,.e,.f,.g{stroke:#52cefd;}.a,.d,.f{stroke-linecap:square;}.a,.b,.g{stroke-miterlimit:10;}.b,.c,.d{stroke:#039ae4;}.c,.d,.e,.f{stroke-linejoin:round;}</style></defs><title>careers</title><line class="a" x1="408.02" y1="482.03" x2="510.3" y2="379.75"/><polyline class="a" points="535.46 404.91 535.46 404.91 433.18 507.19 433.18 507.19"/><line class="b" x1="94.67" y1="379.75" x2="196.95" y2="482.03"/><polyline class="b" points="171.79 507.19 69.51 404.91 69.51 404.91"/><polyline class="c" points="179.25 112.42 218.68 151.85 302.08 144.77"/><polyline class="c" points="159.79 334.82 124.04 274.09 70.81 220.86"/><path class="d" d="M301.85,471.46l10.54,7.11a24.13,24.13,0,0,0,28.78-38.73l-19.16-12"/><path class="d" d="M356.51,393.35l19.14,12a24.13,24.13,0,0,1,2.69,36.45h0a24.13,24.13,0,0,1-31.45,2.32"/><path class="d" d="M391,358.85l19.14,12a24.13,24.13,0,0,1,2.69,36.45h0a24.13,24.13,0,0,1-31.45,2.32"/><polyline class="e" points="534.16 218.89 480.92 272.12 441.49 339.16"/><path class="e" d="M316,188.46l-50.15,50.15a47.3,47.3,0,0,1-66.9,0h0l85.73-85.73a27.88,27.88,0,0,1,21.49-8.11l80.09,5.11,39.43-39.43"/><rect class="f" x="148.46" y="326.67" width="50.19" height="50.19" rx="25.1" ry="25.1" transform="translate(299.57 -19.69) rotate(45)"/><rect class="f" x="183.95" y="362.16" width="50.19" height="50.19" rx="25.1" ry="25.1" transform="translate(335.06 -34.39) rotate(45)"/><rect class="f" x="219.44" y="397.65" width="50.19" height="50.19" rx="25.1" ry="25.1" transform="translate(370.55 -49.09) rotate(45)"/><rect class="f" x="254.93" y="433.14" width="50.19" height="50.19" rx="25.1" ry="25.1" transform="translate(406.04 -63.79) rotate(45)"/><line class="b" x1="407.14" y1="92.81" x2="550" y2="235.67"/><line class="g" x1="192.86" y1="92.81" x2="50" y2="235.67"/><path class="c" d="M411.14,371.58l4.75,3.48a24.13,24.13,0,0,0,31.45-2.32h0a24.13,24.13,0,0,0-2.69-36.45L406,307.62,304.29,208.69"/></svg>