<svg xmlns="http://www.w3.org/2000/svg" viewBox="0 0 600 600"><defs><style>.a,.b,.c,.d{fill:none;stroke-miterlimit:10;stroke-width:12px;}.a,.b{stroke:#52cefd;}.b,.c{stroke-linecap:square;}.c,.d{stroke:#039ae4;}</style></defs><title>housing</title><line class="a" x1="217.81" y1="206.26" x2="192.78" y2="210.33"/><line class="a" x1="196.74" y1="168.66" x2="180.12" y2="187.95"/><line class="a" x1="156.46" y1="153.4" x2="156.12" y2="178.99"/><line class="a" x1="132.01" y1="187.46" x2="115.77" y2="167.57"/><line class="a" x1="118.93" y1="209.4" x2="93.72" y2="204.61"/><line class="a" x1="122.95" y1="234.66" x2="100.66" y2="247.13"/><path class="a" d="M250.29,232.72A64.31,64.31,0,0,1,337.09,187a77.15,77.15,0,0,1,131.64,15,56.14,56.14,0,0,1,34.66,69.79"/><polyline class="b" points="82.74 322.61 82.74 446.6 286.19 446.6 286.19 321.4"/><polyline class="c" points="211.35 445.71 211.35 342.81 157.57 342.81 157.57 445.71"/><polyline class="a" points="463.91 390.84 463.91 446.55 286.19 446.55"/><rect class="c" x="321.26" y="367.04" width="39.75" height="39.75"/><rect class="c" x="389.08" y="367.04" width="39.75" height="39.75"/><polyline class="c" points="175.4 238.09 288.08 321.53 422.25 321.53"/><polyline class="c" points="70.38 322.61 50 322.61 170.04 232.73 373.93 232.73 443.78 285.03"/><circle class="a" cx="487.15" cy="332.44" r="62.85"/><line class="c" x1="488.76" y1="445.71" x2="488.76" y2="315.45"/><line class="d" x1="466.21" y1="363.86" x2="488.46" y2="386.12"/><line class="d" x1="509.41" y1="342.91" x2="487.15" y2="365.17"/><line class="c" x1="50" y1="446.55" x2="524.71" y2="446.55"/></svg>