<svg xmlns="http://www.w3.org/2000/svg" viewBox="0 0 600 600"><defs><style>.a,.b,.c,.d{fill:none;}.a,.b{stroke:#039be5;}.a,.c{stroke-linejoin:round;}.a,.b,.c{stroke-width:12px;}.b{stroke-miterlimit:10;}.c{stroke:#63ccff;}</style></defs><title>library</title><path class="a" d="M121.52,390.87v70.86a271.58,271.58,0,0,1,181.71,69.41V309A271.42,271.42,0,0,0,121.52,239.6V313"/><circle class="b" cx="303.24" cy="149.14" r="92.85"/><path class="c" d="M121.52,390.87v70.86a271.58,271.58,0,0,1,181.71,69.41V309A271.42,271.42,0,0,0,121.52,239.6V313"/><path class="c" d="M484.95,390.87v70.86a271.65,271.65,0,0,0-181.71,69.41V309a273.31,273.31,0,0,1,75.23-47.8h0A271.53,271.53,0,0,1,484.95,239.6V313"/><polyline class="c" points="121.52 442.85 121.52 390.87 121.52 390.85"/><polyline class="c" points="484.95 442.85 484.95 390.87 484.95 390.85"/><rect class="b" x="95.58" y="312.98" width="48.67" height="77.87" rx="18.87" ry="18.87"/><rect class="b" x="455.75" y="312.98" width="48.67" height="77.87" rx="18.87" ry="18.87"/><path class="c" d="M484.95,239.59l-28.15-30a270.82,270.82,0,0,0-78.31,20.16h0a273.31,273.31,0,0,0-75.23,47.8A273.42,273.42,0,0,0,228,229.72a269.89,269.89,0,0,0-75.23-19.78l-31.26,29.66"/><rect class="d" x="89.29" y="50" width="421.42" height="500"/><rect class="d" x="89.29" y="50" width="421.42" height="500"/></svg>