<svg xmlns="http://www.w3.org/2000/svg" viewBox="0 0 600 600"><defs><style>.a,.b{fill:none;stroke-width:12px;}.a{stroke:#039ae4;stroke-linecap:square;stroke-miterlimit:10;}.b{stroke:#52cefd;stroke-linejoin:round;}.c{fill:#039ae4;}</style></defs><title>library_1</title><line class="a" x1="537.95" y1="475.08" x2="462.65" y2="475.08"/><polyline class="a" points="378.31 475.08 314.19 475.08 212.65 475.08 212.65 134.72 251.92 134.72"/><rect class="b" x="50" y="164.84" width="81.33" height="310.24"/><polygon class="b" points="550 449.79 391.82 449.79 290.23 124.92 448.21 125.14 550 449.79"/><polyline class="b" points="550 449.79 471.79 475.08 314.2 475.08 212.7 149.01"/><line class="a" x1="354.22" y1="216.05" x2="450.6" y2="216.05"/><line class="a" x1="366.27" y1="252.19" x2="462.65" y2="252.19"/><line class="b" x1="131.33" y1="202.61" x2="212.65" y2="202.61"/><line class="b" x1="131.33" y1="234.12" x2="212.65" y2="234.12"/><line class="b" x1="131.33" y1="377.31" x2="212.65" y2="377.31"/><line class="b" x1="131.33" y1="408.82" x2="212.65" y2="408.82"/><polyline class="b" points="248.85 265.26 248.85 441.95 302.26 441.95"/><line class="a" x1="78.61" y1="213.03" x2="78.61" y2="426.89"/><line class="a" x1="102.71" y1="213.03" x2="102.71" y2="426.89"/><circle class="c" cx="265.36" cy="190.44" r="16.57"/><line class="b" x1="324.1" y1="441.95" x2="360.24" y2="429.9"/><rect class="a" x="131.33" y="134.72" width="81.33" height="340.36"/><polygon class="b" points="391.82 449.79 314.2 475.08 212.7 149.17 290.23 124.92 391.82 449.79"/></svg>