<svg xmlns="http://www.w3.org/2000/svg" viewBox="0 0 600 600"><defs><style>.a,.b,.d{fill:none;stroke-width:12px;}.a,.b{stroke:#52cefd;stroke-miterlimit:10;}.a{stroke-linecap:square;}.c{fill:#52cefd;}.d{stroke:#039ae4;stroke-linejoin:round;}</style></defs><title>onlineServices</title><path class="a" d="M249.13,237.16l-51.85-51.85a22.91,22.91,0,0,1-2.2-1.94,23.35,23.35,0,1,1,33-33,20.4,20.4,0,0,1,2.2,2.54l18.83,18.83"/><polyline class="b" points="425.99 536.1 357.65 467.76 321.61 453.53"/><rect class="a" x="201.87" y="242.22" width="46.74" height="46.74" rx="22.94" ry="22.94" transform="translate(490.83 40.34) rotate(90)"/><rect class="a" x="201.87" y="288.95" width="46.74" height="46.74" rx="22.94" ry="22.94" transform="translate(537.56 87.08) rotate(90)"/><rect class="c" x="312.69" y="382.98" width="46.74" height="46.74" rx="22.94" ry="22.94" transform="translate(742.4 70.29) rotate(90)"/><path class="d" d="M252,364.52V156.86a14.2,14.2,0,0,1,14.2-14.2H405.55a14.2,14.2,0,0,1,14.2,14.2v79.23"/><path class="d" d="M252,430v9.36a14.2,14.2,0,0,0,14.2,14.2H405.55a14.2,14.2,0,0,0,14.2-14.2V298.38"/><path class="a" d="M224.74,95.66c60.89-60.89,160-60.89,220.84,0"/><path class="a" d="M245.19,116.11a127.24,127.24,0,0,1,179.95,0"/><path class="a" d="M518.59,420.67l-42.35-41V305.05a26,26,0,0,0-7.55-20l-79.83-79.83h0a44,44,0,0,0,0,62.29l46.7,46.7"/><path class="a" d="M105.44,549.69l89.41.31,79.83-79.83h0a44,44,0,0,0-62.29,0L183,499.52"/><line class="a" x1="307.34" y1="163.46" x2="364.43" y2="163.46"/><path class="a" d="M56.54,361.59l31.9-31.9,17-16.73A23.37,23.37,0,0,1,138.49,346l19-18.59a23.37,23.37,0,0,1,33.05,33.05l16.95-16.6,2.05-2c.35-.35.69-.67,1.07-1a.77.77,0,0,0,.17-.14s.06-.06.09-.06A23.35,23.35,0,0,1,245,371.58a25,25,0,0,1-2.6,3.38l2.6-3.38,1-1,6-6,59.89-59.89a22.91,22.91,0,0,1,1.94-2.2,23.35,23.35,0,0,1,33,33,20.4,20.4,0,0,1-2.54,2.2L252,430,202,480"/><line class="d" x1="543.46" y1="411.96" x2="405.78" y2="549.63"/></svg>