<svg xmlns="http://www.w3.org/2000/svg" viewBox="0 0 600 600"><defs><style>.a,.b{fill:none;stroke-linecap:square;stroke-miterlimit:10;stroke-width:12px;}.a{stroke:#52cefd;}.b{stroke:#039ae4;}</style></defs><title>palmTree</title><path class="a" d="M205.4,518a265,265,0,0,1,93.2-303.85c.69-.51,1.39-1,2.09-1.51l-2.08,2-8.73,8.53C209.82,303.26,199,426.33,257.45,518Z"/><line class="a" x1="326.05" y1="212.72" x2="326.05" y2="195.42"/><line class="a" x1="352.11" y1="212.72" x2="352.11" y2="181.43"/><line class="a" x1="378.18" y1="212.72" x2="378.18" y2="172.79"/><line class="a" x1="404.23" y1="212.72" x2="404.23" y2="168.65"/><line class="a" x1="430.29" y1="212.72" x2="430.29" y2="168.66"/><line class="a" x1="456.36" y1="212.72" x2="456.36" y2="172.81"/><line class="a" x1="482.42" y1="212.72" x2="482.42" y2="181.46"/><line class="a" x1="508.49" y1="212.72" x2="508.49" y2="195.54"/><path class="b" d="M534,212.72c-64.53-64.53-169.45-64.53-234,0"/><line class="a" x1="319.42" y1="230.87" x2="331.66" y2="218.63"/><line class="a" x1="337.85" y1="249.3" x2="359.98" y2="227.17"/><line class="a" x1="356.28" y1="267.73" x2="384.51" y2="239.49"/><line class="a" x1="374.7" y1="286.15" x2="405.86" y2="254.99"/><line class="a" x1="393.13" y1="304.58" x2="424.29" y2="273.42"/><line class="a" x1="411.56" y1="323.01" x2="439.78" y2="294.79"/><line class="a" x1="429.99" y1="341.44" x2="452.09" y2="319.34"/><line class="a" x1="448.42" y1="359.87" x2="460.57" y2="347.72"/><path class="b" d="M466.44,377.89c0-91.26-74.19-165.45-165.45-165.45"/><line class="a" x1="153.59" y1="65.3" x2="165.83" y2="53.06"/><line class="a" x1="172.02" y1="83.73" x2="194.15" y2="61.6"/><line class="a" x1="190.45" y1="102.16" x2="218.68" y2="73.92"/><line class="a" x1="208.87" y1="120.58" x2="240.04" y2="89.42"/><line class="a" x1="227.3" y1="139.01" x2="258.46" y2="107.85"/><line class="a" x1="245.73" y1="157.44" x2="273.95" y2="129.22"/><line class="a" x1="264.16" y1="175.87" x2="286.27" y2="153.77"/><line class="a" x1="282.59" y1="194.3" x2="294.74" y2="182.15"/><line class="a" x1="301.02" y1="212.72" x2="301.02" y2="212.72"/><path class="b" d="M300.61,212.32h0c0-91.26-74.19-165.45-165.45-165.45"/><line class="a" x1="92.52" y1="212.72" x2="92.52" y2="195.42"/><line class="a" x1="118.59" y1="212.72" x2="118.59" y2="181.43"/><line class="a" x1="144.65" y1="212.72" x2="144.65" y2="172.79"/><line class="a" x1="170.71" y1="212.72" x2="170.71" y2="168.65"/><line class="a" x1="196.77" y1="212.72" x2="196.77" y2="168.66"/><line class="a" x1="222.83" y1="212.72" x2="222.83" y2="172.81"/><line class="a" x1="248.9" y1="212.72" x2="248.9" y2="181.46"/><line class="a" x1="274.96" y1="212.72" x2="274.96" y2="195.54"/><path class="b" d="M300.44,212.72c-64.53-64.53-169.45-64.53-234,0"/></svg>