<svg xmlns="http://www.w3.org/2000/svg" viewBox="0 0 600 600"><defs><style>.a,.b,.d{fill:none;}.a{stroke:#63ccff;}.a,.b{stroke-miterlimit:10;stroke-width:12px;}.b{stroke:#039be5;}.c{fill:#63ccff;}</style></defs><title>recordsTaxesTreasury</title><rect class="a" x="121.58" y="210.68" width="54.64" height="162.46"/><rect class="a" x="211.74" y="210.68" width="54.64" height="162.46"/><polyline class="a" points="353.93 373.14 301.9 373.14 301.9 210.68 356.54 210.68 356.54 365.26"/><polyline class="a" points="392.06 320.57 392.06 210.68 446.7 210.68 446.7 304.57"/><line class="b" x1="351.17" y1="410.96" x2="70.51" y2="410.96"/><polyline class="b" points="353.93 373.14 301.9 373.14 83.7 373.14"/><line class="b" x1="364.72" y1="448.77" x2="57.32" y2="448.77"/><line class="b" x1="516.38" y1="210.68" x2="56.63" y2="210.68"/><polyline class="b" points="56.63 170.15 283.46 107.17 516.38 170.15"/><circle class="b" cx="444.64" cy="398.8" r="94.26"/><path class="c" d="M458.83,419.31a10.89,10.89,0,0,0-3-7.92q-3-3.13-10.15-5.64a79.69,79.69,0,0,1-11.05-4.65q-13.14-7-13.14-20.86,0-9.36,5.7-15.4t15.45-7.16V345.38h9v12.41q9.81,1.41,15.17,8.32t5.36,18H458.49q0-7.1-3.19-11.19a10.39,10.39,0,0,0-8.66-4.09q-5.41,0-8.46,2.93t-3,8.4a10.52,10.52,0,0,0,3,7.87q3,3,10.23,5.61a86.67,86.67,0,0,1,11.34,4.91,28.93,28.93,0,0,1,6.93,5.16,20.38,20.38,0,0,1,4.34,6.68,23.59,23.59,0,0,1,1.52,8.85q0,9.53-5.84,15.45t-16.27,7v11h-9V441.7q-11.17-1.24-17.17-8t-6-17.93H432q0,7.11,3.58,11t10.12,3.89q6.43,0,9.78-3.1a10.68,10.68,0,0,0,3.36-8.24Z"/><circle class="b" cx="283.46" cy="160.45" r="19.82"/><rect class="d" x="55" y="100.85" width="490" height="398.31"/><rect class="d" x="55" y="100.85" width="490" height="398.31"/></svg>