<svg xmlns="http://www.w3.org/2000/svg" viewBox="0 0 24 24"><defs><style>.a{fill:#bcbcbc;}</style></defs><title>0</title><path class="a" d="M16,11.75H8v-.5h8a.75.75,0,0,0,0-1.5H7a1.25,1.25,0,0,1,0-2.5H17a.75.75,0,0,0,0-1.5H5a1.25,1.25,0,0,1,0-2.5v.5a.75.75,0,0,0,0,1.5H17a1.25,1.25,0,0,1,0,2.5H7a.75.75,0,0,0,0,1.5h9a1.25,1.25,0,0,1,0,2.5Z"/><path class="a" d="M9,19.75v-.5a.75.75,0,0,0,0-1.5,1.25,1.25,0,0,1,0-2.5h3a.75.75,0,0,0,0-1.5H8a1.25,1.25,0,0,1,0-2.5v.5a.75.75,0,0,0,0,1.5h4a1.25,1.25,0,0,1,0,2.5H9a.75.75,0,0,0,0,1.5,1.25,1.25,0,0,1,0,2.5Z"/><path class="a" d="M20.25,4.5h-.5A.75.75,0,0,0,19,3.75H5v-.5H19A1.25,1.25,0,0,1,20.25,4.5Z"/><path class="a" d="M8.25,20.5h-.5A1.25,1.25,0,0,1,9,19.25v.5A.75.75,0,0,0,8.25,20.5Z"/></svg>