<svg xmlns="http://www.w3.org/2000/svg" viewBox="0 0 24 24"><defs><style>.a{fill:#bcbcbc;}.b{fill:#039be5;}</style></defs><title>8</title><path class="a" d="M6.23,15.52l-.76-.08h0A3.74,3.74,0,0,1,6.52,8,5.74,5.74,0,0,1,17.71,9.11a3.25,3.25,0,1,1,.79,6.39h-.25V15h.25a2.75,2.75,0,0,0,0-5.5,2.71,2.71,0,0,0-.93.17l-.33-.22A5.24,5.24,0,0,0,6.94,8.38l-.29.18A3.24,3.24,0,1,0,5.54,15h0l.72.06Z"/><circle class="b" cx="6.5" cy="17.25" r="0.5"/><circle class="b" cx="9.83" cy="17.25" r="0.5"/><circle class="b" cx="13.17" cy="17.25" r="0.5"/><circle class="b" cx="16.5" cy="17.25" r="0.5"/><circle class="b" cx="7.83" cy="19.25" r="0.5"/><circle class="b" cx="11.17" cy="19.25" r="0.5"/><circle class="b" cx="14.5" cy="19.25" r="0.5"/></svg>